<?xml version="1.0" encoding="UTF-8" standalone="no"?>
<!-- Created with Inkscape (http://www.inkscape.org/) -->

<svg
   xmlns:dc="http://purl.org/dc/elements/1.1/"
   xmlns:cc="http://creativecommons.org/ns#"
   xmlns:rdf="http://www.w3.org/1999/02/22-rdf-syntax-ns#"
   xmlns:svg="http://www.w3.org/2000/svg"
   xmlns="http://www.w3.org/2000/svg"
   xmlns:sodipodi="http://sodipodi.sourceforge.net/DTD/sodipodi-0.dtd"
   xmlns:inkscape="http://www.inkscape.org/namespaces/inkscape"
   id="svg2"
   version="1.1"
   inkscape:version="0.48.5 r10040"
   width="948.18408"
   height="696.26373"
   xml:space="preserve"
   sodipodi:docname="family.svg"><metadata
     id="metadata8"><rdf:RDF><cc:Work
         rdf:about=""><dc:format>image/svg+xml</dc:format><dc:type
           rdf:resource="http://purl.org/dc/dcmitype/StillImage" /><dc:title /></cc:Work></rdf:RDF></metadata><defs
     id="defs6"><clipPath
       clipPathUnits="userSpaceOnUse"
       id="clipPath18"><path
         d="m 0,869.743 846.084,0 L 846.084,0 0,0 0,869.743 z"
         id="path20"
         inkscape:connector-curvature="0" /></clipPath></defs><sodipodi:namedview
     pagecolor="#ffffff"
     bordercolor="#666666"
     borderopacity="1"
     objecttolerance="10"
     gridtolerance="10"
     guidetolerance="10"
     inkscape:pageopacity="0"
     inkscape:pageshadow="2"
     inkscape:window-width="640"
     inkscape:window-height="480"
     id="namedview4"
     showgrid="false"
     inkscape:zoom="0.2170756"
     inkscape:cx="474.09205"
     inkscape:cy="383.77926"
     inkscape:window-x="0"
     inkscape:window-y="31"
     inkscape:window-maximized="0"
     inkscape:current-layer="g10" /><g
     id="g10"
     inkscape:groupmode="layer"
     inkscape:label="pixel77-free-vector-family-silhouette"
     transform="matrix(1.25,0,0,-1.25,-54.710436,856.07388)"><g
       id="g14"><g
         id="g16"
         clip-path="url(#clipPath18)"><g
           id="g22"
           transform="translate(420.1577,569.3291)"><path
             d="M 0,0 C 31.903,0 57.767,25.863 57.767,57.765 57.767,89.667 31.903,115.53 0,115.53 -31.903,115.53 -57.766,89.667 -57.766,57.765 -57.766,25.863 -31.903,0 0,0"
             style="fill:#262626;fill-opacity:1;fill-rule:nonzero;stroke:none"
             id="path24"
             inkscape:connector-curvature="0" /></g><g
           id="g26"
           transform="translate(801.7368,205.6191)"><path
             d="m 0,0 -26.633,61.857 c -0.915,2.44 -2.779,4.231 -5.007,5.155 -1.231,0.629 -2.607,1.017 -4.086,1.017 l -37.974,0 c -2.955,0 -5.552,-1.437 -7.204,-3.629 l -37.194,-25.718 -24.886,49.65 c -2.579,8.43 -10.417,14.563 -19.691,14.563 l -31.601,0 c -3.289,0 -6.387,-0.791 -9.145,-2.161 l -42.908,27.032 c 1.736,4.534 1.908,9.686 0.068,14.588 l -71.372,190.211 c -2.013,5.374 -6.039,9.403 -10.897,11.569 -2.915,1.583 -6.258,2.482 -9.809,2.482 l -25.234,0 0,-0.843 -11.022,-18.768 18.167,-124.767 -25.151,-24.685 -25.151,24.685 18.169,124.766 -10.988,18.769 0,0.843 -25.27,0 c -4.112,0 -7.932,-1.218 -11.146,-3.294 -4.128,-2.29 -7.5,-5.991 -9.288,-10.757 l -61.735,-164.533 -62.582,122.912 c -2.295,8.869 -10.326,15.428 -19.911,15.428 l -69.799,0 c -8.693,0 -16.111,-5.395 -19.132,-13.011 l -77.336,-151.889 c -4.211,-8.271 -2.256,-17.716 4.37,-21.089 6.626,-3.375 15.413,0.596 19.627,8.873 l 56.17,110.319 3.501,-37.7 -40.225,-174.93 50.716,0 0,-87.996 c 0,-7.972 6.465,-14.437 14.441,-14.437 7.975,0 14.439,6.465 14.439,14.437 l 0,87.996 13.68,0 0,-87.996 c 0,-7.972 6.465,-14.437 14.44,-14.437 7.975,0 14.44,6.465 14.44,14.437 l 0,87.996 54.215,0 -43.252,176.306 4.732,37.937 56.994,-111.932 c 0.31,-0.611 0.653,-1.19 1.011,-1.754 2.074,-5.195 6.221,-9.541 11.872,-11.662 l 2.57,-0.961 c 10.647,-3.998 22.517,1.395 26.512,12.045 l 30.085,80.181 0,-262.001 c 0,-11.374 10.847,-20.592 24.226,-20.592 l 6.459,0 c 13.38,0 24.226,9.218 24.226,20.592 l 0,138.64 17.844,0 0,-138.64 c 0,-11.374 10.842,-20.592 24.222,-20.592 l 6.462,0 c 13.376,0 24.222,9.218 24.222,20.592 l 0,262.74 30.363,-80.92 c 3.359,-8.957 12.288,-14.168 21.374,-13.233 l 51.145,-32.224 0,-35.979 -0.237,0 -30.253,-103.623 44.948,0 0,-7.013 c 0,-5.711 4.629,-10.34 10.338,-10.34 5.71,0 10.34,4.629 10.34,10.34 l 0,7.013 8.238,0 0,-7.013 c 0,-5.711 4.628,-10.34 10.339,-10.34 5.711,0 10.34,4.629 10.34,10.34 l 0,7.013 36.63,0 -22.696,84.295 2.076,-4.142 c 0.622,-1.243 1.558,-2.231 2.673,-2.997 0.268,-0.435 0.552,-0.867 0.893,-1.273 l 0.774,-0.922 c 3.213,-3.824 8.528,-4.644 11.874,-1.834 l 35.846,24.789 0,-108.51 c 0,-4.996 4.764,-9.042 10.639,-9.042 l 2.835,0 c 5.875,0 10.64,4.046 10.64,9.042 l 0,38.473 7.836,0 0,-38.473 c 0,-4.996 4.761,-9.042 10.637,-9.042 l 2.837,0 c 5.874,0 10.636,4.046 10.636,9.042 l 0,81.983 8.625,-20.031 c 1.753,-4.674 6.966,-7.041 11.64,-5.287 l 1.129,0.423 C -0.612,-9.887 1.754,-4.676 0,0"
             style="fill:#262626;fill-opacity:1;fill-rule:nonzero;stroke:none"
             id="path28"
             inkscape:connector-curvature="0" /></g><g
           id="g30"
           transform="translate(176.1045,534.2036)"><path
             d="m 0,0 c 25.651,0 46.446,20.794 46.446,46.447 0,2.708 -0.244,5.356 -0.689,7.936 l 16.824,14.034 -19.691,7.231 0.129,0.108 c 2.648,2.208 3.005,6.144 0.795,8.794 -2.209,2.649 -6.146,3.004 -8.794,0.794 L 34.567,84.966 30.837,106.472 12.502,91.177 C 8.522,92.287 4.333,92.894 0,92.894 -25.653,92.894 -46.448,72.099 -46.448,46.447 -46.448,20.794 -25.653,0 0,0"
             style="fill:#262626;fill-opacity:1;fill-rule:nonzero;stroke:none"
             id="path32"
             inkscape:connector-curvature="0" /></g><g
           id="g34"
           transform="translate(623.2612,314.873)"><path
             d="m 0,0 c 15.853,0 28.703,12.85 28.703,28.703 0,1.409 -0.136,2.785 -0.333,4.141 l 0.452,-1.234 10.236,12.271 -11.753,2.038 0.208,0.247 c 1.205,1.447 1.012,3.6 -0.436,4.807 -1.447,1.208 -3.599,1.012 -4.805,-0.435 L 22.212,50.467 18.26,61.229 12.61,54.457 C 8.802,56.327 4.53,57.404 0,57.404 -15.853,57.404 -28.701,44.556 -28.701,28.703 -28.701,12.85 -15.853,0 0,0"
             style="fill:#262626;fill-opacity:1;fill-rule:nonzero;stroke:none"
             id="path36"
             inkscape:connector-curvature="0" /></g><g
           id="g38"
           transform="translate(746.3257,281.834)"><path
             d="m 0,0 c 15.866,0 28.728,12.861 28.728,28.727 0,2.041 -0.219,4.029 -0.624,5.949 l 15.431,0 c 1.733,0 3.138,1.406 3.138,3.137 0,1.734 -1.405,3.139 -3.138,3.139 l -17.567,0 C 21.371,50.696 11.487,57.455 0,57.455 -15.865,57.455 -28.728,44.594 -28.728,28.727 -28.728,12.861 -15.865,0 0,0"
             style="fill:#262626;fill-opacity:1;fill-rule:nonzero;stroke:none"
             id="path40"
             inkscape:connector-curvature="0" /></g></g></g></g></svg>