<?xml version="1.0" encoding="UTF-8" standalone="no"?>
<svg
   xmlns:dc="http://purl.org/dc/elements/1.1/"
   xmlns:cc="http://creativecommons.org/ns#"
   xmlns:rdf="http://www.w3.org/1999/02/22-rdf-syntax-ns#"
   xmlns:svg="http://www.w3.org/2000/svg"
   xmlns="http://www.w3.org/2000/svg"
   xmlns:sodipodi="http://sodipodi.sourceforge.net/DTD/sodipodi-0.dtd"
   xmlns:inkscape="http://www.inkscape.org/namespaces/inkscape"
   width="504"
   height="594"
   id="svg2"
   version="1.1"
   inkscape:version="0.48.5 r10040"
   sodipodi:docname="flow.svg">
  <metadata
     id="metadata16">
    <rdf:RDF>
      <cc:Work
         rdf:about="">
        <dc:format>image/svg+xml</dc:format>
        <dc:type
           rdf:resource="http://purl.org/dc/dcmitype/StillImage" />
      </cc:Work>
    </rdf:RDF>
  </metadata>
  <defs
     id="defs14" />
  <sodipodi:namedview
     pagecolor="#ffffff"
     bordercolor="#666666"
     borderopacity="1"
     objecttolerance="10"
     gridtolerance="10"
     guidetolerance="10"
     inkscape:pageopacity="0"
     inkscape:pageshadow="2"
     inkscape:window-width="1920"
     inkscape:window-height="1027"
     id="namedview12"
     showgrid="false"
     inkscape:zoom="0.3973064"
     inkscape:cx="262.0678"
     inkscape:cy="297"
     inkscape:window-x="0"
     inkscape:window-y="31"
     inkscape:window-maximized="1"
     inkscape:current-layer="svg2" />
  <g
     id="g2983">
    <path
       inkscape:connector-curvature="0"
       id="path6"
       d="m 344.00218,231 c 6.017,4.558 19.534,2.578 27,3.09 24.192,1.656 48.7444,4.894 73,4.91 l 0,-123 60,0 0,394 -60,0 0,-152 c -22.3304,0.959 -44.756,4.607 -67,6.831 -12.774,1.277 -26.511,1.196 -39,4.169 -3.707,-12.054 -28.045,-16.987 -39,-15.406 -27.246,3.931 -52.137,13.909 -80,11.236 -24.156,-2.317 -47.883,-9.144 -72,-12.115 -12.322,-1.518 -26.198,-4.192 -37,3.842 -16.440997,12.227 -15.999997,38.882 -15.999997,57.443 0,6.493 2.922,22.454 -3.279,26.558 -5.259,3.481 -13.638,3.933 -19.721,4.724 -25.786,3.351 -46.761,-4.652 -71.00000036,-11.282 0,-54.436 -1.17500004,-123.074 51.00000036,-154.55 18.745,-11.308 40.608,-19.589 61.999997,-24.24 15.367,-3.341 33.482,-3.236 42.521,-18.21 7.223,-11.966 10.144,-36.727 4.737,-49.91 -1.843,-4.493 -6.92,-6.876 -9.32,-11.09 -2.823,-4.958 -1.938,-11.52 -1.938,-17 -9.858,-0.54 -13.739,-17.854 -6.486,-24.397 4.352,-3.926 16.582,-1.915 22.486,-4.038 10.527,-3.787 24.98,-11.485 29.397,-22.655 2.962,-7.491 0.603,-19.882 0.603,-27.91 -5.853,-1.7166 -8.679,-7.6859 -14,-10.5826 -8.207,-4.4679 -18.969,-3.7857 -28,-3.378 -16.354,0.7382 -41.763,14.582 -56.998997,6.3919 -24.651,-13.2506 -15.767,-51.5168 8.998997,-57.5316 23.6,-5.73167 44.509,12.8714 68,8.6358 18.017,-3.2487 29.778,-25.90098 49,-23.347207 17.257,2.292667 26.76,22.383207 45,23.721407 25.716,1.8868 51.107,-19.83426 76,-4.696 17.358,10.5563 16.386,42.171 -1.001,52.7809 -7.969,4.8632 -17.56,1.4932 -25.999,-0.1944 -21.607,-4.3208 -58.402,-15.7137 -71.987,9.4853 -11.759,21.8115 13.39,41.0435 31.987,45.5835 6.134,1.497 18.888,-2.067 21.347,5.186 1.29,3.804 2.21,15.097 -0.95,18.087 -2.512,2.376 -7.376,1.146 -8.624,5.006 -1.312,4.058 1.101,8.62 -0.515,12.852 -1.756,4.598 -6.721,7.137 -7.94,12 -1.302,5.196 0.415,10.794 0.643,16 0.904,20.647 10.213,47.836 36.039,47.135 10.734,-0.291 17.406,-10.072 28,-12.135 z"
       style="fill:#010101;stroke:none" />
    <path
       inkscape:connector-curvature="0"
       id="path10"
       d="m 43.983183,491.997 c 5.884,0.665 5.264,6.777 6.266,11.003 2.009,8.474 7.598,15.507 9.87,24 2.948,11.022 11.443,18.979 13.868,30 4.974,22.613 -14.278,39.525 -35.985,36.815 -3.92,-0.49 -7.667,-2.216 -10.999,-4.283 -26.44600036,-16.409 -6.921,-48.88 -1.143,-70.532 1.76,-6.596 9.565,-27.97 18.123,-27.003 z"
       style="fill:#010101;stroke:none" />
  </g>
</svg>
