<?xml version="1.0" encoding="UTF-8" standalone="no"?>
<!-- Created with Inkscape (http://www.inkscape.org/) -->

<svg
   xmlns:dc="http://purl.org/dc/elements/1.1/"
   xmlns:cc="http://creativecommons.org/ns#"
   xmlns:rdf="http://www.w3.org/1999/02/22-rdf-syntax-ns#"
   xmlns:svg="http://www.w3.org/2000/svg"
   xmlns="http://www.w3.org/2000/svg"
   xmlns:sodipodi="http://sodipodi.sourceforge.net/DTD/sodipodi-0.dtd"
   xmlns:inkscape="http://www.inkscape.org/namespaces/inkscape"
   id="svg2"
   version="1.1"
   inkscape:version="0.48.5 r10040"
   width="723.88544"
   height="604.84674"
   xml:space="preserve"
   sodipodi:docname="gear.svg"><metadata
     id="metadata8"><rdf:RDF><cc:Work
         rdf:about=""><dc:format>image/svg+xml</dc:format><dc:type
           rdf:resource="http://purl.org/dc/dcmitype/StillImage" /><dc:title /></cc:Work></rdf:RDF></metadata><defs
     id="defs6"><clipPath
       clipPathUnits="userSpaceOnUse"
       id="clipPath16"><path
         d="m 0,595.276 841.89,0 L 841.89,0 0,0 0,595.276 z"
         id="path18"
         inkscape:connector-curvature="0" /></clipPath></defs><sodipodi:namedview
     pagecolor="#ffffff"
     bordercolor="#666666"
     borderopacity="1"
     objecttolerance="10"
     gridtolerance="10"
     guidetolerance="10"
     inkscape:pageopacity="0"
     inkscape:pageshadow="2"
     inkscape:window-width="1920"
     inkscape:window-height="1027"
     id="namedview4"
     showgrid="false"
     inkscape:zoom="0.31716382"
     inkscape:cx="221.5603"
     inkscape:cy="312.54843"
     inkscape:window-x="0"
     inkscape:window-y="31"
     inkscape:window-maximized="1"
     inkscape:current-layer="g10" /><g
     id="g10"
     inkscape:groupmode="layer"
     inkscape:label="3-black-gear-wheels-free-vector-icon"
     transform="matrix(1.25,0,0,-1.25,-336.15043,569.75751)"><g
       id="g2988"
       transform="matrix(-1,0,0,-1,1000.9207,508.45001)"><g
         id="g14"
         clip-path="url(#clipPath16)"><path
           d="m 325.415,391.71 c -21.71,-20.846 -56.211,-20.146 -77.059,1.565 -20.846,21.711 -20.146,56.212 1.565,77.059 21.711,20.847 56.212,20.146 77.059,-1.565 20.847,-21.71 20.146,-56.212 -1.565,-77.059 m 25.751,100.269 c -6.295,6.556 -6.271,16.838 -0.122,23.388 -5.857,4.397 -12.165,8.159 -18.798,11.257 -2.888,-8.502 -11.942,-13.359 -20.685,-10.894 -8.745,2.467 -13.93,11.341 -11.947,20.102 -0.501,0.056 -1.001,0.125 -1.504,0.174 -0.122,0.013 -0.244,0.023 -0.367,0.035 -6.661,0.635 -13.374,0.642 -20.042,0.012 1.83,-8.802 -3.522,-17.59 -12.319,-19.892 -8.79,-2.301 -17.754,2.728 -20.479,11.286 -0.465,-0.207 -0.935,-0.402 -1.396,-0.615 -0.104,-0.047 -0.206,-0.097 -0.309,-0.144 -2.374,-1.105 -4.705,-2.295 -6.989,-3.571 -0.032,-0.019 -0.065,-0.037 -0.099,-0.055 -1.047,-0.587 -2.08,-1.197 -3.107,-1.819 -0.194,-0.118 -0.39,-0.234 -0.583,-0.353 -0.854,-0.525 -1.696,-1.068 -2.535,-1.617 -0.389,-0.255 -0.779,-0.509 -1.165,-0.77 -0.295,-0.199 -0.585,-0.407 -0.878,-0.609 6.4,-6.778 6.156,-17.459 -0.582,-23.929 -6.743,-6.475 -17.439,-6.281 -23.95,0.406 -0.822,-1.092 -1.618,-2.198 -2.392,-3.315 -0.527,-0.763 -1.033,-1.54 -1.54,-2.317 -0.223,-0.34 -0.456,-0.676 -0.674,-1.018 -0.64,-1.004 -1.257,-2.022 -1.863,-3.047 -0.078,-0.132 -0.161,-0.262 -0.238,-0.394 -0.002,-0.003 -0.003,-0.005 -0.005,-0.007 -0.596,-1.021 -1.17,-2.055 -1.732,-3.095 -0.005,-0.008 -0.01,-0.016 -0.014,-0.025 -0.112,-0.208 -0.227,-0.415 -0.338,-0.624 -0.464,-0.873 -0.91,-1.758 -1.35,-2.644 -0.212,-0.429 -0.426,-0.857 -0.632,-1.29 -0.152,-0.316 -0.294,-0.637 -0.442,-0.954 8.951,-2.604 14.148,-11.94 11.614,-20.93 -2.534,-8.983 -11.83,-14.227 -20.818,-11.784 -0.819,-7.245 -0.903,-14.559 -0.221,-21.821 9.033,2.277 18.234,-3.14 20.598,-12.172 2.363,-9.03 -2.999,-18.258 -11.987,-20.703 1.329,-2.987 2.779,-5.917 4.376,-8.767 0.031,-0.054 0.059,-0.109 0.09,-0.163 0.589,-1.047 1.2,-2.08 1.824,-3.106 0.118,-0.192 0.233,-0.385 0.351,-0.576 0.539,-0.872 1.095,-1.734 1.658,-2.591 0.244,-0.369 0.487,-0.738 0.736,-1.105 0.223,-0.33 0.455,-0.652 0.681,-0.98 6.794,5.909 17.091,5.524 23.395,-1.043 6.291,-6.551 6.272,-16.825 0.134,-23.376 0.376,-0.281 0.762,-0.546 1.142,-0.821 0.677,-0.495 1.353,-0.991 2.04,-1.467 2.186,-1.509 4.428,-2.934 6.72,-4.274 0.05,-0.029 0.099,-0.059 0.149,-0.088 1.042,-0.607 2.096,-1.191 3.158,-1.762 0.193,-0.104 0.385,-0.209 0.58,-0.311 0.91,-0.483 1.83,-0.946 2.753,-1.401 0.394,-0.193 0.787,-0.387 1.183,-0.576 0.36,-0.172 0.726,-0.334 1.088,-0.502 2.869,8.534 11.943,13.416 20.704,10.946 8.733,-2.462 13.915,-11.315 11.955,-20.064 0.438,-0.049 0.875,-0.108 1.313,-0.151 0.233,-0.024 0.467,-0.043 0.7,-0.065 1.205,-0.111 2.411,-0.207 3.619,-0.277 0.011,-0.001 0.022,-0.001 0.034,-0.001 5.405,-0.309 10.832,-0.202 16.227,0.318 -1.856,8.816 3.5,17.628 12.311,19.934 8.777,2.298 17.729,-2.713 20.467,-11.25 0.399,0.178 0.802,0.347 1.198,0.53 0.221,0.102 0.441,0.207 0.661,0.311 1.087,0.51 2.169,1.034 3.238,1.582 0.018,0.009 0.037,0.019 0.056,0.029 4.075,2.09 8.002,4.459 11.776,7.06 -5.369,6.789 -4.805,16.672 1.566,22.789 6.373,6.12 16.276,6.28 22.841,0.634 4.409,5.875 8.183,12.201 11.286,18.855 -8.067,3.137 -12.584,11.945 -10.187,20.446 2.398,8.507 10.863,13.66 19.386,12.109 0.036,0.323 0.079,0.645 0.113,0.968 0.059,0.557 0.109,1.113 0.159,1.669 0.08,0.908 0.156,1.816 0.212,2.725 0.021,0.328 0.036,0.654 0.054,0.979 10e-4,0.028 0.002,0.056 0.003,0.083 0.057,1.073 0.105,2.146 0.128,3.219 0.003,0.116 0.003,0.232 0.005,0.347 0.005,0.24 0.001,0.48 0.003,0.72 0.012,1.023 0.021,2.044 0.005,3.066 -0.049,2.724 -0.201,5.46 -0.466,8.204 -8.558,-1.402 -16.935,3.912 -19.176,12.469 -2.238,8.551 2.453,17.28 10.587,20.258 -0.133,0.3 -0.26,0.602 -0.396,0.901 -0.228,0.503 -0.464,1.002 -0.699,1.5 -0.393,0.83 -0.791,1.658 -1.206,2.478 -0.147,0.291 -0.299,0.579 -0.448,0.869 -0.507,0.978 -1.023,1.952 -1.56,2.914 -0.074,0.136 -0.153,0.269 -0.229,0.404 -0.607,1.078 -1.23,2.147 -1.875,3.204 -0.026,0.041 -0.052,0.083 -0.077,0.124 -0.685,1.119 -1.391,2.226 -2.118,3.32 -0.015,0.022 -0.03,0.044 -0.046,0.067 -0.304,0.458 -0.627,0.903 -0.938,1.356 -6.795,-5.87 -17.063,-5.474 -23.354,1.078"
           style="fill:#000000;fill-opacity:1;fill-rule:nonzero;stroke:none"
           id="path22"
           inkscape:connector-curvature="0" /><path
           d="m 343.158,144.653 c -26.484,-27.78 -70.478,-28.834 -98.26,-2.348 -27.782,26.485 -28.832,70.479 -2.348,98.26 26.486,27.783 70.478,28.833 98.26,2.348 27.782,-26.485 28.834,-70.476 2.348,-98.26 m 57.915,136.839 c -6.478,-6.795 -17.24,-7.053 -24.035,-0.574 -6.795,6.478 -7.053,17.239 -0.574,24.035 0.107,0.112 0.223,0.208 0.333,0.317 -1.989,1.482 -4.013,2.919 -6.08,4.298 -0.029,0.02 -0.058,0.039 -0.088,0.058 -0.642,0.429 -1.289,0.847 -1.939,1.265 -0.311,0.199 -0.624,0.398 -0.936,0.595 -0.368,0.232 -0.737,0.461 -1.106,0.689 -0.606,0.374 -1.214,0.746 -1.826,1.109 -0.08,0.048 -0.159,0.095 -0.239,0.142 -2.068,1.226 -4.169,2.392 -6.294,3.51 -0.05,-0.147 -0.087,-0.294 -0.142,-0.439 -3.337,-8.776 -13.156,-13.184 -21.932,-9.848 -8.776,3.337 -13.184,13.157 -9.848,21.932 0.055,0.145 0.125,0.278 0.184,0.42 -3.254,0.807 -6.538,1.501 -9.848,2.075 -0.196,0.033 -0.391,0.067 -0.587,0.1 -0.578,0.098 -1.158,0.188 -1.738,0.279 -0.528,0.082 -1.056,0.163 -1.584,0.238 -0.25,0.036 -0.501,0.07 -0.751,0.105 -2.353,0.322 -4.712,0.581 -7.075,0.784 0.011,-0.155 0.034,-0.305 0.04,-0.461 0.325,-9.384 -7.015,-17.255 -16.399,-17.581 -9.383,-0.327 -17.254,7.015 -17.581,16.398 -0.006,0.157 0.008,0.308 0.007,0.464 -0.454,-0.071 -0.908,-0.139 -1.361,-0.214 -0.102,-0.017 -0.205,-0.034 -0.308,-0.052 -0.892,-0.15 -1.784,-0.308 -2.674,-0.476 -0.012,-0.002 -0.023,-0.005 -0.034,-0.006 -0.841,-0.16 -1.679,-0.328 -2.516,-0.502 -0.213,-0.046 -0.426,-0.089 -0.639,-0.135 -0.575,-0.122 -1.149,-0.251 -1.724,-0.381 -0.546,-0.124 -1.093,-0.25 -1.638,-0.381 -0.238,-0.056 -0.476,-0.115 -0.714,-0.173 -3.26,-0.802 -6.487,-1.722 -9.676,-2.752 0.07,-0.14 0.15,-0.269 0.216,-0.411 3.939,-8.523 0.223,-18.624 -8.3,-22.564 -8.521,-3.938 -18.624,-0.222 -22.563,8.299 -0.066,0.143 -0.113,0.287 -0.174,0.43 -0.392,-0.242 -0.787,-0.48 -1.178,-0.729 l -0.252,-0.158 c -0.769,-0.488 -1.534,-0.983 -2.294,-1.486 -0.004,-0.002 -0.007,-0.004 -0.011,-0.008 -0.72,-0.476 -1.435,-0.961 -2.147,-1.451 -0.17,-0.118 -0.34,-0.235 -0.508,-0.354 -0.493,-0.341 -0.982,-0.691 -1.471,-1.04 -0.444,-0.318 -0.888,-0.637 -1.328,-0.962 -0.21,-0.152 -0.418,-0.307 -0.627,-0.462 -0.656,-0.487 -1.308,-0.978 -1.954,-1.477 -0.04,-0.03 -0.08,-0.061 -0.119,-0.091 -0.687,-0.531 -1.369,-1.069 -2.045,-1.612 l -0.339,-0.273 c -0.341,-0.275 -0.676,-0.555 -1.013,-0.833 6.767,-6.482 7.017,-17.22 0.547,-24.006 -6.468,-6.787 -17.207,-7.051 -24.004,-0.601 -0.337,-0.452 -0.677,-0.901 -1.008,-1.357 l -0.028,-0.038 c -1.63,-2.244 -3.193,-4.537 -4.691,-6.875 -0.114,-0.18 -0.229,-0.361 -0.343,-0.541 -0.317,-0.501 -0.63,-1.005 -0.941,-1.51 -0.289,-0.471 -0.578,-0.943 -0.862,-1.417 -0.13,-0.218 -0.26,-0.438 -0.39,-0.657 -0.413,-0.701 -0.823,-1.403 -1.224,-2.111 -0.03,-0.052 -0.059,-0.105 -0.09,-0.158 -0.422,-0.747 -0.838,-1.499 -1.246,-2.254 -0.073,-0.135 -0.146,-0.269 -0.218,-0.405 -0.205,-0.381 -0.404,-0.766 -0.605,-1.15 8.751,-3.349 13.144,-13.152 9.812,-21.916 -3.332,-8.763 -13.128,-13.171 -21.894,-9.861 -0.135,-0.543 -0.272,-1.085 -0.4,-1.63 -0.005,-0.021 -0.011,-0.043 -0.016,-0.064 -0.404,-1.726 -0.773,-3.461 -1.113,-5.202 -0.051,-0.263 -0.102,-0.525 -0.151,-0.788 -0.098,-0.516 -0.19,-1.035 -0.282,-1.552 -0.103,-0.589 -0.206,-1.178 -0.302,-1.768 -0.032,-0.191 -0.062,-0.384 -0.093,-0.576 -0.523,-3.309 -0.924,-6.632 -1.21,-9.962 9.362,0.302 17.21,-7.029 17.536,-16.397 0.327,-9.37 -6.993,-17.229 -16.355,-17.579 0.369,-2.363 0.794,-4.718 1.285,-7.062 0.024,-0.112 0.047,-0.224 0.071,-0.336 0.143,-0.674 0.294,-1.347 0.446,-2.019 0.103,-0.447 0.206,-0.893 0.313,-1.338 0.079,-0.337 0.162,-0.673 0.245,-1.009 0.19,-0.773 0.384,-1.544 0.588,-2.314 0.002,-0.009 0.006,-0.02 0.008,-0.03 0.637,-2.398 1.343,-4.775 2.104,-7.133 8.514,3.909 18.59,0.194 22.524,-8.315 3.932,-8.509 0.233,-18.593 -8.262,-22.545 1.256,-2.032 2.56,-4.036 3.919,-6.006 l 0.204,-0.293 c 0.391,-0.562 0.789,-1.121 1.188,-1.679 0.269,-0.374 0.539,-0.748 0.811,-1.119 0.203,-0.278 0.408,-0.554 0.613,-0.83 0.416,-0.558 0.837,-1.116 1.262,-1.668 0.128,-0.167 0.255,-0.333 0.384,-0.498 0.443,-0.57 0.89,-1.136 1.34,-1.699 0.185,-0.232 0.372,-0.462 0.559,-0.692 0.23,-0.284 0.464,-0.565 0.696,-0.847 6.543,5.743 16.502,5.645 22.924,-0.477 6.422,-6.123 6.996,-16.063 1.573,-22.874 0.444,-0.331 0.886,-0.664 1.333,-0.989 0.077,-0.057 0.153,-0.112 0.23,-0.168 0.749,-0.543 1.502,-1.08 2.261,-1.608 l 0.001,0 c 1.531,-1.066 3.084,-2.1 4.658,-3.104 0.099,-0.063 0.197,-0.126 0.296,-0.189 0.581,-0.369 1.166,-0.731 1.752,-1.09 0.391,-0.239 0.781,-0.478 1.172,-0.712 0.299,-0.18 0.597,-0.357 0.896,-0.532 0.605,-0.357 1.211,-0.709 1.82,-1.055 0.173,-0.099 0.347,-0.197 0.521,-0.295 0.635,-0.357 1.275,-0.711 1.916,-1.059 0.254,-0.137 0.509,-0.275 0.764,-0.411 0.325,-0.174 0.653,-0.344 0.98,-0.515 3.806,7.83 13.023,11.601 21.316,8.447 8.293,-3.152 12.677,-12.095 10.319,-20.474 0.534,-0.133 1.067,-0.267 1.603,-0.393 0.097,-0.023 0.194,-0.046 0.291,-0.07 0.895,-0.209 1.793,-0.41 2.692,-0.601 0.007,-0.002 0.014,-0.003 0.02,-0.005 0.787,-0.167 1.577,-0.324 2.367,-0.479 0.273,-0.051 0.546,-0.106 0.819,-0.157 0.496,-0.093 0.994,-0.181 1.491,-0.269 0.596,-0.106 1.194,-0.211 1.791,-0.308 0.175,-0.029 0.348,-0.056 0.522,-0.083 3.353,-0.533 6.721,-0.939 10.097,-1.227 0.475,8.69 7.507,15.736 16.372,16.045 8.867,0.308 16.373,-6.233 17.449,-14.871 0.515,0.08 1.029,0.157 1.543,0.243 0.032,0.005 0.065,0.01 0.098,0.016 1.772,0.298 3.538,0.632 5.3,0.998 0.226,0.048 0.453,0.095 0.679,0.145 0.56,0.118 1.118,0.243 1.676,0.369 0.557,0.127 1.115,0.255 1.67,0.389 0.226,0.052 0.45,0.108 0.674,0.163 3.286,0.806 6.537,1.735 9.75,2.774 -2.931,8.195 0.818,17.418 8.871,21.139 8.053,3.721 17.509,0.602 21.85,-6.942 0.444,0.274 0.889,0.544 1.329,0.824 0.027,0.016 0.053,0.033 0.08,0.049 1.52,0.963 3.021,1.957 4.506,2.98 0.186,0.129 0.375,0.259 0.561,0.389 0.472,0.329 0.941,0.663 1.41,0.997 0.462,0.332 0.924,0.663 1.382,1 0.188,0.138 0.376,0.277 0.563,0.417 1.442,1.071 2.864,2.167 4.263,3.292 0.029,0.024 0.058,0.047 0.087,0.071 0.403,0.323 0.8,0.655 1.199,0.985 -6.075,6.532 -6.099,16.739 0.138,23.282 6.236,6.542 16.432,7.004 23.247,1.251 2.009,2.692 3.927,5.455 5.743,8.289 0.125,0.197 0.25,0.393 0.374,0.589 0.305,0.484 0.606,0.968 0.906,1.454 0.299,0.489 0.599,0.978 0.893,1.471 0.117,0.195 0.235,0.393 0.352,0.59 0.917,1.553 1.806,3.122 2.663,4.707 0.011,0.022 0.023,0.044 0.035,0.065 0.249,0.462 0.489,0.928 0.733,1.393 -8.132,3.666 -12.112,13.065 -8.9,21.515 3.212,8.449 12.43,12.827 20.944,10.167 0.808,3.259 1.505,6.549 2.078,9.865 0.036,0.203 0.072,0.406 0.105,0.61 0.098,0.574 0.187,1.149 0.277,1.724 0.081,0.527 0.163,1.055 0.238,1.582 0.037,0.253 0.071,0.506 0.105,0.76 0.239,1.74 0.447,3.484 0.621,5.231 0.008,0.072 0.014,0.145 0.021,0.218 0.053,0.55 0.098,1.1 0.145,1.651 -8.918,0.226 -16.233,7.346 -16.547,16.38 -0.314,9.036 6.489,16.648 15.37,17.493 -0.057,0.364 -0.112,0.726 -0.17,1.088 -0.047,0.288 -0.096,0.575 -0.145,0.863 -0.123,0.717 -0.25,1.433 -0.383,2.149 -0.037,0.198 -0.075,0.396 -0.113,0.595 -0.131,0.693 -0.272,1.386 -0.414,2.078 -0.069,0.325 -0.135,0.649 -0.205,0.974 -0.1,0.463 -0.202,0.925 -0.307,1.388 -0.148,0.656 -0.299,1.314 -0.458,1.968 -0.03,0.126 -0.06,0.252 -0.091,0.379 -0.441,1.803 -0.917,3.596 -1.427,5.379 -0.004,0.01 -0.006,0.021 -0.01,0.032 -0.252,0.877 -0.513,1.75 -0.782,2.622 -0.032,0.103 -0.064,0.207 -0.097,0.311 -0.156,0.506 -0.322,1.01 -0.484,1.514 -8.31,-3.249 -17.812,0.479 -21.606,8.685 -3.793,8.207 -0.473,17.861 7.387,22.083 -0.183,0.297 -0.366,0.594 -0.552,0.889 -0.172,0.277 -0.346,0.552 -0.521,0.827 -0.373,0.585 -0.75,1.168 -1.132,1.748 -0.13,0.197 -0.261,0.395 -0.392,0.593 -0.377,0.566 -0.759,1.128 -1.143,1.689 -0.201,0.29 -0.4,0.579 -0.602,0.868 -0.259,0.371 -0.522,0.74 -0.785,1.109 -0.403,0.564 -0.806,1.125 -1.217,1.681 l -0.203,0.275 c -1.425,1.924 -2.903,3.806 -4.423,5.651 -0.103,-0.114 -0.194,-0.237 -0.301,-0.349"
           style="fill:#000000;fill-opacity:1;fill-rule:nonzero;stroke:none"
           id="path24"
           inkscape:connector-curvature="0" /><path
           d="m 635.775,278.621 c -41.851,-43.901 -111.617,-45.568 -155.519,-3.716 -43.901,41.853 -45.568,111.617 -3.716,155.519 41.853,43.902 111.618,45.569 155.519,3.717 43.902,-41.853 45.569,-111.618 3.716,-155.52 m 28.713,189.53 c -6.796,6.479 -7.052,17.24 -0.574,24.035 0.24,0.252 0.497,0.478 0.749,0.711 -0.362,0.285 -0.722,0.572 -1.087,0.853 -0.21,0.162 -0.421,0.323 -0.631,0.484 -4.796,3.663 -9.774,7.079 -14.918,10.232 -0.078,0.048 -0.156,0.097 -0.236,0.145 -0.43,0.262 -0.865,0.516 -1.298,0.775 -0.128,-0.318 -0.245,-0.638 -0.394,-0.951 -4.025,-8.483 -14.163,-12.098 -22.646,-8.074 -8.482,4.025 -12.097,14.164 -8.072,22.647 0.149,0.315 0.322,0.61 0.49,0.909 -0.428,0.154 -0.852,0.312 -1.28,0.462 -0.263,0.094 -0.527,0.184 -0.789,0.276 -5.698,1.975 -11.491,3.659 -17.36,5.042 -0.086,0.02 -0.171,0.04 -0.256,0.06 -0.494,0.115 -0.989,0.221 -1.483,0.332 -0.021,-0.343 -0.034,-0.683 -0.077,-1.028 -1.165,-9.316 -9.662,-15.924 -18.978,-14.758 -9.316,1.166 -15.923,9.662 -14.757,18.978 0.042,0.344 0.113,0.675 0.177,1.011 -7.351,0.203 -14.711,-0.053 -22.033,-0.766 0.088,-0.33 0.182,-0.656 0.248,-0.995 1.812,-9.213 -4.189,-18.149 -13.401,-19.96 -9.213,-1.81 -18.149,4.19 -19.959,13.403 -0.068,0.339 -0.103,0.676 -0.148,1.015 -7.046,-2.11 -13.954,-4.657 -20.683,-7.627 0.184,-0.287 0.377,-0.566 0.546,-0.867 4.605,-8.182 1.706,-18.549 -6.477,-23.153 -8.182,-4.605 -18.548,-1.704 -23.152,6.478 -0.17,0.302 -0.31,0.611 -0.458,0.918 -4.997,-3.488 -9.811,-7.233 -14.422,-11.218 5.541,-6.546 5.37,-16.35 -0.682,-22.698 -6.051,-6.348 -15.838,-6.987 -22.639,-1.763 -0.378,-0.482 -0.761,-0.96 -1.134,-1.446 -0.004,-0.005 -0.007,-0.01 -0.01,-0.014 -4.122,-5.373 -7.922,-10.983 -11.4,-16.791 7.313,-4.481 10.22,-13.846 6.462,-21.769 -3.76,-7.924 -12.854,-11.596 -20.95,-8.766 -0.205,-0.568 -0.417,-1.134 -0.616,-1.706 -0.007,-0.018 -0.013,-0.037 -0.02,-0.056 -2.227,-6.387 -4.079,-12.899 -5.561,-19.498 8.348,-1.966 14.042,-9.949 12.954,-18.651 -1.09,-8.703 -8.576,-15.038 -17.152,-14.884 -0.014,-0.506 -0.034,-1.012 -0.044,-1.518 -0.002,-0.106 -0.004,-0.212 -0.006,-0.318 -0.106,-6.044 0.1,-12.091 0.612,-18.115 0.021,-0.235 0.041,-0.471 0.063,-0.707 0.044,-0.492 0.096,-0.984 0.144,-1.475 8.545,0.75 16.455,-5.048 18.148,-13.656 1.689,-8.605 -3.436,-16.966 -11.628,-19.506 0.144,-0.482 0.282,-0.965 0.431,-1.445 0.032,-0.109 0.067,-0.217 0.1,-0.326 1.792,-5.77 3.881,-11.449 6.254,-17.008 0.091,-0.212 0.182,-0.425 0.274,-0.636 0.197,-0.456 0.401,-0.91 0.602,-1.365 7.881,3.389 17.209,0.36 21.511,-7.284 4.3,-7.643 2.051,-17.19 -4.933,-22.168 0.288,-0.414 0.573,-0.832 0.866,-1.244 0.061,-0.088 0.124,-0.175 0.186,-0.263 3.173,-4.448 6.557,-8.742 10.126,-12.878 0.004,0.006 0.008,0.01 0.013,0.015 6.478,6.795 17.238,7.053 24.034,0.574 6.796,-6.478 7.053,-17.239 0.575,-24.035 -0.005,-0.005 -0.01,-0.009 -0.014,-0.013 5.766,-4.513 11.805,-8.666 18.084,-12.43 0.002,0.007 0.005,0.011 0.008,0.017 4.024,8.483 14.162,12.097 22.646,8.073 8.482,-4.025 12.096,-14.163 8.072,-22.647 -0.003,-0.005 -0.006,-0.01 -0.009,-0.016 6.889,-2.481 13.926,-4.533 21.068,-6.141 0,0.006 0,0.012 0.001,0.018 1.165,9.316 9.663,15.924 18.979,14.758 9.315,-1.165 15.923,-9.662 14.759,-18.978 -0.002,-0.009 -0.004,-0.016 -0.004,-0.025 0.532,-0.013 1.064,-0.036 1.597,-0.046 0.014,0 0.029,0 0.043,-0.001 6.112,-0.11 12.227,0.1 18.319,0.623 0.169,0.014 0.338,0.028 0.506,0.043 0.49,0.044 0.979,0.096 1.468,0.144 -0.002,0.009 -0.003,0.017 -0.005,0.026 -1.812,9.212 4.189,18.149 13.402,19.958 9.211,1.812 18.148,-4.188 19.959,-13.401 0.002,-0.009 0.002,-0.016 0.003,-0.023 6.378,1.911 12.644,4.173 18.766,6.792 0.163,0.069 0.325,0.138 0.486,0.209 0.448,0.193 0.893,0.394 1.341,0.591 -0.006,0.008 -0.01,0.015 -0.014,0.023 -4.606,8.181 -1.705,18.548 6.477,23.151 8.181,4.606 18.548,1.705 23.152,-6.476 0.004,-0.008 0.008,-0.015 0.012,-0.022 4.953,3.46 9.726,7.172 14.299,11.12 -6.713,6.487 -6.946,17.184 -0.495,23.951 6.452,6.768 17.149,7.045 23.949,0.649 4.518,5.768 8.671,11.812 12.438,18.095 -8.407,4.057 -11.979,14.143 -7.971,22.59 4.008,8.448 14.079,12.062 22.541,8.116 0.196,0.543 0.397,1.083 0.586,1.627 0.004,0.009 0.008,0.018 0.011,0.027 2.222,6.363 4.067,12.852 5.549,19.426 -9.255,1.219 -15.806,9.68 -14.646,18.958 1.161,9.277 9.592,15.863 18.862,14.767 0.201,7.321 -0.055,14.651 -0.763,21.943 -9.17,-1.739 -18.04,4.244 -19.843,13.419 -1.803,9.173 4.142,18.068 13.288,19.93 -2.102,7.016 -4.639,13.897 -7.596,20.601 -8.165,-4.522 -18.463,-1.619 -23.047,6.53 -4.584,8.147 -1.726,18.456 6.379,23.089 -3.128,4.477 -6.456,8.813 -9.983,12.982 l -0.187,0.221 c -0.326,0.383 -0.659,0.758 -0.987,1.138 -0.22,-0.262 -0.433,-0.528 -0.673,-0.78 -6.478,-6.796 -17.239,-7.053 -24.034,-0.575 M 606.462,306.566 c -26.485,-27.781 -70.477,-28.834 -98.26,-2.347 -27.78,26.484 -28.833,70.477 -2.348,98.26 26.485,27.782 70.479,28.832 98.259,2.348 27.783,-26.487 28.834,-70.478 2.349,-98.261 M 483.777,423.524 c -38.047,-39.91 -36.531,-103.335 3.379,-141.381 39.911,-38.047 103.334,-36.532 141.381,3.378 38.048,39.911 36.533,103.334 -3.379,141.381 -39.909,38.048 -103.333,36.532 -141.381,-3.378"
           style="fill:#000000;fill-opacity:1;fill-rule:nonzero;stroke:none"
           id="path26"
           inkscape:connector-curvature="0" /></g></g></g></svg>