<?xml version="1.0" encoding="UTF-8" standalone="no"?>
<svg
   xmlns:dc="http://purl.org/dc/elements/1.1/"
   xmlns:cc="http://creativecommons.org/ns#"
   xmlns:rdf="http://www.w3.org/1999/02/22-rdf-syntax-ns#"
   xmlns:svg="http://www.w3.org/2000/svg"
   xmlns="http://www.w3.org/2000/svg"
   xmlns:sodipodi="http://sodipodi.sourceforge.net/DTD/sodipodi-0.dtd"
   xmlns:inkscape="http://www.inkscape.org/namespaces/inkscape"
   width="334"
   height="156"
   id="svg2"
   version="1.1"
   inkscape:version="0.48.5 r10040"
   sodipodi:docname="pyramid-illustration-700x260.svg">
  <metadata
     id="metadata16">
    <rdf:RDF>
      <cc:Work
         rdf:about="">
        <dc:format>image/svg+xml</dc:format>
        <dc:type
           rdf:resource="http://purl.org/dc/dcmitype/StillImage" />
      </cc:Work>
    </rdf:RDF>
  </metadata>
  <defs
     id="defs14" />
  <sodipodi:namedview
     pagecolor="#ffffff"
     bordercolor="#666666"
     borderopacity="1"
     objecttolerance="10"
     gridtolerance="10"
     guidetolerance="10"
     inkscape:pageopacity="0"
     inkscape:pageshadow="2"
     inkscape:window-width="640"
     inkscape:window-height="480"
     id="namedview12"
     showgrid="false"
     inkscape:zoom="0.41285714"
     inkscape:cx="167"
     inkscape:cy="78.999999"
     inkscape:window-x="0"
     inkscape:window-y="31"
     inkscape:window-maximized="0"
     inkscape:current-layer="svg2" />
  <path
     style="fill:#e7af6b;stroke:none"
     d="M 159,0 C 143.361,20.0844 128.787,45.894 110,63 L 141.981,104.019 160,126 160,38 c 0,-10.8096 3.269,-28.0542 -1,-38 z"
     id="path6"
     inkscape:connector-curvature="0" />
  <path
     style="fill:#c3a167;stroke:none"
     d="m 160,0 0,41 0,85 C 141.664,108.811 126.18,83.792 111.17,63.576 105.25,55.602 99.005,42.5729 90,38 l 0,38 0,80 244,0 C 325.031,134.987 303.833,116.446 290.425,98 284.706,90.131 277.615,76.613 269,72 l 0,67 C 255.526,128.674 244.431,108.852 234.498,95.039 L 181.261,26 160,0 z"
     id="path8"
     inkscape:connector-curvature="0" />
  <path
     style="fill:#e7af6b;stroke:none"
     d="M 89,38 29.66,115.715 0,156 90,156 90,75 89,38 m 179,33 -27,35 28,33 0,-48 2,-19 -3,-1 m 11.333,12.667 0.334,0.666 -0.334,-0.666 M 327,146 l 2,3 -2,-3 z"
     id="path10"
     inkscape:connector-curvature="0" />
</svg>
