<?xml version="1.0" encoding="UTF-8" standalone="no"?>
<svg
   xmlns:dc="http://purl.org/dc/elements/1.1/"
   xmlns:cc="http://creativecommons.org/ns#"
   xmlns:rdf="http://www.w3.org/1999/02/22-rdf-syntax-ns#"
   xmlns:svg="http://www.w3.org/2000/svg"
   xmlns="http://www.w3.org/2000/svg"
   xmlns:sodipodi="http://sodipodi.sourceforge.net/DTD/sodipodi-0.dtd"
   xmlns:inkscape="http://www.inkscape.org/namespaces/inkscape"
   width="304.57797"
   height="480.74423"
   id="svg2"
   version="1.1"
   inkscape:version="0.48.5 r10040"
   sodipodi:docname="walk.svg">
  <metadata
     id="metadata12">
    <rdf:RDF>
      <cc:Work
         rdf:about="">
        <dc:format>image/svg+xml</dc:format>
        <dc:type
           rdf:resource="http://purl.org/dc/dcmitype/StillImage" />
      </cc:Work>
    </rdf:RDF>
  </metadata>
  <defs
     id="defs10" />
  <sodipodi:namedview
     pagecolor="#ffffff"
     bordercolor="#666666"
     borderopacity="1"
     objecttolerance="10"
     gridtolerance="10"
     guidetolerance="10"
     inkscape:pageopacity="0"
     inkscape:pageshadow="2"
     inkscape:window-width="640"
     inkscape:window-height="480"
     id="namedview8"
     showgrid="false"
     inkscape:zoom="0.43462247"
     inkscape:cx="140.97456"
     inkscape:cy="243.9864"
     inkscape:window-x="0"
     inkscape:window-y="31"
     inkscape:window-maximized="0"
     inkscape:current-layer="svg2" />
  <path
     style="fill:#232021;stroke:none"
     d="m 168.60341,0.72235795 c 47.232,8.51590005 34.912,83.43850005 -12,75.07050005 -48.734,-8.692 -37.086,-83.9207 12,-75.07050005 m 102.995,61.27860005 c 10.779,4.1369 11.837,29.4129 14.236,39.256902 l 14.6533,61 c 1.8931,7.222 6.7076,17.947 2.2577,24.956 -4.1445,6.528 -17.093,7.451 -24.142,9.055 -6.417,1.46 -14.382,4.912 -20.957,2.247 -9.554,-3.874 -10.908,-29.255 -13.17,-38.258 l -15.246,-63.000002 c -1.661,-6.641 -6.268,-17.578 -1.885,-23.891 4.278,-6.16 16.486,-6.749 23.258,-8.3436 l 20.995,-3.0223 m -76.995,212.256902 -5.872,22 -16.498,70 -15.979,69 c -2.452,10.686 -3.294,24.731 -9.504,33.999 -15.732,23.476 -49.202002,7.704 -48.108002,-17.999 l 12.461002,-55 31.079,-130 c 7.274,-28.261 19.463,-59.449 11.421,-88 -2.959,7.843 -2.548,18.358 -9.329,24.211 l -20.671,7.662 c -16.31,4.149 -36.170002,12.342 -53.000002,12.108 -7.812,-0.108 -14.799,-4.225 -17.197,-11.981 -8.062,-26.073 33.767,-28.766 50.197002,-32.873 l 14.487,-4.691 c 6.321,-6.071 8.011,-24.996 9.593,-33.436 2.757,-14.705 5.671,-33.457 15.844,-44.910002 18.442,-20.763 51.596,-14.858 63.817,8.910002 12.637,24.578 14.185,56.434 21.182,83 l 45.926,191 13.165,56 c 3.211,12.086 7.159,26.094 -1.408,36.996 -12.016,15.292 -38.566,12.91 -45.791,-5.996 -10.846,-28.379 -15.082,-61.41 -22.05,-91 l -23.765,-99 M 11.559408,121.00386 c 6.163,2.421 6.466,11.707 7.468,17.254 l 9.746,53 39.416,214 11.41,61 c 1.367,6.818 -0.85,15.951 -9.991,13.562 -7.719,-2.018 -7.419,-13.216 -8.616,-19.562 l -11.139,-60 -39.639,-215 -10.16699722,-55 c -0.623,-6.363 4.98400002,-11.819 11.51199722,-9.254 z"
     id="path6"
     inkscape:connector-curvature="0" />
</svg>
