<?xml version="1.0" encoding="UTF-8" standalone="no"?>
<svg
   xmlns:dc="http://purl.org/dc/elements/1.1/"
   xmlns:cc="http://creativecommons.org/ns#"
   xmlns:rdf="http://www.w3.org/1999/02/22-rdf-syntax-ns#"
   xmlns:svg="http://www.w3.org/2000/svg"
   xmlns="http://www.w3.org/2000/svg"
   xmlns:sodipodi="http://sodipodi.sourceforge.net/DTD/sodipodi-0.dtd"
   xmlns:inkscape="http://www.inkscape.org/namespaces/inkscape"
   width="212"
   height="200.77693"
   id="svg2"
   version="1.1"
   inkscape:version="0.48.4 r9939"
   sodipodi:docname="2710276258_0c5ba48fb2_o_256x300.svg">
  <metadata
     id="metadata26">
    <rdf:RDF>
      <cc:Work
         rdf:about="">
        <dc:format>image/svg+xml</dc:format>
        <dc:type
           rdf:resource="http://purl.org/dc/dcmitype/StillImage" />
      </cc:Work>
    </rdf:RDF>
  </metadata>
  <defs
     id="defs24" />
  <sodipodi:namedview
     pagecolor="#ffffff"
     bordercolor="#666666"
     borderopacity="1"
     objecttolerance="10"
     gridtolerance="10"
     guidetolerance="10"
     inkscape:pageopacity="0"
     inkscape:pageshadow="2"
     inkscape:window-width="640"
     inkscape:window-height="480"
     id="namedview22"
     showgrid="false"
     inkscape:zoom="0.78666667"
     inkscape:cx="85"
     inkscape:cy="149"
     inkscape:window-x="49"
     inkscape:window-y="24"
     inkscape:window-maximized="0"
     inkscape:current-layer="svg2" />
  <path
     style="fill:#6d7279;stroke:none"
     d="m 93,1.7769308 c 9.161,3.844 19.625,-1.96590001 29,-0.3781 8.164,1.3831 13.189,9.3471002 21,11.3781002 C 130.987,-4.7326692 110.703,0.37983079 93,1.7769308 M 80,147.77693 c -15.493,11.592 -38.2224,10.732 -55,19.864 -5.6609,3.081 -12.092,5.05 -15,11.136 20.6673,-14.061 44.857,-18.374 68,-27 -7.198,12.147 -20.018,17.676 -28,29 7.999,-5.291 16.286,-12.113 22.957,-19.015 2.507,-2.594 4.892,-8.513 8.256,-9.872 7.476,-3.019 13.018,10.758 13.787,15.887 2.011,-4.848 -0.679,-8.746 -3,-13 6.599,0 11.812,-0.617 18,-3 -4.987,-0.893 -9.753,2.673 -15,1.182 -21.997,-6.249 -27.064,-33.303 -30,-53.181999 l 3,2.999999 12,-7.999999 c -0.819,10.380999 -3.971,20.741999 -4,30.999999 14.882,-0.041 28.452,-5.552 43,-7 -1.478,-7.326 -11.297,-20.595999 -18,-23.999999 0.758,2.803 1.186,5.099 1,7.999999 l 3,-2.999999 c 3.107,6.271999 7.61,11.589999 12,16.999999 -14.302,2.103 -26.631,0.686 -40,7 1.224,-7.111 4.315,-12.586 3,-20 3.064,3.812 5.925,6.581 11,6 -2.828,-2.267 -5.494,-4.055 -9,-5 0,-10.027999 -0.861,-22.308999 8,-28.999999 2.512,12.982 19.162,21.094 29.697,10.606 3.761,-3.745 0.979,-10.622 4.66,-13.466 3.377,-2.61 9.578,-2.995 13.643,-4.14 1.781,4.607 5.246,8.025 6,13 l 5,-1 c 0.482,2.364 0.636,2.518 3,3 -1.564,5.443 -0.754,12.254 -1,17.999999 l 5,-2.999999 0,3.999999 c 6.542,-4.647999 14.127,-31.930999 0,-28.999999 6.675,-6.222 9.383,3.151 8.829,9 -1.103,11.632 -4.882,23.019999 -10.829,32.999999 11.38,-8.587 10.953,-27.218999 12.17,-39.999999 0.776,-8.152 1.911,-15.297 -5.17,-21 1.782,4.723 4.022,8.869 4,14 -5.705,-5.705 -12.265,-15.88 -21,-16 l -2,-5 c 2.946,2.247 5.338,3.421 9,4 -6.116,-7.53 -11.358,-17.217 -18,-24 2.133,-3.117 1.821,-6.295 2,-10 -9.723,3.801 -27.566,4.036 -38,2 0.98,1.783 0.908,1.594 3,2 l -10,1 c 9.21,3.865 26.804,0.916 37,1 0.116,13.835 5.526,29.578 9,43 -5.079,0.105 -10.018,1.061 -15,2 l 1,3 c -2.357,-2.846 -4.258,-5.742 -6,-9 l 3,1 c -4.594,-3.995 -10.381,-3.043 -16,-2 4.569,-2.201 8.997,-2.237 14,-2 -7.33,-6.897 -22.456,-5.671 -25,5 l 5,-1 c -5.516,3.939 -10.202,5.977 -17,6 0.986,-1.479 1,-1.203 1,-3 -8.488,-3.96 -12.185,-1.698 -19,4 0,-9.266 -0.325,-18.017 2.296,-27 2.115,-7.247 6.592,-13.473 7.704,-21 l -5,-2 c -4.673,10.209 -8.552,17.602 -10,29 -3.9598,-12.522 -2.6054,-28.278 9.001,-36.348 C 72.022,9.2429308 79.743,7.8999308 86,3.7769308 c -3.777,-0.629 -7.527,1.947 -11,3.421 C 59.456,13.793931 54,22.782931 54,39.776931 l 0.6975,34 c -0.02,3.855 -2.0102,7.045 -1.1635,11 2.0107,9.394 8.962,17.333999 11.605,26.999999 3.186,11.651 5.619,27.462 14.861,36 M 143,13.776931 c 1.672,6.431 10.675,15.918 17,18 l 0,5 c 3.382,-8.307 -10.302,-19.802 -17,-23 m -4,9 c 7.223,9.36 16.895,14.595 22,26 -1.023,-1.534 -0.805,-1.402 -2,-2 l -1,5 c 2.121,0.228 1.89,0.15 3,2 0.622,-1.943 0.436,-2.949 0,-5 l 4,-1 c -1.151,-2.987 -2.261,-5.882 -3,-9 l -3,1 c -1.396,-8.656 -12.51,-14.141 -20,-17 m 5,7 c 1.622,4.219 4.363,10.046 9,11 1.104,2.357 1.956,3.376 4,5 -3.336,-5.799 -7.792,-11.787 -13,-16 m 11,1 1,1 -1,-1 z"
     id="path4"
     inkscape:connector-curvature="0" />
  <path
     style="fill:#f8f8f9;stroke:none"
     d="m 133,36.776931 c 0.833,4.304 2.634,7.209 6,10 -1.068,-3.931 -3.29,-6.979 -6,-10 z"
     id="path6"
     inkscape:connector-curvature="0" />
  <path
     style="fill:#6d7279;stroke:none"
     d="m 106,48.776931 c 1.769,0.779 3.036,0.912 5,1 -1.769,-0.779 -3.036,-0.912 -5,-1 m -8,3 c 1.659,0.406 2.242,0.309 4,0 -1.809,-0.574 -2.069,-0.465 -4,0 m -26,1 c 1.769,0.779 3.036,0.912 5,1 -1.769,-0.779 -3.036,-0.912 -5,-1 m -6,7 c 2.764,0.47 4.553,-0.631 7,-2 -2.837,-0.675 -4.522,0.495 -7,2 z"
     id="path8"
     inkscape:connector-curvature="0" />
  <path
     style="fill:#f8f8f9;stroke:none"
     d="m 102.667,57.109931 c -0.445,0.445 0.611,0.389 0.666,0.334 0.445,-0.445 -0.611,-0.389 -0.666,-0.334 m -2,5 c -0.445,0.445 0.611,0.389 0.666,0.334 0.445,-0.445 -0.611,-0.389 -0.666,-0.334 m -3,1 c -0.445,0.445 0.611,0.389 0.666,0.334 0.445,-0.445 -0.611,-0.389 -0.666,-0.334 m 5.333,-0.333 c 1.248,0.685 1.548,0.749 3,1 -1.248,-0.685 -1.548,-0.749 -3,-1 m 34,2 1,1 -1,-1 m 11.333,0.667 c -0.055,0.055 -0.111,1.111 0.334,0.666 0.055,-0.055 0.111,-1.111 -0.334,-0.666 M 99,88.776931 c 10.304,-0.028 20.37,-1.883 21,-14 -7.452,0.174 -12.54,3.307 -20,1 3.206,-9.208 11.732,-7.321 18,-2 2.656,-11.872 -19.999,-9.122 -23.933,-2.582 -2.968,4.935 3.284,13.049 4.933,17.582 m 55,-23 c 0.578,2.697 1.261,2.789 4,3 -1.393,-1.434 -2.233,-2.045 -4,-3 m -83,6 0,2 6,0 0,-2 -6,0 m 84,2 1,1 -1,-1 m -92,1 c 0.426,2.469 1.132,4.645 2,7 2.815,-3.381 2.621,-6.195 -2,-7 m 6,1 c 3.091,1.309 6.672,1.382 10,2 -3.109,-2.124 -6.304,-1.989 -10,-2 m 88,1 c -4.344,6.432 -0.743,10.111 0,17 3.76,-4.594 3.624,-11.505 2,-17 l -2,0 z"
     id="path10"
     inkscape:connector-curvature="0" />
  <path
     style="fill:#6d7279;stroke:none"
     d="m 101,78.776931 c 1.157,3.901 3.059,5.196 7,6 -1.145,-3.677 -3.321,-5.082 -7,-6 z"
     id="path12"
     inkscape:connector-curvature="0" />
  <path
     style="fill:#f8f8f9;stroke:none"
     d="m 55,79.776931 c 0.0597,6.678 1.621,11.954 8,15 -0.901,-5.3 -3.433,-9.914 -5,-15 l -3,0 m 10,17 c 9.841,-0.627 13.973,-5.456 14,-15 -8.342,2.403 -13.968,5.982 -14,15 z"
     id="path14"
     inkscape:connector-curvature="0" />
  <path
     style="fill:#6d7279;stroke:none"
     d="m 70,88.776931 c 1.635,2.545 2.994,2.779 6,3 l 1,-4 -7,1 m 28,11.999999 c -1.816,1.297 -2.846,2.135 -4,4 2.383,-0.853 4.086,-1.349 4,-4 m -7,11 1,5 3,0 c -0.497,-3.066 -1.036,-4.032 -4,-5 m 60,4 c 0.001,6.921 5.322,17.979 3.141,23.961 -2.5,6.858 -10.234,16.785 -16.43,20.605 -6.137,3.784 -11.48,1.272 -14.711,9.434 3.321,-2.645 16.646,-5.642 14.539,3.025 -1.911,7.859 -12.789,14.344 -15.539,22.975 6.402,-5.178 12.578,-18.854 21.985,-18.726 4.556,0.062 10.544,4.271 15.015,5.726 l -11,7 c 5.057,0.738 10.486,-4.518 15,-6.61 4.906,-2.275 10.188,-2.074 15,-4.39 -2.363,-10.337 -2,-20.42 -2,-31 -3.112,7.416 -2.088,22.681 1,30 -16.027,2.025 -23.738,-5.463 -35,-16 13.785,-6.054 20.998,-18.414 21,-33 -1.417,3.346 -1.542,7.372 -2,11 -4.396,-5.171 -7.085,-10.239 -8,-17 9.314,0.96 11.796,8.767 19,13 -4.742,-8.318 -10.095,-13.911 -20,-14 -0.047,-2.253 -0.126,-3.948 -1,-6 m -30,33 c 9.214,-1.463 21.229,-13.845 23,-23 -6.888,3.366 -18.567,16.657 -23,23 m -23,-16 1,-5 c -10.975,0.001 -13.003,6.483 -1,5 m -21,-4 c 0.038,4.554 0.77,8.622 2,13 1.198,-3.893 0.003,-8.851 0,-13 l -2,0 m 96,9 0,4 c 0.71,-1.759 0.71,-2.241 0,-4 m 4,3 c 9.692,4.352 24.55,9.201 35,11 -8.871,-6.713 -23.978,-10.968 -35,-11 m -3,2 0,3 c 0.696,-1.554 0.696,-1.446 0,-3 z"
     id="path16"
     inkscape:connector-curvature="0" />
  <path
     style="fill:#f8f8f9;stroke:none"
     d="m 129,163.77693 c 2.806,1.146 5.071,0.692 8,0 -2.852,-1.188 -5.06,-0.864 -8,0 z"
     id="path18"
     inkscape:connector-curvature="0" />
  <path
     style="fill:#6d7279;stroke:none"
     d="m 122,170.77693 c -4.732,9.675 -14.433,15.292 -17,26 4.769,-5.749 18.275,-18.336 17,-26 m -74,11 -1,3 c 12.882,-0.036 22.786,-7.421 35,-9.092 4.497,-0.615 10.117,1.298 15,1.092 -12.267,-5.518 -20.651,-2.905 -33,0.96 -4.984,1.56 -10.7671,5.479 -16,4.04 m 51,-10 c 1.953,1.724 3.463,2.345 6,3 -1.953,-1.724 -3.463,-2.345 -6,-3 m -90,9 c -2.368,2.685 -4.732,4.588 -6,8 3.0822,-1.773 6.0931,-4.293 6,-8 m 4,6 0,14 c 1.6668,-3.972 1.6668,-10.028 0,-14 m -12,4 c -0.9857,1.479 -1,1.203 -1,3 1.2892,-1.443 1.4009,-1.234 1,-3 m 103.333,7.667 c -0.055,0.055 -0.111,1.111 0.334,0.666 0.055,-0.055 0.111,-1.111 -0.334,-0.666 z"
     id="path20"
     inkscape:connector-curvature="0" />
</svg>
