<?xml version="1.0" encoding="UTF-8" standalone="no"?>
<svg
   xmlns:dc="http://purl.org/dc/elements/1.1/"
   xmlns:cc="http://creativecommons.org/ns#"
   xmlns:rdf="http://www.w3.org/1999/02/22-rdf-syntax-ns#"
   xmlns:svg="http://www.w3.org/2000/svg"
   xmlns="http://www.w3.org/2000/svg"
   xmlns:sodipodi="http://sodipodi.sourceforge.net/DTD/sodipodi-0.dtd"
   xmlns:inkscape="http://www.inkscape.org/namespaces/inkscape"
   width="450.33649"
   height="434.49954"
   id="svg2"
   version="1.1"
   inkscape:version="0.48.4 r9939"
   sodipodi:docname="chomsky.svg">
  <metadata
     id="metadata80">
    <rdf:RDF>
      <cc:Work
         rdf:about="">
        <dc:format>image/svg+xml</dc:format>
        <dc:type
           rdf:resource="http://purl.org/dc/dcmitype/StillImage" />
      </cc:Work>
    </rdf:RDF>
  </metadata>
  <defs
     id="defs78" />
  <sodipodi:namedview
     pagecolor="#ffffff"
     bordercolor="#666666"
     borderopacity="1"
     objecttolerance="10"
     gridtolerance="10"
     guidetolerance="10"
     inkscape:pageopacity="0"
     inkscape:pageshadow="2"
     inkscape:window-width="640"
     inkscape:window-height="480"
     id="namedview76"
     showgrid="false"
     inkscape:zoom="0.33144154"
     inkscape:cx="325.5"
     inkscape:cy="91.663009"
     inkscape:window-x="49"
     inkscape:window-y="24"
     inkscape:window-maximized="0"
     inkscape:current-layer="svg2" />
  <path
     style="fill:#8d6c5f;stroke:none"
     d="m 191,54.336527 5,0 c -2.9,11.2653 -15.175,14.5457 -17.61,26 -2.269,10.6689 -0.694,24.100003 -0.375,35.000003 0.087,2.966 1.961,6.948 1.173,9.772 -1.892,6.777 -20.688,3.504 -17.585,12.946 l 3.397,6.282 -6,1 c 1.642,9.464 17.926,4.718 20.252,14.004 1.685,6.727 -14.78,13.845 -11.08,20.393 2.206,3.903 11.828,0.433 15.503,3.206 8.841,6.671 22.533,32.844 19.967,44.292 -1.428,6.37 -18.134,11.158 -23.642,13.537 -22.761,9.829 -47.606,19.811 -68,34.086 -41.567,29.096 -62.616,67.643 -85.395,111.482 -8.176,15.734 -20.489,30.296 -26.605,47 l 296,0 c 1.004,-3.175 2.6,-5.985 4,-9 6.75,1.607 12.326,-0.101 19,-1 -4.01,9.437 -11.98,3.822 -16,10 l 110,1 26,0 c 2.803,0 7.975,0.918 9.972,-1.603 1.94,-2.449 1.028,-7.487 1.028,-10.397 l 0,-26 c 0,-31.992 0.767,-64.072 -0.015,-96 -0.336,-13.743 2.604,-28.636 -13.985,-31 l -1,-4 c 2.739,-0.211 3.422,-0.302 4,-3 4.39,1.608 5.97,5.751 10,8 l 0,-29 c -7.1,-0.364 -17.047,-1.672 -21,-8 7.282,0.006 12.968,3.294 20,4 -5.892,-8.037 -23.639,-7.434 -26.566,-18.015 -3.747,-13.553 14.542,-30.266 17.291,-43.155 2.64,-12.372 1.762,-26.221 2.314,-38.83 1.022,-23.331 2.871,-44.526403 -6.068,-66.960603 -2.063,-5.1785 -7.955,-8.6204 -11.971,-12.2053 -9.105,-8.1267 -18.264,-16.3332 -28,-23.7045 -14.071,-10.654 -30.461,-23.785 -47.285,-29.7484397 -14.298,-5.06787 -31.87,-5.07055 -46.715,-4.42053 -6.081,0.2663 -12.974,-1.02405 -18.91,0.45368 -12.47,3.10376 -25.136,10.0990897 -37.09,14.9375897 -18.307,7.41 -43.72,21.011 -54,38.6481 z"
     id="path4"
     inkscape:connector-curvature="0" />
  <path
     style="fill:#f7f3f1;stroke:none"
     d="m 244,24.336527 5,0 c -2.678,5.6207 -7.836,7.954 -13,11 2.199,2.0503 3.76,3.8221 2.333,6.9498 -1.594,3.4945 -5.217,4.0725 -7.595,6.6976 -3.034,3.3483 -6.389,10.1546 -7.647,14.5216 -1.539,5.3417 1.189,11.0301 7.141,7.0262 4.694,-3.1574 6.014,-8.5448 11.768,-10.1952 -0.562,1.8005 -0.824,3.1219 -1,5 9.634,-2.9359 14.798,-13.2294 26,-15 -0.768,-1.3141 -0.686,-1.2321 -2,-2 3.96,-1.1706 7.887,-1 12,-1 5.18,-9.4245 22.303,-2.9067 31,-4 0.512,4.4294 -0.434,7.6959 -1,12 -7.824,2.1485 -14.557,7.34 -22.086,10.2816 -9.765,3.8158 -18.029,5.3078 -25.873,12.5826 -3.418,3.17 -16.556,11.7313 -10.041,16.1358 -4.142,7.595003 -8.914,7.622003 -9,18.000003 -3.474,0.577 -4.423,1.526 -5,5 l 9,-2 c -2.968,3.165 -20.559,13.163 -9,17 l 0,4 c 10.664,0 21.662,0.727 31.986,3.313 5.806,1.455 9.412,6.885 15.989,6.614 7.367,-0.304 14.669,-6.64 21.115,-9.533 7.968,-3.576 21.282,-4.09 29.909,-3.335 7.723,0.675 12.224,13.581 19.094,13.128 11.41,-0.754 14.824,-16.379 9.907,-24.187 l 5,1 c 0.709,-4.444 2.606,-5.665 7,-6 l 0,6 c 6.373,0.576 8.561,4.94 14,7 1.384,-3.023 3.136,-5.802 4,-9 3.079,2.537 4.203,5.503 6,9 4.795,-1.522 6.617,0.036 7,5 l -5,-2 c 1.84,6.139 7.277,10.052 9,16 2.434,0.651 3.283,1.16 5,3 l -4,0 5,5 c -4.21,-1.08 -7.598,-3.513 -12,-4 2.353,8.332 13.842,7.129 19.856,11.287 3.475,2.403 3.647,5.933 8.144,6.713 -0.998,-9.451 4.486,-15.901 -2.768,-24.482 -6.008,-7.107 -17.63,-5.519 -21.232,-14.518 10.551,-0.305 18.991,-2.62 19,-14 l 7,-2 c -1.005,-5.86 -5.482,-5.599 -10,-8.008 -5.947,-3.172 -12.426,-9.371003 -14,-15.992003 3.135,-0.8911 5.722,-2.5229 9,-3 -1.844,-5.5424 -4.26,-11.1874 -5,-17 l 4,0 c -3.235,-10.5704 -10.153,-23.9756 -22,-28.3125 -5.257,-1.9246 -14.203,-0.7675 -18.567,-3.7145 -7.255,-4.899 -6.145,-18.1324 -14.452,-23.1188 -6.949,-4.1709 -18.939,-5.8511 -26.981,-6.9846 -21.116,-2.9762997 -46.574,-4.5878997 -67.09,2.1713 -9.257,3.0499 -18.468,3.7325 -24.91,11.9591 z"
     id="path6"
     inkscape:connector-curvature="0" />
  <path
     style="fill:#8d6c5f;stroke:none"
     d="m 324,36.336527 c 1.994,12.5236 13.594,15.3898 23.961,19.0123 3.17,1.1076 7.075,4.4539 10.436,1.8079 3.453,-2.7177 0.74,-8.6359 -0.397,-11.8202 -12.812,-0.1159 -20.239,-14.8295 -34,-9 m -5,5 c 0.812,3.9318 2.214,5.6393 6,7 -0.659,-2.6093 -1.687,-4.6396 -3,-7 l -3,0 z"
     id="path8"
     inkscape:connector-curvature="0" />
  <path
     style="fill:#51444c;stroke:none"
     d="m 216,147.33653 c 2.197,-6.222 -1.251,-6.52 -2.103,-12.089 -0.602,-3.937 2.1,-9.526 2.103,-13.911 -8.481,4.589 -8.217,21.253 0,26 z"
     id="path10"
     inkscape:connector-curvature="0" />
  <path
     style="fill:#f7f3f1;stroke:none"
     d="m 168,137.33653 c 1.303,4.292 3.735,4.861 8,5 l 0,4 -4,0 c 1.042,6.399 11.334,10.189 16.377,5.143 3.263,-3.264 -1.346,-5.879 -4.38,-5.374 l -6.997,1.231 c 0.646,-2.458 0.646,-3.542 0,-6 l 3,0 c -2.592,-3.672 -7.757,-3.665 -12,-4 z"
     id="path12"
     inkscape:connector-curvature="0" />
  <path
     style="fill:#8d6c5f;stroke:none"
     d="m 409,140.33653 c 0.863,3.064 1.936,4.137 5,5 -0.863,-3.064 -1.936,-4.137 -5,-5 z"
     id="path14"
     inkscape:connector-curvature="0" />
  <path
     style="fill:#f7f3f1;stroke:none"
     d="m 230,145.33653 c 1.864,3.38 4.131,4.054 8,3.956 11.85,-0.299 21.467,2.006 33,3.044 -6.263,-8.915 -31.361,-9.294 -41,-7 m 70,6 c 6.864,1.436 13.83,-2.275 21,-1.961 8.551,0.375 16.611,4.678 24.891,5.399 3.02,0.262 3.588,-2.054 4.109,-4.438 -12.373,-1.819 -23.552,-2.171 -36,-2.455 -5.058,-0.116 -11.989,-2.603 -14,3.455 m 57,-3 c 1.67,3.362 3.362,5.848 7,7 -0.174,-5.31 -1.69,-6.826 -7,-7 z"
     id="path16"
     inkscape:connector-curvature="0" />
  <path
     style="fill:#51444c;stroke:none"
     d="m 388,154.33653 c 1.038,3.591 2.409,4.962 6,6 -1.088,-3.351 -2.802,-4.603 -6,-6 m -183,1 c -0.501,2.686 -0.883,5.27 -1,8 l 4,0 c 1.519,-2.849 3.003,-3.798 6,-5 l 0,-2 c -3.041,-0.9 -5.831,-0.992 -9,-1 m 110,6 2,-1 0,7 c 15.97,4.983 19.743,-7.998 2,-8 l 4,-3 c -4.438,-1.712 -7.274,0.552 -8,5 m -80,7 c 10.544,0.029 21.919,2.599 32,-1 -1.246,-16.34 -27.876,-11.824 -32,1 z"
     id="path18"
     inkscape:connector-curvature="0" />
  <path
     style="fill:#f7f3f1;stroke:none"
     d="m 279,156.33653 c 3.266,2.474 7.01,2 11,2 l 0,-2 -11,0 m 87,4 5,0 0,-3 c -2.689,0.418 -3.554,0.717 -5,3 m 44,2 0,4 c 3.081,0.687 5.817,1.789 9,2 -2.043,-3.624 -4.999,-5.081 -9,-6 m -174,55 c 1.195,-0.598 0.977,-0.466 2,-2 10.053,11.502 24.138,-13.343 33,-14 l 0,-4 3,0 0,7 c -10.589,3.343 -16.138,16.286 -1.961,19.342 12.868,2.773 25.529,-2.923 37.961,-5.342 -0.163,-6.724 -2.955,-9.384 -9,-12 l 0,-2 c 11.183,-2.143 16.434,10.83 27,12 l 0,4 c 2.168,1.021 4.63,3.33 7.09,3.409 3.525,0.113 12.911,-5.364 9.863,-9.771 -2.695,-3.897 -12.677,-3.454 -16.953,-3.638 -2.507,-7.155 -20.796,-9.941 -26.996,-14.939 -9.456,-7.622 -5.572,-14.878 -9.769,-24.593 -1.543,-3.571 -5.458,-5.265 -9.091,-3.606 -9.319,4.256 -2.53,20.532 -9.578,26.168 -8.671,6.934 -36.174,12.152 -36.566,23.97 m 124,-48 c 0.19,2.971 0.834,5.26 2,8 -8.295,2.234 -13.999,-2.961 -21.91,-3.558 -3.668,-0.277 -7.309,2.977 -11.09,3.383 -5.489,0.589 -10.688,-1.78 -16,-2.825 2.028,12.196 19.505,7.465 23,17 -11.237,2.086 -21.169,-5.101 -28,-14 -11.342,2.473 -4.177,16.388 4.001,18.446 8.645,2.176 21.353,1.298 29.999,-0.635 4.036,-0.902 6.806,-3.67 11,-3.811 l 0,2 c -3.331,1.331 -4.936,2.543 -6,6 6.428,1.53 14.485,3.071 21,2 2.511,-13.174 12.523,-25.95 24,-11 l 2,0 c 1.163,-2.217 2.086,-3.394 4,-5 l -4,-9 c -2.784,0.058 -5.291,0.352 -8,1 -1.324,-2.687 -2.313,-3.676 -5,-5 l 0,4 c -2.286,-1.896 -4.205,-3.644 -6,-6 l -6,1 1,-4 -10,2 z"
     id="path20"
     inkscape:connector-curvature="0" />
  <path
     style="fill:#51444c;stroke:none"
     d="m 168,179.33653 c 5.066,1.206 19.166,4.454 21,-1 -4.686,-0.148 -8.454,-2.352 -13,-3 0.324,-2.539 1.082,-4.618 2,-7 -5.143,1.572 -7.78,6.329 -10,11 m 106,-6 c -1.678,2.382 -1.916,4.087 -2,7 2.824,-1.829 3.263,-3.883 2,-7 z"
     id="path22"
     inkscape:connector-curvature="0" />
  <path
     style="fill:#f7f3f1;stroke:none"
     d="m 228,181.33653 c -2.213,3.614 -5.016,3.764 -9,3 1.947,12.506 24.499,11.764 34,10 -8.607,-3.612 -20.068,0.614 -21,-13 l -4,0 z"
     id="path24"
     inkscape:connector-curvature="0" />
  <path
     style="fill:#51444c;stroke:none"
     d="m 399,196.33653 c -0.99,3.35 -0.998,6.514 -1,10 4.692,-1.65 3.989,-5.796 3,-10 l -2,0 z"
     id="path26"
     inkscape:connector-curvature="0" />
  <path
     style="fill:#f7f3f1;stroke:none"
     d="m 322,199.33653 c 3.564,6.039 9.713,7.449 12,0 l -12,0 m -16,36 c 8.153,2.452 7.482,9.97 18,10 l -1,-7 -3,0 c -0.311,-3.124 -1.198,-5.972 -2,-9 -5.815,10e-4 -10.396,-0.526 -12,6 z"
     id="path28"
     inkscape:connector-curvature="0" />
  <path
     style="fill:#51444c;stroke:none"
     d="m 385,247.33653 c -3.662,14.39 0.965,26.378 3.69,41 2.021,10.846 1.31,22.018 1.31,33 l 3,0 1,-22 3,0 c 0.779,-6.161 2.39,-12.07 0,-18 l 4,0 c -0.812,-2.782 -1.453,-3.627 -4,-5 l 0,-2 c 6.045,-2.533 6.267,-9.171 5,-15 4.567,-2.53 4.578,-5.417 3,-10 16.635,4.002 2.414,29.442 2.018,40.015 -0.246,6.593 1.036,17.633 -3.018,22.985 2.586,8.36 0.99,14.907 -4,22 6.898,12.403 -2.952,29.303 1,42 -3.901,1.157 -5.196,3.059 -6,7 l 3,0 0,3 -5,1 0,4 c -6.387,-3.95 -1.536,-17.844 3,-22 -1.479,-0.986 -1.203,-1 -3,-1 1.006,-5.808 2.094,-25.31 -3,-27 -1.151,8.986 -6.546,24.29 -16,27 0.723,-5.406 4.248,-7.574 6.686,-12.09 3.683,-6.82 5.595,-22.452 2.42,-29.725 -1.933,-4.428 -10.313,-8.495 -14.382,-4.582 -3.124,3.004 -3.657,8.707 -5.809,12.397 -5.689,9.756 -12.807,16.956 -12.915,29 l 3,0 c 0.893,-3.287 2.265,-4.981 5,-7 -0.852,13.124 -8.33,24.105 -14.421,35.17 -2.25,4.087 -2.476,8.818 -4.977,12.815 -4.7,7.511 -11.518,14.121 -13.602,23.015 5.472,1.962 10.092,5.575 16,6 -3.568,-3.611 -8.468,-5.938 -10,-11 3.955,1.489 7.803,3.442 12,4 -2.544,-3.188 -5.797,-4.986 -7,-9 3.331,1.283 6.46,2.47 10,3 -1.878,-3.423 -4.314,-4.82 -8,-6 3.552,-6.352 10.214,0.812 16,1 l 0,-2 c -3.409,-1.07 -4.394,-2.87 -6,-6 3.401,1.046 6.449,2.538 10,3 -0.819,-2.791 -2.295,-4.644 -4,-7 l 10,2 c -1.33,-3.822 -4.2,-4.426 -8,-5 l 0,-4 9,1 c -0.98,-1.783 -0.908,-1.594 -3,-2 l 0,-4 c 5.149,1.127 7.624,2.79 9,8 -2.297,0.674 -2.774,0.965 -4,3 l 7,0 c -0.899,5.473 0.801,8.189 3,13 -3.801,0 -7.343,-0.081 -11,1 l 0,2 c 7.046,3.354 5.056,8.24 5,15 l 32,0 c 1.61,-12.645 5.808,-25.361 6.455,-38.17 1.378,-27.273 -1.014,-54.53 1.716,-81.83 1.362,-13.627 2.643,-27.427 5.087,-40.91 1.045,-5.763 3.794,-11.09 3.688,-17.09 -0.121,-6.854 -4.752,-11.827 -4.946,-18 -1.457,-1.103 -1.897,-1.543 -3,-3 -11.194,1.517 -15.381,12.87 -27,13 z"
     id="path30"
     inkscape:connector-curvature="0" />
  <path
     style="fill:#f7f3f1;stroke:none"
     d="m 437,247.33653 c 1.446,2.283 2.311,2.582 5,3 l 0,-3 -5,0 m -270,7 c 1.875,-0.547 3.255,-1.11 5,-2 -2.509,-0.566 -3.22,0.152 -5,2 z"
     id="path32"
     inkscape:connector-curvature="0" />
  <path
     style="fill:#51444c;stroke:none"
     d="m 255,260.33653 c 9.387,0.819 18.465,3.543 28,3.961 13.611,0.596 25.768,-1.806 39,-2.961 -3.007,-4.639 -10.059,-2.67 -15,-3.903 -12.947,-3.231 -29.598,-7.714 -42.17,-2.472 -4.093,1.707 -8.247,0.606 -9.83,5.375 m -39,-6 2,4 -9,1 0,2 c 4.114,0.015 7.033,-0.03 10,3 -6.243,0 -12.986,-0.778 -19,1 0.613,1.662 1.043,2.483 2,4 l -3,1 0,2 11,2 c -2.992,0.823 -7.944,-0.639 -10.401,1.066 -2.543,1.765 -2.616,5.106 -5.599,6.934 1.305,3.254 2.969,6.142 5,9 l -6,0 -1,7 c 3.308,0.859 4.86,2.361 7,5 l -9,-2 c 2.185,7.571 0.534,16.018 2,24 l -3,0 c 0.991,4.23 3.287,8.002 5,12 -7.079,1.517 -0.172,14.357 0,19 0.344,9.301 1.984,18.186 2.861,27 0.422,4.241 -2.215,8.777 -1.472,13 1.307,7.432 4.343,12.012 1.611,20 7.156,4.045 -1.76,16.064 10,17 l -1,-4 13,-1 -1,-4 c 6.289,1.515 11.157,1.497 12,9 l 5,0 c 0.171,-3.971 2.261,-9.075 1.231,-12.91 -1.141,-4.247 -4.207,-7.483 -5.231,-12.09 4.957,0.157 9.079,2.818 14,2 l 0,5 c 4.544,-0.148 7.043,-2.136 11,-4 -2.182,4.171 -5.478,5.319 -10,6 l 1,6 4,-1 c 0.909,5.442 4.37,4.569 9,4 -1.358,2.485 -3.16,4.258 -4,7 l 25,0 0,-2 -5,0 c 1.981,-12.758 -12.425,-23.647 -19.701,-32.424 -2.597,-3.132 -2.565,-6.519 -6.299,-8.576 4.056,-7.177 12.985,0.547 18.357,-4.028 5.314,-4.525 -6.773,-19.59 -7.357,-24.972 7.945,3.331 14.424,13.879 20.576,19.961 3.427,3.387 8.069,5.846 10.424,10.039 8.032,0 15.146,1.043 23,2 4.16,-9.715 12.643,-17.383 16.505,-27 2.541,-6.33 1.52,-17.226 6.095,-22.432 5.863,-6.673 18.775,-9.779 22.983,-17.756 2.146,-4.071 2.021,-9.409 3.376,-13.812 3.914,-12.719 8.721,-25.94 11.041,-39 -7.26,2.397 -6.329,10.324 -10.209,15.576 -8.223,11.129 -17.761,20.867 -27.532,30.709 -6.753,6.803 -9.696,13.678 -20.259,13.715 l -1,15 c -11.861,-0.098 -11.784,-9.125 -21,-12 -0.65,4.077 -3.296,7.2 -7.544,4.307 -13.819,-9.411 -16.966,-28.758 -36.456,-31.307 1.421,10.252 7.69,19.19 7,30 9.442,5.448 23.194,9.498 30.995,16.938 5.432,5.18 3.973,11.992 9.31,17.007 4.955,4.657 12.113,4.71 16.695,10.055 -11.992,-4.29 -25.405,-9.255 -35.518,-17.328 -8.765,-6.997 -11.744,-14.533 -23.482,-17.672 0.823,-5.368 -4.047,-12.952 -8.566,-5.852 -4.175,6.56 0.049,20.531 -9.534,24.565 -7.635,3.214 -16.993,-5.871 -23.9,-4.713 -0.747,-5.291 -2.984,-9.425 -3,-15 2.205,-0.094 3.894,-0.356 6,-1 l 0,-2 -4,-1 0,-2 c 4.079,-1.831 9.514,-3.527 11,-8 -6.213,0.827 -11.214,4.882 -17,7 -0.464,-2.172 -1.105,-3.958 -2,-6 4.77,0.843 8.334,-0.211 13,-1 l 0,-3 -7,0 c 3.44,-4.209 9.355,-5.453 12,-10 -4.935,0.726 -11.903,5.193 -15,0 l 5,0 0,-2 -7,0 0,-3 c 4.949,-0.493 11.941,-1.845 15,-6 -4.803,0.392 -9.202,2.643 -13,-1 5.223,-0.044 11.125,-0.35 13,-6 -4.881,0.154 -8.583,2.548 -13,0 l 12,-2 c -2.67,-4.103 -7.637,-2.149 -12,-3 3.953,-2.11 7.587,-2 12,-2 l 0,-3 -15,0 c 3.86,-2.092 10.157,-1.397 13.397,-4.024 2.588,-2.099 1.459,-7.08 1.657,-9.976 l 2.946,-24 -7,0 z"
     id="path34"
     inkscape:connector-curvature="0" />
  <path
     style="fill:#f7f3f1;stroke:none"
     d="m 75,321.33653 c -4.177,8.924 6.121,9.603 12,10 l -1,5 c 4.775,1.902 7.126,6.562 12,8 l 0,5 c 3.956,-0.305 5.616,-1.232 7,-5 -1.965,-2.052 -2.574,-3.194 -3,-6 l -5,1 c 1.226,-2.035 1.703,-2.326 4,-3 l -1,-10 -5,0 0,-4 -5,2 c 0.001,-7.701 0.332,-11.898 9,-12 -0.174,-5.265 -3.612,-8.808 -4,-14 6.257,4.734 8.391,12.127 13.613,17.443 4.182,4.256 10.735,5.817 15.387,9.557 -2.092,0.406 -2.02,0.217 -3,2 5.217,-0.174 8.392,-3.966 2,-6 -0.352,-7.556 -1.027,-13.314 -1,-21 l -6,-1 c 3.305,-3.929 6.203,-3.362 11,-3 -0.179,-8.369 -7.523,-20.558 6,-21 -1.025,3.571 -0.708,5.715 1,9 l -4,0 c -0.832,5.36 1.937,9.607 2,15 l 5,0 c 1.087,-6.659 7.278,-7.421 13,-6 0.094,-11.328 -4.884,-14.249 -10,-24 7.105,-2.25 10.964,-5 19,-5 l 0,-4 c 2.566,-0.598 4.022,-1.268 6,-3 -7.269,-1.918 -15.506,3.824 -21.999,6.762 -18.23,8.246 -38.653,18.328 -53.411,32.512 -3.988,3.833 -25.973,22.826 -14.59,24.726 z"
     id="path36"
     inkscape:connector-curvature="0" />
  <path
     style="fill:#8d6c5f;stroke:none"
     d="m 209,266.33653 0,3 7,0 0,-3 -7,0 z"
     id="path38"
     inkscape:connector-curvature="0" />
  <path
     style="fill:#f7f3f1;stroke:none"
     d="m 280,268.33653 0,3 c 7.817,0 26.441,3.452 31,-4 l -31,1 m -55,5 c 0,23.229 5.097,45.065 7.845,68 0.718,5.994 0.796,20.764 7.155,23 1.401,-9.484 6.244,-18.947 7.397,-28 0.584,-4.591 -2.068,-9.741 -3.232,-14.09 -3.233,-12.083 -5.048,-20.854 -10.941,-31.91 -2.845,-5.338 -3.18,-13.301 -8.224,-17 m 84,6 1,7 c -9.324,1.837 -18.462,3 -28,3 2.402,3.854 6.635,4.722 11,5 -0.67,3.28 -2.329,5.208 -4,8 12.359,-0.145 23.847,-6.649 36,-7 1.716,-2.941 5.202,-2.959 6.843,-5.498 1.405,-2.173 -1.496,-7.981 -1.843,-10.502 -5.599,1.824 -11.295,6.176 -13,-2 -2.868,0.287 -5.294,1.009 -8,2 m 58,39 c 8.451,1.575 13.401,6.583 21,9 0,-11.914 1.962,-25.805 -1.29,-37.285 -0.858,-3.029 0.03,-8.128 -3.279,-9.838 -4.28,-2.212 -6.496,3.062 -7.676,6.124 -3.611,9.368 -6.884,22.183 -8.755,31.999 z"
     id="path40"
     inkscape:connector-curvature="0" />
  <path
     style="fill:#8d6c5f;stroke:none"
     d="m 202,287.33653 c 3.536,-0.041 5.998,0.089 8,-3 -3.324,0.154 -5.925,0.273 -8,3 m -7,24 -1,7 c 2.81,-0.437 4.6,-1.481 7,-3 l 0,-3 -6,-1 z"
     id="path42"
     inkscape:connector-curvature="0" />
  <path
     style="fill:#51444c;stroke:none"
     d="m 218,314.33653 0,3 5,0 0,-3 -5,0 z"
     id="path44"
     inkscape:connector-curvature="0" />
  <path
     style="fill:#8d6c5f;stroke:none"
     d="m 378.667,321.66953 c -0.445,0.445 0.611,0.389 0.666,0.334 0.445,-0.445 -0.611,-0.389 -0.666,-0.334 m 1.333,0.667 c 1.223,1.195 1.42,1.316 3,2 -1.223,-1.195 -1.42,-1.316 -3,-2 z"
     id="path46"
     inkscape:connector-curvature="0" />
  <path
     style="fill:#f7f3f1;stroke:none"
     d="m 67,324.33653 c 0.005,7.977 3.366,15.274 3,23 7.374,0.383 13.947,4.688 16,12 l 6,3 c -0.437,-13.522 -16.273,-19.605 -18,-32 l -3,0 c -0.497,-3.207 -1.15,-4.444 -4,-6 z"
     id="path48"
     inkscape:connector-curvature="0" />
  <path
     style="fill:#51444c;stroke:none"
     d="m 390,325.33653 0,3 3,0 0,-3 -3,0 z"
     id="path50"
     inkscape:connector-curvature="0" />
  <path
     style="fill:#f7f3f1;stroke:none"
     d="m 346,342.33653 c 4.647,-0.609 8.161,-2.108 9,-7 -4.805,0.536 -7.635,2.254 -9,7 z"
     id="path52"
     inkscape:connector-curvature="0" />
  <path
     style="fill:#51444c;stroke:none"
     d="m 220,342.33653 5,0 0,-3 c -2.689,0.418 -3.554,0.717 -5,3 z"
     id="path54"
     inkscape:connector-curvature="0" />
  <path
     style="fill:#f7f3f1;stroke:none"
     d="m 48,354.33653 c 1.305,4.25 4.741,7.739 9,9 -1.332,-4.69 -4.441,-7.419 -9,-9 z"
     id="path56"
     inkscape:connector-curvature="0" />
  <path
     style="fill:#51444c;stroke:none"
     d="m 84,367.33653 c 1.534,21.345 19.355,38.429 22,60 l -4,1 0,2 c 3.419,1.859 6.087,2.884 10,3 -3.96,-17.323 -8.47,-35.608 -16.834,-51.424 -3.068,-5.801 -4.632,-11.89 -11.166,-14.576 m 85,4 c -1.438,2.042 -2.371,3.597 -3,6 2.124,0.899 2.101,0.876 3,3 l 3,0 c 0.406,-3.323 -0.067,-5.801 -1,-9 l -2,0 z"
     id="path58"
     inkscape:connector-curvature="0" />
  <path
     style="fill:#8d6c5f;stroke:none"
     d="m 223,392.33653 5,0 c -0.412,-3.492 -0.575,-6.516 0,-10 -4.435,-2.703 -4.17,-6.176 -4,-11 -8.66,1.45 -1.068,14.883 -1,21 z"
     id="path60"
     inkscape:connector-curvature="0" />
  <path
     style="fill:#51444c;stroke:none"
     d="m 126,376.33653 c 0.16,19.329 6,37.577 6,57 l 8,0 c -1.007,-12.655 -6.105,-24.592 -7.886,-37.039 -0.891,-6.226 -0.666,-15.837 -6.114,-19.961 m 310,7 0,6 3,0 0,-6 -3,0 m -2,8 c -0.436,2.607 -0.563,4.429 0,7 3.168,-1.743 3.731,-3.435 4,-7 l -4,0 z"
     id="path62"
     inkscape:connector-curvature="0" />
  <path
     style="fill:#8d6c5f;stroke:none"
     d="m 395,392.33653 c -1.725,2.834 -4.013,3.629 -7,5 l 0,2 c 1.479,0.986 1.203,1 3,1 -2.457,5.789 -3.808,9.021 3,12 l 0,3 c -3.733,1.673 -6.932,3.195 -11,4 1.415,4.267 5.858,4.112 8,8 4.67,-0.811 4.425,-4.715 8,-7 -0.287,-3.245 -0.782,-5.969 -2,-9 2.748,-2.401 1.609,-14.643 2,-19 l -4,0 z"
     id="path64"
     inkscape:connector-curvature="0" />
  <path
     style="fill:#51444c;stroke:none"
     d="m 60,396.33653 c 1.347,3.8 4.733,4.791 7.451,7.559 7.421,7.56 14.001,14.904 25.549,16.441 -1.52,-4.326 -6.297,-4.453 -9.715,-7.174 -7.863,-6.263 -12.857,-14.648 -23.285,-16.826 m 353,1 -1,4 c 2.698,-0.578 2.789,-1.261 3,-4 l -2,0 m 21,5 c -10e-4,12.625 -8.887,30.998 9,31 -1.086,-4.419 -1.378,-8.47 -1,-13 -1.894,0.465 -3.277,1.066 -5,2 0.164,-3.642 1.474,-4.436 5,-5 l 0,-3 -4,0 c 0.776,-4.442 -0.115,-7.674 -1,-12 l -3,0 z"
     id="path66"
     inkscape:connector-curvature="0" />
  <path
     style="fill:#f7f3f1;stroke:none"
     d="m 276,405.33653 c 1.193,2.68 2.35,5.14 3,8 l 4,1 c 2.677,-3.048 4.672,-4.829 5,-9 l -12,0 z"
     id="path68"
     inkscape:connector-curvature="0" />
  <path
     style="fill:#51444c;stroke:none"
     d="m 278,420.33653 2,5 c 7.576,-1.58 4.821,-6.942 -2,-5 m -190,1 c -0.53,3.316 -1.102,5.23 -4,7 0.928,4.254 2.828,4.861 7,5 0.39,-4.944 1.999,-9.241 -3,-12 z"
     id="path70"
     inkscape:connector-curvature="0" />
  <path
     style="fill:#f7f3f1;stroke:none"
     d="m 10,424.33653 0,2 4,0 0,-2 -4,0 z"
     id="path72"
     inkscape:connector-curvature="0" />
  <path
     style="fill:#51444c;stroke:none"
     d="m 248,428.33653 c 0.854,2.525 1.508,3.03 4,4 -0.839,-2.626 -1.374,-3.161 -4,-4 m 71,5 9,0 -2,-4 c -3.564,0.272 -5.121,0.932 -7,4 z"
     id="path74"
     inkscape:connector-curvature="0" />
</svg>
