<?xml version="1.0" encoding="UTF-8" standalone="no"?>
<svg
   xmlns:dc="http://purl.org/dc/elements/1.1/"
   xmlns:cc="http://creativecommons.org/ns#"
   xmlns:rdf="http://www.w3.org/1999/02/22-rdf-syntax-ns#"
   xmlns:svg="http://www.w3.org/2000/svg"
   xmlns="http://www.w3.org/2000/svg"
   xmlns:sodipodi="http://sodipodi.sourceforge.net/DTD/sodipodi-0.dtd"
   xmlns:inkscape="http://www.inkscape.org/namespaces/inkscape"
   width="780.11548"
   height="663.9126"
   id="svg2"
   version="1.1"
   inkscape:version="0.48.4 r9939"
   sodipodi:docname="conway.svg">
  <metadata
     id="metadata116">
    <rdf:RDF>
      <cc:Work
         rdf:about="">
        <dc:format>image/svg+xml</dc:format>
        <dc:type
           rdf:resource="http://purl.org/dc/dcmitype/StillImage" />
      </cc:Work>
    </rdf:RDF>
  </metadata>
  <defs
     id="defs114" />
  <sodipodi:namedview
     pagecolor="#ffffff"
     bordercolor="#666666"
     borderopacity="1"
     objecttolerance="10"
     gridtolerance="10"
     guidetolerance="10"
     inkscape:pageopacity="0"
     inkscape:pageshadow="2"
     inkscape:window-width="457"
     inkscape:window-height="383"
     id="namedview112"
     showgrid="false"
     inkscape:zoom="0.21851852"
     inkscape:cx="390.61546"
     inkscape:cy="205.00003"
     inkscape:window-x="49"
     inkscape:window-y="24"
     inkscape:window-maximized="0"
     inkscape:current-layer="svg2" />
  <path
     style="fill:#bababa;stroke:none"
     d="m 457.333,1.2459086 c 0.445,0.4444 -0.611,0.3891 -0.666,0.3334 -0.445,-0.4445 0.611,-0.389 0.666,-0.3334 z"
     id="path4"
     inkscape:connector-curvature="0" />
  <path
     style="fill:#3f3f3f;stroke:none"
     d="m 596,292.91261 c 5.583,-0.24 11.566,-0.706 17,-2 0.016,24.418 -2.091,47.652 -8.446,71 -1.324,4.865 -0.827,10.358 -2.988,15 -5.437,11.681 -21.025,17.037 -23.086,31 -1.502,10.176 4.924,21.302 9.273,30 9.3,18.603 16.227,40.951 28.213,57.945 6.015,8.529 26.34,11.829 36.034,14.864 30.2063,9.455 59.9665,20.513 90,30.524 l 25,8.664 c 3.20105,1.091 8.82866,1.847 10.97222,4.705 4.12374,5.498 1.02778,22.517 1.02778,29.298 l 0,80 -306,0 c 1.362,-9.212 8.164,-16.734 9,-26 -5.278,3.668 -9.331,12.036 -15,14 1.962,-9.857 12.552,-15.923 18,-24 -3.803,0.944 -7.027,2.715 -11,3 l 0,-4 c 6.075,-2.174 11.488,-6.528 18,-7 2.316,6.295 7.94,4.844 11.946,0.475 5.681,-6.197 6.872,-12.865 13.73,-17.942 2.042,-1.511 4.257,-4.98 7.18,-4.231 3.975,1.018 8.437,7.283 11.104,10.184 9.411,10.237 16.184,22.3 25.298,32.796 2.5,2.879 9.589,13.619 14.338,11.466 3.379,-1.533 4.053,-8.616 5.074,-11.748 3.789,-11.623 10.745,-20.845 15.365,-31.999 9.393,-22.675 12.406,-46.906 15.25,-71.001 1.212,-10.265 4.047,-22.739 2.502,-33 -1.455,-9.664 -8.376,-20.336 -12.08,-29.424 -4.51,-11.065 -8.749,-26.161 -18.707,-33.576 -4.221,15.156 -7.642,30.263 -10.611,46 -1.225,6.493 -1.63,13.864 -9.389,15 -1.422,4.962 -5.671,7.451 -8.562,11.579 -3.677,5.251 -5.284,11.943 -9.176,17.121 -2.764,3.678 -7.455,5.077 -10.534,8.423 -8.876,9.646 -15.112,23.948 -20.312,35.498 -2.691,5.977 -8.47,7.997 -9.416,15.379 4.892,-1.164 9.08,-0.622 14,0 l 1,4 c -11.277,1.433 -19.297,7 -31,7 l 0,3 c -4.987,1.279 -9.141,5.078 -14,7 -1.154,-2.249 -1.751,-2.846 -4,-4 -5.22,18.689 -22.77,24.483 -38.576,29.981 -4.608,1.604 -16.96,4.963 -20.424,1.019 -3.844,1.104 -7.085,0.494 -11,0 l 0,-3 c -9.704,-0.08 -23.601,2.342 -32.791,0.597 -7.81,-1.482 -11.227,-9.513 -17.534,-12.744 -18.007,-9.226 -37.69,-16.151 -51.705,-31.737 -11.029,-12.265 -10.702,-28.81 -24.97,-39.116 l 0,3 c -11.369,-5.515 -15.391,-25.922 -19,-37 -9.759,5.517 -10.715,18.106 -12.464,28 -4.675,26.46 -8.311,57.118 7.461,80.626 4.854,7.234 10.146,12.694 16.485,18.618 1.951,1.822 4.603,5.571 7.592,5.45 4.458,-0.179 6.336,-7.475 8.006,-10.694 6.636,-12.794 6.92,-23.885 6.92,-38 11.462,8.521 17.707,20.125 32,25 l 0,-3 c 8.762,2.759 15.135,30.365 16,39 l -337,0 c 13.932,-27.314 42.513,-45.907 68,-61.2 40.11,-24.068 79.063,-46.237 123,-62.481 18.212,-6.734 37.974,-19.043 57,-22.319 -3.31,-3.729 -8.336,-6.043 -11.146,-10.174 -4.139,-6.084 -4.89,-15.797 -6.738,-22.826 -3.263,-12.409 -12.378,-31.816 -7.602,-44.657 0.994,-2.672 4.042,-3.913 5.486,-6.343 l -6,2 -1,-69 2,0 c 1.032,7.02 0.009,12.132 0.097,18.985 0.068,5.216 2.486,8.648 0.903,14.015 5.929,5.102 4.51,20.202 3,27 l 3,0 c -0.121,4.785 1.681,6.162 4,10 0.992,-3.265 1.374,-6.638 2,-10 l -4,0 c 0.466,-5.121 1.926,-7.635 7,-9 0.036,4.402 0.847,8.657 0,13 2.006,-1.156 1.803,-1.629 3,0 1.162,-3.892 0.889,-8.501 3.804,-11.682 2.724,-2.973 10.632,-2.95 10.418,2.475 -0.139,3.534 -5.23,6.62 -7.222,9.207 1.878,1.825 1.169,2.694 0,5 1.797,0 1.521,0.014 3,1 l 3,-5 3,0 c 0.505,2.854 1.227,4.98 -1,7 0,-4.409 -9.669,6.001 -12,7 0.81,2.729 0.979,5.15 1,8 l 3,0 0,-4 c 3.988,1.261 5.998,0.79 8,-3 1.062,1.693 1.52,3.041 2,5 1.831,-2.479 3.346,-4.446 6,-6 -0.842,2.994 -1.584,5.917 -2,9 l 4,0 c 3.595,11.385 5.099,20.017 5,32 l -3,0 0,5 3,0 c 0.068,8.188 1.643,15.783 1,24 2.423,-0.181 2.758,-0.056 5,1 l 1,-5 -4,0 c 1.305,-2.08 2.181,-2.941 4,-1 l 4,-1 c 2.01,3.155 4.398,3.172 8,3 -0.476,2.877 -0.562,5.137 0,8 4.512,-3.371 3.665,-7.442 6.232,-11.981 2.831,-5.006 8.421,-6.334 7.62,-13.019 -0.803,-6.703 -6.188,-12.005 -5.852,-19 -4.542,-3.969 -2.252,-19.47 2.569,-22.988 5.089,-3.713 13.515,-3.012 19.431,-3.012 l -1,4 c 2.124,-0.899 2.101,-0.876 3,-3 2.611,1.771 3.486,2.881 4,6 7.111,-0.12 10.974,-6.058 17,-9 -1.062,4.404 -2.952,6.776 -6,10 l 4,0 -1,7 18,-4 -1,3 c 2.652,-2.126 4.667,-3.339 8,-4 -1.144,-5.127 2.438,-8.915 3,-14 -1.594,1.297 -2.018,1.535 -4,2 1.771,-2.611 2.881,-3.486 6,-4 -2.096,-3.955 -5.745,-6.265 -8,-10 6.364,1.399 13.7,5.673 18.164,10.466 3.774,4.051 6.028,10.36 12.006,11.895 10.289,2.643 17.064,-4.001 25.83,-6.361 1.022,-6.213 7.312,-8.3 9.228,-14.018 1.519,-4.537 -0.811,-8.544 -1.345,-12.982 -0.719,-5.978 0.832,-11.948 0.117,-18 l 8,1 c 2.392,6.891 -3,15.82 -3,24 2.364,0.482 2.518,0.636 3,3 5.144,-0.283 7.588,-1.668 8,-7 l 2,0 c -0.041,12.052 -10.633,14.576 -12,25 l -4,0 c 0.684,1.58 0.805,1.777 2,3 -0.314,6.585 3.939,11.298 4,18 2.395,-2.294 3.484,-3.722 4,-7 l 6,1 c -1.496,6.72 1.507,7.284 5,12 1.982,-7.133 0.2,-9.969 9,-10 l -3,-2 c 1.686,-4.298 4.638,-4.797 9,-5 -1.006,1.731 -1.546,3.053 -2,5 l 4,0 -1,-4 c 3.359,2.216 7.824,2.63 10,6 5.696,-0.695 10.915,0.992 14,6 l 2,-1 c 6.558,13.625 1.673,31.627 -1,45 l 8,0 c -0.854,-2.38 -1.666,-4.488 -2,-7 l 3,0 c 0.309,2.447 0.805,3.834 2,6 l -4,6 c 3.267,-1.772 5.601,-4.179 8,-7 l 3,1 c 2.644,-8.472 2.858,-16.267 3,-25 2.545,-1.635 2.779,-2.993 3,-6 1.195,0.598 0.977,0.466 2,2 l 1,-3 c 1.522,2.296 2.557,3.698 5,5 l 1,-4 c 0.683,1.506 0.826,2.315 1,4 l 2,0 c 0.114,-5.695 0.173,-9.629 -2,-15 1.801,-0.562 3.122,-0.824 5,-1 l 0,-4 3,0 c 0.072,8.722 1.999,17.25 2,26 4.42,-7.765 1.479,-12.779 3,-21 l 3,3 -2,-12 -5,0 c 0.287,-3.869 2.672,-6.832 0,-10 0.768,-1.314 0.686,-1.232 2,-2 -3.217,-4.995 -1.73,-17.722 -2,-24 -4.922,-1.765 -4.024,-8.302 -9.059,-9.682 -6.676,-1.83 -14.202,0.644 -20.941,0.307 -17.621,-0.881 -38.641,-4.793 -53.711,-14.487 -9.901,-6.369 -11.193,-17.712 -19.289,-25.138 l 1,6 -5,-4 c 0.166,-3.764 -0.522,-7.281 -1,-11 l 3,0 c -4.526,-11.801 -1.316,-39.34 -16,-42 l 0,-3 c 6.312,0.516 10.15,2.155 13,8 l 2,0 c 1.11,-3.514 6.283,-9.569 5.887,-12.942 -0.576,-4.912 -11.546,-4.056 -14.887,-4.058 l 0,-4 c 18.267,0.784 37.904,2.048 56,4.424 6.667,0.876 21.277,3.885 27,0.576 l 5,1 c 0.756,-6.205 18.51,3.93 23,4 -1.534,-1.023 -1.402,-0.805 -2,-2 l 4,-1 -1,-4 c 3.27,-4.15 4.299,-10.798 5,-16 1.797,0 1.522,0.014 3,1 l -1,6 8,-1 c -1.434,7.722 -1.978,16.144 -2,24 7.777,-10.179 8.418,-32.269 9,-45 l 4,1 -1,-10 c 3.191,-1.967 4.998,-4.993 8,-7 -0.491,-3.083 -0.219,-5.896 0,-9 2.901,1.191 4.685,2.932 7,5 10e-4,-8.587 2.915,-20.449 -2,-28 0.326,-10.576 -6.874,-4.947 -10,0 0.957,1.517 1.387,2.339 2,4 -2.578,1.125 -3.183,3.399 -6,4 0.403,3.58 0.201,5.194 -3,7 1.847,0.21 3.143,0.194 5,0 -0.003,3.78 0.212,6.841 -2,10 3.438,2.295 2.542,5.923 1.3,9.572 -3.086,9.064 -7.076,16.754 -8.3,26.428 -4.846,-11.234 1.25,-18.67 4.482,-29 1.351,-4.318 0.956,-8.624 2.518,-13 l -6,1 c 0,-16.016 1.319,-31.147 2,-47 l 7,-1 -3,6 c 5.808,0.176 7.266,3.594 12,6 -0.934,-1.723 -1.535,-3.106 -2,-5 l 4,0 c -1.009,-3.188 -2.73,-6.516 0,-9 l 0,-2 c -5.783,-4.951 -13.367,-24.324 -14,-32 -5.779,-1.903 -6.645,-8.407 -9.84,-12.996 -4.956,-7.122 -14.673,-10.183 -17.16,-19.004 -6.453,-0.429 -12.355,-2 -19,-2 l -1,4 -2,0 c -3.67,-3.465 -11.013,-4.606 -16,-4 -3.144,-3.718 -5.465,-5.147 -3,-10 l -5,1 c -2.124,-3.003 -4.053,-1.379 -7,0 -0.899,-2.124 -0.876,-2.101 -3,-3 -0.899,2.124 -0.876,2.101 -3,3 -0.695,-4.438 -4.167,-7.843 -6,-2 -2.124,0.899 -2.101,0.876 -3,3 l -7,0 0,-6 -6,2 0,4 c -5.072,-0.69 -8.196,-3.806 -12,-7 l 0,7 -4,-1 c -0.179,15.899 -19.078,3.56 -28,12 l -2,0 -1,-4 c -2.597,-0.178 -3.887,-0.499 -6,-2 l 0,2 c -1.3,-0.65 -1,-0.147 -1,-2 -2.032,0.323 -2.982,0.34 -5,0 l 0,2 c -4.382,-1.043 -13.036,0.891 -16,-2 -2.018,0.34 -2.968,0.323 -5,0 -0.526,2.543 -0.878,3.535 -3,5 -0.451,-4.013 -1.617,-5.807 -5,-8 l 1,5 c -4.78,-1.043 -8.245,-0.302 -13,0 l 0,4 c -4.268,-1.034 -8.671,-2.449 -13,-3 1.036,1.186 1.339,1.604 2,3 -1.752,-0.564 -2.542,-0.919 -4,-2 -6.407,3.824 -17.415,-0.969 -22,7 -5.94,0.453 -8.5,4.975 -11,10 -5.22,0.358 -6.924,3.399 -11.13,5.905 -13.043,7.772 -22.028,18.211 -20.87,34.095 -4.072,3.63 -13.34,19.504 -8,24 -1.688,3.104 -1.688,4.896 0,8 -0.792,2.19 -0.947,2.012 0,4 -3.583,21.711 -12.603,42.322 0.305,62.039 3.043,4.65 4.686,10.694 10.71,12.293 6.688,1.775 13.925,-8.112 20.985,-9.524 15.321,-3.065 30.713,1.19 46,1.192 l 0,4 c -16.886,-3.135 -34.283,-3.821 -51,0 3.171,5.039 7.106,2.216 11.985,1.156 10.703,-2.326 20.139,-2.175 31.015,-0.156 l 0,4 c -7.956,-0.164 -14.152,-1.076 -22,1 -0.359,3.015 -2.075,3.3 -5,4 3.268,5.193 8.004,2.156 13,1 l -2,-3 c 2.709,-0.648 5.215,-0.942 8,-1 l -1,2 c 3.617,-0.298 8.649,-3.442 11.961,-2.843 2.659,0.48 3.907,3.578 6.168,4.819 3.228,1.772 10.171,2.874 13.871,3.384 5.245,0.721 10.722,-2.119 16,-2.36 0.064,3.078 0.438,5.975 1,9 -18.404,-1.455 -36.468,-4 -55,-4 -0.415,2.782 -3.89,3.09 -6,5 l -3,-1 c -0.432,3.406 -0.966,6.731 -2,10 5.213,-0.785 9.029,-3.978 14,-5.276 4.238,-1.107 8.696,0.221 13,0.272 11.119,0.132 32.844,-2.875 38,10.004 -4.382,-1.03 -8.479,-2.425 -13,-3 l 0,3 -8,-2 c -1.545,8.919 -10.569,17.422 -19.699,10.522 -3.079,-2.327 -5.063,-8.924 -8.536,-10.075 -2.71,-0.899 -6.808,3.122 -9.765,3.553 0.698,3.599 2.657,6.34 2,10 -2.471,-1.281 -3.256,-2.32 -4,-5 -5.124,0.404 -13.757,3.945 -17,-1 l 4,0 -1,-4 6,-2 c -3.577,-1.067 -7.318,-1.316 -11,-2 l 1,3 c -5.996,-0.982 -9.458,-5.091 -10,-11 l -9,0 c -1.239,15.7 -0.021,28.632 1,44 6.633,2.266 9.73,12.278 16.285,16.002 6.095,3.461 14.057,3.206 20.715,4.211 16.791,2.534 32.766,6.59 48.997,-2.131 8.703,-4.676 16.564,-14.923 21.439,-23.367 3.093,-5.357 -1.435,-11.539 6.564,-12.715 3.426,-12.779 15.822,-32.523 -1.015,-42.095 -3.405,-1.935 -7.249,-2.844 -10.985,-3.905 12.418,-5.063 21.501,9.994 23,20 4.098,-1.503 7.576,-2.807 12,-3 -2.339,3.37 -6.448,4.281 -8.695,8.019 -9.369,15.587 -14.156,37.467 -27.205,50.721 -18.092,18.376 -56.406,21.168 -79.139,10.295 -7.646,-3.656 -13.64,-5.595 -18.486,-13.074 -7.217,-11.136 -10.018,-23.775 -9.436,-36.961 0.233,-5.258 2.594,-10.642 1.697,-15.911 -0.792,-4.657 -4.486,-7.9 -6.131,-12.182 -2.109,-5.49 -2.215,-11.718 -6.605,-15.907 -0.151,2.992 -0.246,5.251 1,8 -3.26,8.07 5.158,17.507 8,25 -6.155,-2.382 -8.67,-8.515 -16,-9 l 1,-6 c -3.175,0.529 -5.262,5.954 -5,7 -2.297,-0.674 -2.774,-0.965 -4,-3 -3.857,1.083 -5.605,1.228 -9,-1 0,1.797 -0.014,1.521 -1,3 -2.472,-5.835 -2.713,-12.914 -4.87,-19 -2.291,-6.462 -5.954,-9.838 -5.13,-17 l -5,1 c -0.112,-5.389 -2.31,-9.81 -3,-15 l -4,0 3,21 3,0 c -0.416,9.108 -3.854,17.935 -5,27 -3.023,-7.204 -0.522,-17.251 -1.09,-25 -0.933,-12.722 -15.679,-50.708 11.09,-42 0,-19.193 0.222,-38.854 -1.089,-58 -0.83,-12.11 -4.063,-29.217 -1.234,-41 2.82,-11.748 12.805,-31.717 20.713,-40.83 4.631,-5.337 11.714,-8.594 15.756,-14.456 5.408,-7.843001 2.475,-19.689001 7.711,-27.543001 4.464,-6.697 13.85,-11.692 20.143,-16.595 19.365,-15.088 36.391,-25.26 59,-34.587 30.004,-12.3781 64.587,-22.9890004 97,-22.9890004 6.331,0 13.84,-1.48700006 20,-0.4429 52.678,8.9284004 92.188,45.2879004 122.629,86.4429004 8.327,11.258 21.933,24.778001 26.643,38.000001 4.117,11.555 2.977,27.788 3.818,40 1.593,23.133 8.248,48.028 1.932,70.941 -1.107,4.016 -5.648,4.182 -6.703,8.118 -2.472,9.216 2.789,20.511 1.367,29.941 -0.937,6.211 -6.455,12.721 -9.686,18 z"
     id="path6"
     inkscape:connector-curvature="0" />
  <path
     style="fill:#bababa;stroke:none"
     d="m 452,0.91260854 c -8.606,3.61110006 -22.661,1.00000006 -32,1.00000006 8.606,-3.6111 22.662,-1.00000006 32,-1.00000006 m 8,1.00000006 -1,1 1,-1 m -47.667,0.3333 c 0.445,0.4445 -0.611,0.3891 -0.666,0.3334 -0.445,-0.4445 0.611,-0.3889 0.666,-0.3334 m 51,1 c 0.445,0.4447 -0.611,0.3888 -0.666,0.3334 -0.445,-0.4444 0.611,-0.3891 0.666,-0.3334 M 410,2.9126086 c -1.248,0.6849 -1.548,0.7488 -3,1 1.248,-0.6849 1.548,-0.7488 3,-1 m 55.333,1.3333 c 0.445,0.4446 -0.611,0.3889 -0.666,0.3334 -0.445,-0.4444 0.611,-0.389 0.666,-0.3334 m -60,0 c 0.445,0.4445 -0.611,0.389 -0.666,0.3334 -0.445,-0.4445 0.611,-0.389 0.666,-0.3334 m 63.667,0.6667 -1,1 1,-1 m -66.667,0.3333 c 0.445,0.4445 -0.611,0.3891 -0.666,0.3334 -0.445,-0.4445 0.611,-0.3889 0.666,-0.3334 m 69.667,0.6667 -1,1 1,-1 m -73.667,0.3333 c 0.445,0.4447 -0.611,0.3889 -0.666,0.3334 -0.445,-0.4445 0.611,-0.3889 0.666,-0.3334 m 76,1 c 0.445,0.4445 -0.611,0.3889 -0.666,0.3334 -0.445,-0.4445 0.611,-0.3889 0.666,-0.3334 m -79,0 c 0.445,0.4445 -0.611,0.3889 -0.666,0.3334 -0.445,-0.4444 0.611,-0.389 0.666,-0.3334 m 82,1 c 0.445,0.4445 -0.611,0.389 -0.666,0.3334 -0.445,-0.4444 0.611,-0.389 0.666,-0.3334 m -86,0 c 0.445,0.4445 -0.611,0.3891 -0.666,0.3334 -0.445,-0.4445 0.611,-0.389 0.666,-0.3334 m 89,1 c 0.445,0.4446 -0.611,0.389 -0.666,0.3334 -0.445,-0.4445 0.611,-0.3889 0.666,-0.3334 m -92,0 c 0.445,0.4447 -0.611,0.3889 -0.666,0.3334 -0.445,-0.4444 0.611,-0.389 0.666,-0.3334 m 95,1.0000004 c 0.445,0.4447 -0.611,0.3889 -0.666,0.3334 -0.445,-0.4445 0.611,-0.3891 0.666,-0.3334 m -99,0 c 0.445,0.4447 -0.611,0.3889 -0.666,0.3334 -0.445,-0.4444 0.611,-0.3891 0.666,-0.3334 m 102,1 c 0.445,0.4446 -0.611,0.389 -0.666,0.3334 -0.445,-0.4445 0.611,-0.3889 0.666,-0.3334 m -105,0 c 0.445,0.4446 -0.611,0.389 -0.666,0.3334 -0.445,-0.4445 0.611,-0.3889 0.666,-0.3334 m 108,1 c 0.445,0.4447 -0.611,0.3889 -0.666,0.3334 -0.445,-0.4445 0.611,-0.389 0.666,-0.3334 m -112,0 c 0.445,0.4447 -0.611,0.3889 -0.666,0.3334 -0.445,-0.4445 0.611,-0.389 0.666,-0.3334 m 115,1 c 0.445,0.4446 -0.611,0.389 -0.666,0.3334 -0.445,-0.4445 0.611,-0.389 0.666,-0.3334 m -118,0 c 0.445,0.4446 -0.611,0.389 -0.666,0.3334 -0.445,-0.4446 0.611,-0.3889 0.666,-0.3334 m 121,1 c 0.445,0.4446 -0.611,0.3889 -0.666,0.3334 -0.445,-0.4446 0.611,-0.3888 0.666,-0.3334 m -125,0 c 0.445,0.4446 -0.611,0.3889 -0.666,0.3334 -0.445,-0.4446 0.611,-0.3889 0.666,-0.3334 m 128,1 c 0.445,0.4446 -0.611,0.3889 -0.666,0.3334 -0.445,-0.4445 0.611,-0.389 0.666,-0.3334 m -131,0 c 0.445,0.4445 -0.611,0.3889 -0.666,0.3334 -0.445,-0.4446 0.611,-0.3889 0.666,-0.3334 m 133,1 c 0.445,0.4445 -0.611,0.3889 -0.666,0.3334 -0.445,-0.4446 0.611,-0.3889 0.666,-0.3334 m -136,0 c 0.445,0.4446 -0.611,0.3889 -0.666,0.3334 -0.445,-0.4445 0.611,-0.3889 0.666,-0.3334 m 137.667,0.6667 -1,1 1,-1 m -141.667,0.3333 c 0.445,0.4445 -0.611,0.3891 -0.666,0.3334 -0.445,-0.4447 0.611,-0.3889 0.666,-0.3334 m 143.667,0.6667 -1,1 1,-1 m -146.667,0.3333 c 0.445,0.4446 -0.611,0.3889 -0.666,0.3334 -0.445,-0.4444 0.611,-0.389 0.666,-0.3334 m 148.667,0.6667 -1,1 1,-1 m -152.667,0.333 c 0.445,0.445 -0.611,0.389 -0.666,0.334 -0.445,-0.445 0.611,-0.389 0.666,-0.334 m 153.667,0.667 -1,1 1,-1 m -156.667,0.333 c 0.445,0.445 -0.611,0.389 -0.666,0.334 -0.445,-0.445 0.611,-0.389 0.666,-0.334 m 158.667,0.667 -1,1 1,-1 m -161,0 -1,1 1,-1 m 163,1 -1,1 1,-1 m -166,0 -1,1 1,-1 m 167.333,1.333 c 0.445,0.445 -0.611,0.389 -0.666,0.334 -0.445,-0.445 0.611,-0.389 0.666,-0.334 m -170,0 c 0.445,0.445 -0.611,0.389 -0.666,0.334 -0.445,-0.445 0.611,-0.389 0.666,-0.334 m 171.667,0.667 -1,1 1,-1 m -173.667,0.333 c 0.445,0.445 -0.611,0.389 -0.666,0.334 -0.445,-0.445 0.611,-0.389 0.666,-0.334 m 175.667,0.667 -1,1 1,-1 m -178.667,0.333 c 0.445,0.445 -0.611,0.389 -0.666,0.334 -0.445,-0.445 0.611,-0.389 0.666,-0.334 m 180.667,0.667 -1,1 1,-1 m -182.667,0.333 c 0.445,0.445 -0.611,0.389 -0.666,0.334 -0.445,-0.445 0.611,-0.389 0.666,-0.334 m 183.667,0.667 -1,1 1,-1 m -186.667,0.333 c 0.445,0.445 -0.611,0.389 -0.666,0.334 -0.445,-0.445 0.611,-0.389 0.666,-0.334 m 188.667,0.667 -1,1 1,-1 m -190.667,0.333 c 0.445,0.445 -0.611,0.389 -0.666,0.334 -0.445,-0.445 0.611,-0.389 0.666,-0.334 m 192.667,0.667 -1,1 1,-1 m -195.667,0.333 c 0.445,0.445 -0.611,0.389 -0.666,0.334 -0.445,-0.445 0.611,-0.389 0.666,-0.334 m 196.667,0.667 -1,1 1,-1 m -198.667,0.333 c 0.445,0.445 -0.611,0.389 -0.666,0.334 -0.445,-0.445 0.611,-0.389 0.666,-0.334 m 200.667,0.667 -1,1 1,-1 m -203,0 -1,1 1,-1 m 205,1 -1,1 1,-1 m -207.667,0.333 c 0.445,0.445 -0.611,0.389 -0.666,0.334 -0.445,-0.445 0.611,-0.389 0.666,-0.334 m 209,1 c 0.445,0.445 -0.611,0.389 -0.666,0.334 -0.445,-0.445 0.611,-0.389 0.666,-0.334 m -211.333,-0.333 -1,1 1,-1 m 213,1 -1,1 1,-1 m -215.667,0.333 c 0.445,0.445 -0.611,0.389 -0.666,0.334 -0.445,-0.445 0.611,-0.389 0.666,-0.334 m 217.667,0.667 -1,1 1,-1 m -220,0 -1,1 1,-1 m 221,1 -1,1 1,-1 m -223.667,0.333 c 0.445,0.445 -0.611,0.389 -0.666,0.334 -0.445,-0.445 0.611,-0.389 0.666,-0.334 m 224.667,0.667 -1,1 1,-1 m -128,3 -10,0 c 2.198,-2.198 6.901,0.602 6,-3 2.297,0.674 2.774,0.965 4,3 m -98,-3 -1,1 1,-1 m 227,1 -1,1 1,-1 m -228.667,0.333 c 0.445,0.445 -0.611,0.389 -0.666,0.334 -0.445,-0.445 0.611,-0.389 0.666,-0.334 m 229.667,0.667 -1,1 1,-1 m -231,0 -1,1 1,-1 m 232,1 -1,1 1,-1 m -233,0 -1,1 1,-1 m 234,1 -1,1 1,-1 m -235,0 -1,1 1,-1 m 236,1 -1,1 1,-1 m -238,0 -1,1 1,-1 m 239,1 -1,1 1,-1 m -240,0 -1,1 1,-1 m 241,1 -1,1 1,-1 m -242,0 -1,1 1,-1 m 243,1 -1,1 1,-1 m -244.667,0.333 c 0.445,0.445 -0.611,0.389 -0.666,0.334 -0.445,-0.445 0.611,-0.389 0.666,-0.334 m 245.667,0.667 -1,1 1,-1 m -247,0 -1,1 1,-1 m 248,1 -1,1 1,-1 m -249,0 -1,1 1,-1 m 250,1 -1,1 1,-1 m -129,0 c -0.65,1.3 -0.147,1 -2,1 3.96,1.171 7.887,1 12,1 l 0,2 -24,0 2,-4 12,0 m -122,0 -1,1 1,-1 m 252,1 -1,1 1,-1 m -254,0 -1,1 1,-1 m 255,1 -1,1 1,-1 m -256,0 -1,1 1,-1 m 257,1 -1,1 1,-1 m -258,0 -1,1 1,-1 m 259,1 -1,1 1,-1 m -260,0 -1,1 1,-1 m -2,1 -1,1 1,-1 m -1,1 -1,1 1,-1 m -1,1 -1,1 1,-1 m 128,2 c -3.697,1.552 -8.017,1 -12,1 l 0,-2 c 4.08,0.011 7.963,0.49 12,1 m -130,-1 -1,1 1,-1 m -1,1 -1,1 1,-1 m 272,1 -1,1 1,-1 m -273,0 -1,1 1,-1 m 274,1 -1,1 1,-1 m -275,0 -1,1 1,-1 m 276,1 -1,1 1,-1 m -278,0 -1,1 1,-1 m 279,1 -1,1 1,-1 m -137,1 -1,3 c -8.06,-1.919 -16.752,-0.995 -25,-2 7.158,-3.004 18.371,-1.601 26,-1 m -143,-1 -1,1 1,-1 m 281,1 -1,1 1,-1 m -282,0 -1,1 1,-1 m 283,1 -1,1 1,-1 m -285,0 -1,1 1,-1 m 286,1 -1,1 1,-1 m -287,0 -1,1 1,-1 m 288,1 -1,1 1,-1 m -289,0 -1,1 1,-1 m 290,1 -1,1 1,-1 m -291,0 -1,1 1,-1 m 292,1 -1,1 1,-1 m -127,3 c -4.471,1.876 -10.183,1 -15,1 l 0,2 c 4.273,0.296 7.751,2.538 12,3 l 0,2 -27,-1 0,-2 4,0 0,-2 c -6.181,0.051 -11.883,1.456 -18,0 4.36,-2.974 10.835,-1.635 16,-2 -2.106,-0.644 -3.795,-0.906 -6,-1 l 0,-3 c 12.037,0.025 22.572,-0.08 34,3 m -167,-3 -1,1 1,-1 m 295,1 -1,1 1,-1 m -296,0 -1,1 1,-1 m 297,1 -1,1 1,-1 m -298,0 -1,1 1,-1 m -2,1 -1,1 1,-1 m 301,1 -1,1 1,-1 m -302,0 -1,1 1,-1 m 303,1 -1,1 1,-1 m -304,0 -1,1 1,-1 m -1,1 -1,1 1,-1 m -2,1 -1,1 1,-1 m 309,1 -1,1 1,-1 m -310,0 -1,1 1,-1 m 311,1 -1,1 1,-1 m -312.333,1.667 c 0.055,0.055 0.111,1.111 -0.334,0.666 -0.055,-0.055 -0.111,-1.111 0.334,-0.666 m 313.333,0.333 -1,1 1,-1 m 1,1 -1,1 1,-1 m 1,1 -1,1 1,-1 m -316,1 0,3 c -0.696,-1.554 -0.696,-1.446 0,-3 m 317,1 -1,1 1,-1 m 1,1 -1,1 1,-1 m 1,2 -1,1 1,-1 m 1,1 -1,1 1,-1 m -321,0 0,3 c -0.696,-1.554 -0.696,-1.446 0,-3 m 322,1 -1,1 1,-1 m 1,2 -1,1 1,-1 m 1,1 -1,1 1,-1 m 1,1 -1,1 1,-1 m -326.333,0.667 c 0.055,0.055 0.111,1.111 -0.334,0.666 -0.055,-0.055 -0.111,-1.111 0.334,-0.666 m 327.333,1.333 -1,1 1,-1 m 1,1 -1,1 1,-1 m -329,1 0,3 c -0.696,-1.554 -0.696,-1.446 0,-3 m 330,1 -1,1 1,-1 m 1,1 -1,1 1,-1 m -213,1 c -1.506,0.683 -2.315,0.826 -4,1 1.81,-1.24 1.777,-1.184 4,-1 m 214,0 -1,1 1,-1 m 1,2 -1,1.000001 1,-1.000001 m -334.333,0.667001 c 0.055,0.055 0.111,1.111 -0.334,0.666 -0.055,-0.055 -0.111,-1.111 0.334,-0.666 m 335.333,0.333 -1,1 1,-1 m 2,3 -1,1 1,-1 m -338,0 -1,1 1,-1 m 339,1 -1,1 1,-1 m -342,1 -1,1 1,-1 m 343,1 -1,1 1,-1 m -344,0 -1,1 1,-1 m 345,1 -1,1 1,-1 m -346,0 -1,1 1,-1 m 347,1 -1,1 1,-1 m -348,0 -1,1 1,-1 m -1,1 -1,1 1,-1 m 350,1 -1,1 1,-1 m -352,0 -1,1 1,-1 m 353,1 -1,1 1,-1 m -354,0 -1,1 1,-1 m -1,1 -1,1 1,-1 m 356,1 -1,1 1,-1 m -357,0 -1,1 1,-1 m 358,1 -1,1 1,-1 m -359,0 -1,1 1,-1 m 360,1 -1,1 1,-1 m -362,0 -1,1 1,-1 m -1,1 -1,1 1,-1 m 364,1 -1,1 1,-1 m -365,0 -1,1 1,-1 m 366,1 -1,1 1,-1 m -367.333,0.667 c 0.055,0.055 0.111,1.111 -0.334,0.666 -0.055,-0.055 -0.111,-1.111 0.334,-0.666 m 368.333,1.333 -1,1 1,-1 m -254,2 c -2.369,0.508 -3.732,-0.06 -6,-1 2.43,-0.858 3.72,-0.183 6,1 m -115.333,-1.333 c 0.055,0.055 0.111,1.111 -0.334,0.666 -0.055,-0.055 -0.111,-1.111 0.334,-0.666 m 370.333,0.333 -1,1 1,-1 m 1,1 -1,1 1,-1 m -372.333,0.667 c 0.055,0.055 0.111,1.111 -0.334,0.666 -0.055,-0.055 -0.111,-1.111 0.334,-0.666 m 373.333,1.333 -1,1 1,-1 m -137,7 c 2.668,-1.678 5.097,-4.295 6,0 2.751,-1.91 5.993,-4.697 7,0 l 5,-1 c -1.69,4.902 0.699,5.97 3,10 4.409,-1.069 13.281,0.23 16,4 l 2,0 1,-4 c 6.732,0 12.472,1.169 19,2 3.584,7.837 11.352,10.615 16.446,17.043 3.943,4.976 4.662,11.782 10.554,14.957 1.201,8.69 8.628,25.053 14,32 l 0,2 c -1.908,3.009 -0.76,5.63 0,9 l -4,0 2,5 c -4.813,-1.497 -6.483,-5.622 -12,-6 l 3,-6 c -2.377,0.572 -4.558,0.891 -7,1 -0.325,15.736 -2,31.099 -2,47 l 6,-1 c -3.394,14.489 -8.124,27.078 -8,42 2.699,-7.207 13.322,-30.145 8,-36 1.842,-3.311 1.987,-6.259 2,-10 l -5,1 c 2.082,-2.704 2.915,-4.574 3,-8 2.578,-1.125 3.183,-3.399 6,-4 -0.472,-1.416 -0.814,-1.814 -2,-3 2.382,-6.893 10.913,-12.394 10,-1 6.066,5.259 2.005,20.83 2,28 l -7,-5 0,9 c -2.771,2.774 -4.251,5.425 -8,7 0.943,3.328 0.794,6.557 1,10 l -4,-1 c -0.235,11.039 -0.789,37.36 -9,45 0.005,-7.748 0.206,-16.466 2,-24 l -8,1 c 0.024,-3.035 -0.042,-4.689 -2,-7 -0.393,4.809 -1.196,12.803 -5,16 l 1,4 c -1.679,0.466 -3.948,0.782 -2,2 -4.477,2.579 -22.095,-9.137 -23,-3 l -5,-1 c -3.443,3.623 -15.046,0.031 -20,-10e-4 -21.07,-0.135 -42.024,-3.343 -63,-4.999 l 0,4 c 3.383,0 15.047,-1.12 15.404,4.058 0.25,3.608 -4.9,9.523 -6.404,12.942 l -2,0 c -3.589,-5.128 -6.785,-7.158 -13,-8 l 0,3 c 14.605,1.506 10.663,21.067 12.133,31.961 0.49,3.623 3.017,6.486 3.867,10.039 l -3,0 c 0.73,3.768 1.633,7.197 1,11 1.979,1.099 3.333,2.452 5,4 l -1,-6 c 6.173,3.748 7.883,12.649 12.383,18.246 5.393,6.71 14.055,10.785 21.902,13.965 11.159,4.523 27.749,7.213 39.715,7.218 6.155,0.003 15.968,-2.578 21.687,0.174 3.582,1.724 3.602,7.186 7.313,9.397 0.497,6.295 -1.016,17.783 2,23 l -2,3 c 3.941,2.626 0.579,6.108 0,10 l 5,0 c 0.83,4.025 1.82,7.878 2,12 -1.783,-0.98 -1.594,-0.908 -2,-3 -2.899,6.922 -0.192,13.533 -3,21 -2.965,-7.063 -2.979,-18.304 -3,-26 l -3,0 0,4 -5,1 c 2.962,5.295 2.249,9.186 2,15 l -2,0 0,-4 c -0.957,1.517 -1.387,2.338 -2,4 -2.964,-0.968 -3.503,-1.934 -4,-5 -1.401,1.615 -1.813,2.804 -3,1 -1.096,2.952 -0.653,5.283 -4,6 1.053,8.251 0.277,17.28 -3,25 -1.797,0 -1.521,-0.014 -3,-1 -1.623,3.325 -4.365,6.033 -8,7 1.092,-2.404 2.194,-4.074 4,-6 -1.582,-2.057 -1.826,-3.388 -2,-6 l -3,0 2,7 -8,0 c 0.434,-3.892 2.917,-6.426 3.683,-10.09 1.91,-9.132 0.509,-26.152 -2.683,-34.91 l -2,1 c -3.924,-4.336 -8.177,-6.022 -14,-6 -2.741,-2.811 -6.756,-2.82 -9,-6 -0.224,1.684 -0.218,2.313 0,4 l -4,0 c 0.307,-2.123 0.382,-2.686 2,-4 -4.303,-0.884 -6.744,0.234 -9,4 l 3,1 c -7.084,3.011 -8.046,2.599 -8,11 -5.314,-3.254 -8.495,-5.406 -6,-12 l -6,-1 c -0.277,3.543 -1.06,4.994 -4,7 -0.162,-6.705 -5.046,-11.3 -4,-18 -1.783,-0.98 -1.594,-0.908 -2,-3 l 4,0 c 0.7,-10.41 11.871,-13.319 12,-25 l -2,0 c -0.192,5.776 -2.455,6.866 -8,7 -0.899,-2.124 -0.876,-2.101 -3,-3 0,-8.315 4.513,-16.708 3,-24 l -8,-1 c 1.097,5.997 -0.708,11.628 0.022,17.576 0.602,4.902 3,9.363 1.209,14.37 -1.878,5.253 -7.607,7.564 -9.231,13.054 -8.133,3.531 -16.96,9.509 -26.714,6.436 -5.905,-1.86 -7.848,-8.001 -11.839,-11.97 -4.515,-4.489 -11.391,-8.583 -17.447,-10.466 3.095,3.404 6.438,5.502 8,10 -2.763,0.82 -4,1.895 -6,4 1.58,-0.684 1.777,-0.805 3,-2 1.894,4.915 -2.471,8.923 -2,14 -2.932,0.967 -5.348,2.421 -8,4 0,-1.797 0.014,-1.522 1,-3 -5.792,1.307 -12.204,3.362 -18,4 0.11,-2.442 0.428,-4.623 1,-7 l -4,0 c 2.221,-3.455 4.595,-5.991 6,-10 -5.076,4.217 -10.243,8.836 -17,9 -0.82,-2.763 -1.895,-4 -4,-6 -0.482,2.364 -0.636,2.518 -3,3 l 1,-4 c -5.838,0 -13.537,-0.376 -18.657,3.012 -5.808,3.844 -7.299,17.767 -3.343,22.988 0.042,8.279 8.1,15.291 5.682,23.871 -1.071,3.802 -5.583,5.624 -7.414,9.134 -2.35,4.502 -1.142,8.454 -6.268,10.995 -0.819,-2.969 -0.696,-4.998 0,-8 -3.556,0.777 -7.135,1.057 -8,-3 l -4,1 c -2.101,-0.954 -2.283,-0.627 -4,1 l 4,0 c -0.176,1.878 -0.438,3.199 -1,5 -1.804,-0.555 -3.127,-0.834 -5,-1 0.327,-8.133 -0.978,-15.894 -1,-24 l -3,0 0,-5 3,0 c 0.033,-11.879 -2.817,-20.675 -5,-32 l -4,0 c 0.261,-3.197 0.875,-5.997 2,-9 -2.08,1.842 -3.509,3.65 -5,6 -1.255,-1.75 -1.614,-2.857 -2,-5 -2.545,3.926 -4.666,5.128 -9,3 l 0,4 -3,0 c -0.058,-2.784 -0.352,-5.291 -1,-8 1.898,-1.584 11.208,-11.622 12,-7 1.557,-2.397 1.284,-4.147 1,-7 l -3,0 c -0.585,2.175 -1.573,3.244 -3,5 l -3,-1 c 0.745,-2.287 1.014,-2.919 0,-5 1.553,-3.021 5.735,-5.187 6.549,-8.427 0.992,-3.953 -4.401,-6.116 -7.368,-4.527 -4.689,2.513 -5.139,8.302 -5.181,12.954 -1.848,-1.078 -1.966,-0.949 -4,0 0.462,-4.332 0.012,-8.648 0,-13 -4.54,1.836 -6.233,4.188 -7,9 l 4,0 -1,10 c -4.061,-2.948 -5.367,-4.929 -5,-10 l -3,0 c 1.052,-8.135 2.407,-19.972 -3,-27 2.863,-12.192 -0.428,-27.618 -5,-39 l 5,2 c -1.639,-2.63 -2.914,-2.941 -6,-3 l 1,-3 c -10.07,-2.092 -10.995,-20.903 -11,-29 l -1,4 c -3.21,-7.649 -1,-19.712 -1,-28 2.5,5.959 1,14.564 1,21 3.01,-8.037 5.253,-18.432 6,-27 l -3,0 c -0.878,-6.951 -2.645,-14.061 -3,-21 l 4,0 c 1.182,5.232 2.954,9.485 3,15 1.801,-0.562 3.122,-0.824 5,-1 -0.572,12.082 8.965,23.137 9,36 1.186,-1.186 1.528,-1.584 2,-3 3.271,1.402 5.499,1.467 9,1 1.45,1.608 2.051,2.064 4,3 -0.078,-3.024 1.837,-6.326 5,-7 l -1,6 c 7.541,-0.715 10.293,5.634 16,9 -3.151,-6.09 -12.548,-18.471 -8,-25 -1.781,-2.762 -1.375,-4.779 -1,-8 4.955,2.863 4.965,10.891 6.921,15.94 1.541,3.975 5.085,6.838 5.885,11.194 1.044,5.694 -1.377,11.25 -1.746,16.866 -0.672,10.243 1.19,22.019 6.371,31 17.874,30.991 75.397,33.247 99.925,8.806 13.995,-13.945 17.416,-37.113 28.45,-52.723 2.066,-2.924 5.766,-3.56 8.194,-6.083 -4.295,0.354 -7.887,2.02 -12,3 -2.875,-12.137 -9.757,-20.386 -23,-21 4.737,2.381 10.597,3.083 14.606,6.789 11.403,10.544 2.145,29.164 -2.606,40.211 -7.399,1.935 -3.106,7.369 -6.045,12.715 -4.264,7.759 -11.018,16.222 -18.129,21.535 -15.91,11.888 -36.374,6.597 -53.826,3.963 -6.593,-0.995 -14.564,-0.732 -20.575,-4.211 -6.708,-3.883 -9.12,-12.424 -15.425,-16.002 -1.976,-15.517 -3.001,-28.177 -1,-44 l 9,0 c 0.903,5.625 4.532,9.399 10,11 -0.986,-1.479 -1,-1.203 -1,-3 3.695,0.467 7.265,0.969 11,1 -1.978,1.732 -3.435,2.402 -6,3 l 1,4 -4,0 c 4.412,4.236 11.384,1.241 17,1 1.035,2.314 1.986,3.454 4,5 0.046,-3.503 -1.617,-6.499 -2,-10 2.947,-0.758 6.773,-4.955 9.765,-4.172 3.403,0.89 5.73,7.664 8.536,9.968 9.113,7.487 17.32,-1.188 19.699,-9.796 l 8,2 0,-3 c 4.615,0.365 8.669,1.45 13,3 -7.335,-12.28 -37.282,-13.155 -50,-10.241 -5.383,1.234 -9.278,4.738 -15,5.241 l 2,-10 c 1.797,0 1.522,0.014 3,1 0.811,-4.053 6.951,-1.197 6,-5 18.454,0 36.728,1.679 55,4 -0.724,-3.04 -0.974,-5.878 -1,-9 -10.867,0.948 -18.023,2.75 -28.946,-0.314 -3.093,-0.868 -4.518,-4.922 -7.594,-5.259 -3.245,-0.356 -7.843,2.415 -11.46,2.573 l 1,-2 c -2.73,0.117 -5.314,0.499 -8,1 1.036,1.186 1.339,1.604 2,3 -4.734,1.54 -10.594,4.965 -13,-1 2.516,-0.853 4.601,-1.259 5,-4 7.607,-2.772 14.173,-1.336 22,-1 l 0,-4 c -13.957,-1.764 -23.451,-0.983 -36.985,2.196 -3.4,0.799 -4.79,-0.159 -6.015,-3.196 15.345,-4.864 35.425,-3.708 51,0 l 0,-4 c -15.287,0 -30.732,-4.345 -46,-0.985 -7.824,1.723 -13.802,11.867 -21.96,9.335 -5.642,-1.751 -7.417,-7.822 -10.38,-12.311 -12.31,-18.648 -4.337,-41.689 0.34,-62.039 -1.715,-1.592 -1.379,-2.15 0,-4 -1.81,-2.589 -2.55,-4.772 0,-7 -5.424,-3.644 2.037,-22.298 8,-25 -1.903,-16.622 14.173,-39.459 32,-40 1.747,-5.675 4.908,-9.8 11,-10 2.854,-7.933 15.078,-4.074 21,-7 l 5,2 c -0.545,-1.635 -0.365,-1.455 -2,-2 3.821,-1.49 9.151,0.817 13,2 l 0,-4 c 5.029,-0.637 7.951,-1.587 13,0 -0.562,-1.801 -0.824,-3.122 -1,-5 3.954,1.746 4.766,3.772 5,8 1.656,-1.686 2.251,-2.746 3,-5 l 5,0 c 4.735,2.339 10.832,0.472 16,2 l 0,-2 c 2.478,0.307 3.933,0.627 6,2 l 0,-2 c 2.075,1.17 3.637,1.692 6,2 l 1,4 2,0 c 7.488,-10.397 27.504,4.582 28,-12 l 4,1 0,-7 c 4.159,2.419 7.183,5.865 12,7 l 0,-4 6,-2 0,6 7,0 c 0.482,-2.364 0.636,-2.518 3,-3 1.163,-6.948 5.612,-3.084 6,2 m -237.333,-6.333 c 0.055,0.055 0.111,1.111 -0.334,0.666 -0.055,-0.055 -0.111,-1.111 0.334,-0.666 m 375.333,1.333 0,9 c -1.256,-2.994 -1.256,-6.006 0,-9 m -376.333,0.667 c 0.055,0.055 0.111,1.111 -0.334,0.666 -0.055,-0.055 -0.111,-1.111 0.334,-0.666 m 117.333,2.333 c -2.613,1.498 -4.354,1.012 -5,-2 1.875,0.547 3.255,1.11 5,2 m 9,-1 0,2 -2,0 0,-2 2,0 m -127.333,0.667 c 0.055,0.055 0.111,1.111 -0.334,0.666 -0.055,-0.055 -0.111,-1.111 0.334,-0.666 m -1,2 c 0.055,0.055 0.111,1.111 -0.334,0.666 -0.055,-0.055 -0.111,-1.111 0.334,-0.666 m -1,2 c 0.055,0.055 0.111,1.111 -0.334,0.666 -0.055,-0.055 -0.111,-1.111 0.334,-0.666 m -1,2 c 0.055,0.055 0.111,1.111 -0.334,0.666 -0.055,-0.055 -0.111,-1.111 0.334,-0.666 m -1,2 c 0.055,0.055 0.111,1.111 -0.334,0.666 -0.055,-0.055 -0.111,-1.111 0.334,-0.666 m 382.333,0.333 0,9 c -1.256,-2.994 -1.256,-6.006 0,-9 m -383.333,1.667 c 0.055,0.055 0.111,1.111 -0.334,0.666 -0.055,-0.055 -0.111,-1.111 0.334,-0.666 m -1,2 c 0.055,0.055 0.111,1.111 -0.334,0.666 -0.055,-0.055 -0.111,-1.111 0.334,-0.666 m -1,2 c 0.055,0.055 0.111,1.111 -0.334,0.666 -0.055,-0.055 -0.111,-1.111 0.334,-0.666 m -1,2 c 0.055,0.055 0.111,1.111 -0.334,0.666 -0.055,-0.055 -0.111,-1.111 0.334,-0.666 m -1,2 c 0.055,0.055 0.111,1.111 -0.334,0.666 -0.055,-0.055 -0.111,-1.111 0.334,-0.666 m -1,2 c 0.055,0.055 0.111,1.111 -0.334,0.666 -0.055,-0.055 -0.111,-1.111 0.334,-0.666 m 389.333,0.333 0,7 c -1.059,-2.534 -1.059,-4.466 0,-7 m -390.333,1.667 c 0.055,0.055 0.111,1.111 -0.334,0.666 -0.055,-0.055 -0.111,-1.111 0.334,-0.666 m -1,2 c 0.055,0.055 0.111,1.111 -0.334,0.666 -0.055,-0.055 -0.111,-1.111 0.334,-0.666 m -1,2 c 0.055,0.055 0.111,1.111 -0.334,0.666 -0.055,-0.055 -0.111,-1.111 0.334,-0.666 m -1,2 c 0.055,0.055 0.111,1.111 -0.334,0.666 -0.055,-0.055 -0.111,-1.111 0.334,-0.666 m 394.333,3.333 0,9 c -1.256,-2.994 -1.256,-6.006 0,-9 m -394,2 0,25 c -2.413,-5.75 -2.413,-19.25 0,-25 m 395,9 0,6 c -0.951,-2.285 -0.951,-3.715 0,-6 m 1,11 0,9 c -1.256,-2.994 -1.256,-6.006 0,-9 m 1,12 0,7 c -1.059,-2.534 -1.059,-4.466 0,-7 m -396,1 0,25 c -2.413,-5.75 -2.413,-19.25 0,-25 m 397,10 0,6 c -0.951,-2.285 -0.951,-3.715 0,-6 m 0,12 0,5 c -0.83,-2.03 -0.83,-2.97 0,-5 m -1,10 0,4 c -0.71,-1.759 -0.71,-2.24 0,-4 m -395,4 0,22 c -2.219,-5.287 -2.219,-16.713 0,-22 m 394,2 0,6 c -0.951,-2.285 -0.951,-3.715 0,-6 m -1,6 -1,1 1,-1 m -3,1 c -1.248,0.685 -1.548,0.749 -3,1 1.248,-0.685 1.548,-0.749 3,-1 m -3,3 0,9 c -1.256,-2.994 -1.256,-6.006 0,-9 m -28,6 c 2.417,2.17 3.926,3.924 5,7 l -4,1 c -1.049,-2.812 -1.881,-5.106 -1,-8 m -368,4 c -1.139,1.016 -1.611,1.309 -3,2 0.98,-1.783 0.908,-1.594 3,-2 m 2.333,1.333 c 0.445,0.445 -0.611,0.389 -0.666,0.334 -0.445,-0.445 0.611,-0.389 0.666,-0.334 m 3,1 c 0.445,0.445 -0.611,0.389 -0.666,0.334 -0.445,-0.445 0.611,-0.389 0.666,-0.334 m 3,1 c 0.445,0.445 -0.611,0.389 -0.666,0.334 -0.445,-0.445 0.611,-0.389 0.666,-0.334 m -11.666,0.334 c 0.055,0.055 0.111,1.111 -0.334,0.666 -0.055,-0.055 -0.111,-1.111 0.334,-0.666 m 1.333,11.333 c 0.233,-2.06 0.426,-3.778 1.653,-5.536 9.241,-13.238 20.75,11.12 5.348,7.901 l -7.001,-2.365 m -2.333,-9.333 c 0.055,0.055 0.111,1.111 -0.334,0.666 -0.055,-0.055 -0.111,-1.111 0.334,-0.666 m 401.333,0.333 0,11 c -1.431,-3.41 -1.431,-7.59 0,-11 m -21,2 c -0.088,7.46 -4,13.17 -4,21 -3.347,-0.539 -5.123,-2.429 -8,-4 1.998,-4.933 1.838,-7.794 1,-13 4.032,-2.088 6.214,-3.884 11,-4 m -341,0 0,4 c -0.71,-1.76 -0.71,-2.241 0,-4 m -40.333,0.667 c 0.055,0.055 0.111,1.111 -0.334,0.666 -0.055,-0.055 -0.111,-1.111 0.334,-0.666 m -0.667,2.333 -1,1 1,-1 m -1.333,2.667 c 0.055,0.055 0.111,1.111 -0.334,0.666 -0.055,-0.055 -0.111,-1.111 0.334,-0.666 m -0.667,2.333 -1,1 1,-1 m -0.333,3.667 c 0.055,0.055 0.111,1.111 -0.334,0.666 -0.055,-0.055 -0.111,-1.111 0.334,-0.666 m 20.333,3.333 c -3.314,3.481 -5.99,2.642 -7,-2 l 7,2 m 385,0 -1,1 1,-1 m -404.333,0.667 c 0.055,0.055 0.111,1.111 -0.334,0.666 -0.055,-0.055 -0.111,-1.111 0.334,-0.666 m 403.333,0.333 -1,1 1,-1 m -1,2 -1,1 1,-1 m -401,0 0,3 c -0.696,-1.554 -0.696,-1.446 0,-3 m 400,2 -1,1 1,-1 m -1,1 -1,1 1,-1 m -27,1 c 0.68,4.037 0.544,8.498 -3,11 0.319,-3.9 0.947,-7.639 3,-11 m -371,0 0,3 c -0.696,-1.554 -0.696,-1.446 0,-3 m 397,1 -1,1 1,-1 m -1,2 -1,1 1,-1 m -1,1 -1,1 1,-1 m -394,0 0,3 c -0.696,-1.554 -0.696,-1.446 0,-3 m 393,2 -1,1 1,-1 m 14,1 c -2.052,0.874 -3.747,0.953 -6,1 2.052,-0.874 3.747,-0.953 6,-1 m 2,1 0,9 c -1.256,-2.994 -1.256,-6.006 0,-9 m -12,0 c -2.052,0.874 -3.747,0.953 -6,1 2.052,-0.874 3.747,-0.953 6,-1 m -396,0 0,3 c -0.696,-1.554 -0.696,-1.446 0,-3 m 389,22 c 0.956,-4.003 2.59,-8.577 6,-11 l 0,-2 c -2.097,-1.989 -1.326,-4.21 -1,-7 11.793,0.919 4.26,18.709 -5,20 m -388,-18 0,3 c -0.696,-1.554 -0.696,-1.446 0,-3 m 43,7 c -1.543,1.267 -2.048,1.489 -4,2 l 3,7 c -1.245,1.198 -1.074,1.134 -1,3 l -4,0 1,-4 c -5.698,-1.227 -1.532,-10.37 5,-8 m 324,0 c -0.936,1.949 -1.392,2.55 -3,4 0.674,-2.297 0.965,-2.774 3,-4 m 40,4 0,6 c -0.951,-2.285 -0.951,-3.715 0,-6 m -315,3 c -1.789,1.422 -2.706,1.697 -5,2 l 0,-2 5,0 m 314,5 0,5 c -0.83,-2.03 -0.83,-2.97 0,-5 m -138,9 c -8.676,3.641 -24.459,0.999 -34,1 8.502,-6.541 24.126,-1.424 34,-1 m 137,-1 0,8 c -1.161,-2.77 -1.161,-5.23 0,-8 m -32,72 c 1.574,-12.45 5.189,-23.887 7.701,-36 1.348,-6.498 -0.185,-13.27 1.534,-19.83 0.741,-2.827 6.211,-16.647 10.181,-14.033 4.506,2.966 -0.197,15.597 -0.377,19.863 -0.194,4.609 1.853,8.573 1.853,13 0,12.1 -8.155,33.403 -20.892,37 m -131,-68 0,3 c -4.265,1.118 -7.47,3.586 -12,4 1.714,-5.79 6.445,-6.869 12,-7 z"
     id="path8"
     inkscape:connector-curvature="0" />
  <path
     style="fill:#3f3f3f;stroke:none"
     d="m 208,327.91261 1,13 c -3.193,-4.016 -3.397,-8.491 -1,-13 m 35,1 0,6 c 2.782,-0.812 3.627,-1.453 5,-4 3.651,1.287 3.665,3.418 3,7 3.32,1.641 8.849,20.747 3,22 l 0,3 3,0 c -0.206,10.298 -2.844,20.887 -2,31 -6.444,-1.887 -6.021,-19.847 -4,-25 l -4,-1 1,-4 c -2.317,1.383 -2.963,2.487 -4,5 l -4,-2 c 0.986,1.479 1,1.203 1,3 -2.003,-1.734 -1.923,-3.355 -2,-6 -2.294,5.839 0.739,11.741 0,18 l 3,-1 c 0.105,3.285 0.182,5.177 3,7 l -1,7 c -1.062,-1.693 -1.52,-3.04 -2,-5 -2.729,1.442 -5.017,3.168 -8,4 -2.739,-5.868 0.204,-21.126 -7,-19 0.565,-4.969 2.782,-7.853 8,-7 -1.888,-10.631 -1.397,-18.18 0,-29 l 6,0 -1,-10 3,0 z"
     id="path10"
     inkscape:connector-curvature="0" />
  <path
     style="fill:#bababa;stroke:none"
     d="m 607,331.91261 c 0,4.545 1.075,10.121 -3,13 0,-4.423 -0.259,-8.739 1,-13 l 2,0 m -99,12 c -16.246,-3.868 -33.059,-3.02 -49,2 7.546,2.893 9.054,18.999 19.714,16.188 5.865,-1.546 7.211,-8.593 12.375,-10.388 3.785,-1.316 5.202,2.316 5.911,5.2 l 5,0 c -0.999,3.497 -2.485,5.031 -6,6 l 0,7 c 2.364,0.482 2.518,0.636 3,3 4.281,-3.519 4.857,-8.514 11,-9 0.877,7.13 -1.486,12.209 -3,19 4.637,-1.463 7.725,-7.464 9,-12 2.442,0.109 4.623,0.428 7,1 -1.56,12.355 1.439,24.227 0,37 l 9,-4 c -4.138,10.578 -25.543,11.001 -35,11 -13.974,-10e-4 -33.848,-1.3 -45.25,-10.63 -11.321,-9.264 -13.765,-24.083 -15.1,-37.37 -0.667,-6.642 -4.261,-11.488 0.345,-17.856 4.528,-6.261 22.514,-10.875 30.005,-12.144 -10.596,-3.124 -18.655,6.341 -29,7 0,-1.797 0.014,-1.522 1,-3 l -4,0 0,-4 c 18.45,-3.58 37.651,-5.953 56,-1.156 5.968,1.56 13.892,1.233 17,7.156 m 103,-9 0,6 c -0.951,-2.285 -0.951,-3.715 0,-6 m -275,1 0,3 -3,0 0,-3 3,0 m -129.333,1.667 c 0.055,0.055 0.111,1.111 -0.334,0.666 -0.055,-0.055 -0.111,-1.111 0.334,-0.666 m 363.333,0.333 c -0.956,5.074 -0.862,9.673 -6,12 0.351,-4.677 2.599,-8.823 6,-12 m -362,1 -1,1 1,-1 m 371,1 c -0.407,7.905 0.768,15.407 -2,23 l -6,-2 c 0.117,-3.378 0.36,-6.63 0,-10 l 5,0 c -1.479,-0.986 -1.203,-1 -3,-1 l 0,-4 c 1.797,0 1.522,0.014 3,1 l 1,-7 2,0 m 31,6 0,6 c -0.951,-2.285 -0.951,-3.715 0,-6 m -133,2 c -1.81,1.24 -1.777,1.184 -4,1 1.735,-1.05 1.931,-1.046 4,-1 m 92,4 0,4 -3,0 0,-4 3,0 m 39,3 -1,1 1,-1 z"
     id="path12"
     inkscape:connector-curvature="0" />
  <path
     style="fill:#3f3f3f;stroke:none"
     d="m 218.667,357.57961 c 0.055,0.055 0.111,1.111 -0.334,0.666 -0.055,-0.055 -0.111,-1.111 0.334,-0.666 z"
     id="path14"
     inkscape:connector-curvature="0" />
  <path
     style="fill:#bababa;stroke:none"
     d="m 606,357.91261 -1,1 1,-1 z"
     id="path16"
     inkscape:connector-curvature="0" />
  <path
     style="fill:#3f3f3f;stroke:none"
     d="m 224,362.91261 c -2.782,-0.812 -3.627,-1.453 -5,-4 2.885,0.711 4.161,1.115 5,4 z"
     id="path18"
     inkscape:connector-curvature="0" />
  <path
     style="fill:#bababa;stroke:none"
     d="m 605,360.91261 0,4 c -0.71,-1.759 -0.71,-2.241 0,-4 m -31,4 c 0.516,6.539 -2.434,21.284 1,26 l 0,2 c -1.422,1.789 -1.697,2.706 -2,5 l -2,0 0,-5 c -2.645,-0.427 -3.461,-0.821 -5,-3 1.797,0 1.522,0.014 3,1 l -1,-6 -3,1 c 0.195,-3.103 0.031,-8.841 2,-11 -1.781,-2.762 -1.375,-4.779 -1,-8 l 2,0 0,6 3,0 c 0.33,-3.218 0.98,-5.463 3,-8 m 30,3 0,3 c -0.696,-1.554 -0.696,-1.446 0,-3 m -1,6 0,3 c -0.696,-1.554 -0.696,-1.446 0,-3 m -367,1 c 0.036,4.389 0.623,8.635 0,13 -1.726,-4.01 -1.863,-9.026 0,-13 m 366,3 -1,1 1,-1 m -1,1 -1,1 1,-1 m -1,1 -1,1 1,-1 m -1,1 -1,1 1,-1 z"
     id="path20"
     inkscape:connector-curvature="0" />
  <path
     style="fill:#3f3f3f;stroke:none"
     d="m 572,380.91261 0,3 -2,-1 c 0.545,-1.635 0.365,-1.455 2,-2 z"
     id="path22"
     inkscape:connector-curvature="0" />
  <path
     style="fill:#bababa;stroke:none"
     d="m 598,381.91261 -1,1 1,-1 m -376,0 0,54 c 2.021,-0.88 3.854,-1.496 6,-2 -0.85,3.986 -5.229,4.414 -6,9 -4.907,-11.694 -1,-32.271 -1,-45 0,-5.08 -0.981,-11.28 1,-16 m 375,1 -1,1 1,-1 m -1,1 -1,1 1,-1 m -1,1 -1,1 1,-1 m -1,1 -1,1 1,-1 m -1,1 -1,1 1,-1 m -1,1 -1,1 1,-1 m -1,1 -1,1 1,-1 m -1,1 -1,1 1,-1 m -1,1 -1,1 1,-1 z"
     id="path24"
     inkscape:connector-curvature="0" />
  <path
     style="fill:#3f3f3f;stroke:none"
     d="m 231,390.91261 0,4 c -0.71,-1.759 -0.71,-2.241 0,-4 z"
     id="path26"
     inkscape:connector-curvature="0" />
  <path
     style="fill:#bababa;stroke:none"
     d="m 588,391.91261 -1,1 1,-1 m -1,1 -1,1 1,-1 m -1,1 -1,1 1,-1 m -1,1 -1,1 1,-1 m -1,1 -1,1 1,-1 m -17,1 0,4 5,-2 c -2.075,6.247 -7.655,2.874 -9,-2 l 4,0 m 16,1 -1,1 1,-1 m -1,2 -1,1 1,-1 m -1,2 -1,1 1,-1 z"
     id="path28"
     inkscape:connector-curvature="0" />
  <path
     style="fill:#3f3f3f;stroke:none"
     d="m 242,401.91261 -1,6 3,0 c -0.526,2.543 -0.878,3.535 -3,5 l 0,-4 -4,0 0,-6 5,-1 m 6,1 c -1.154,2.249 -1.751,2.846 -4,4 l 1,-4 3,0 z"
     id="path30"
     inkscape:connector-curvature="0" />
  <path
     style="fill:#bababa;stroke:none"
     d="m 579.667,404.57961 c 0.055,0.055 0.111,1.111 -0.334,0.666 -0.055,-0.055 -0.111,-1.111 0.334,-0.666 m -1,2 c 0.055,0.055 0.111,1.111 -0.334,0.666 -0.055,-0.055 -0.111,-1.111 0.334,-0.666 m -15.667,0.333 0,6 c 2.706,-0.991 5.132,-1.713 8,-2 -0.461,3.479 -1.792,6.707 -3,10 -0.779,-1.769 -0.912,-3.036 -1,-5 -1.481,1.598 -2.061,2.108 -4,3 0.524,3.175 0.524,5.825 0,9 l 3,-1 c -0.552,6.981 -2.548,14.456 -5,21 l -3,-1 c 0.914,5.54 0.781,13.267 -4,17 0.639,-5.052 1,-9.899 1,-15 l -5,0 0,-2 5,0 0,-9 -3,0 0,-4 -5,0 c 0.247,-8.698 2.781,-14.847 4,-23 2.626,0.839 3.161,1.374 4,4 1.635,-0.545 1.455,-0.365 2,-2 l 2,3 c 1.445,-3.175 1.235,-5.547 1,-9 l 3,0 m 16,2 0,3 c -0.696,-1.554 -0.696,-1.446 0,-3 z"
     id="path32"
     inkscape:connector-curvature="0" />
  <path
     style="fill:#3f3f3f;stroke:none"
     d="m 236,408.91261 0,7 c -1.059,-2.534 -1.059,-4.466 0,-7 z"
     id="path34"
     inkscape:connector-curvature="0" />
  <path
     style="fill:#bababa;stroke:none"
     d="m 580,415.91261 0,3 c -0.696,-1.554 -0.696,-1.446 0,-3 m -62,1 0,2 -9,0 c 2.804,-2.125 5.534,-1.988 9,-2 m -291,2 0,4 c -0.71,-1.76 -0.71,-2.241 0,-4 m 9,2 0,4 c -0.71,-1.76 -0.71,-2.24 0,-4 m 345,1 -1,1 1,-1 m 1,2 -1,1 1,-1 m 1,2 -1,1 1,-1 m 0.667,2.667 c 0.055,0.055 0.111,1.111 -0.334,0.666 -0.055,-0.055 -0.111,-1.111 0.334,-0.666 m 1,2 c 0.055,0.055 0.111,1.111 -0.334,0.666 -0.055,-0.055 -0.111,-1.111 0.334,-0.666 m 1,2 c 0.055,0.055 0.111,1.111 -0.334,0.666 -0.055,-0.055 -0.111,-1.111 0.334,-0.666 m 1.333,2.333 -1,1 1,-1 m 1,2 -1,1 1,-1 m -352,1 c 0.562,1.801 0.824,3.122 1,5 l 5,0 c 0.674,-2.297 0.965,-2.774 3,-4 -1.111,3.699 -2.234,5.822 -6,7 l 0,17 c -0.685,-1.248 -0.749,-1.548 -1,-3 -0.458,2.786 -0.369,3.455 2,5 l -1,6 c -9.189,-4.552 -7.851,-25.777 -3,-33 m 353,1 -1,1 1,-1 z"
     id="path36"
     inkscape:connector-curvature="0" />
  <path
     style="fill:#3f3f3f;stroke:none"
     d="m 522,438.91261 0,8 c 2.525,0.854 3.03,1.508 4,4 l -3,0 c 0.634,3.004 0.871,5.935 1,9 -8.25,1.231 -11.901,10.661 -16,17 -2.244,-3.82 -1.75,-8.713 -3,-13 l 3,-1 -1,-4 3,1 0,-5 5,-1 c -0.647,-4.202 -0.631,-8.651 4,-10 l 0,-5 3,0 m -248,8 0,-7 c 4.421,1.472 4.371,5.462 0,7 z"
     id="path38"
     inkscape:connector-curvature="0" />
  <path
     style="fill:#bababa;stroke:none"
     d="m 590,440.91261 -1,1 1,-1 m -363,0 c 0.88,3.493 0.941,6.621 -2,9 0.392,-3.084 0.729,-6.171 2,-9 m 265,179 c -6.44,0.935 -11.626,5.556 -18,7 l 0,4 11,-3 c -4.301,9.215 -14.712,14.086 -18,24 5.966,-3.43 8.315,-10.811 15,-14 -0.432,9.284 -6.919,17.035 -9,26 l -26,0 c 0.12,-4.443 6.684,-7.421 4,-11 1.793,-1.583 2.78,-2.922 4,-5 l -4,0 c -2.273,14.992 -15.974,16 -28,16 l -86,0 c -1.664,-9.667 -6.989,-34.286 -16,-39 l 0,3 c -12.365,-2.675 -24.497,-14.571 -31,-25 -2.781,9.41 0.425,19.293 -3.275,28.715 -1.914,4.873 -6.161,19.183 -11.743,20.457 -3.638,0.831 -6.949,-3.837 -9.307,-5.928 -7.592,-6.736 -13.541,-13.85 -18.814,-22.54 -13.326,-21.962 -8.548,-53.805 -4.325,-77.704 1.602,-9.067 2.332,-23.246 12.464,-27 5.571,12.206 7.453,28.703 19,37 l 0,-3 c 15.594,7.823 14.721,27.348 25.69,39.116 14.479,15.534 33.773,21.973 51.782,31.737 6.107,3.31 9.302,10.405 16.737,12.393 4.169,1.115 9.56,-0.867 13.791,-1.156 6.424,-0.44 12.621,0.778 19,0.91 l 0,3 c 3.847,0.301 7.185,0.83 11,0 5.123,3.731 16.582,0.158 22.17,-2.015 16.336,-6.351 28.841,-11.259 36.83,-28.985 2.626,0.839 3.161,1.374 4,4 4.389,-2.47 9.009,-6.273 14,-7 l 0,-3 c 11.589,-10e-4 19.694,-6.106 31,-7 l -1,-4 c -4.913,-0.388 -9.093,-0.908 -14,0 0.534,-8.02 6.714,-9.8 9.416,-16.21 4.833,-11.467 11.266,-24.932 19.638,-34.667 2.979,-3.464 7.521,-4.967 10.513,-8.423 4.253,-4.913 5.855,-11.752 9.292,-17.121 2.725,-4.257 6.963,-7.004 9.141,-11.579 7.871,-2.05 8.304,-10.124 9.576,-17 2.756,-14.885 4.271,-30.231 10.424,-44 10.572,5.212 14.75,23.481 19.078,33.576 3.683,8.591 10.319,19.215 11.709,28.424 1.656,10.976 -1.208,24.039 -2.502,35 -2.806,23.772 -5.823,47.546 -14.839,70.001 -4.494,11.193 -11.619,20.416 -15.445,31.999 -1.039,3.144 -1.834,11.002 -5.405,12.289 -5.371,1.934 -12.242,-8.783 -15.094,-12.007 -9.201,-10.403 -15.648,-22.748 -25.261,-32.796 -2.576,-2.692 -6.614,-8.442 -10.385,-9.387 -9.976,-2.5 -16.237,18.038 -21.62,22.792 -4.222,3.729 -9.902,4.221 -11.236,-1.891 m 99,-177 -1,1 1,-1 z"
     id="path40"
     inkscape:connector-curvature="0" />
  <path
     style="fill:#3f3f3f;stroke:none"
     d="m 253,443.91261 0,2 -2,0 0,-2 2,0 z"
     id="path42"
     inkscape:connector-curvature="0" />
  <path
     style="fill:#bababa;stroke:none"
     d="m 592,444.91261 -1,1 1,-1 m 1,2 -1,1 1,-1 m 1,2 -1,1 1,-1 z"
     id="path44"
     inkscape:connector-curvature="0" />
  <path
     style="fill:#3f3f3f;stroke:none"
     d="m 237,448.91261 0,6 -2,0 0,-6 2,0 z"
     id="path46"
     inkscape:connector-curvature="0" />
  <path
     style="fill:#bababa;stroke:none"
     d="m 594.667,451.57961 c 0.055,0.055 0.111,1.111 -0.334,0.666 -0.055,-0.055 -0.111,-1.111 0.334,-0.666 m -213.667,-0.667 0,2 -2,0 0,-2 2,0 z"
     id="path48"
     inkscape:connector-curvature="0" />
  <path
     style="fill:#3f3f3f;stroke:none"
     d="m 364,450.91261 c -0.294,4.115 -1.283,7.855 -5,10 0.215,-4.621 1.07,-7.378 5,-10 z"
     id="path50"
     inkscape:connector-curvature="0" />
  <path
     style="fill:#bababa;stroke:none"
     d="m 595.667,453.57961 c 0.055,0.055 0.111,1.111 -0.334,0.666 -0.055,-0.055 -0.111,-1.111 0.334,-0.666 m 1,2 c 0.055,0.055 0.111,1.111 -0.334,0.666 -0.055,-0.055 -0.111,-1.111 0.334,-0.666 m -32.667,-0.667 0,3 c -1.015,-1.139 -1.309,-1.612 -2,-3 l 2,0 m -48,0 0,3 c -0.696,-1.554 -0.696,-1.446 0,-3 m -263,1 0,3 -2,0 0,-3 2,0 m -30.333,0.667 c 0.055,0.055 0.111,1.111 -0.334,0.666 -0.055,-0.055 -0.111,-1.111 0.334,-0.666 m 375,1 c 0.055,0.055 0.111,1.111 -0.334,0.666 -0.055,-0.055 -0.111,-1.111 0.334,-0.666 m -166.667,13.333 -4,0 -3,-9 -4,1 c -0.831,-3.567 1.347,-7.512 5.122,-3.952 2.735,2.58 4.323,8.501 5.878,11.952 m -168,-14 0,7 -3,0 0,-7 3,0 m -16,0 c 1.164,5.223 2,9.566 2,15 l -4,0 c -1.006,-2.969 -1.599,-5.889 -2,-9 3.102,0 2,-3.367 2,-6 l 2,0 m 352,3 -1,1 1,-1 m -375.333,0.667 c 0.055,0.055 0.111,1.111 -0.334,0.666 -0.055,-0.055 -0.111,-1.111 0.334,-0.666 m 376.333,1.333 -1,1 1,-1 m -332,0 c 0.81,2.729 0.979,5.15 1,8 l -3,0 c 0.239,-2.92 0.622,-5.412 2,-8 m 122,1 c 4.435,3.649 11.95,1.729 13,8 8.106,2.486 17.721,6.551 18,16 l -6,0 0,2 c 9.542,0 18.564,1.999 28,2 1.883,-5.943 8.382,-3.334 11,-9 4.541,-0.648 8.496,-3.021 13,-4 4.469,6.923 13.262,4.925 20,4 1.9,4.157 6.314,9.772 0,12 1.123,4.254 0.343,6.681 -4,8 1.223,6.38 -1.556,10.136 -8,11 3.04,5.842 4.08,14.8 -2,19 0.895,2.042 1.536,3.828 2,6 -4.664,-2.823 -7.876,-3.883 -10,2 -2.782,0.812 -3.627,1.453 -5,4 l 4,0 c 0,6.582 5.207,7.211 8,12 2.341,4.013 0.342,12.165 5,11 -0.481,2.683 -1.145,4.56 0,7 -0.598,1.195 -0.466,0.977 -2,2 3.793,5.65 -3.805,13.402 -4,20 l -5,1 c 2.172,-8.62 4.811,-15.864 5,-25 -2.735,-0.336 -3.889,-1.291 -6,-3 0.039,4.674 2.149,10.827 -2,14 l 0,-8 c -5.106,5.668 -8.144,14.347 -12,21 2.221,1.675 2.562,3.257 3,6 l -5,1 0,-3 c -6.989,3.779 -12.417,8.343 -19.09,12.402 -4.895,2.978 -10.27,2.947 -10.91,9.598 -2.798,-0.592 -5.119,-1.192 -8,-1 1.556,-2.85 2.793,-3.503 6,-4 l -1,-5 c 5.666,0.16 9.532,-3.397 15,-4 l -4,-2 c 1.021,-2.108 1.634,-3.704 2,-6 2.075,-1.953 3.065,-3.316 4,-6 l -4,0 0,3 -4,0 c 0.554,-5.791 -1.98,-11.123 -2,-17 l -3,0 c 0.182,-2.724 0.735,-4.583 2,-7 -2.733,-0.293 -5.262,-0.23 -8,0 l 0,-4 c -1.635,0.545 -1.455,0.365 -2,2 -0.683,-1.506 -0.826,-2.315 -1,-4 -1.453,4.292 -1.963,8.476 -2,13 l -4,0 0,-5 -4,0 0,4 -4,-1 c -0.263,1.227 -15.115,7.751 -18,9 l 0,-5 -4,1 0,5 c -3.071,0.896 -6.408,4.597 -9,2 l 3,1 -5,-6 c -0.788,3.766 -0.123,6.371 1,10 -2.901,-0.186 -5.197,0.242 -8,1 l 0,-8 c -4.182,2.551 -4.884,6.62 -10,8 l 0,2 c 4.58,1.778 7.309,6.213 8,11 l 4,0 c -3.087,4.032 -8.022,2.276 -9.986,-2.09 -3.858,-8.575 -2.468,-15.02 -2.014,-23.91 l -2,0 0,4 c -3.143,-1.369 -4.779,-2.778 -6,-6 2.303,-3.04 1.997,-6.268 2,-10 -1.478,3.068 -1.921,5.602 -2,9 l -8,-3 0,-5 -3,0 -1,-9 -2,0 0,7 -5,0 c 0.467,-3.695 0.969,-7.265 1,-11 1.797,0 1.522,0.014 3,1 1.183,-4.97 1,-9.919 1,-15 l -8,4 c 1.413,-3.374 2.99,-6.873 6,-9 -3.946,-4.784 -10.011,-5.739 -16,-6 1.91,-3.28 3.56,-6.543 0,-9 1.313,-3.416 1.974,-6.831 5,-9 -3.25,-2.192 -4.165,-4.211 -5,-8 8.462,-8.287 -0.402,-17.977 -3,-26 l 3,1 -1,-4 c 2.8,-4.337 -0.542,-9.664 4.344,-13.321 8.525,-6.38 27.354,5.767 28.656,15.321 11.621,0.926 22.08,4 34,4 l 0,-3 -7,-1 c 3.604,-9.075 8.345,-3.648 14.981,-7.032 4.192,-2.138 5.287,-6.992 7.019,-10.968 l 2,0 m -165,0 0,3 c -0.696,-1.554 -0.696,-1.446 0,-3 m 376,1 -1,1 1,-1 m -36,1 3,3 c -3.146,1.978 -4.423,0.326 -5,-3 l 2,0 m 37,1 -1,1 1,-1 m -376,1 0,3 c -0.696,-1.554 -0.696,-1.446 0,-3 m 377,1 -1,1 1,-1 m -226,0 c -2.234,2.296 -3.802,2.77 -7,3 1.823,-2.818 3.715,-2.895 7,-3 m -21,1 c -1.081,2.121 -1.879,2.919 -4,4 0.176,-1.878 0.438,-3.199 1,-5 1.797,0 1.521,0.014 3,1 m 248,1 -1,1 1,-1 m -377.333,1.667 c 0.055,0.055 0.111,1.111 -0.334,0.666 -0.055,-0.055 -0.111,-1.111 0.334,-0.666 m 378.333,0.333 -1,1 1,-1 m -236,0 c -1.631,3.274 -3.553,4.801 -7,6 1.925,-3.033 3.665,-4.648 7,-6 m -101,0 c 0.674,2.297 0.965,2.774 3,4 l -2,6 c -3.676,-2.411 -2.74,-6.378 -1,-10 m 153,3 c -1.58,-0.684 -1.777,-0.805 -3,-2 2.092,0.406 2.02,0.217 3,2 m -190,-2 0,3 -2,0 0,-3 2,0 m 375,1 -1,1 1,-1 m -378.333,1.667 c 0.055,0.055 0.111,1.111 -0.334,0.666 -0.055,-0.055 -0.111,-1.111 0.334,-0.666 m 379.333,0.333 -1,1 1,-1 m 0.667,2.667 c 0.055,0.055 0.111,1.111 -0.334,0.666 -0.055,-0.055 -0.111,-1.111 0.334,-0.666 m -379,1 c 0.055,0.055 0.111,1.111 -0.334,0.666 -0.055,-0.055 -0.111,-1.111 0.334,-0.666 m 380,1 c 0.055,0.055 0.111,1.111 -0.334,0.666 -0.055,-0.055 -0.111,-1.111 0.334,-0.666 M 236,479.91261 c 2.346,5.14 7.134,9.502 8,15 l -3,0 0,-4 -6,0 c -0.936,-1.949 -1.392,-2.55 -3,-4 0.572,-2.377 0.891,-4.558 1,-7 l 3,0 m 373.667,2.667 c 0.055,0.055 0.111,1.111 -0.334,0.666 -0.055,-0.055 -0.111,-1.111 0.334,-0.666 z"
     id="path52"
     inkscape:connector-curvature="0" />
  <path
     style="fill:#3f3f3f;stroke:none"
     d="m 397,481.91261 2,5 c -4.226,-0.015 -7.278,0.284 -9,-4 2.418,-0.722 4.472,-0.948 7,-1 z"
     id="path54"
     inkscape:connector-curvature="0" />
  <path
     style="fill:#bababa;stroke:none"
     d="m 230,481.91261 0,3 c -0.696,-1.554 -0.696,-1.446 0,-3 m 381,3 -1,1 1,-1 m -343.333,0.667 c 0.055,0.055 0.111,1.111 -0.334,0.666 -0.055,-0.055 -0.111,-1.111 0.334,-0.666 m -36.667,0.333 0,3 c -0.696,-1.554 -0.696,-1.446 0,-3 m 381,1 -1,1 1,-1 z"
     id="path56"
     inkscape:connector-curvature="0" />
  <path
     style="fill:#3f3f3f;stroke:none"
     d="m 277,487.91261 1,7 c -3.929,-1.317 -4.278,-4.494 -1,-7 z"
     id="path58"
     inkscape:connector-curvature="0" />
  <path
     style="fill:#bababa;stroke:none"
     d="m 613,488.91261 -1,1 1,-1 m -381.333,1.667 c 0.055,0.055 0.111,1.111 -0.334,0.666 -0.055,-0.055 -0.111,-1.111 0.334,-0.666 m 382.333,0.333 -1,1 1,-1 m 1,2 -1,1 1,-1 m -72,0 c -0.406,2.092 -0.217,2.02 -2,3 0.691,-1.388 0.985,-1.861 2,-3 m -310.333,1.667 c 0.055,0.055 0.111,1.111 -0.334,0.666 -0.055,-0.055 -0.111,-1.111 0.334,-0.666 m 383.333,0.333 -1,1 1,-1 m -69,0 0,3 -2,0 0,-3 2,0 m -279,1 c 1.639,2.239 2.268,4.318 3,7 -1.195,1.223 -1.316,1.42 -2,3 l -3,-1 c 0.718,-3.007 0.805,-6.18 2,-9 m -24,0 c -1.226,2.035 -1.703,2.326 -4,3 0.578,-2.697 1.261,-2.789 4,-3 m 373,1 -1,1 1,-1 m -383.333,1.667 c 0.055,0.055 0.111,1.111 -0.334,0.666 -0.055,-0.055 -0.111,-1.111 0.334,-0.666 m 385.666,0.666 c 0.445,0.445 -0.611,0.389 -0.666,0.334 -0.445,-0.445 0.611,-0.389 0.666,-0.334 m 3,1 c 0.445,0.445 -0.611,0.389 -0.666,0.334 -0.445,-0.445 0.611,-0.389 0.666,-0.334 m 3,1 c 0.445,0.445 -0.611,0.389 -0.666,0.334 -0.445,-0.445 0.611,-0.389 0.666,-0.334 M 523,500.91261 c -0.277,3.048 -0.526,5.12 -3,7 l 0,-7 3,0 m -288,0 0,3 c -0.696,-1.554 -0.696,-1.446 0,-3 m 393.333,1.333 c 0.445,0.445 -0.611,0.389 -0.666,0.334 -0.445,-0.445 0.611,-0.389 0.666,-0.334 m 3,1 c 0.445,0.445 -0.611,0.389 -0.666,0.334 -0.445,-0.445 0.611,-0.389 0.666,-0.334 m -378.333,-0.333 0,2 -2,0 0,-2 2,0 m 381.333,1.333 c 0.445,0.445 -0.611,0.389 -0.666,0.334 -0.445,-0.445 0.611,-0.389 0.666,-0.334 m 2.667,0.667 -1,1 1,-1 m -390,3 c -2.132,-0.776 -2.771,-1.13 -4,-3 2.297,0.674 2.774,0.965 4,3 m -11,-3 0,3 c -0.696,-1.554 -0.696,-1.446 0,-3 m 404,1 -1,1 1,-1 m 3,1 -1,1 1,-1 m 2.333,1.333 c 0.445,0.445 -0.611,0.389 -0.666,0.334 -0.445,-0.445 0.611,-0.389 0.666,-0.334 m -408.333,-0.333 -1,1 1,-1 m 412,1 -1,1 1,-1 m -411,0 -1,1 1,-1 m 413.333,1.333 c 0.445,0.445 -0.611,0.389 -0.666,0.334 -0.445,-0.445 0.611,-0.389 0.666,-0.334 m -411.333,-0.333 -1,1 1,-1 m 415,1 -1,1 1,-1 m -414,0 -1,1 1,-1 m 417,1 -1,1 1,-1 m -416,0 -1,1 1,-1 m 419,1 -1,1 1,-1 m -417,0 -1,1 1,-1 m 419.333,1.333 c 0.445,0.445 -0.611,0.389 -0.666,0.334 -0.445,-0.445 0.611,-0.389 0.666,-0.334 M 517,513.91261 c -0.363,2.232 -0.363,3.768 0,6 l -4,1 c 0.823,-2.951 1.514,-5.172 4,-7 m -272,0 -1,1 1,-1 m 421.333,1.333 c 0.445,0.445 -0.611,0.389 -0.666,0.334 -0.445,-0.445 0.611,-0.389 0.666,-0.334 z"
     id="path60"
     inkscape:connector-curvature="0" />
  <path
     style="fill:#3f3f3f;stroke:none"
     d="m 405,520.91261 0,4 c 2.124,-0.899 2.101,-0.876 3,-3 1.87,1.229 2.224,1.868 3,4 -3.44,1.338 -5.666,3.021 -9,1 -2.45,1.639 -7.99,-5.548 -12,-6 -0.418,2.689 -0.717,3.554 -3,5 -0.075,-3.731 -0.589,-7.302 0,-11 6.166,1.454 11.777,4.891 18,6 z"
     id="path62"
     inkscape:connector-curvature="0" />
  <path
     style="fill:#bababa;stroke:none"
     d="m 246,514.91261 -1,1 1,-1 m 423.333,1.333 c 0.445,0.445 -0.611,0.389 -0.666,0.334 -0.445,-0.445 0.611,-0.389 0.666,-0.334 m -362.333,-0.333 -2,6 -4,0 c 0.815,-3.822 2.178,-5.185 6,-6 m -59,0 0,2 -2,0 c 0.545,-1.635 0.365,-1.455 2,-2 m 424.333,1.333 c 0.445,0.445 -0.611,0.389 -0.666,0.334 -0.445,-0.445 0.611,-0.389 0.666,-0.334 m -398.333,-0.333 -1,3 c -0.685,-1.248 -0.749,-1.548 -1,-3 l 2,0 m -6.333,0.667 c 0.055,0.055 0.111,1.111 -0.334,0.666 -0.055,-0.055 -0.111,-1.111 0.334,-0.666 m 407.666,0.666 c 0.445,0.445 -0.611,0.389 -0.666,0.334 -0.445,-0.445 0.611,-0.389 0.666,-0.334 m -430.333,-0.333 -1,1 1,-1 m 433.333,1.333 c 0.445,0.445 -0.611,0.389 -0.666,0.334 -0.445,-0.445 0.611,-0.389 0.666,-0.334 m -436,0 c 0.445,0.445 -0.611,0.389 -0.666,0.334 -0.445,-0.445 0.611,-0.389 0.666,-0.334 m 439.0003,1 c 0.4444,0.445 -0.611,0.389 -0.6666,0.334 -0.4444,-0.445 0.611,-0.389 0.6666,-0.334 M 240,519.91261 l -1,1 1,-1 m 444.3333,1.333 c 0.4445,0.445 -0.6111,0.389 -0.6666,0.334 -0.4445,-0.445 0.6111,-0.389 0.6666,-0.334 M 512,520.91261 c 0.967,3.278 1.758,6.589 -1,9 0,-1.797 0.014,-1.521 1,-3 l -3,0 c 0.843,-2.119 1.779,-4.077 3,-6 m -3,0 c -1.281,2.471 -2.32,3.256 -5,4 1.127,-2.841 1.987,-3.492 5,-4 m -271.667,0.333 c 0.445,0.445 -0.611,0.389 -0.666,0.334 -0.445,-0.445 0.611,-0.389 0.666,-0.334 m 450.0003,1 c 0.4445,0.445 -0.6111,0.389 -0.6666,0.334 -0.4445,-0.445 0.6111,-0.389 0.6666,-0.334 m -452.0003,0 c 0.445,0.445 -0.611,0.389 -0.666,0.334 -0.445,-0.445 0.611,-0.389 0.666,-0.334 m 455.0003,1 c 0.4445,0.445 -0.6111,0.389 -0.6666,0.334 -0.4445,-0.445 0.6111,-0.389 0.6666,-0.334 M 233,522.91261 l -1,1 1,-1 m 460,1 -1,1 1,-1 m -462.667,0.333 c 0.445,0.445 -0.611,0.389 -0.666,0.334 -0.445,-0.445 0.611,-0.389 0.666,-0.334 m 465.667,0.667 -1,1 1,-1 m -467.667,0.333 c 0.445,0.445 -0.611,0.389 -0.666,0.334 -0.445,-0.445 0.611,-0.389 0.666,-0.334 m 470.667,0.667 -1,1 1,-1 m -473,0 -1,1 1,-1 m 476,1 -1,1 1,-1 m -184,3 c -2.209,-0.684 -2.703,-1.08 -4,-3 2.739,0.211 3.422,0.303 4,3 m -294.667,-2.667 c 0.445,0.445 -0.611,0.389 -0.666,0.334 -0.445,-0.445 0.611,-0.389 0.666,-0.334 m 481.667,0.667 -1,1 1,-1 m -197.333,0.667 c 0.055,0.055 0.111,1.111 -0.334,0.666 -0.055,-0.055 -0.111,-1.111 0.334,-0.666 m -286.334,-0.334 c 0.445,0.445 -0.611,0.389 -0.666,0.334 -0.445,-0.445 0.611,-0.389 0.666,-0.334 m 486.667,0.667 -1,1 1,-1 m -207,0 0,2 -3,0 0,-2 3,0 m -282,0 -1,1 1,-1 m 492,1 -1,1 1,-1 m -494.667,0.333 c 0.445,0.445 -0.611,0.389 -0.666,0.334 -0.445,-0.445 0.611,-0.389 0.666,-0.334 m 497.667,0.667 -1,1 1,-1 m -499.667,0.333 c 0.445,0.445 -0.611,0.389 -0.666,0.334 -0.445,-0.445 0.611,-0.389 0.666,-0.334 m 502.0003,1 c 0.4445,0.445 -0.6111,0.389 -0.6666,0.334 -0.4444,-0.445 0.6111,-0.389 0.6666,-0.334 M 212,531.91261 l -1,1 1,-1 m 507.3333,1.333 c 0.4445,0.445 -0.6111,0.389 -0.6666,0.334 -0.4444,-0.445 0.6111,-0.389 0.6666,-0.334 M 273,532.91261 c -0.578,2.698 -1.261,2.789 -4,3 1.45,-1.608 2.051,-2.064 4,-3 m -63.667,0.333 c 0.445,0.445 -0.611,0.389 -0.666,0.334 -0.445,-0.445 0.611,-0.389 0.666,-0.334 m 513.0003,1 c 0.4445,0.445 -0.6111,0.389 -0.6666,0.334 -0.4445,-0.445 0.6111,-0.389 0.6666,-0.334 m -515.0003,0 c 0.445,0.445 -0.611,0.389 -0.666,0.334 -0.445,-0.445 0.611,-0.389 0.666,-0.334 m 518.0003,1 c 0.4445,0.445 -0.6111,0.389 -0.6666,0.334 -0.4444,-0.445 0.611,-0.389 0.6666,-0.334 m -521.0003,0 c 0.445,0.445 -0.611,0.389 -0.666,0.334 -0.445,-0.445 0.611,-0.389 0.666,-0.334 m 524.0003,1 c 0.4445,0.445 -0.6111,0.389 -0.6666,0.334 -0.4445,-0.445 0.6111,-0.389 0.6666,-0.334 m -527.0003,0 c 0.445,0.445 -0.611,0.389 -0.666,0.334 -0.445,-0.445 0.611,-0.389 0.666,-0.334 m 530.0003,1 c 0.4445,0.445 -0.6111,0.389 -0.6666,0.334 -0.4444,-0.445 0.611,-0.389 0.6666,-0.334 m -533.0003,0 c 0.445,0.445 -0.611,0.389 -0.666,0.334 -0.445,-0.445 0.611,-0.389 0.666,-0.334 m 536.0003,1 c 0.4445,0.445 -0.6111,0.389 -0.6666,0.334 -0.4444,-0.445 0.611,-0.389 0.6666,-0.334 M 196,537.91261 l -1,1 1,-1 m 541.3333,1.333 c 0.4445,0.445 -0.6111,0.389 -0.6666,0.334 -0.4445,-0.445 0.6111,-0.389 0.6666,-0.334 m -544.0003,0 c 0.445,0.445 -0.611,0.389 -0.666,0.334 -0.445,-0.445 0.611,-0.389 0.666,-0.334 m 547.0003,1 c 0.4445,0.445 -0.6111,0.389 -0.6666,0.334 -0.4445,-0.445 0.6111,-0.389 0.6666,-0.334 m -550.0003,0 c 0.445,0.445 -0.611,0.389 -0.666,0.334 -0.445,-0.445 0.611,-0.389 0.666,-0.334 m 553.0003,1 c 0.4445,0.445 -0.6111,0.389 -0.6666,0.334 -0.4445,-0.445 0.6111,-0.389 0.6666,-0.334 M 478,540.91261 c -0.031,1.832 0.079,1.559 -1,3 0.251,-1.452 0.315,-1.752 1,-3 m -290.667,0.333 c 0.445,0.445 -0.611,0.389 -0.666,0.334 -0.445,-0.445 0.611,-0.389 0.666,-0.334 m 558.667,0.667 -1,1 1,-1 m -560.667,0.333 c 0.445,0.445 -0.611,0.389 -0.666,0.334 -0.445,-0.445 0.611,-0.389 0.666,-0.334 m 563.667,0.667 -1,1 1,-1 m -566.667,0.333 c 0.445,0.445 -0.611,0.389 -0.666,0.334 -0.445,-0.445 0.611,-0.389 0.666,-0.334 m 569.667,0.667 -1,1 1,-1 m -572.667,0.333 c 0.445,0.445 -0.611,0.389 -0.666,0.334 -0.445,-0.445 0.611,-0.389 0.666,-0.334 m 575.667,0.667 -1,1 1,-1 m -578.667,0.333 c 0.445,0.445 -0.611,0.389 -0.666,0.334 -0.445,-0.445 0.611,-0.389 0.666,-0.334 m 581.667,0.667 -1,1 1,-1 m -583.667,0.333 c 0.445,0.445 -0.611,0.389 -0.666,0.334 -0.445,-0.445 0.611,-0.389 0.666,-0.334 m 586.667,0.667 -1,1 1,-1 m -589.667,0.333 c 0.445,0.445 -0.611,0.389 -0.666,0.334 -0.445,-0.445 0.611,-0.389 0.666,-0.334 m 592.0003,1 c 0.4445,0.445 -0.6111,0.389 -0.6666,0.334 -0.4445,-0.445 0.6111,-0.389 0.6666,-0.334 m -595.0003,0 c 0.445,0.445 -0.611,0.389 -0.666,0.334 -0.445,-0.445 0.611,-0.389 0.666,-0.334 m 598.0003,1 c 0.4445,0.445 -0.6111,0.389 -0.6666,0.334 -0.4445,-0.445 0.6111,-0.389 0.6666,-0.334 m -601.0003,0 c 0.445,0.445 -0.611,0.389 -0.666,0.334 -0.445,-0.445 0.611,-0.389 0.666,-0.334 m 604.00033,1 c 0.44445,0.445 -0.61113,0.389 -0.66663,0.334 -0.4445,-0.445 0.61108,-0.389 0.66663,-0.334 M 163,549.91261 l -1,1 1,-1 m 609.33333,1.333 c 0.44445,0.445 -0.61111,0.389 -0.66666,0.334 -0.44441,-0.445 0.61108,-0.389 0.66666,-0.334 M 322,550.91261 l 0,4 c -0.71,-1.759 -0.71,-2.24 0,-4 m -161.667,0.333 c 0.445,0.445 -0.611,0.389 -0.666,0.334 -0.445,-0.445 0.611,-0.389 0.666,-0.334 m 615.00033,1 c 0.44445,0.445 -0.61111,0.389 -0.66666,0.334 -0.44447,-0.445 0.61115,-0.389 0.66666,-0.334 m -618.00033,0 c 0.445,0.445 -0.611,0.389 -0.666,0.334 -0.445,-0.445 0.611,-0.389 0.666,-0.334 m 621.00033,1 c 0.44442,0.445 -0.61106,0.389 -0.66666,0.334 -0.44445,-0.445 0.6111,-0.389 0.66666,-0.334 z"
     id="path64"
     inkscape:connector-curvature="0" />
  <path
     style="fill:#3f3f3f;stroke:none"
     d="m 335,552.91261 c -0.517,3.427 -1.08,6 -4,8 -0.26,-2.905 0.225,-5.182 1,-8 l 3,0 z"
     id="path66"
     inkscape:connector-curvature="0" />
  <path
     style="fill:#bababa;stroke:none"
     d="m 315,552.91261 0,3 -2,0 0,-3 2,0 m -159.667,0.333 c 0.445,0.445 -0.611,0.389 -0.666,0.334 -0.445,-0.445 0.611,-0.389 0.666,-0.334 m -2,1 c 0.445,0.445 -0.611,0.389 -0.666,0.334 -0.445,-0.445 0.611,-0.389 0.666,-0.334 m -2,1 c 0.445,0.445 -0.611,0.389 -0.666,0.334 -0.445,-0.445 0.611,-0.389 0.666,-0.334 m -1.333,0.667 -1,1 1,-1 m 168,1 c 0.508,2.592 0.508,4.408 0,7 -1.059,-2.534 -1.059,-4.466 0,-7 m -170,0 -1,1 1,-1 m -2,1 -1,1 1,-1 z"
     id="path68"
     inkscape:connector-curvature="0" />
  <path
     style="fill:#3f3f3f;stroke:none"
     d="m 339,558.91261 c 0.734,3.388 0.147,6.543 0,10 -0.685,-1.248 -0.749,-1.548 -1,-3 l -3,1 2,-8 2,0 z"
     id="path70"
     inkscape:connector-curvature="0" />
  <path
     style="fill:#bababa;stroke:none"
     d="m 144,558.91261 -1,1 1,-1 m -2,1 -1,1 1,-1 m -2,1 -1,1 1,-1 m -1.667,1.333 c 0.445,0.445 -0.611,0.389 -0.666,0.334 -0.445,-0.445 0.611,-0.389 0.666,-0.334 m -2,1 c 0.445,0.445 -0.611,0.389 -0.666,0.334 -0.445,-0.445 0.611,-0.389 0.666,-0.334 m -1.333,0.667 -1,1 1,-1 m 177,1 0,4 -2,0 0,-4 2,0 m -179,0 -1,1 1,-1 m -2,1 -1,1 1,-1 m -2,1 -1,1 1,-1 z"
     id="path72"
     inkscape:connector-curvature="0" />
  <path
     style="fill:#3f3f3f;stroke:none"
     d="m 337,567.91261 0,5 c -1.58,0.684 -1.777,0.805 -3,2 -0.985,-2.332 -0.981,-4.457 -1,-7 l 4,0 z"
     id="path74"
     inkscape:connector-curvature="0" />
  <path
     style="fill:#bababa;stroke:none"
     d="m 127,567.91261 -1,1 1,-1 m -2,1 -1,1 1,-1 m -1.667,1.333 c 0.445,0.445 -0.611,0.389 -0.666,0.334 -0.445,-0.445 0.611,-0.389 0.666,-0.334 m -2,1 c 0.445,0.445 -0.611,0.389 -0.666,0.334 -0.445,-0.445 0.611,-0.389 0.666,-0.334 z"
     id="path76"
     inkscape:connector-curvature="0" />
  <path
     style="fill:#3f3f3f;stroke:none"
     d="m 362,571.91261 c -0.18,2.038 -0.164,2.448 1,4 l -4,1 c 0.418,-2.689 0.717,-3.554 3,-5 z"
     id="path78"
     inkscape:connector-curvature="0" />
  <path
     style="fill:#bababa;stroke:none"
     d="m 120,571.91261 -1,1 1,-1 m -2,1 -1,1 1,-1 m -2,1 -1,1 1,-1 z"
     id="path80"
     inkscape:connector-curvature="0" />
  <path
     style="fill:#3f3f3f;stroke:none"
     d="m 349,574.91261 c -1.226,2.035 -1.703,2.326 -4,3 0.578,-2.698 1.261,-2.789 4,-3 z"
     id="path82"
     inkscape:connector-curvature="0" />
  <path
     style="fill:#bababa;stroke:none"
     d="m 326,574.91261 c 1.711,5.792 -0.302,10.275 -1,16 -4.897,-3.607 -4,-10.512 -4,-16 1.195,0.598 0.977,0.466 2,2 1.223,-1.195 1.42,-1.316 3,-2 m -212,0 -1,1 1,-1 z"
     id="path84"
     inkscape:connector-curvature="0" />
  <path
     style="fill:#3f3f3f;stroke:none"
     d="m 357,575.91261 c -0.129,3.912 -0.723,5.761 -4,8 l 0,-8 4,0 z"
     id="path86"
     inkscape:connector-curvature="0" />
  <path
     style="fill:#bababa;stroke:none"
     d="m 112,575.91261 -1,1 1,-1 m -1.667,1.333 c 0.445,0.445 -0.611,0.389 -0.666,0.334 -0.445,-0.445 0.611,-0.389 0.666,-0.334 z"
     id="path88"
     inkscape:connector-curvature="0" />
  <path
     style="fill:#3f3f3f;stroke:none"
     d="m 475,577.91261 c -0.684,1.58 -0.805,1.777 -2,3 l 0,-3 2,0 m -106,0 0,5 -2,0 0,-5 2,0 m -44,0 0,6 c -1.582,-2.057 -1.826,-3.388 -2,-6 l 2,0 z"
     id="path90"
     inkscape:connector-curvature="0" />
  <path
     style="fill:#bababa;stroke:none"
     d="m 109,577.91261 -1,1 1,-1 m -2,1 -1,1 1,-1 m 210,1 0,5 c -2.207,-1.572 -2.303,-2.318 -2,-5 l 2,0 m -212,0 -1,1 1,-1 m -1.667,1.333 c 0.445,0.445 -0.611,0.389 -0.666,0.334 -0.445,-0.445 0.611,-0.389 0.666,-0.334 m -1.333,0.667 -1,1 1,-1 z"
     id="path92"
     inkscape:connector-curvature="0" />
  <path
     style="fill:#3f3f3f;stroke:none"
     d="m 360,582.91261 1,5 c -1.879,-1.623 -1.916,-2.7 -1,-5 z"
     id="path94"
     inkscape:connector-curvature="0" />
  <path
     style="fill:#bababa;stroke:none"
     d="m 100,582.91261 -1,1 1,-1 m -1.667,1.333 c 0.445,0.445 -0.611,0.389 -0.666,0.334 -0.445,-0.445 0.611,-0.389 0.666,-0.334 m 310.667,0.667 0,2 -2,0 0,-2 2,0 m -312,0 -1,1 1,-1 m -2,1 -1,1 1,-1 m -1,1 -1,1 1,-1 m -2,1 -1,1 1,-1 z"
     id="path96"
     inkscape:connector-curvature="0" />
  <path
     style="fill:#3f3f3f;stroke:none"
     d="m 451,588.91261 c -0.418,2.689 -0.717,3.554 -3,5 0.526,-2.543 0.878,-3.535 3,-5 z"
     id="path98"
     inkscape:connector-curvature="0" />
  <path
     style="fill:#bababa;stroke:none"
     d="m 90,588.91261 -1,1 1,-1 m -1,1 -1,1 1,-1 m 248,1 1,4 c -2.035,-1.226 -2.326,-1.703 -3,-4 l 2,0 m -250,0 -1,1 1,-1 m -2,1 -1,1 1,-1 m -1,1 -1,1 1,-1 m -2,1 -1,1 1,-1 m -2,1 -1,1 1,-1 m 423,1 c -0.736,2.562 -1.519,2.983 -4,4 l 1,-4 3,0 m -13,0 c -1.071,2.382 -2.317,4.475 -3,7 -2.249,1.154 -2.846,1.751 -4,4 -6.319,-4.164 2.29,-10.253 7,-11 m -117,0 c -1.103,1.457 -1.543,1.897 -3,3 0.899,-2.124 0.876,-2.101 3,-3 m -294,0 -1,1 1,-1 z"
     id="path100"
     inkscape:connector-curvature="0" />
  <path
     style="fill:#3f3f3f;stroke:none"
     d="m 293,596.91261 0,4 c -1.87,-1.229 -2.224,-1.868 -3,-4 l 3,0 z"
     id="path102"
     inkscape:connector-curvature="0" />
  <path
     style="fill:#bababa;stroke:none"
     d="m 77,596.91261 -1,1 1,-1 m 324,1 c -0.168,2.403 -0.197,3.46 -2,5 0.386,-2.143 0.745,-3.25 2,-5 m -325.667,0.333 c 0.445,0.445 -0.611,0.389 -0.666,0.334 -0.445,-0.445 0.611,-0.389 0.666,-0.334 m -1.333,0.667 -1,1 1,-1 m -2,1 -1,1 1,-1 z"
     id="path104"
     inkscape:connector-curvature="0" />
  <path
     style="fill:#3f3f3f;stroke:none"
     d="m 436,600.91261 0,3 c -0.696,-1.554 -0.696,-1.446 0,-3 z"
     id="path106"
     inkscape:connector-curvature="0" />
  <path
     style="fill:#bababa;stroke:none"
     d="m 70.333,601.24561 c 0.445,0.445 -0.611,0.389 -0.666,0.334 -0.445,-0.445 0.611,-0.389 0.666,-0.334 m -1.333,0.667 -1,1 1,-1 m -2,1 -1,1 1,-1 m 358,1 c -0.744,2.68 -1.529,3.719 -4,5 0.547,-1.875 1.11,-3.255 2,-5 l 2,0 m -359.667,0.333 c 0.445,0.445 -0.611,0.389 -0.666,0.334 -0.445,-0.445 0.611,-0.389 0.666,-0.334 m 380.667,0.667 c -2.123,4.32 -4.329,5.959 -9,7 1.796,-4.301 4.698,-5.595 9,-7 m -382,0 -1,1 1,-1 m -2,1 -1,1 1,-1 m -1,1 -1,1 1,-1 m -2,1 -1,1 1,-1 m -1,1 -1,1 1,-1 m -2,1 -1,1 1,-1 m -1,1 -1,1 1,-1 m -2,1 -1,1 1,-1 m -1,1 -1,1 1,-1 m -2,1 -1,1 1,-1 m 332,1 c -1.769,0.779 -3.036,0.912 -5,1 1.769,-0.779 3.036,-0.912 5,-1 m -333,0 -1,1 1,-1 m -1,1 -1,1 1,-1 m -2,1 -1,1 1,-1 m -1,1 -1,1 1,-1 m -2,1 -1,1 1,-1 m -1,1 -1,1 1,-1 m -2,1 -1,1 1,-1 m 383,1 c -1.248,0.685 -1.548,0.749 -3,1 1.248,-0.685 1.548,-0.749 3,-1 m -384,0 -1,1 1,-1 m -1,1 -1,1 1,-1 m -2,1 -1,1 1,-1 m -1,1 -1,1 1,-1 m -2,1 -1,1 1,-1 m -1,1 -1,1 1,-1 m -2,1 -1,1 1,-1 m -1,1 -1,1 1,-1 m -2,1 -1,1 1,-1 m -1,1 -1,1 1,-1 m -1,1 -1,1 1,-1 z"
     id="path108"
     inkscape:connector-curvature="0" />
  <path
     style="fill:#bababa;stroke:none"
     d="m 11,649.91261 -1,1 1,-1 m -1,1 -1,1 1,-1 m -1,1 -1,1 1,-1 m -2,3 -1,1 1,-1 m -1,1 -1,1 1,-1 m -1,1 -1,1 1,-1 m -1,2 -1,1 1,-1 m -1,1 -1,1 1,-1 m -2,1 -1,1 1,-1 z"
     id="path110"
     inkscape:connector-curvature="0" />
</svg>
