<?xml version="1.0" encoding="UTF-8" standalone="no"?>
<svg
   xmlns:dc="http://purl.org/dc/elements/1.1/"
   xmlns:cc="http://creativecommons.org/ns#"
   xmlns:rdf="http://www.w3.org/1999/02/22-rdf-syntax-ns#"
   xmlns:svg="http://www.w3.org/2000/svg"
   xmlns="http://www.w3.org/2000/svg"
   xmlns:sodipodi="http://sodipodi.sourceforge.net/DTD/sodipodi-0.dtd"
   xmlns:inkscape="http://www.inkscape.org/namespaces/inkscape"
   width="880.38385"
   height="1172.4563"
   id="svg2"
   version="1.1"
   inkscape:version="0.48.4 r9939"
   sodipodi:docname="godel.svg">
  <metadata
     id="metadata72">
    <rdf:RDF>
      <cc:Work
         rdf:about="">
        <dc:format>image/svg+xml</dc:format>
        <dc:type
           rdf:resource="http://purl.org/dc/dcmitype/StillImage" />
      </cc:Work>
    </rdf:RDF>
  </metadata>
  <defs
     id="defs70" />
  <sodipodi:namedview
     pagecolor="#ffffff"
     bordercolor="#666666"
     borderopacity="1"
     objecttolerance="10"
     gridtolerance="10"
     guidetolerance="10"
     inkscape:pageopacity="0"
     inkscape:pageshadow="2"
     inkscape:window-width="457"
     inkscape:window-height="383"
     id="namedview68"
     showgrid="false"
     inkscape:zoom="0.096052096"
     inkscape:cx="456.06432"
     inkscape:cy="785.88207"
     inkscape:window-x="49"
     inkscape:window-y="24"
     inkscape:window-maximized="0"
     inkscape:current-layer="svg2" />
  <path
     style="fill:#887f52;stroke:none"
     d="m 749.31952,594.07426 0,3 c 10.513,0.54 21.79,5.98 32,8.71 22.156,5.93 46.251,11.58 67.285,20.53 9.381,4 22.259,3.77 28.281,13.34 4.259,6.76 3.434,25.31 3.434,33.42 l 0,78 c 0,58.35 -2.971,116.8 -2.971,175 0,40.36 1.971,80.68004 1.971,121.00004 l 0,87 c 0,9.34 2.99,25.83 -3.344,33.66 -2.856,3.52 -8.672,2.16 -12.656,2.43 -10.695,0.73 -21.253,0.91 -32,0.91 l -129,0 c -93.558,0 -187.35698,2.26 -280.99998,1 -31.422,-0.43 -63.332,-3.15 -95,-3 -19.575,0.1 -39.25,3 -59,3 l -114,0 c -11.28,0 -21.13,-3.14 -32,-3.9 -4.11,-0.29 -9.91,2.21 -13.57,-0.28 -6.22,-4.24 2.05,-23.38 4.17,-28.82 7.6,-19.49 16.07,-42.19 19.19,-63 1.09,-7.27 -0.79,-15.58 -0.79,-23 7.65,-3.52 4.81,-12.48 3.09,-19 -4.48,-16.97 -3.88,-35.82004 -5.96,-53.09004 -1.74,-14.41 -6.63,-33.54 -3.86,-47.91 2.38,-12.32 11.82,-23.34 17.62,-34 6.22,-11.42 10.62,-25.11 16.51,-37 6.22,-12.55 5.79,-29.26 15.66,-40 13.73,-14.93 28.79,-33.49 49.93,-36.96 3.45,-0.57 13.49,-2.99 12.26,-7.96 -0.84,-3.4 -5.95,-5.7 -8.25,-8.17 -9.37,-10.1 -23.9,-16.2 -30.58,-28.91 -13.23,-25.16 -26.19,-51.06 -40.36,-76 -4.63,-8.16 -7.62,-17.21 -13.16,-24.91 -7.36,-10.21 -21.74,-11.27 -29,-23.09 -11.97,-19.5 -15.679996,-44.1 -26.609996,-64 -5.87,-10.68 -20.73,-15.74 -25.14,-27 -2.71,-6.9 1.26,-21.45 4.28,-28 2.01,-4.34 7.98,-7.64 6.2,-13 -10.39,-31.22 -38,-57.13 -52,-87 -4.99,-10.64 -4.37,-23.56 -5.91,-35 -3.2,-23.74 -6.3500003,-47.28 -8.8900003,-71 -1.51,-14.08 -8.05,-29.64 -5.60999999,-43.96 2.60999999,-15.25 10.92000029,-29.41 15.69000029,-44.04 4.28,-13.12 6.62,-30.86 15.39,-42 16.63,-21.109 40.97,-36.249 60.19,-54.843 16.849996,-16.309998 31.519996,-34.807998 49.929996,-49.651998 15.42,-12.424 32.77,-21.425 49.5,-31.814 8.52,-5.293 16.65,-11.749 26.08,-15.4869996 27.07,-10.725 58.45,-9.204 87,-9.204 36.122,0 71.173,0.43 107,4.714 12.487,1.494 24.754,1.053 37,4.859 29.903,9.2929996 58.578,29.2399996 80.804,50.7579996 4.995,4.836 12.205,8.036 16.277,13.723 9.607,13.415 10.741,31.720998 17.687,45.906998 2.173,4.439 6.217,7.802 8.605,12.209 8.932,16.481 16.658,34.51 20.25198,52.83 4.564,23.27 9.416,47.6 12.246,71.09 1.291,10.71 -1.521,24.65 2.732,34.8 2.173,5.18 8.28,3.15 12.397,2.11 9.591,-2.42 20.121,-6.53 30,-6.9 12.474,-0.46 20.637,24.83 21.871,34.99 4.564,37.59 0.089,80.83 -6.701,117.91 -1.859,10.15 -0.31,23.55 -4.024,33 -4.897,12.46 -18.299,26.69 -26.86,37 -2.828,3.4 -9.582,9.94 -6.45,14.77 3.615,5.58 19.063,5.94 25.164,6.81 14.09,1.99 27.605,6.55 41,11.19 5.266,1.83 12.351,2.73 16.856,6.11 9.806,7.36 7.14,28.55 14.643,38.06 5.001,6.34 16.953,7.46 24.501,8.06 z"
     id="path4"
     inkscape:connector-curvature="0" />
  <path
     style="fill:#474327;stroke:none"
     d="m 390.31954,96.074262 c 0.58,-7.606 10.71,-11.386 15.271,-17.375 4.395,-5.772 0.707,-12.347 3.332,-18.32 1.724,-3.921 13.279,-8.549 17.412,-9.692 8.864,-2.45 30.914,1.25 37.233,-6.307 3.447,-4.122 -14.737,-9.571 -17.209,-10.896 -19.976,-10.702 -36.972,-6.471 -59.039,-6.41 -0.189,-5.763 -2.261,-7.685 -8,-8 l 0,3 c -7.972,0 -11.927,-3.245 -19.015,-4.647 -3.513,-0.694 -7.235,1.47 -10.66,0.041 -2.851,-1.191 -4.125,-4.41 -7.365,-4.983 -3.839,-0.679 -8.015,1.605 -11.96,1.535 -12.365,-0.219 -23.617,-0.712 -36,0.768 -12.82,1.534 -25.48,0.007 -37.91,3.97 -24.19,7.712 -38.89,35.167 -39.09,59.316 2.5,-0.768 8.78,-4.453 10.29,-0.562 1.94,4.989 -3.95,14.18 -4.25,19.562 -1.18,21.243998 -0.09,42.833998 -2.21,63.999998 -0.78,7.75 0.43,25.65 -10.83,21 -2.78,5.67 -4,9.6 -4,16 l -13,0 0,4 c -4.41,0.13 -7.08,0.83 -9,5 -8.61,2.34 -15.8,7.96 -24.73,1.11 -6.18,-4.75 -6.59,-14.74 -15.27,-16.11 -2.07,-6.98 -8.43,-5.09 -13.57,-8.48 -7.11,-4.7 -19.14,-18.22 -20.43,-26.52 -3.78,-0.237 -10.779996,1.6 -13.869996,0.377 -3.17,-1.25 -3.62,-5.295 -5.31,-7.863 -4.41,-6.67 -13.3,-18.243 -8.96,-27.035 2.51,-5.086 10.83,-9.181 15.05,-12.855 5.349996,-4.652 8.209996,-10.538998 12.059996,-16.213998 5.38,-7.92 14.05,-14.102 21.03,-20.514 5.21,-4.783 9.78,-11.384 15.3,-15.614 13.27,-10.178 30.13,-18.869 44.7,-27.182 15.02,-8.569 27.29,-18.22 45,-20.7999996 52.49,-7.647 109.418,-7.422 162,-0.589 14.357,1.8649996 31.139,0.256 45,4.0749996 15.37,4.234 30.789,13.141 45,20.251 13.029,6.519 23.102,16.546 34.286,25.663 10.26,8.364 19.253,14.64 24.594,27.315 1.791,4.247 10.186,20.299998 5.377,23.938998 -4.783,3.619 -9.311,-5.082 -11.208,-7.955 -5.845,-8.855998 -19.083,-26.430998 -29.053,-30.093998 -9.093,-3.34 -20.469,-8.464 -29.996,-9.717 -18.697,-2.458 -41.487,6.634 -58,14.341 -12.124,5.659 -19.304,18.381 -33,19.471 z"
     id="path6"
     inkscape:connector-curvature="0" />
  <path
     style="fill:#fefdfc;stroke:none"
     d="m 302.31954,22.074262 c -1.142,22.253 -16.94,42.825 -17,65 15.809,-8.108 12.067,-38.731 29,-47 1.766,5.9 5.401,3.673 10,2 -0.327,15.752 -9.619,34.553 -15.678,48.985 -2.237,5.328 -6.123,7.875 -6.322,14.014998 10.83,-4.78 8.066,-15.998998 21,-18.999998 -3.928,20.848998 -13.522,38.077998 -9,59.999998 14.047,-4.704 13.761,-29.294 26,-37 -0.054,6.489 -3.852,17.985 1.148,23.246 8.597,9.044 31.998,-2.041 41.852,-4.678 9.097,-2.434 18.045,6.389 27,7.285 8.821,0.882 15.576,-5.829 24,-2.853 -0.164,3.774 -2.978,10.332 -0.933,13.681 3.739,6.124 14.816,-0.39 16.933,-4.681 5.322,0 13.565,-0.372 10.542,7.736 -2.823,7.569 -19.451,8.36 -24.871,14.464 -3.656,4.12 -2.025,8.88 -2.953,13.78 -1.494,7.88 -5.635,15.49 -8.088,23.02 -2.273,6.98 11.33,29.21 -1.63,33 -0.409,6.43 -0.814,15.95 -2.874,22 -1.73,5.08 -5.701,9.87 -6.823,15.09 -0.936,4.35 3.009,13.95 -3.432,15.57 -3.496,0.88 -5.192,-1.98 -8.08,-3.08 -5.381,-2.03 -22.788,-4.79 -27.062,-0.26 -7.79,8.25 2.751,12.25 2.144,20.68 -0.276,3.82 -3.332,6.35 -3.826,10.04 -0.454,3.39 1.735,6.35 1.368,9.67 -1.11,10.07 -3.415,20.02 -3.415,30.29 11.379,1.93 38.575,9.99 27.682,27.61 -3.204,5.18 -15.691,12.5 -21.107,15.66 -9.571,5.6 -23.071,2.73 -33.575,5.14 -9.638,2.22 -21.134,6.57 -30,10.97 -4.582,2.27 -7.939,6.43 -13,7.76 -6.128,1.6 -13.42,-2.14 -20,-2.14 -0.88,3.04 -2.34,4.57 -4.49,6.88 -2.61,2.82 -4.58,9.31 -8.51,10.37 -4.94,1.33 -8.6,-15.63 -16.98,-14.78 -5.62,0.56 -6.59,10.57 -10.56,13.94 -10.27,8.69 -19.37,-10.18 -21.46,-17.41 -4.82,3.79 -17.93,18.95 -20,6 -6.33,3.16 -7.67,13.7 -15.09,14.85 -8.85,1.37 -14.91,-4.69 -22.91,-5.6 -14.34,-1.62 -28.46,-0.15 -43,-2.46 -7.75,-1.24 -11.84,-8.97 -19.869996,-4.16 -9.47,5.68 -8.81,16.15 -12.13,25.37 -4.52,-1.41 -5.43,-5.71 -9.3,-7.97 -4.13,-2.42 -9.45,0.25 -13.7,0.97 -3.47,-5.53 -13.55,-22 -1,-23 -0.04,-11.98 -9.44,-17.64 -15.37,-27.09 -10.5,-16.75 -19.57,-34.72 -24.92,-54 -4.15,-14.95 -7.31,-37.38 -4.45,-52.74 1.71,-9.19 7.23,-18.85 7.74,-28.2 0.18,-3.32 -3.84,-4.15 -4.68,-7.11 -1.46,-5.16 -0.28,-17.38 1.15,-22.57 3.22,-11.73 11.57,-21.88 14.53,-33.29 6.54,-1.91 14.44,-8.87 17.43,-15 2.1,-4.31 3.17,-14.7 9.61,-14.7 9.3,0 11.32,17.83 18.29,22.27 8.34,5.31 23.939996,-6.77 32.629996,-3.28 14.17,5.69 18.63,27.11 33.04,32.01 8.27,2.82 18.15,6.34 27,4.17 5.69,-1.4 9.94,-5.48 16,-6.88 5.8,-1.33 12.34,-0.39 17.99,-2.1 6.27,-1.9 8.88,-5.47 16.01,-5.49 0.63,-4.26 3.11,-7.94 3.7,-12.09 0.94,-6.62 -1.08,-14.09 -0.61,-20.91 1.4,-20.475 3.28,-40.556 6.59,-61 1.69,-10.461 -2.25,-22.003998 2.77,-31.664998 5.52,-10.616 2.04,-30.255 17.55,-32.335 0.66,-5.898 4.44,-19.348 9.17,-23.116 4.05,-3.219 15.41,-7.42 15.73,1.135 0.26,6.83 -5.25,12.242 -8.08,18.02 -6.71,13.697 -16.55,31.295 -12.82,46.961 5.4,-3.3 9.07,-17.846 10,-24 l 3,0 c 0.69,-10.219 6.67,-18.761 10.28,-28.015 2.03,-5.196 4.36,-12.556 8.99,-16.091 3.27,-2.491 7.873,-1.894 11.73,-1.894 z"
     id="path8"
     inkscape:connector-curvature="0" />
  <path
     style="fill:#474327;stroke:none"
     d="m 344.31954,29.074262 c -1.392,2.602 -2.214,4.017 -5,5 0.728,-3.351 1.597,-4.413 5,-5 z"
     id="path10"
     inkscape:connector-curvature="0" />
  <path
     style="fill:#887f52;stroke:none"
     d="m 196.31954,65.074262 c -1.97,-0.092 -3.95,-0.105 -5.82,-0.854 -14.25,-5.724 12.12,-26.213 8.19,-7.185 l -2.37,8.039 m 114,-6 c -0.041,3.702 -0.764,6.541 -2,10 l -4,0 c 0.019,-5.251 0.128,-9.064 6,-10 m -154,22 -1,20.999998 -10,0 c -1.97,-10.600998 -1.97,-20.405998 11,-20.999998 m -26.59,5.046 c 2.53,1.922 1.58,7.215 1.59,9.954 0.01,3.763 7.72,32.321998 -2.91,26.546998 -7.5,-4.069 -12.53,-19.414 -10.78,-27.545998 0.79,-3.673 7.55,-12.42 12.1,-8.955 m 127.59,24.953998 c 1.82,6.173 1.49,13.758 0,20 l -2,0 c -3.01,-7.124 -1.59,-12.845 0,-20 l 2,0 z"
     id="path12"
     inkscape:connector-curvature="0" />
  <path
     style="fill:#474327;stroke:none"
     d="m 590.31952,345.07426 c 12.974,-2.21 18.871,-15.76 31,-18.23 4.545,-0.92 10.998,-1.86 14.142,2.46 3.232,4.44 1.5,10.81 1.028,15.77 -1.068,11.21 1.455,22.98 -1.17,34 l -2,0 c -4.297,-8.5 -12.824,-27.66 -22,-31 -1.288,6.91 -1.656,16.34 -4.603,22.66 -3.539,7.58 -9.738,4.48 -8.397,15.34 16.954,1.14 24.116,15.01 23.089,30 -0.403,5.9 2.262,14.4 -5.089,16 l 0,6 -3,0 c -0.392,4.93 -0.618,13.39 -3.434,17.52 -5.49,8.04 -13.433,7.52 -13.566,19.48 -5.888,2.16 -10.72798,4.81 -16.99998,6 1.157,1.82 1.145,1.83 1,4 5.572,1.39 13.85798,1.49 18.85098,3.74 2.668,1.2 3.402,4.15 0.826,5.94 -6.04,4.21 -15.33498,0.32 -21.52898,5.17 -10.634,8.34 2.827,33.61 12.85698,36.93 6.334,2.09 11.703,1.07 16.821,-3.16 2.517,-2.08 5.513,-7.02 9.213,-6.57 2.845,0.35 5.182,2.9 7.961,3.68 9.004,2.52 18.821,3.8 28,5.76 16.33,3.49 35.797,5.74 50.995,12.78 12.659,5.87 7.69,29.35 16.515,39.25 7.291,8.18 20.648,9.11 30.49,11.77 6.359,1.72 12.02,5.14 18.17,7.33 9.303,3.32 19.411,4.13 28.66,7.21 10.633,3.55 21.28,9.45 32.185,11.85 9.014,1.97 29.125,4.29 35.243,11.74 2.694,3.28 1.086,7.83 2.306,11.58 1.329,4.09 5.275,6.43 6.836,10.29 2.679,6.62 0.6,17.61 0.6,24.71 l -1,90 c 0,11.75 4.169,33.11 -0.742,43.78 -3.189,6.92 -12.176,2.36 -17.258,1.22 -0.365,4.79 -0.202,9.21 0,14 -5.835,1.1 -11.229,0.46 -17,1 1.662,-7.36 8.826,-17.29 -3,-18.71 -1.856,-0.22 -3.93,-0.33 -5.571,0.73 -5.583,3.63 -5.742,12.48 -7.569,17.98 -4.554,13.71 -15.276,21.71 -3.86,36 6.984,-7.3 12.022,-22.8 14,-33 l 6,0 c 0.221,3.01 0.455,4.37 3,6 -0.01,2.34 0.21,3.8 1,6 -3.466,5.64 -5.305,15.03 -12,17 0.026,7.67 4.926,11.91 6,19 l -7,-1 c -0.646,8.39 -9.023,14.77 -12.687,22 -2.606,5.14 -1.483,11.46 -3.541,16.77 -1.05,2.71 -3.201,2.93 -5.772,3.23 0.044,4.87 2.058,9.25 2,14 -1.015,-1.14 -1.309,-1.61 -2,-3 -2.447,2.59 -2.887,4.46 -3,8 -6.07,1.53 -10.807,6.16 -17,7 0.022,-6.37 1.026,-10.23 8,-11 l 0,-5 3,0 c 0,-8.6 0.386,-14.7 10,-17 0,-7.89 -1.805,-18.34 0.573,-25.91 1.18,-3.75 8.208,-4.79 8.22,-8.09 0.01,-2.82 -3.901,-2.86 -5.793,-3 l 0,-11 c -9.599,0 -18.641,1.97 -28,2 0.381,-5.92 2.21,-10.92 2,-17 -2.991,8.44 -16.154,12.41 -25,13 -0.644,8.29 -11.091,9.8 -17.791,6.97 -2.221,-0.94 -3.745,-3.77 -6.224,-3.98 -2.437,-0.2 -5.376,1.81 -7.985,2.01 -0.482,2.36 -0.636,2.52 -3,3 l 0,5 c -5.041,0 -11.197,-1.96 -14,3 l 7,1 c 0.637,5.16 0.106,9.84 0,15 l -3,0 c 1.093,13.85 -2.361,13.01 -15,13 0.012,3.62 2.293,9.37 1.268,12.61 -1.153,3.65 -5.748,6.3 -7.268,10.39 l -14,0 c 0.229,7.16 10.424,30.93 -2,33 0.017,-6.02 5.291,-20.1 -5.004,-20.22 -3.986,-0.04 -7.812,2.17 -11.996,2.22 -2.135,7.07 -13.69,11.48 -19.111,16.44 -4.981,4.56 -5.395,9.84 -8.611,15.29 -4.807,8.13 -16.713,19.00004 -26.278,20.27004 -1.471,4.39 -8.486,14.25 -13,15 -1.519,7.52 -8.42598,10.87 -11.99998,17 -5.883,1.79 -8.116,7.95 -12.442,11.96 l -31.253,29.41 c -4.642,4.18 -6.839,9.87 -13.305,11.63 -0.285,9.87 -4.728,16.47 -15,17 -1.421,5.72 -4.246,11.08 -5,17 l -8,2 0,3 c -12.695,0.96 2.773,20.75 4,28 l 3,0 0,-3 c 7.26,-1.09 11.481,-7.75 19,-8 0.25,-4.63 1.888,-24.54 5.434,-26.97 5.388,-3.7 10.701,1.36 15.566,-5.03 4.506,2.58 7.867,3.45 9,9 7.424,0 11.789,-0.56 17,5 -2.838,4.2 -5.506,8.59 -8,13 -3.576,-1.44 -3.877,-3.29 -4,-7 -2.738,-0.23 -5.267,-0.29 -8,0 3.478,11.18 10.999,18.89 11,31 l -24,0 c -1.367,-4.73 -4.291,-6.25 -9,-7 l 0,-5 -7,0 c 0.137,3.21 2.204,9.53 -1.434,11.4 -7.998,4.1 -22.795,1.6 -31.566,1.6 -24.054,0 -48.03,1.89 -72,0 1.768,-12.1 18.909,-23.61 27.421,-31.55 8.079,-7.54 17.725,-13.22 25.32,-20.87 16.669,-16.8 30.673,-34.04 49.088,-49.07 8.39,-6.85 16.654,-21.21 28.171,-22.51 0.529,-9.66 18.415,-24.64 28,-26 1.145,-8.5 8.903,-11.78 14.40198,-17.34004 5.423,-5.48 8.634,-12.49 16.598,-14.66 0.577,-3.47 1.526,-4.42 5,-5 1.9,-12.03 20.518,-20.67 28.292,-28.79 1.656,-1.72 7.037,-11.12 3.505,-12.71 -1.803,-0.82 -5.859,1.19 -7.797,1.5 l 0,-6 c -5.914,0 -11.205,1.63 -17,2 0,-5.81 0.641,-12.52 -4.61,-16.49 -3.778,-2.85 -16.813,-1.78 -18.054,3.55 -2.635,11.33 10.807,6.27 14.622,11.53 2.781,3.84 -1.991,9.69 -2.958,13.41 -6.431,3.37 -3.149,12.48 -9.147,15.26 -3.209,1.49 -11.19298,2.87 -14.27998,0.71 -3.974,-2.77 -2.39,-9.89 1.691,-11.79 2.885,-1.34 7.59198,-0.19 10.73598,-0.18 -1.014,-13.3 -19.24298,-7.79 -23.99998,0 -3.713,-0.22 -7.287,-0.22 -11,0 -3,-6.13 -9.937,-8.64 -11,-16 l -7,0 c 2.61,-7.1 9.913,-4.77 16,-4 l -1,-8 c -4.22,-0.27 -8.775,-2.71 -12.981,-1.68 -6.987,1.71 -5.392,13.15 -5.019,18.68 -2.134,3.73 1.725,7.54 0.115,12 -3.138,8.69 -10.107,8.85 -10.115,19 l 4,0 c -0.415,3.33 0.274,5.78 1,9 l -11,0 c -0.79,-12.56 -3.035,-24.26 -3,-37 l -6,0 c 0.023,-6.58 1.204,-9.06 8,-10 1.04,-9.33 10.96,-14.99 15,-23 -7.258,0.09 -17.245,7.96 -19,-4 -3.687,-1.22 -3.88,-3.31 -4,-7 -3.075,-0.63 -4.427,-1.28 -6,-4 l -4,1 c -4.063,-9.63 3.994,-12.53 2.721,-21 -1.029,-6.84 -7.968,-8.86 -9.721,-15 2.283,-1.45 2.582,-2.31 3,-5 l -17,0 c 0.08,-28.88 25.64,-57.95 40.239,-81 4.583,-7.24 12.219,-22.56 20.761,-25 2.275,-13.65 21.458,-26.53 29.243,-37.59 11.353,-16.13 20.70998,-33.76 31.72198,-50.12 11.908,-17.7 26.565,-35.09 35.841,-54.33 7.86,-16.3 -11.079,-38.33 -21.034,-50.16 -3.101,-3.68 -15.141,-13.5 -20.02,-7.2 -2.644,3.41 8.754,9.33 10.423,12.42 4.919,9.09 5.116,23.34 1.64,32.98 -9.502,26.35 -30.69998,48.74 -45.92398,71.91 -11.951,18.19 -25.242,35.59 -36.627,54.09 -8.498,13.81 -14.382,29.25 -24.858,41.83 -14.903,17.9 -32.263,32.09 -51.406,45.18 -6.965,4.76 -16.113,12.3 -24.286,14.52 -5.735,1.55 -12.724,-0.85 -18.714,-0.44 -9.746,0.67 -19.324,3.36 -29,4.62 -6.21,0.81 -23.666,2.59 -25.663,-5.8 -1.141,-4.79 4.305,-7.64 7.663,-9.78 7.476,-4.77 24.061,-4.36 27,-14.13 14.071,-3.63 37.417,-28.43 39,-43 -5.484,-0.8 -8.415,-5.91 -14,-6.79 -16.324,-2.57 -31.773,1.79 -48,1.79 l 0,3 c -19.762,0.85 -39.186,2 -59,2 0.865,-7.52 13.464,-8.75 20,-10.69 15.32,-4.55 49.915,-8.23 53,-28.31 -2.758,0 -8.049,0.93 -9.958,-1.6 -3.59,-4.77 4.959,-13.5 -5.047,-14.27 -11.451,-0.88 -24.691,5.37 -36.084,6.74 -17.459,2.11 -36.608,0.33 -53.911,-1.87 2.28,-6.65 10.33,-4.69 16,-5.09 11.067,-0.78 38.238,-0.9 42,-13.91 10.239,-3.2 3.95,-17.67 -3.055,-21.28 -10.404,-5.35 -13.828,4.94 -20.259,10.44 -2.262,1.94 -7.882,6.02 -10.944,3.77 -4.224,-3.1 -0.739,-13.35 -2.306,-17.84 -1.647,-4.72 -11.576,-8.24 -10.966,-13.04 0.55,-4.36 9.32,-2.75 12.201,-5.37 10.396,-9.43 11.765,-28.31 28.329,-30.68 -0.462,-8.43 -9.133,-13.68 -13.1,-21 -8.391,-15.49 -14.331,-30.89 -18.526,-48 -2.017,-8.23 1.862,-22.7 -3.406,-29.33 -7.458,-9.39 -22.878,-16.16 -33.838,-8.66 -16.98,11.62 -19.86,39.78 -26.61,57.99 -4.48,12.11 -17.06,22.2 -30.52,19 4.52,-16.71 26.38,-22.05 29,-40 l 3,0 c 0.06,-7.16 2.35,-14.91 0.53,-22 -2.89,-11.23 -9,-6.07 -10.53,2 l -4,0 c -2.17,8.71 -10.75,22.19 -16.89,28.74 -3.01,3.21 -6.98,4.27 -9.11,8.26 -5.43,0.02 -13.88,3.32 -18.85,1.24 -2.82,-1.18 -3.35,-4.49 -5.46,-6.45 -2.15,-1.99 -5.23,-2.86 -7.09,-5.18 -8.23,-10.28 11.26,-14.56 17.4,-16.61 l 0,-3 c -4.92,-0.9 -14.47,3.25 -18.34,-0.01 -2.75,-2.32 16.2,-9.49 19.34,-9.99 -2.03,-7.05 -7.69,-5.97 -12.82,-9.55 -5.59,-3.9 -5.91,-13.52 -10.61,-16.38 -3.06,-1.85 -6.85,0.93 -8.81,3.14 -4.55,5.17 -10.62,15.56 -17.8,17.34 -6.82,1.69 -15.75,-16.88 -19.93,-11.1 -2.03,2.8 -1.03,8.29 -1.03,11.55 0,11.93 6.45,21.95 7,34 l 3,0 c 0.55,7.16 7.3,10.78 12.41,15.09 9.27,7.82 21.17,8.74 32.5,11.76 10.07,2.67 18.31,5.93 29.09,6.15 -3.63,4.77 -12.58,3 -18,3 -20.35,0 -35,-6.09 -51.84,-17.91 -4.02,-2.82 -16.84,-17.78 -21.09,-9.94 -1.81,3.33 0.76,7.59 1.59,10.85 2.61,10.24 7.34,18.12 7.34,29 -4,-2.1 -4.45,-6.16 -6.39,-10 -5.04,-9.94 -8.479996,-20.64 -12.509996,-31 -4.8,-12.33 -22.6,-17.39 -26.43,-30.05 -1.69,-5.59 2.35,-22.73 5.32,-27.86 1.86,-3.22 5.68,-5.16 6.3,-9.09 0.87,-5.48 -5.02,-11.9 -5.29,-18 14.25,2.25 8.18,21.49 10.71,31 0.94,3.5 4.61,17.19 10.55,11.39 2.85,-2.78 2.32,-8.38 3.45,-11.97 1.11,-3.52 1.999996,-6.72 2.289996,-10.42 l 3,0 c 0.61,-9.26 10.56,-16.11 10.45,-24.91 -0.06,-4.38 -8.31,-8.75 -5.37,-13.39 2.87,-4.52 11.47,-3.44 15.92,-4.45 9.98,-2.26 24.79,-5.16 35,-4.06 8.45,0.91 15.71,5.43 24,7.01 17.57,3.34 57.2,7.28 58,31.8 l 6,0 c -0.26,-9.12 6.31,-16.39 8.36,-25 0.59,-2.47 1.65,-7.21 4.85,-7.4 6.6,-0.4 8.79,11.5 16.46,6.1 5.29,-3.73 4.68,-11.17 9.44,-14.8 3.45,-2.63 8.073,-3.33 11.706,-5.73 9.541,-6.28 19.379,-15.61 30.223,-19.4 15.382,-5.38 32.857,-5.5 48.961,-6.77 l 0,-3 c 12.621,-0.26 22.309,-7.34 35,-7.9 18.403,-0.81 47.379,17.46 63,0.9 -4.971,-5.24 -6.975,-17.86 -7,-25 l 8,0 0,4 c 8.625,1.18 19.305,3.21 22,-8 9.459,-5.12 7.275,-27.78 1,-35 3.211,-5.5 6.118,-14.84 9.934,-19.42 3.225,-3.86 7.009,-4.13 8.869,-9.59 2.772,-8.16 1.197,-18.47 1.197,-26.99 l 6,1 c 0.71,3.48 2.947,5.74 4,9 l 7,0 c 0.032,-9.48 2.64,-15.89 13,-14 -0.533,-10.25 -8.441,-17.51 -13.76,-25.44 -3.598,-5.37 -5.032,-10.54 -11.24,-13.56 l 0,-6 c 4.055,0 10.129,-1.11 13.741,1.03 6.971,4.13 9.082,10.98 18.259,11.97 1.067,-5.5 0.014,-8.64 -1,-14 l 5,0 c -0.198,-9.26 -5.258,-13.79 -10.756,-20.59 -11.981,-14.79 -29.513,-26.84 -49.244,-27.41 l -1,-9 c 10.027,-0.3 19.402,-7.4 29.961,-7.82 5.568,-0.22 10.34,5.11 16.039,5.82 l -1,-12 c -10.059,-2.3 -18.562,-10.082 -29,-11 l -4,-7 c 2.106,-0.644 3.795,-0.906 6,-1 l 1,-25 c 14.718,3.407 27.014,11.255 39.286,19.297 2.815,1.845 6.524,1.398 8.861,4.021 27.44398,30.812 21.256,78.312 22.89198,115.682 0.912,20.82 5.456,41.18 4.946,62 -0.259,10.61 -3.985,20.08 -3.985,31 m -522.999976,-208 c -1.09,7.211 -6.76,12.108 -10.16,18.271 -4.49,8.139 -6.46,17.729 -11.59,25.409 -5.84,8.76 -15,14.15 -21.25,22.32 -2.29,-5.61 1.39,-11.48 2.6,-17 1.68,-7.69 4.22,-19.93 9.67,-25.81 4.75,-5.116 12.23,-8.588 17.69,-13.074 4.42,-3.631 7.35,-8.518 13.04,-10.116 z"
     id="path14"
     inkscape:connector-curvature="0" />
  <path
     style="fill:#887f52;stroke:none"
     d="m 557.31954,147.07426 c 2.477,5.183 6.975,15.16 12,18 l 0,6 -7,0 c -1.763,-8.14 -7.061,-14.909 -9,-23 l 4,-1 m -139,74 -7,0 c 0.036,-10.15 6.964,-10.24 7,0 z"
     id="path16"
     inkscape:connector-curvature="0" />
  <path
     style="fill:#474327;stroke:none"
     d="m 18.319544,217.07426 c -0.91,11.19 -0.56,38.58 -11.0000003,45 -2.66,-15.72 -0.63,-32.72 11.0000003,-45 z"
     id="path18"
     inkscape:connector-curvature="0" />
  <path
     style="fill:#887f52;stroke:none"
     d="m 559.31954,280.07426 c 2.578,5.13 2.999,9.33 3,15 -6.105,-1.98 -6.584,-9.59 -5,-15 l 2,0 z"
     id="path20"
     inkscape:connector-curvature="0" />
  <path
     style="fill:#474327;stroke:none"
     d="m 666.31952,336.07426 0,15 c -19.163,0 -15.856,-26.74 -28.213,-38.33 -9.937,-9.32 -18.829,-3.03 -29.787,-7.67 l 0,-3 c 9.869,-4.38 23.359,-8.56 34.015,-10.27 4.223,-0.67 8.983,-1.64 11.771,2.42 7.278,10.6 -2.3,37.58 12.214,41.85 z"
     id="path22"
     inkscape:connector-curvature="0" />
  <path
     style="fill:#fefdfc;stroke:none"
     d="m 391.31954,295.07426 c 1.746,-0.82 2.649,-1.6 4,-3 1.277,1.92 1.277,1.08 0,3 1.457,-1.1 1.897,-1.54 3,-3 16.568,6.6 -8.538,30.4 -7.957,11 l 0.957,-8 z"
     id="path24"
     inkscape:connector-curvature="0" />
  <path
     style="fill:#474327;stroke:none"
     d="m 20.319544,347.07426 c 5.11,8.34 4.01,19.16 8.26,28 1.88,3.89 5.33,5.14 7.87,8.3 3.43,4.29 4.36,10.81 6.97,15.66 2.41,4.49 6.61,8.06 8.11,13.03 1.68,5.52 -0.23,16.73 -0.21,23.01 -7.6,-2.32 -9.52,-11.84 -13.32,-18 -10.63,-17.2 -16.35,-32.8 -17.77,-53 -0.39,-5.55 -2.14,-11.69 0.09,-17 z"
     id="path26"
     inkscape:connector-curvature="0" />
  <path
     style="fill:#887f52;stroke:none"
     d="m 592.31952,377.07426 c -13.65998,3.25 -9.26698,-5.77 -8.99998,-15 7.21998,1.15 6.16298,9.36 8.99998,15 z"
     id="path28"
     inkscape:connector-curvature="0" />
  <path
     style="fill:#474327;stroke:none"
     d="m 645.31952,478.07426 c -10.878,-0.85 -3.681,-20.69 -3.093,-28 1.06,-13.19 -1.383,-26.78 0.222,-39.91 1.016,-8.31 4.424,-17 6.718,-25.09 1.623,-5.72 2.591,-16.21 7.006,-20.4 3.712,-3.51 9.473,-1.42 10.038,3.42 1.064,9.11 -1.765,17.94 -1.887,26.98 -0.29,21.48 -1.753,51.01 -10.012,71 -1.987,4.81 -6.746,7.39 -8.992,12 z"
     id="path30"
     inkscape:connector-curvature="0" />
  <path
     style="fill:#887f52;stroke:none"
     d="m 576.31954,454.07426 c -1.735,7.01 -2.99,21.73 -11,23 l -2,-4 2,-1 c -2.028,-2.23 -3.606,-4.01 -4,-7 l -7,0 c -0.904,6.84 -5.282,11.64 -7.2,18 -1.88,6.23 -1.782,14.49 -1.8,21 l -4,0 c -0.51,6.48 -0.018,12.52 0,19 l 12,1 0,5 c -10.868,2.93 -10.571,3.68 -12,15 l -16,-2 c 0,-10.02 7.138,-21.76 2,-31 4.024,-7.25 3.14,-14.17 4,-22 l -6,-1 c -0.292,-4.45 -1.735,-7 -5,-10 -2.417,7.03 -2.06,15.56 -3,23 l -5,0 c 0.401,3.23 0.802,5.83 0,9 -2.046,-1.6 -4.014,-2.59 -4,-5 l -4,0 c -0.923,-7.27 -0.91,-19.57 -6,-25 l 1,-2 c -7.346,-5.19 1.527,-10.55 2.721,-16.09 0.863,-4.01 -1.483,-7.17 -1.404,-11 0.201,-9.65 8.994,-27.17 18.683,-29.91 1.171,-17.4 20.77,-0.37 27,-13 l 4,0 c 0.035,-12.72 9.2,-22.82 10,-35 12.284,0.4 5.924,12.91 9.286,20.96 6.345,15.18 17.734,25.84 20.41798,43.04 1.993,12.77 0.146,20.4 -13.70398,17 m -70,-65 c -1.934,6.29 -9.853,26.66 -19.667,22.38 -3.505,-1.53 -2.867,-6.38 -6.333,-8.38 4.123,-3.87 8.05,-6.07 9,-12 1.797,0 1.521,0.01 3,1 l 0,-4 c 5.147,-0.22 9.231,-1.48 14,1 m -120,86 c -1.586,5.92 -5.868,8.35 -5,15 -5.691,1.68 -8.844,4.45 -15,3 1.623,-6.82 1,-14.03 1,-21 6.618,0.05 12.493,2.67 19,3 m 88,9 c 0.986,-1.48 1,-1.2 1,-3 3.946,2.64 10.376,4.36 13,8 -3.612,3.82 -10.939,15.76 -11.787,21 -1.075,6.65 0.632,15.55 -2.111,21.7 -5.111,11.46 -18.372,14.35 -20.78,27.34 -1.353,7.29 5.962,9.89 11.678,9.96 l 0,-6 c 1.269,2.9 1.212,5.2 4,7 -2.037,-2.91 -1.988,-5.5 -2,-9 11.208,0.24 25.157,4.49 19,18 4.999,3.65 -0.604,21.17 1,28 -1.84,1.72 -2.349,2.57 -3,5 -10.367,0 -16.425,-2.42 -26,-5 1.479,0.99 1.203,1 3,1 -3.349,3.35 -19.162,-3.65 -17,5 -5.217,2.81 -5.882,8.48 -6,14 -17.368,-0.15 -30.62,-15.52 -41.42,-27.28 -4.208,-4.58 -10.585,-7.1 -15.491,-10.87 -11.025,-8.48 -18.175,-16.84 -33.089,-16.85 -2.19,-5.49 -16.933,-11.73 -14.377,-17.7 2.232,-5.21 13.867,-3.02 18.377,-4.05 12.737,-2.88 25.074,1.83 38,0.58 7.682,-0.74 18.474,-6.04 25.892,-4.77 7.63,1.31 13.991,26.12 24.108,9.94 l 3,2 c 0.406,-2.09 0.217,-2.02 2,-3 -3.544,-5.17 -0.805,-17.72 2.504,-22.74 1.437,-2.18 4.615,-3.8 5.255,-6.41 0.713,-2.91 -2.984,-6.06 -3.759,-8.85 l -6,0 c 0.025,-8.95 1.929,-27.09 8.002,-34.03 5.476,-6.25 22.079,-11.03 22.998,1.03 m -46,17 c -0.69,15.82 -14.65,38.91 -31,42.48 -17.539,3.83 -47.729,-1.92 -45.938,-25.44 0.299,-3.92 3.347,-6.61 4.938,-10.04 7.932,0 28.834,-0.02 25,11 6.816,0.45 21.647,7.04 27.624,2.83 3.297,-2.32 -2.086,-8.13 -1.266,-11.62 1.466,-6.25 15.331,-9.16 20.642,-9.21 z"
     id="path32"
     inkscape:connector-curvature="0" />
  <path
     style="fill:#fefdfc;stroke:none"
     d="m 228.31954,607.07426 c -18.08,-4.23 -23.12,18.61 -30.29,30.83 -15.8,26.9 5.97,53.1 14.66,78.21 3.81,11.03 6.22,26.47 17.67,32.54 5.5,2.92 10.59,-1.01 11.7,-6.67 1.95,-9.99 -6.37,-24.46 6.26,-28.74 12.38,-4.2 23.54,-0.32 36,-0.17 13.903,0.16 28.199,1.81 41.985,0.94 7.43,-0.46 14.139,-2.94 22.015,-2.94 -2.268,20.6 -16.233,25.29 -35,28.44 -6.095,1.02 -24.15,2.89 -24.25,11.53 -0.08,6.21 14.413,10.39 19.25,10.86 21.789,2.11 44.976,-0.83 67,-0.83 5.034,0 22.234,-2.69 23.588,4.21 0.968,4.94 -3.482,7.8 -6.13,11.05 -9.386,11.5 -30.49,11.22 -35.458,25.74 -14.607,2.15 -26.438,15.39 -42,12.78 -15.784,-2.66 -27.01,-13.59 -40,-21.73 -24.09,-15.09 -48.55,-35.38 -65.83,-58.27 -19.51,-25.85 -29.13,-58.44 -46.05,-85.78 -4.81,-7.78 -9.6,-17.84 -17.14,-23.36 -5,-3.67 -11.92,-3.29 -16.19,-7.98 -11.18,-12.26 -18.65,-37.32 -18.79,-53.66 12.9,2.68 26.14,16.54 38,22.7 6.79,3.53 15.62,2.29 23,2.3 15.41,0.02 31.43,3.91 46,-3.12 22.22,-10.73 24.24,-39.02 31.33,-59.17 3.81,-10.83 9.78,-22.07 23.63,-18.39 10.87,2.88 8.04,17.79 9.71,25.68 2.7,12.76 3.22,25.58 7.25,38 4.759,14.68 15.158,30.52 10.512,46.96 -3.971,14.05 -22.712,5.64 -25.212,20.05 -2.05,11.88 6.98,16.47 10.86,25.99 1.74,4.28 0.32,8.61 0.41,13 0.07,3.33 2.06,6.56 -0.02,9.66 -2.1,3.12 -6.28,3.52 -9.46,4.97 -12.77,5.81 -23.66,2.61 -37.01,0.04 -7.97,-1.54 -9.52,6.73 -15.04,6.69 -3.59,-0.02 -5.41,-5.59 -5.84,-8.36 -1.47,-9.5 -3.71,-18.26 -3.03,-28 0.97,-13.84 11.18,-24.12 14.44,-37 1.61,-6.41 -2.39,-12.56 -2.53,-19 m -94,-54 c -7.53,-1.17 -9.84,-8.12 -10,-15 5.2,2.69 9.16,9.26 10,15 m 238,4.42 c 10.612,1.4 27.639,0.82 35.436,9.34 4.449,4.87 5.34,22.31 -3.441,22.18 -11.162,-0.17 -25.097,-13.22 -33.995,-19.36 -2.995,-2.07 -8.852,-5.4 -9.133,-9.6 -0.297,-4.45 8.678,-2.88 11.133,-2.56 z"
     id="path34"
     inkscape:connector-curvature="0" />
  <path
     style="fill:#887f52;stroke:none"
     d="m 345.31954,604.07426 c -4.097,-2.37 -5.506,-5.62 -7,-10 2.179,-0.73 1.78,-0.44 1,-2 1.608,-1.45 2.064,-2.05 3,-4 9.753,0.78 6.831,10.36 3,16 z"
     id="path36"
     inkscape:connector-curvature="0" />
  <path
     style="fill:#fefdfc;stroke:none"
     d="m 622.31952,591.07426 c 0,6.9 3.627,15.71 2.453,22 -3.304,17.69 -14.428,30.51 -23.995,44.96 -8.344,12.6 -14.74798,25.36 -24.10998,37.33 -9.681,12.37 -18.101,28.71 -35.348,28.71 0.01,-15.41 11.824,-27.31 20.626,-39.01 14.964,-19.91 28.01098,-41.07 41.92998,-61.99 3.143,-4.72 7.537,-9.85 9.81,-15 2.465,-5.59 3.29,-13.38 8.634,-17 z"
     id="path38"
     inkscape:connector-curvature="0" />
  <path
     style="fill:#474327;stroke:none"
     d="m 123.31954,618.07426 c -2.96,-0.97 -3.5,-1.93 -4,-5 2.55,1.37 3.19,2.22 4,5 m 96,6 c -0.01,14.41 -6.86,27.18 -9.62,41 -1.71,8.53 0.44,17.47 0.62,26 -9.95,-10.04 -8.64,-34.33 -3.55,-46.29 1.87,-4.4 1.49,-9.95 6.55,-11.71 0.02,-5.27 0.18,-8.33 6,-9 z"
     id="path40"
     inkscape:connector-curvature="0" />
  <path
     style="fill:#887f52;stroke:none"
     d="m 453.31954,650.07426 c 14.04,5.73 9.411,15.94 10.093,28 0.187,3.31 3.082,12.67 -1.392,14.29 -4.419,1.59 -7.754,-6.27 -8.898,-9.29 -3.749,-9.88 -6.344,-23.81 0.197,-33 z"
     id="path42"
     inkscape:connector-curvature="0" />
  <path
     style="fill:#474327;stroke:none"
     d="m 222.31954,758.07426 c -8.91,-1.37 -21.7,-15.84 -22,-25 8.09,4 20.67,15.91 22,25 m 106,288.00004 c -8.643,4.75 -5.642,13.84 -2.59,21.17 2.928,7.03 3.175,14.74 5.819,21.83 2.272,6.09 6.835,11.7 8.353,18 1.424,5.91 -1.529,12.02 -1.582,18 -13.556,7.83 -11.213,33.05 -28.17,39.41 -11.484,4.31 -27.65,2.1 -39.83,2.63 -31.27,1.37 -62.65,0.96 -94,0.96 -10.56,0 -34.94,4.46 -43.4,-2.98 -5.95,-5.24 0.21,-22.43 0.4,-29.02 l 3,0 c 0.02,-6.86 3.4,-11.5 4.96,-18 2.21,-9.23 2.65,-17.91 5.74,-27 3.16,-9.29 7.3,-13.64 7.3,-24 10.17,-4.95 10.82,-16.52 13.43,-26 1.33,-4.86 5.92,-7.59 8.1,-12.02 2.15,-4.37 1.48,-9.62 3.75,-13.79 2.18,-4.02 6.95,-5.35 9.13,-9.49 4.19,-7.97004 4.03,-16.43004 6.58,-24.70004 3.82,-12.41 10.85,-25.2 16.23,-36.89 1.78,-3.86 6.07,-5.04 7.65,-9.13 3.54,-9.21 3.31,-20.16 6.73,-28.93 1.33,-3.39 5.06,-4.95 6.83,-8.1 4.81,-8.58 10.32,-24.36 12.57,-33.95 5.31,-3.1 4.56,-11.44 6,-17 9.22,1.51 19.37,-18.81 11.66,-25.34 -5.64,-4.77 -15.02,2.27 -21.66,2.34 -0.01,-3.46 -0.2,-6.63 -1,-10 2.12,-1.22 2.84,-1.87 4,-4 -9.69,0.99 -7.32,-5.32 -14,-9 l 0,4 -3,0 1,8 c 2.03,1.23 2.33,1.7 3,4 -3.89,0.03 -8.46,1.37 -11,-2 l -2,0 c -1.15,2.38 -2.33,4.44 -3,7 2.36,0.48 2.52,0.64 3,3 l 4,0 c -0.78,3.65 -5.66,9.27 -7,3 -2.11,0.64 -3.8,0.91 -6,1 -1.84,-5.82 -8.99,-5.56 -9.06,-12.96 -0.05,-5.19 24.59,-14.08 7.06,-16.04 1.75,-8.03 11.73,-6.11 17.83,-9.03 5.53,-2.65 14.52,-8.11 20.85,-5.03 4.81,2.34 7.29,7.89 12.36,9.95 5.38,2.19 11.51,1.96 16.79,4.14 3.61,1.49 5.83,5.04 9.17,7 7.447,4.37 15.054,7.3 23.004,10.57 7.583,3.12 14.811,4.08 22.996,3.11 2.909,-0.34 7.721,-1.8 9.397,1.61 3.709,7.53 -0.022,21.33 0.773,29.68 3.142,33.02 -0.333,64.69 -7.534,97 -1.065,4.78 -1.96,11.53 -4.208,15.83 -2.305,4.41 -6.6,6.87 -7.295,12.17 -2.035,15.53 12.186,22.22 15.197,36.00004 3.175,14.53 -5.861,20.7 -8.33,33 z"
     id="path44"
     inkscape:connector-curvature="0" />
  <path
     style="fill:#887f52;stroke:none"
     d="m 793.31952,805.07426 c -2.782,-0.81 -3.627,-1.45 -5,-4 l 8.424,-1.42 4.59,-1.26 c 17.723,-2.02 -6.361,27.98 -8.014,6.68 z"
     id="path46"
     inkscape:connector-curvature="0" />
  <path
     style="fill:#fefdfc;stroke:none"
     d="m 496.31954,801.07426 c -4.169,14.28 -10.934,26.23 -16.214,39.99 -10.046,26.17 -19.38,52.38 -31.065,77.88 -3.336,7.28 -10.387,12.39 -13.331,20.13 -4.16,10.93 -10.762,22.08 -16.953,32 -1.771,2.83 -5.529,9 -9.834,5.93 -8.296,-5.91 5.634,-26.22 6.292,-32.93 0.431,-4.39 -0.616,-8.93 1.538,-13 3.038,-5.74 9.604,-10.95 9.338,-18 -0.486,-12.88 -17.067,-19.4 -24.134,-28.13 -4.737,-5.85 -6.354,-13.97 -11.271,-19.54 -3.078,-3.49 -6.953,-4.22 -11.366,-4.33 l 0,3 c -16.687,2.14 -21.113,24.07 -22.089,38 -0.978,13.95 -7.656,28.09 -6.838,41.99 0.268,4.57 4.134,7.49 4.695,12 0.439,3.52 -1.587,6.55 -1.675,10.02 -0.27,10.78 1.865,23.56 -2.063,33.97004 -4.725,12.52 -20.039,-8.06004 -22.151,-13.98004 -3.611,-10.11 5.287,-23.43 6.121,-34 l 3,0 c 0.376,-8.63 3.336,-16.64 4.802,-25 3.745,-21.36 4.717,-43.22 4.183,-65 -0.175,-7.17 -5.09,-27.63 0.043,-33.34 2.266,-2.52 6.853,1.18 8.972,2.3 6.378,3.4 16.325,13.14 23.999,11.18 6.612,-1.69 8.735,-8.98 16.001,-9.95 8.897,-1.19 14.277,2.87 22.089,3.73 3.975,0.43 12.135,-3.09 15.911,-4.61 21.15,-8.49 40.106,-23.01 62,-30.31 z"
     id="path48"
     inkscape:connector-curvature="0" />
  <path
     style="fill:#887f52;stroke:none"
     d="m 785.31952,853.07426 c -6.743,0.2 -12.184,3.92 -19,4 1.658,-7.61 14.997,-10.49 4,-19 l 1,-5 c 10.841,0.13 14,10.68 14,20 z"
     id="path50"
     inkscape:connector-curvature="0" />
  <path
     style="fill:#474327;stroke:none"
     d="m 205.31954,845.07426 c 0.83,1.73 1.03,2.15 1,4 5.7,0 10.48,1.3 16,2 l 0,5 c -4.81,0.44 -7.65,4.18 -12.05,4.73 -3.75,0.46 -7.38,-1.92 -10.95,-2.73 -1.11,-2.73 -2.42,-5.09 -3,-8 3.53,-0.93 6.02,-2.95 9,-5 m 650.99998,1 1,6 10,1 c -2.424,16.54 -13.215,2.66 -18,-2 1.384,-3.77 3.044,-4.7 7,-5 z"
     id="path52"
     inkscape:connector-curvature="0" />
  <path
     style="fill:#887f52;stroke:none"
     d="m 605.31952,862.07426 c 2.418,-0.72 4.472,-0.95 7,-1 0,6.11 -1.447,13.29 3,18 -2.496,9.41 -5.676,18.69 -17,16 0.282,-3.37 -0.58,-7.67 2,-10 -0.752,-3.52 -0.182,-5.66 1,-9 -17.57698,-0.53 -2.254,-21.15 4,-14 m 60,17 c 9.717,1.61 13.185,21.3 6.991,28.4 -3.46,3.96 -11.396,-1.26 -15.972,0.12 -7.291,2.19 -5.178,12.8 -11.298,15.74 -3.211,1.54 -9.001,1.15 -9.364,-3.23 -1.361,-16.43 15.632,-11.59 15.643,-26.03 l 3,0 c 0.52,-7.08 2.153,-12.56 2,-20 4.704,0.02 7.881,-0.13 9,5 m -28,5 c 4.553,6.5 -4.951,28.32 -13.875,26.37 -4.837,-1.05 -7.053,-9.17 -3.522,-12.63 2.115,-2.07 5.69,-1.72 8.397,-1.74 0.45,-5.64 6.007,-7.41 9,-12 m -42,3 -2,9 c -8.59398,2.3 -16.86298,10.07 -17.99998,19 -3.401,0.57 -5.081,2 -9,2 -4.967,0 -15.895,-9.47 -11,-16 2.018,-2.69 6.431,-0.72 9,-2 l 10,-7 c 2.51,-1.39 7.242,0.92 10,0 2.743,-0.91 2.376,-1.5 2,-3 l 8.99998,-2 z"
     id="path54"
     inkscape:connector-curvature="0" />
  <path
     style="fill:#474327;stroke:none"
     d="m 857.31952,890.07426 c 2.147,2.34 3.924,3.2 7,4 -1.832,7.8 -1.088,18.62 -3.804,25.57 -3.56,9.11 -12.581,14.31 -16.639,22.52 -3.253,6.59 -2.92,14.39 -6.886,20.81 -2.945,4.76 -9.76,4.81 -11.929,10.14 -4.304,10.59 -0.478,25.48 -3.76,36.95004 -5.324,18.6 -12.32,36.74 -15.723,56.1 -2.173,12.37 -1.486,25.49 -3.518,37.91 -0.864,5.28 -3.61,9.9 -4.687,15.01 -3.133,14.9 -2.952,31.97 -1.054,46.99 -31.953,2.52 -64.015,-1 -96,-1 0.766,-7.64 4.663,-14.26 7.53,-21.17 1.46,-3.52 1.058,-7.7 3.757,-10.68 2.218,-2.45 5.662,-2.14 8.254,-3.97 6.024,-4.26 12.043,-10.66 15.459,-17.18 -2.528,-0.05 -4.582,-0.28 -7,-1 2.091,-4.4 4.329,-5.34 9,-4 2.745,-8.47 12.219,-9.13 13,-20 7.94,-2.5 4.392,-11.41 8.742,-16.68 4.909,-5.95 27.26,-9.05 26.952,-18.26 -0.072,-2.13 -1.863,-3.24 -3.717,-3.74 -5.67,-1.52 -11.153,-2.46 -14.949,-7.88 -3.677,-5.24 2.445,-9.22 6.97,-9.42 l 7.002,-0.02 c -0.224,-9.25 -7.993,-13.69 -8,-24 5.425,2.5 10.344,5.79 14,-1 3.465,0 9.732,1.15 12.382,-1.6 2.329,-2.43 0.585,-6.46004 0.866,-9.40004 0.636,-6.65 4.542,-12.41 4.752,-19 l -3,0 c 0.094,-11.33 7.906,-11.98 11.416,-21.21 2.633,-6.92 1.727,-20.23 6.612,-26.03 1.832,-2.18 5.526,-0.94 7.967,-1.62 3.914,-1.08 7.416,-4.83 9.455,-8.23 3.527,-5.88 -0.628,-10.26 -6.45,-10.91 l 0,-4 c 5.307,-2.58 7.687,-5.93 14,-6 0.497,3.21 1.15,4.44 4,6 1.207,-4.33 2.416,-7.01 7,-8 0.047,-2.25 0.126,-3.95 1,-6 m -451.99998,71 -3,0 c -0.527,6.68 1.872,24.28 -2.179,29.4 -7.187,9.07 -18.552,-8.54 -21.82,-12.69 -3.716,-4.71 -3.794,-11.16 -6.482,-16.54 -1.662,-3.33 -5.541,-5.06 -6.93,-8.43 -3.16,-7.66 -3.667,-24.92 0.014,-32.42 3.535,-7.21 15.584,-2.72 19.794,-6.11 5.853,-4.71 3.101,-15.4 13.603,-16.21 l 0,-4 c 7.806,-0.93 21.296,9.71 21.678,18 0.395,8.57 -7.684,13.89 -10.74,21 -3.02,7.03 -3.874,20.25 -3.938,28 m -240.41,-61.86 c 8.29,3.72 2.33,20.87 3.67,27.77 0.8,4.07 3.91,6.68 3.54,11.1 -0.24,2.82 -1.59,12.06 -6.25,10.02 -4.09,-1.79 -2.3,-8.81 -1.67,-12.03 1.57,-8.05 -2.21,-19.44 -2.79,-28 -0.14,-2.06 -0.84,-10.82 3.5,-8.86 m 314.41,26.86 0,-19 c 11.021,0.37 11.672,18.86 0,19 m 38,-11 c -0.842,6.62 -5.163,13.47 -4,20 -4.778,2.6 -7.991,3.61 -13,1 0.293,-2.73 0.23,-5.26 0,-8 l 4,0 c 0.454,-10.58 2.149,-15.42 13,-13 z"
     id="path56"
     inkscape:connector-curvature="0" />
  <path
     style="fill:#887f52;stroke:none"
     d="m 581.31954,934.07426 -9,0 c -0.049,-2.46 -0.434,-4.6 -1,-7 9.925,-4.98 10.573,-1.84 10,7 z"
     id="path58"
     inkscape:connector-curvature="0" />
  <path
     style="fill:#474327;stroke:none"
     d="m 135.31954,927.07426 c -0.01,10.36 -1.91,20.65 -2,31 l -2,0 c -0.09,-9.97 -6.96,-24.46 4,-31 m 375,28 -1,3 c 6.746,5.99 -6.277,22.92 -5,31 l -5,1 c 1.717,1.84 2.566,2.35 5,3 -2.908,1.83 -5.564,2.77 -9,3 0.549,-4.65 -1.117,-9.3 -0.451,-13.71 0.802,-5.33 3.691,-10.07 4.451,-15.29 l 4,0 c -0.527,-4.14 -1.953,-7.74 -2,-12 l 9,0 m 268.99998,39 c -0.083,-7.05 -4.639,-12.05 -5,-19 6.429,-0.01 16.155,-8.97 21.396,-4.82 4.024,3.18 -1.293,8.35 -3.092,10.99 -5.661,8.33 -0.765,12.83 -13.304,12.83 m -641.99998,2 c 3.02,8.88004 8.08,17.26004 2,26.00004 -4.67,-4.99 -4.59,-19.82 -2,-26.00004 m 618.41698,2.07 c 3.92,2.55004 -0.188,7.69004 -3.674,4.90004 -3.104,-2.48 0.404,-7.02004 3.674,-4.90004 m -210.41698,11.93004 c -6.598,3.38 -9.501,10.35 -17,14 0.354,-6.87 0.076,-11.89 5.04,-17.37 5.36,-5.91 11.691,-4.88 11.96,3.37 m 192.99998,88 -15,0 c 1.356,-7.3 -5.058,-17.91 -2.383,-23.68 2.047,-4.41 14.571,2.8 16.587,5.36 2.141,2.72 0.715,14.38 0.796,18.32 m -310.99998,-22 -0.015,6 c -0.455,16.81 -9.026,0.38 -15.985,0 l 0,-6 16,0 z"
     id="path60"
     inkscape:connector-curvature="0" />
  <path
     style="fill:#fefdfc;stroke:none"
     d="m 344.31954,1086.0743 c 2.5,2.24 3.489,3.68 4,7 -3.328,-1.16 -4.724,-3.5 -4,-7 z"
     id="path62"
     inkscape:connector-curvature="0" />
  <path
     style="fill:#474327;stroke:none"
     d="m 858.31952,1094.0743 c -0.152,6.49 -4.024,13.31 5,14 l 0,-3 10,-1 c 0,6.49 -4.596,24.43 0,27 0,9.64 -2.794,27.1 -12.184,32.39 -4.791,2.7 -11.524,1.61 -16.816,1.61 l -37,0 c 8.798,-6.06 7.282,-15.18 14.526,-21.83 6.161,-5.65 14.365,-0.53 20.839,-4.89 5.413,-3.65 0.878,-9.17 0.934,-14.28 0.067,-6 2.684,-11.78 2.701,-18 l -5,0 c 3.073,-12.97 5.048,-12.61 17,-12 m -408.99998,9 0,4 c -7.508,1.2 -10.093,10.67 -19,12 l 0,8 -7,1 c -1.263,-4.87 -4.326,-8.91 -5,-14 4.7,0.87 9.231,1 14,1 0.34,-4.27 1.114,-8.15 3,-12 4.629,0.56 9.428,0.99 14,0 m 380.89498,4.58 c 7.678,2.36 1.099,8.79 -4.747,7.1 -6.365,-1.84 -0.52,-8.72 4.747,-7.1 m -434.89498,3.42 c 0,3.16 0.778,7.73 -1.603,10.23 -6.766,7.11 -14.746,1.66 -15.397,-6.23 5.949,-0.74 10.866,-3.86 17,-4 z"
     id="path64"
     inkscape:connector-curvature="0" />
  <path
     style="fill:#887f52;stroke:none"
     d="m 299.31954,1139.0743 c -6.997,-1.19 -6.984,-8.09 -7,-14 6.524,2.29 6.948,7.76 7,14 z"
     id="path66"
     inkscape:connector-curvature="0" />
</svg>
