<?xml version="1.0" encoding="UTF-8" standalone="no"?>
<svg
   xmlns:dc="http://purl.org/dc/elements/1.1/"
   xmlns:cc="http://creativecommons.org/ns#"
   xmlns:rdf="http://www.w3.org/1999/02/22-rdf-syntax-ns#"
   xmlns:svg="http://www.w3.org/2000/svg"
   xmlns="http://www.w3.org/2000/svg"
   xmlns:sodipodi="http://sodipodi.sourceforge.net/DTD/sodipodi-0.dtd"
   xmlns:inkscape="http://www.inkscape.org/namespaces/inkscape"
   width="217.51955"
   height="279.07373"
   id="svg2"
   version="1.1"
   inkscape:version="0.48.4 r9939"
   sodipodi:docname="kleene.svg">
  <metadata
     id="metadata108">
    <rdf:RDF>
      <cc:Work
         rdf:about="">
        <dc:format>image/svg+xml</dc:format>
        <dc:type
           rdf:resource="http://purl.org/dc/dcmitype/StillImage" />
      </cc:Work>
    </rdf:RDF>
  </metadata>
  <defs
     id="defs106" />
  <sodipodi:namedview
     pagecolor="#ffffff"
     bordercolor="#666666"
     borderopacity="1"
     objecttolerance="10"
     gridtolerance="10"
     guidetolerance="10"
     inkscape:pageopacity="0"
     inkscape:pageshadow="2"
     inkscape:window-width="640"
     inkscape:window-height="480"
     id="namedview104"
     showgrid="false"
     inkscape:zoom="0.8"
     inkscape:cx="114.01954"
     inkscape:cy="147.57374"
     inkscape:window-x="49"
     inkscape:window-y="24"
     inkscape:window-maximized="0"
     inkscape:current-layer="svg2" />
  <path
     style="fill:#e9e4de;stroke:none"
     d="m 111,0 -1,1 1,-1 z"
     id="path4"
     inkscape:connector-curvature="0" />
  <path
     style="fill:#ab9b8c;stroke:none"
     d="m 175,127 c -6.3134,-9.566 -1.5294,-17.877 -1.2593,-28 0.1348,-5.05 -2.3423,-9.221 -3.351,-14 C 169.598,81.2497 171.306,72.8762 165.892,71.8819 162.1579,71.1962 158.4843,75.97 155,77 c 0.3747,-3.1731 0.6154,-5.8493 0,-9 -4.5046,1.2624 -7.579,1.7816 -12,0 -1.1141,3.0541 -1.833,5.7482 -2,9 -3.0487,-4.6954 -6.3359,-7.2743 -12,-8 1.8793,3.4155 2.8761,6.0896 3,10 -12.3338,-5.8622 -9.5009,-18.1744 -7,-29 l -4,1 1,6 -7,-4 c 0.456,-4.1973 0.233,-7.9557 -1,-12 -2.269,1.7269 -4.212,2.3885 -7,3 1.082,-4.6099 0.706,-9.5747 -1.549,-13.8827 -0.854,-1.6307 -4.133,-3.4936 -4.682,-0.4638 -0.51,2.8123 4.183,8.3203 4.231,12.3465 l -6,-1 c 1.938,2.1517 9.669,6.4721 7,9 1.614,2.3376 1.755,4.1942 2,7 -3.054,-0.6544 -2.936,-2.0066 -3,-5 l -5,0 c 2.779,4.1789 -0.432,6.48 -3,10 l -2,0 c -1.249,-3.3719 -2.12,-5.7499 -5,-8 1.554,6.2054 7.037,12.727 6,19 -2.441,0.0377 -8.044,0.9511 -5,4 -2.234,2.5832 -4.283,5.0395 -6,8 2.297,0.674 2.774,0.965 4,3 11.073,-1.232 6.519,10.307 -3,8 -3.865,4.78 -24.569,8.005 -31,9 -0.602,6.616 -2.913,8.151 -9,6 1.389,5.876 7.055,8.423 8.86,14.015 1.899,5.885 -0.648,14.453 0.325,20.984 0.993,6.662 4.988,11.978 5.815,19.001 -3.551,1.738 -7.086,2.494 -11,3 l 0,4 4,0 c -1.506,0.683 -2.315,0.826 -4,1 0.112,3.524 0.46,5.516 3,8 l 0,-4 c 2.249,-1.154 2.846,-1.751 4,-4 5.232,1.795 4.358,7.422 6,12 -4.511,-0.843 -15.803,6.098 -8.692,8.655 2.877,1.035 6.052,-3.473 8.731,-4.221 4.375,-1.219 9.489,0.474 13.961,0.566 -2.098,2.797 -7.599,3.424 -8.458,7.089 -2.005,8.546 17.595,5.399 21.458,4.911 1.215,3.838 3.105,4.5 7,4 -1.685,-1.308 -2.846,-2.254 -4,-4 l 6,0 c -0.151,5.078 -2.805,8.302 -4,13 -10.974,1.336 -21.299,0.883 -25,13 3.745,1.365 7.016,1.964 11,2 -10.968,4.925 -16.383,-0.998 -22.401,-10 -4.902,-7.333 -7.26,-16.286 -11.503,-24 C 38.811,180.935 27.808,167.366 25,150 l -1,2 c -3.788,-6.02 -4.565,-13.61 -7.705,-20 -2.003,-4.076 -6.528,-7.542 -7.522,-12 -0.751,-3.371 1.559,-6.604 1.374,-10 C 9.893,105.354 7.663,100.657 7,96 c 5.26,6.069 5.999,15.297 6,23 l 4,0 0,-4 c 9.839,-4.37 13.807,-17.196 3,-23 0.184,-8.5993 4.093,-24.8674 15,-24 0.48,-5.7467 -0.06,-11.2892 1,-17 l -4,0 0,-6 c 4.401,-2.6902 4.789,-8.1616 5,-13 l -5,0 0,-7 c 2.379,-0.0273 2.683,-0.0599 4,-2 l -4,1 C 26.02,20.4094 20.568,29.5046 17.728,33.8302 8.2770001,48.2234 3.0000001,62.703 3.0000001,80 -1.2739999,73.003 1.258,66.3508 3.1370001,59.0147 7.6620001,41.3553 13.94,31.5265 26.998,18.9614 31.218,14.9012 34.247,8.4627 40.001,6.4745 50.011,3.0153 60.661,3.6185 71,2.9105 c 22.254,-1.524 48.7664,-6.6595 66.6096,11.4691 11.9045,12.0951 13.1894,31.2738 20.8086,45.5656 2.9419,5.5184 10.3625,4.4215 13.5687,9.3295 8.2177,12.5797 2.5905,26.8863 2.0077,39.7253 -0.3024,6.662 2.7754,11.091 1.0054,18 z"
     id="path6"
     inkscape:connector-curvature="0" />
  <path
     style="fill:#e9e4de;stroke:none"
     d="m 102,0 c -1.769,0.7789 -3.036,0.9124 -5,1 1.769,-0.7789 3.036,-0.9124 5,-1 m 11,1 -1,1 1,-1 M 91,1 c -1.769,0.7789 -3.036,0.9124 -5,1 1.769,-0.7789 3.036,-0.9124 5,-1 m 24,1 -1,1 1,-1 M 75,2 C 71.041,3.6611 66.263,3 62,3 65.959,1.3389 70.737,2 75,2 m 42,1 -1,1 1,-1 M 56,3 c -1.248,0.6848 -1.548,0.7488 -3,1 1.248,-0.6848 1.548,-0.7488 3,-1 m 63,1 -1,1 1,-1 M 50,4 c -1.248,0.6848 -1.548,0.7488 -3,1 1.248,-0.6848 1.548,-0.7488 3,-1 m 71,1 -1,1 1,-1 z"
     id="path8"
     inkscape:connector-curvature="0" />
  <path
     style="fill:#534233;stroke:none"
     d="m 151,50 c -2.9698,-2.0927 -4.1572,-4.3764 -8,-5 1.5774,6.4085 5.2907,12.9474 8,19 -2.6854,-1.0982 -5.1757,-2.2806 -8,-3 -0.1534,-7.3006 -3.0047,-6.4382 -8,-4 -0.4749,-7.4566 -4.321,-15.1542 -10,-20 1.7718,5.6945 6.2044,10.0629 7,16 -4.2486,-2.5849 -6.8416,-7.2262 -10,-11 -1.3241,2.6866 -2.3134,3.6759 -5,5 0.2615,-3.689 2.5979,-9.3395 1.0432,-12.7137 C 113.983,25.4731 102.872,20.678 105,9 c -1.87,-1.2292 -2.224,-1.8683 -3,-4 23.5061,0 47.6336,19.6841 49,45 z"
     id="path10"
     inkscape:connector-curvature="0" />
  <path
     style="fill:#e9e4de;stroke:none"
     d="m 45,5 c -1.248,0.6848 -1.548,0.7488 -3,1 1.248,-0.6848 1.548,-0.7488 3,-1 m 78,1 -1,1 1,-1 m 2,1 -1,1 1,-1 m 2,1 -1,1 1,-1 z"
     id="path12"
     inkscape:connector-curvature="0" />
  <path
     style="fill:#534233;stroke:none"
     d="m 91,8 0,4 7,0 C 96.311,22.2133 85.727,15.8633 84,9 86.377,8.428 88.558,8.1095 91,8 M 78,8 76,15 C 74.56,12.7598 74.363,10.6602 74,8 l 4,0 z"
     id="path14"
     inkscape:connector-curvature="0" />
  <path
     style="fill:#e9e4de;stroke:none"
     d="m 35,9 -1,1 1,-1 m -1,1 -1,1 1,-1 m 100,1 -1,1 1,-1 m 2,1 -1,1 1,-1 m -102,0 -1,1 1,-1 m 104,1 -1,1 1,-1 m -105,0 -1,1 1,-1 m 106,1 -1,1 1,-1 m -107,0 -1,1 1,-1 m -1,1 -1,1 1,-1 m 109,1 -1,1 1,-1 m -110,0 -1,1 1,-1 m -1,1 -1,1 1,-1 m 112,1 -1,1 1,-1 m -113,0 -1,1 1,-1 m -1,1 -1,1 1,-1 m 115,1 -1,1 1,-1 m -116,0 -1,1 1,-1 m -1,1 -1,1 1,-1 m 118,1 -1,1 1,-1 m -111,2 4,-1 c -0.614,2.8508 -1.303,2.8544 -4,2 l 0,7 5,0 c -0.056,4.5529 0.058,11.5203 -5,13 l 0,6 4,0 c -0.72,5.7036 -0.071,11.3706 -1,17 -10.147,-0.3118 -14.62,15.8102 -15,24 11.69,3.837 6.998,20.272 -3,23 l 0,4 -4,0 C 12.991,105.556 5.0210001,95.841 2.8390001,83 0.592,69.7809 5.6450001,54.0288 11.867,42.5764 14.349,38.007 25.324,16.7061 32,24 m -8,-2 -1,1 1,-1 m 120,2 -1,1 1,-1 m 1,2 -1,1 1,-1 z"
     id="path16"
     inkscape:connector-curvature="0" />
  <path
     style="fill:#534233;stroke:none"
     d="m 107,44 c 2.523,-0.7811 4.722,-1.6631 7,-3 1.893,3.9834 1.875,7.6975 1,12 2.4698,0.9939 4.4107,1.8661 6,4 0.3904,-2.2206 0.3354,-3.754 0,-6 l 4,-1 c -1.116,12.2712 -5.0363,20.6188 7,29 -0.2667,-3.7102 -1.6613,-6.5765 -3,-10 5.4325,0.3615 10.0823,2.2372 11,8 0.9828,-3.0805 1.5837,-6.075 3,-9 4.3794,1.1756 7.5963,0.8934 12,0 0.8892,3.2312 0.6019,5.7159 0,9 3.4303,-1.657 7.5495,-6.8603 11.7716,-5.3418 4.7407,1.7049 3.1502,11.3691 4.5378,15.3418 3.4837,9.974 0.4854,16.14 0.0695,26 -0.3611,8.559 2.835,19.649 4.8564,28 1.779,7.349 5.507,7.643 10.3897,12.302 7.0664,6.743 13.0226,13.767 19.2531,20.993 3.15144,3.655 7.95046,5.061 10.13347,9.72 C 218.67431,189.697 217,198.835 217,205 l 0,49 c -14.634,2.05 -17.665,24.343 -36,19 l 0,-4 c -3.5072,-0.553 -5.8494,-2.516 -9,-4 -0.4208,4.82 -2.2961,9.234 -3,14 l -10,0 c 0.7453,-1.823 0.9537,-3.023 1,-5 5.5231,-6.747 3.1013,-14.887 -6,-14 0.9857,1.479 1,1.203 1,3 l -4,1 c -0.7381,16.576 -20.4267,15 -32,15 -0.4702,-13.567 8.1022,-24.692 10,-38 -5.1023,2.385 -15.654,11.292 -20.996,9.929 C 98.072,248.396 98.502,234.511 90.891,230.333 84.931,227.06 76.683,231.216 70,228 c 2.67,-12.39 14.137,-12.317 25,-13 0.676,-4.686 3.674,-8.138 4,-13 l -6,0 c 1.337,1.28 2.4,2.03 4,3 -3.576,2.599 -6.263,1.242 -7,-3 -3.724,0.691 -26.006,3.39 -21.839,-5.78 1.418,-3.12 6.366,-4.037 8.839,-6.22 -4.345,-0.036 -9.834,-1.822 -13.961,-0.255 -2.643,1.004 -6.318,6.273 -9.439,4.169 -6.711,-4.526 4.494,-10.678 9.4,-8.914 -4.147,-8.073 -2.449,-11.658 -13,-13 l 0,-4 c 3.79,-0.738 7.373,-1.668 11,-3 -1.374,-6.131 -4.916,-12.017 -5.815,-18.004 C 54.177,140.279 56.203,132.26 54.65,126.004 53.142,119.929 46.879,117.438 46,111 c 5.826,1.292 7.997,0.289 9,-6 8.35,-2.251 24.479,-3.662 31,-9 8.338,1.012 13.662,-7.699 3,-8 -1.45,-1.608 -2.051,-2.064 -4,-3 1.337,-3.4172 2.723,-5.3227 6,-7 -1.479,-0.9857 -1.203,-1 -3,-1 1.921,-3.6501 3.934,-4.5179 8,-4 0.075,-6.5523 -4.754,-12.4301 -6,-19 3.43,1.7967 4.015,4.4013 5,8 l 2,0 c 1.579,-3.2048 4.914,-5.5567 3,-9 1.769,-0.7789 3.036,-0.9124 5,-1 0.418,2.6894 0.717,3.5537 3,5 -0.453,-2.5177 -0.887,-4.6952 -2,-7 1.571,-2.595 -5.387,-6.3837 -7,-9 l 6,1 c -0.133,-4.0957 -5.453,-9.7489 -4.539,-12.8719 1.075,-3.6762 4.454,-1.276 5.35,0.9352 1.871,4.6145 2.594,9.1716 1.189,13.9367 z"
     id="path18"
     inkscape:connector-curvature="0" />
  <path
     style="fill:#e9e4de;stroke:none"
     d="m 146,28 -1,1 1,-1 m -130,2 -1,1 1,-1 m -1,1 -1,1 1,-1 m 134,2 -1,1 1,-1 m 1,2 -1,1 1,-1 M 10.667,35.6667 c 0.055,0.0555 0.111,1.1111 -0.334,0.6666 -0.055,-0.0556 -0.111,-1.111 0.334,-0.6666 M 151,37 l -1,1 1,-1 M 9.6670001,38.6667 c 0.055,0.0555 0.111,1.1111 -0.334,0.6666 -0.055,-0.0555 -0.111,-1.1111 0.334,-0.6666 M 152,40 l -1,1 1,-1 M 8.6670001,41.6667 c 0.055,0.0555 0.111,1.1111 -0.334,0.6666 -0.055,-0.0555 -0.111,-1.1111 0.334,-0.6666 m 143.9996999,1 c 0.0555,0.0555 0.1111,1.1111 -0.3334,0.6666 -0.0555,-0.0555 -0.1111,-1.1111 0.3334,-0.6666 M 8.0000001,44 l -1,1 1,-1 M 153.6667,45.6667 c 0.0555,0.0555 0.1111,1.1111 -0.3334,0.6666 -0.0555,-0.0555 -0.1111,-1.1111 0.3334,-0.6666 z"
     id="path20"
     inkscape:connector-curvature="0" />
  <path
     style="fill:#534233;stroke:none"
     d="m 98,47 c -1.004,1.6068 -1.196,2.035 -1,4 -1.618,-1.314 -1.693,-1.8772 -2,-4 l 3,0 z"
     id="path22"
     inkscape:connector-curvature="0" />
  <path
     style="fill:#e9e4de;stroke:none"
     d="m 7.0000001,47 -1,1 1,-1 M 154.6667,48.6667 c 0.0555,0.0555 0.1111,1.1111 -0.3334,0.6666 -0.0555,-0.0555 -0.1111,-1.1111 0.3334,-0.6666 M 6.0000001,50 l -1,1 1,-1 M 155.6667,51.6667 c 0.0555,0.0555 0.1111,1.1111 -0.3334,0.6666 -0.0555,-0.0555 -0.1111,-1.1111 0.3334,-0.6666 M 157,54 l -1,1 1,-1 m -151.9999999,0 -1,1 1,-1 M 158,57 l -1,1 1,-1 m -153.9999999,0 -1,1 1,-1 M 158.6667,60.6667 c 0.0555,0.0555 0.1111,1.1111 -0.3334,0.6666 -0.0555,-0.0555 -0.1111,-1.1111 0.3334,-0.6666 M 3.0000001,61 l -1,1 1,-1 M 161,63 l -1,1 1,-1 m 3,1 -1,1 1,-1 M 1.6670001,64.6667 c 0.055,0.0555 0.111,1.1111 -0.3340001,0.6666 C 1.278,65.2778 1.222,64.2222 1.6670001,64.6667 M 169,66 l -1,1 1,-1 m 3,1 -1,1 1,-1 M 1,68 0,69 1,68 m 172.6667,5.6667 c 0.0555,0.0555 0.1111,1.1111 -0.3334,0.6666 -0.0555,-0.0555 -0.1111,-1.1111 0.3334,-0.6666 M 1,73 0,74 1,73 M 2.0000001,77 1,78 2.0000001,77 M 176,82 l 0,3 c -0.6961,-1.5537 -0.6961,-1.4463 0,-3 z"
     id="path24"
     inkscape:connector-curvature="0" />
  <path
     style="fill:#ab9b8c;stroke:none"
     d="m 165,84 c 9.9734,9.962 3.3149,16.869 2.277,28.285 -0.333,3.664 3.238,6.71 1.9414,10.455 -0.7719,2.229 -7.3388,7.509 -8.3172,2.937 -0.584,-2.729 1.8004,-9.668 2.3727,-12.677 0.8052,-4.234 2.6899,-7.548 2.7215,-12 0.0424,-5.983 -4.967,-11.751 -0.9954,-17 m -35,1 c -1.26,1.951 -2.0187,2.84 -4,4 -1.5294,-2.149 -2.3388,-2.121 -5,-2 2.2744,-3.4948 5.2185,-2.689 9,-2 z"
     id="path26"
     inkscape:connector-curvature="0" />
  <path
     style="fill:#e9e4de;stroke:none"
     d="m 177,87 -1,1 1,-1 z"
     id="path28"
     inkscape:connector-curvature="0" />
  <path
     style="fill:#ab9b8c;stroke:none"
     d="m 146,88 c -1.4042,12.174 3.5891,28.12 6.8295,39.961 1.3285,4.854 4.8679,7.791 4.1705,13.039 4.4379,3.188 4.9868,10.926 4,16 -0.683,-1.506 -0.8259,-2.315 -1,-4 l -5,0 c 0.3277,-2.625 0.4305,-3.817 -1,-6 l 2,-8 c -4.4854,-2.853 -6.9599,-7.733 -6,-13 -3.2752,-1.717 -3.8494,-3.459 -3,-7 -5.0226,-0.818 -7.3815,-3.225 -9,-8 2.3576,-1.14 4.4683,-2.341 7,-3 -2.7406,-6.081 -6.646,-15.774 1,-20 z"
     id="path30"
     inkscape:connector-curvature="0" />
  <path
     style="fill:#e9e4de;stroke:none"
     d="m 177.6667,91.667 c 0.0555,0.055 0.1111,1.111 -0.3334,0.666 -0.0555,-0.055 -0.1111,-1.111 0.3334,-0.666 z"
     id="path32"
     inkscape:connector-curvature="0" />
  <path
     style="fill:#ab9b8c;stroke:none"
     d="m 139,95 c 0.5917,2.688 0.6751,4.341 0,7 -1.9375,-2.428 -2.5704,-3.942 -2,-7 l 2,0 z"
     id="path34"
     inkscape:connector-curvature="0" />
  <path
     style="fill:#e9e4de;stroke:none"
     d="m 177.6667,96.667 c 0.0555,0.055 0.1111,1.111 -0.3334,0.666 -0.0555,-0.055 -0.1111,-1.111 0.3334,-0.666 z"
     id="path36"
     inkscape:connector-curvature="0" />
  <path
     style="fill:#534233;stroke:none"
     d="m 145,98 0,3 c -1.1952,-1.223 -1.3164,-1.42 -2,-3 l 2,0 z"
     id="path38"
     inkscape:connector-curvature="0" />
  <path
     style="fill:#e9e4de;stroke:none"
     d="m 176.6667,99.667 c 0.0555,0.055 0.1111,1.111 -0.3334,0.666 -0.0555,-0.055 -0.1111,-1.111 0.3334,-0.666 M 8.0000001,99 l -1,1 1,-1 M 175.6667,102.667 c 0.0555,0.055 0.111,1.111 -0.3334,0.666 -0.0555,-0.055 -0.1111,-1.111 0.3334,-0.666 M 9.0000001,102 l -1,1 1,-1 M 174.6667,105.667 c 0.0555,0.055 0.1111,1.111 -0.3334,0.666 -0.0555,-0.055 -0.1111,-1.111 0.3334,-0.666 M 10,106 9.0000001,107 10,106 m 163.6667,3.667 c 0.0555,0.055 0.1111,1.111 -0.3334,0.666 -0.0555,-0.055 -0.1111,-1.111 0.3334,-0.666 M 11,109 l 0,3 c -0.696,-1.554 -0.696,-1.446 0,-3 m 164,4 -1,1 1,-1 z"
     id="path40"
     inkscape:connector-curvature="0" />
  <path
     style="fill:#534233;stroke:none"
     d="m 45,138 c -1.195,-0.598 -0.977,-0.466 -2,-2 -0.555,1.804 -0.834,3.127 -1,5 -3.121,0.57 -5.038,0.03 -8,-1 0.684,-2.209 1.08,-2.703 3,-4 -0.487,-2.716 -0.264,-3.516 1,-6 -4.835,0.861 -9.141,0.752 -14,2 -15.0929999,-18.919 18.364,-25.636 22.525,-9 1.194,4.776 -0.377,10.34 -1.525,15 z"
     id="path42"
     inkscape:connector-curvature="0" />
  <path
     style="fill:#e9e4de;stroke:none"
     d="M 10,114 9.0000001,115 10,114 z"
     id="path44"
     inkscape:connector-curvature="0" />
  <path
     style="fill:#ab9b8c;stroke:none"
     d="m 81,118 c -2.739,-0.211 -3.422,-0.303 -4,-3 2.297,0.674 2.774,0.965 4,3 z"
     id="path46"
     inkscape:connector-curvature="0" />
  <path
     style="fill:#e9e4de;stroke:none"
     d="m 176,116 -1,1 1,-1 z"
     id="path48"
     inkscape:connector-curvature="0" />
  <path
     style="fill:#ab9b8c;stroke:none"
     d="m 89,117 c 1.223,1.195 1.42,1.316 3,2 -2.484,2.54 -4.476,2.888 -8,3 l 3,-5 2,0 z"
     id="path50"
     inkscape:connector-curvature="0" />
  <path
     style="fill:#e9e4de;stroke:none"
     d="m 9.0000001,117 -1,1 1,-1 M 177,119 l -1,1 1,-1 z"
     id="path52"
     inkscape:connector-curvature="0" />
  <path
     style="fill:#ab9b8c;stroke:none"
     d="m 116,121 c -0.484,5.853 -1.848,8.659 -8,9 l 2,4 c -2.035,1.226 -2.326,1.703 -3,4 1.479,-0.986 1.203,-1 3,-1 -0.032,2.875 0.208,5.074 -2,7 l 1,4 c -5.061,1.551 -9.75,1.686 -15,2 -0.404,8.734 -15.231,1.322 -14,-6 -3.834,-2.993 -5.375,-10.275 -6,-15 2.875,0.032 5.074,-0.208 7,2 1.767,-0.955 2.607,-1.566 4,-3 2.386,0.236 3.883,-0.131 5,2 3.399,-2.029 7.136,-0.782 10.91,-1.979 5.665,-1.798 8.897,-6.328 15.09,-7.021 z"
     id="path54"
     inkscape:connector-curvature="0" />
  <path
     style="fill:#e9e4de;stroke:none"
     d="m 177,122 -1,1 1,-1 m -166,1 -1,1 1,-1 m 165,1 -1,1 1,-1 m -164,0 -1,1 1,-1 m 37,1 c 1.061,8.396 6.188,33.217 -2,38 l 0,-5 c -4.77,0.985 -9.526,1.469 -12,6 -8.73,-2.982 -13.283,-25.747 -15,-34 2.749,1.758 3.152,3.891 4,7 1.716,-2.988 2.666,-4.926 6,-6 -0.51,3.915 -1.671,7.311 -3,11 1.479,-0.986 1.203,-1 3,-1 3.14,3.686 4.852,6.003 5,11 11.694,-6.587 9.637,-16.625 14,-27 m 125.6667,2.667 c 0.0555,0.055 0.1111,1.111 -0.3334,0.666 -0.0555,-0.055 -0.1111,-1.111 0.3334,-0.666 M 15,128 l -1,1 1,-1 z"
     id="path56"
     inkscape:connector-curvature="0" />
  <path
     style="fill:#ab9b8c;stroke:none"
     d="m 175,129 c 1.8066,7.624 5.1233,15.216 9,22 -7.5172,-1.563 -11.6405,-15.232 -9,-22 z"
     id="path58"
     inkscape:connector-curvature="0" />
  <path
     style="fill:#e9e4de;stroke:none"
     d="m 16,129 -1,1 1,-1 z"
     id="path60"
     inkscape:connector-curvature="0" />
  <path
     style="fill:#ab9b8c;stroke:none"
     d="m 24,130 c 1.396,2.827 1.769,4.328 0,7 l -2,-7 2,0 z"
     id="path62"
     inkscape:connector-curvature="0" />
  <path
     style="fill:#e9e4de;stroke:none"
     d="m 176,131 -1,1 1,-1 z"
     id="path64"
     inkscape:connector-curvature="0" />
  <path
     style="fill:#ab9b8c;stroke:none"
     d="m 27,131 -1,1 1,-1 z"
     id="path66"
     inkscape:connector-curvature="0" />
  <path
     style="fill:#e9e4de;stroke:none"
     d="m 17,132 -1,1 1,-1 m 160,2 -1,1 1,-1 m -159,0 -1,1 1,-1 m 160,2 -1,1 1,-1 m -159,1 -1,1 1,-1 m 160,2 -1,1 1,-1 m -159,1 -1,1 1,-1 m 160,1 -1,1 1,-1 m -159,2 -1,1 1,-1 m 160,1 -1,1 1,-1 m -159,2 -1,1 1,-1 m 160,1 -1,1 1,-1 m -159,2 -1,1 1,-1 z"
     id="path68"
     inkscape:connector-curvature="0" />
  <path
     style="fill:#534233;stroke:none"
     d="m 25,150 2,8 c -2.037,-2.561 -3.098,-4.832 -2,-8 z"
     id="path70"
     inkscape:connector-curvature="0" />
  <path
     style="fill:#e9e4de;stroke:none"
     d="m 186,151 -1,1 1,-1 m 1,1 -1,1 1,-1 m -163,0 -1,1 1,-1 z"
     id="path72"
     inkscape:connector-curvature="0" />
  <path
     style="fill:#ab9b8c;stroke:none"
     d="m 188,153 -1,1 1,-1 m -85,6 c -3.008,-0.641 -3.617,-3.186 -6,-5 3.815,-1.277 5.173,1.632 6,5 m 86,-5 c 8.4905,7.412 27.86045,18.218 28,30 -7.63871,-5.664 -11.9392,-13.449 -19.0154,-19.112 C 194.4634,162.07 188.3092,159.126 189,154 m -164,0 -1,1 1,-1 z"
     id="path74"
     inkscape:connector-curvature="0" />
  <path
     style="fill:#e9e4de;stroke:none"
     d="m 191,155 -1,1 1,-1 m -166,0 -1,1 1,-1 m 167,1 -1,1 1,-1 z"
     id="path76"
     inkscape:connector-curvature="0" />
  <path
     style="fill:#ab9b8c;stroke:none"
     d="m 26,156 -1,1 1,-1 m 63,1 0,4 c -1.797,0 -1.521,-0.014 -3,-1 1.315,1.801 1.723,1.833 4,2 -1.039,3.551 -3.53,3.752 -7,4 l 1,-9 5,0 z"
     id="path78"
     inkscape:connector-curvature="0" />
  <path
     style="fill:#e9e4de;stroke:none"
     d="m 26,157 -1,1 1,-1 m 170,2 -1,1 1,-1 m -169,0 -1,1 1,-1 m 170,1 -1,1 1,-1 m 1,1 -1,1 1,-1 m -170,0 -1,1 1,-1 m 174,3 -1,1 1,-1 m 1,1 -1,1 1,-1 m 1,1 -1,1 1,-1 m 1,1 -1,1 1,-1 m 1,1 -1,1 1,-1 m 1,1 -1,1 1,-1 m 1,1 -1,1 1,-1 m -175,0 -1,1 1,-1 m 176,1 -1,1 1,-1 m 1,1 -1,1 1,-1 m -176,0 -1,1 1,-1 m 177,1 -1,1 1,-1 m -154,0 c -0.839,2.626 -1.374,3.161 -4,4 l 0,4 c -3.089,-2.002 -2.959,-4.464 -3,-8 l 7,0 m 156,1 -1,1 1,-1 m -178,0 -1,1 1,-1 m 180,1 -1,1 1,-1 m 2,1 -1,1 1,-1 m -181,0 -1,1 1,-1 m 1,2 -1,1 1,-1 m 2,3 -1,1 1,-1 m 1,2 -1,1 1,-1 m 2,3 -1,1 1,-1 m 3,5 -1,1 1,-1 m 2,3 -1,1 1,-1 m 1,2 -1,1 1,-1 m 1,2 -1,1 1,-1 m 3,7 -1,1 1,-1 m 1,2 -1,1 1,-1 m 14,6 c 2.951,-9.716 10.996,2.288 0,0 m -13,-4 -1,1 1,-1 m 1,2 -1,1 1,-1 m 2,5 -1,1 1,-1 m 1,2 -1,1 1,-1 m 3,4 -1,1 1,-1 m 1,1 -1,1 1,-1 m 3,4 -1,1 1,-1 m 1,1 -1,1 1,-1 z"
     id="path80"
     inkscape:connector-curvature="0" />
  <path
     style="fill:#ab9b8c;stroke:none"
     d="m 129,241 c -0.9651,13.432 -10.1707,24.474 -10,38 l -6,0 3,-9 -11,0 c 1.292,-7.439 9.011,-3.207 13.2716,-7.589 2.9519,-3.035 3.7865,-12.23 4.7284,-16.411 -6.912,2.689 -12.161,10.873 -19,12 0.831,-6.213 -1.84,-9.612 -6,-14 0,10.537 1.694,19.673 3,30 -1.591,-2.314 -1.858,-4.19 -2,-7 -1.859,3.793 -2.917,7.915 -4,12 -2.138,-5.143 0.819,-9.866 1.674,-15 1.181,-7.086 0.984,-16.034 -0.674,-23 -5.847,12.576 -6.749,37.987 -24,38 1.009,-12.683 10.198,-34.65 21,-42 l -4,-8 c 8.812,3.611 9.303,20.257 20.001,21.504 5.326,0.621 14.4123,-7.645 19.999,-9.504 z"
     id="path82"
     inkscape:connector-curvature="0" />
  <path
     style="fill:#e9e4de;stroke:none"
     d="m 87.333,229.333 c 0.445,0.445 -0.611,0.389 -0.666,0.334 -0.445,-0.445 0.611,-0.389 0.666,-0.334 z"
     id="path84"
     inkscape:connector-curvature="0" />
  <path
     style="fill:#ab9b8c;stroke:none"
     d="m 86,229 -1,1 1,-1 z"
     id="path86"
     inkscape:connector-curvature="0" />
  <path
     style="fill:#e9e4de;stroke:none"
     d="m 82.333,230.333 c 0.445,0.445 -0.611,0.389 -0.666,0.334 -0.445,-0.445 0.611,-0.389 0.666,-0.334 M 91,231 l -1,1 1,-1 m -13,0 c -1.248,0.685 -1.548,0.749 -3,1 1.248,-0.685 1.548,-0.749 3,-1 m -10,0 -1,1 1,-1 m 4.333,1.333 c 0.445,0.445 -0.611,0.389 -0.666,0.334 -0.445,-0.445 0.611,-0.389 0.666,-0.334 M 69,232 l -1,1 1,-1 m 23,1 -1,1 1,-1 m 0.667,2.667 c 0.055,0.055 0.111,1.111 -0.334,0.666 -0.055,-0.055 -0.111,-1.111 0.334,-0.666 M 91,239 l -1,1 1,-1 m -1,1 -1,1 1,-1 z"
     id="path88"
     inkscape:connector-curvature="0" />
  <path
     style="fill:#534233;stroke:none"
     d="m 96,241 c 3.822,12.929 -1.729,25.295 -2,38 l -13,0 c 2.28,-8.201 6.913,-16.106 10.177,-24 1.934,-4.675 1.995,-9.715 4.823,-14 z"
     id="path90"
     inkscape:connector-curvature="0" />
  <path
     style="fill:#e9e4de;stroke:none"
     d="m 99,244 c 3.965,4.421 6.291,7.984 5,14 7.123,-2.134 11.079,-9.939 19,-12 -0.5258,4.128 -1.4685,14.252 -4.7276,17.012 C 113.745,266.845 107.192,263.061 105,270 l 11,0 c -1.866,8.701 -5.986,9 -14,9 -2.016,-10.393 -7.325,-24.694 -3,-35 m -12,0 -1,1 1,-1 m -3,4 c -0.681,5.121 -3.611,11.134 -8,14 1.783,-5.235 3.89,-10.203 8,-14 z"
     id="path92"
     inkscape:connector-curvature="0" />
  <path
     style="fill:#ab9b8c;stroke:none"
     d="m 128,251 0,3 c -0.6961,-1.554 -0.6961,-1.446 0,-3 m 89,3 0,25 -48,0 c 0.4208,-4.82 2.2961,-9.234 3,-14 l 9,4 0,4 c 9.8118,1.593 16.3061,-2.543 23.3549,-9.492 4.23213,-4.171 6.1611,-9.052 12.6451,-9.508 m -57,20 1,4 c -6.2076,1.478 -12.6537,1 -19,1 2.238,-4.983 8.4069,-10.045 9,-15 l 4,-1 -1,-3 c 8.7626,-1.542 13.0037,8.336 6,14 z"
     id="path94"
     inkscape:connector-curvature="0" />
  <path
     style="fill:#e9e4de;stroke:none"
     d="m 76,263 -1,1 1,-1 m -1,2 -1,1 1,-1 z"
     id="path96"
     inkscape:connector-curvature="0" />
  <path
     style="fill:#534233;stroke:none"
     d="m 99,267 c 0.414,4.157 1.842,7.999 3,12 l -7,0 c 0.691,-4.076 1.633,-8.599 4,-12 z"
     id="path98"
     inkscape:connector-curvature="0" />
  <path
     style="fill:#e9e4de;stroke:none"
     d="m 73.667,268.667 c 0.055,0.055 0.111,1.111 -0.334,0.666 -0.055,-0.055 -0.111,-1.111 0.334,-0.666 M 73,270 l -1,9 c -1.987,-3.135 -0.909,-5.958 1,-9 z"
     id="path100"
     inkscape:connector-curvature="0" />
  <path
     style="fill:#ab9b8c;stroke:none"
     d="m 122,272 0,2 -2,0 0,-2 2,0 m -20.333,4.667 c 0.055,0.055 0.111,1.111 -0.334,0.666 -0.055,-0.055 -0.111,-1.111 0.334,-0.666 M 71,278 l -1,1 1,-1 z"
     id="path102"
     inkscape:connector-curvature="0" />
</svg>
