<?xml version="1.0" encoding="UTF-8" standalone="no"?>
<svg
   xmlns:dc="http://purl.org/dc/elements/1.1/"
   xmlns:cc="http://creativecommons.org/ns#"
   xmlns:rdf="http://www.w3.org/1999/02/22-rdf-syntax-ns#"
   xmlns:svg="http://www.w3.org/2000/svg"
   xmlns="http://www.w3.org/2000/svg"
   xmlns:sodipodi="http://sodipodi.sourceforge.net/DTD/sodipodi-0.dtd"
   xmlns:inkscape="http://www.inkscape.org/namespaces/inkscape"
   width="375.24948"
   height="418.88586"
   id="svg2"
   version="1.1"
   inkscape:version="0.48.4 r9939"
   sodipodi:docname="panini.svg">
  <metadata
     id="metadata44">
    <rdf:RDF>
      <cc:Work
         rdf:about="">
        <dc:format>image/svg+xml</dc:format>
        <dc:type
           rdf:resource="http://purl.org/dc/dcmitype/StillImage" />
      </cc:Work>
    </rdf:RDF>
  </metadata>
  <defs
     id="defs42" />
  <sodipodi:namedview
     pagecolor="#ffffff"
     bordercolor="#666666"
     borderopacity="1"
     objecttolerance="10"
     gridtolerance="10"
     guidetolerance="10"
     inkscape:pageopacity="0"
     inkscape:pageshadow="2"
     inkscape:window-width="1871"
     inkscape:window-height="1056"
     id="namedview40"
     showgrid="false"
     inkscape:zoom="1.5559646"
     inkscape:cx="364.80096"
     inkscape:cy="252.81188"
     inkscape:window-x="49"
     inkscape:window-y="24"
     inkscape:window-maximized="1"
     inkscape:current-layer="svg2" />
  <path
     style="fill:#d29a4a;stroke:none"
     d="m 168.45611,190.88851 c 6.26993,-20.75746 26.18204,-37.46716 39.53374,-53.93694 5.47965,-6.75753 13.55315,-14.74193 14.54648,-23.91642 0.60959,-5.6362 -1.74778,-22.720316 -7.37746,-25.552608 -5.04003,-2.53591 -9.65873,5.073932 -14.79085,-3.010938 -3.23955,-5.103636 -1.63449,-11.442125 -1.0554,-17.065386 1.34598,-13.073396 -2.56404,-32.974537 3.23607,-44.905228 9.32662,-19.186426 37.47709,-23.00328714 56.00146,-22.45114524 5.41409,0.1613929 11.62235,-0.095233 16.65998,2.37635954 7.61808,3.7382752 13.75324,14.4427367 17.91883,21.4323527 9.48093,15.908641 11.42896,33.714303 18.9887,50.138691 6.48406,14.087537 17.87789,27.761872 20.19917,43.631852 0.8375,5.72743 -5.41626,9.58703 -4.31162,15.26264 2.07758,10.67712 9.69324,21.06096 12.73684,31.60568 4.88247,16.91649 4.79278,35.47156 10.31829,52.34492 3.62172,11.05887 21.14119,1.10903 23.83397,12.48911 1.461,6.17489 -2.03318,14.44854 -2.41223,20.84345 -1.13421,19.13176 -3.6878,38.75824 -3.84286,57.91176 -0.2248,27.76094 -3.20066,55.38839 -6.69665,82.74997 -0.79317,6.20735 2.43501,22.02095 -2.6229,26.26653 -3.4185,2.8688 -12.10657,1.38286 -16.34716,1.50661 -16.11915,0.46956 -32.88532,-1.63804 -48.99361,-2.58688 -37.27083,-2.19479 -74.81352,-3.20827 -112.13151,-4.49911 -18.05636,-0.62538 -40.57455,2.4673 -58.0356,-2.21637 -6.3682,-1.70765 -4.37036,-11.75953 -9.94083,-13.31638 -6.09229,-1.70226 -9.39634,5.074 -16.611245,0.3624 -11.765657,-7.68211 -6.227068,-29.04797 -6.339262,-40.56048 -0.04362,-4.44202 -2.05611,-13.88993 -6.310578,-16.12812 -3.852179,-2.0257 -10.541349,-0.79277 -14.854059,-1.12484 -5.955406,-0.4586 -18.830819,-2.87892 -24.0066,0.12094 -4.523577,2.6229 -5.118353,8.20333 -5.473297,12.90273 -0.895802,11.87885 2.913309,22.02615 -0.859846,34.052 -3.078446,9.80751 -22.391468,9.00703 -27.785335,2.0055 -5.441618,-7.06478 -0.719625,-18.08678 0.397193,-25.90741 1.017698,-7.12413 -0.745527,-16.21151 -1.894536,-23.27504 C 8.6480275,329.30866 -0.58004733,324.41718 0.02880767,313.22347 1.4597517,286.92425 17.946906,261.00973 26.541474,236.54258 c 3.934109,-11.19993 1.913441,-21.78471 7.779788,-32.37178 4.808679,-8.67968 8.751007,-23.84075 18.118735,-28.68648 9.124419,-4.71908 23.399045,0.80652 32.975049,1.7961 17.438134,1.80206 34.545984,2.28618 51.934134,3.31701 7.11435,0.42154 15.97148,-1.03976 22.75726,1.70531 4.06836,1.64592 4.13075,6.76243 8.34967,8.58577 z"
     id="path4"
     inkscape:connector-curvature="0" />
  <path
     style="fill:#6d4428;stroke:none"
     d="m 303.10332,65.062713 c 5.12706,2.267636 6.54885,9.162509 8.93077,13.902159 5.75387,11.451314 16.49087,24.926678 17.59043,38.099488 0.45397,5.43847 -4.27967,9.69041 -3.57824,14.71111 1.24421,8.90506 7.44909,18.38811 9.99692,27.17053 3.69813,12.74666 6.64458,26.10128 9.05039,39.13763 1.30432,7.06852 1.72891,16.15731 5.27617,22.52869 4.34008,7.79442 19.08236,1.88753 21.52415,9.54408 1.48809,4.66669 -1.20363,10.15407 -1.79295,14.74581 -1.20509,9.38786 -0.97652,20.52334 -1.05369,30.05088 -0.38255,47.24494 -5.97933,95.12225 -10.78663,141.64151 -27.24191,-2.24817 -54.85687,-1.60437 -82.17314,-2.55029 -26.06235,-0.9018 -51.90501,-3.57941 -78.02471,-3.78039 l -46.06471,-1.74434 c -8.12033,-0.0651 -20.26031,1.76071 -27.86088,-1.35909 -5.29758,-2.17407 -4.9624,-12.33444 -10.57345,-15.85285 1.06883,-10.34292 0.6467,-20.92839 -0.79225,-31.24696 l -1.9894,-0.20558 c -3.40723,3.82502 -8.35345,0.7121 -11.883276,4.1183 -3.696236,3.56695 -2.812996,10.8091 -6.190607,15.12577 -2.215216,-11.8736 5.67868,-32.44011 -6.887719,-40.89563 -6.576828,-4.4265 -24.589057,-2.57019 -32.767503,-3.41535 l 0.205585,-1.98941 c 21.57162,2.04926 43.763992,-0.42966 65.16964,1.708 l 0.30838,-2.9841 c -34.369963,-3.55179 -68.802974,-0.0728 -103.173935,-3.62472 3.389281,8.85933 21.451228,5.23778 29.532707,6.06789 -2.148105,5.60086 -5.915485,9.10717 -6.613221,15.4018 -1.108148,9.98397 2.44396,19.22304 -0.996551,29.05145 -1.674507,-5.072 0.213035,-12.15951 -2.604014,-16.76951 -1.658717,-2.71488 -4.734048,-2.24753 -7.470506,-2.4911 -10.561155,-0.9416 -11.54022,4.36889 -14.484674,13.70669 -2.003263,-6.60893 2.643212,-13.05747 1.569871,-19.77338 -0.833905,-5.21936 -1.134002,-13.61971 -3.088016,-18.36068 -2.6024478,-6.31697 -8.3662919,-9.67022 -9.3148079,-17.27299 -1.15538343,-9.25881 3.4445315,-17.12464 6.4196514,-25.47506 3.3550805,-9.42002 5.1177115,-18.03245 9.7854075,-27.13788 3.734801,-7.28669 3.49898,-20.83269 11.386203,-24.96181 -1.211142,9.74512 -6.073055,18.09358 -8.846408,27.23492 6.133215,-2.42942 18.263276,-10.43394 24.157191,-2.21053 3.447946,4.8089 1.845576,10.6642 5.650671,15.34413 1.313997,-12.71529 6.094864,-23.90814 8.607739,-36.30752 0.92526,-4.56608 1.772161,-11.85664 7.034324,-13.74674 12.489179,-4.48497 40.838328,10.77897 48.321038,-4.66065 -9.26571,-1.15154 -19.32724,-6.15932 -28.559994,-5.75222 -8.578216,0.37722 -13.371686,5.99122 -22.571761,4.39909 -4.11275,-0.71052 -10.144004,-1.28152 -13.63813,-3.64923 -5.01711,-3.39973 -2.093532,-7.17521 2.72037,-7.44178 l 2.811746,-7.75204 c 4.616997,2.37819 12.76494,4.08277 14.098202,9.49951 l -11.936434,-1.23351 c 2.121268,13.77502 17.086341,1.96677 23.97547,1.62008 12.594857,-0.6337 24.421641,8.06207 36.528501,6.32335 11.05679,-1.58785 17.90323,-13.9737 30.56116,-13.61265 -2.77,4.90626 -13.64871,9.00271 -14.22956,14.55541 -0.32942,3.14882 4.19759,3.45981 6.3088,3.72222 l 19.79075,3.05553 c -2.46033,3.72884 -6.6123,5.70351 -9.402,9.25356 -2.75831,3.50905 -4.25407,16.78663 3.59265,15.27722 9.31962,-1.79251 27.27408,-14.01466 33.96168,-20.61218 2.10132,-2.07398 11.84513,-7.65998 7.43585,-11.07532 -5.5989,-4.33649 -19.43076,10.22282 -26.84144,10.07125 1.985,-4.45053 9.07479,-7.28376 13.06225,-10.30287 9.50176,-7.19339 19.10836,-14.88566 26.9233,-23.93829 6.6146,-7.66165 12.17997,-22.40869 11.63105,-32.80821 -0.46368,-8.79223 -4.34139,-16.42728 -3.51279,-25.49614 0.94271,-10.32881 7.08275,-19.24489 6.93427,-29.44318 -0.15864,-10.91714 -2.43084,-25.926406 -15.74633,-24.749706 2.7062,-9.756203 30.09589,-4.518502 31.7277,4.284064 l 3.97881,0.41117 c 2.64887,-7.109878 10.23291,-12.527192 11.97338,-19.874505 1.31074,-5.533477 -0.33765,-9.885372 -1.38553,-15.223061 -1.18119,-6.012768 -1.45217,-11.883321 -4.36323,-17.451451 -6.15449,-11.772396 -20.00771,-17.805562 -30.34567,-25.343055 -1.75483,2.009259 -2.60705,2.317691 -5.28189,2.470145 3.11637,-6.6236465 12.45912,-10.1186945 18.82978,-7.1020585 1.40362,-4.3211491 5.73935,-2.37321 9.15791,-1.064273 5.48727,-6.85065984 20.14467,-3.5795909 27.30106,-1.521937 18.65543,5.3641725 37.0896,42.5407995 33.00412,60.0307905 z"
     id="path6"
     inkscape:connector-curvature="0" />
  <path
     style="fill:#d29a4a;stroke:none"
     d="m 269.86695,65.64937 -2.98411,-0.308377 -7.36074,-21.871688 c -0.78263,-2.009091 -1.53037,-5.396698 0.85336,-6.71103 3.70676,-2.044102 5.69566,4.236814 6.86893,6.464115 3.96434,7.526374 5.53172,14.111673 2.62256,22.42698 z"
     id="path8"
     inkscape:connector-curvature="0" />
  <path
     style="fill:#6d4428;stroke:none"
     d="m 205.10535,30.807799 -0.41117,3.978811 c -0.52538,-1.823063 -0.47593,-2.301614 0.41117,-3.978811 m 16.49878,5.726284 c -2.08489,4.152486 -4.59351,7.42445 -8.98555,9.124688 l 5.00674,-9.535858 3.97881,0.41117 m 12.96748,20.441242 c 0.88342,-4.939456 7.91385,-10.097303 1.33631,-12.931137 1.80362,-2.238157 7.23467,-4.118446 8.31819,0.173869 1.23631,4.895617 -5.44371,11.740821 -9.6545,12.757268 M 230.04249,42.43273 c -1.20303,5.658612 0.51863,14.632623 -1.70051,19.549155 -1.96117,4.346431 -14.81349,6.323582 -17.42146,1.995978 -5.96278,-9.891828 12.02275,-20.400919 19.12197,-21.545133 m -25.58712,4.393107 -0.30837,2.984108 -1.98941,-0.205585 0.30838,-2.984108 1.9894,0.205585 z"
     id="path10"
     inkscape:connector-curvature="0" />
  <path
     style="fill:#d29a4a;stroke:none"
     d="m 214.95271,61.985186 c 0.31163,-2.509661 0.74752,-4.529052 1.71425,-6.860127 3.85925,2.978781 3.44978,6.503361 -1.71425,6.860127 z"
     id="path12"
     inkscape:connector-curvature="0" />
  <path
     style="fill:#6d4428;stroke:none"
     d="m 202.74112,53.685964 c 0.37394,1.848831 0.49873,3.190064 0.48074,5.076306 l -1.9894,-0.205585 c 0.28943,-1.94465 0.55195,-3.191167 1.50866,-4.870721 z"
     id="path14"
     inkscape:connector-curvature="0" />
  <path
     style="fill:#d29a4a;stroke:none"
     d="m 297.96369,114.79785 c -9.33808,-1.71597 -16.85447,-0.3192 -26.06786,-0.6832 -0.93136,-11.43632 -1.50804,-22.238413 -1.76438,-33.358066 -0.0707,-3.080488 -2.50092,-9.848344 0.96998,-11.876806 3.7865,-2.212597 5.88183,7.484253 6.66836,9.650176 2.57468,7.091523 2.75663,15.341326 7.08827,21.735756 4.43099,6.54213 13.52794,5.67865 13.10563,14.53214 z"
     id="path16"
     inkscape:connector-curvature="0" />
  <path
     style="fill:#6d4428;stroke:none"
     d="m 202.39952,66.719893 c 2.16092,5.297387 1.10728,11.524065 1.23664,17.218325 -4.44487,-3.771477 -3.8648,-12.410211 -1.23664,-17.218325 z"
     id="path18"
     inkscape:connector-curvature="0" />
  <path
     style="fill:#d29a4a;stroke:none"
     d="m 234.57474,86.130084 0.0696,9.055116 c -6.89916,-0.71396 -11.50099,-1.147291 -11.11409,-9.191131 l 11.04452,0.136015 m 61.04758,31.868046 c 29.32936,6.98886 32.52293,31.25468 40.00798,55.98509 4.52007,14.93474 7.89558,35.72384 -15.11181,34.28322 -6.28398,-0.39303 -7.12325,-15.52043 -8.56593,-20.64488 -4.10796,-14.59156 -6.59271,-31.62017 -15.59018,-43.99058 -4.95845,-6.8178 -9.61316,-13.22823 -19.21492,-12.23697 -14.70807,1.51917 -16.70757,12.46261 -22.5846,23.15312 -3.23253,5.87987 -7.34888,10.32126 -8.63613,17.2034 -1.47223,7.87438 -3.24706,22.91863 -14.23534,20.48724 -16.59244,-3.67203 -7.45389,-28.28604 -0.77926,-38.12405 4.16525,-6.14037 6.32147,-14.37837 11.31558,-19.85201 12.27175,-13.45181 35.77086,-20.46241 53.39461,-16.26358 M 99.247467,267.1785 c -2.676421,-1.09693 -4.420806,-2.72989 -6.551749,-4.69836 4.902711,-1.48591 10.955002,0.12676 16.018032,0.64997 -1.33947,-11.54383 0.57064,-11.85514 -10.805711,-12.17524 3.199441,-8.03066 10.082791,-6.23961 16.523861,-3.36931 10.30749,4.59286 22.65842,15.5907 34.6126,14.40522 8.1888,-0.81155 17.14938,-8.97471 23.68727,-13.53985 12.73251,-8.8923 26.98975,-17.12939 40.35167,-25.22477 7.60712,-4.60946 16.60954,-11.8253 26.34988,-9.77018 4.66449,0.98469 6.40782,6.49005 10.2136,8.94526 0.21904,-7.32428 -5.8692,-8.98792 -7.75706,-15.13755 -1.51524,-4.93992 2.20212,-13.63386 3.70287,-18.45714 4.68839,-15.06487 9.12546,-34.02119 19.84633,-46.11422 6.67186,-7.52505 18.94005,-8.76253 26.12976,-0.97623 17.73771,19.21006 -3.11982,51.67001 -13.51399,69.71717 -2.89748,5.03081 -4.00657,12.62101 -7.46325,16.86617 -10.43418,12.81131 -26.24791,15.22356 -40.77892,20.64258 -28.70137,10.70442 -57.17795,25.77105 -87.65793,31.07805 -9.95586,1.73279 -22.02456,-1.86886 -31.80242,-3.56092 -3.23353,-0.56035 -7.82686,-0.10309 -10.480052,-2.35876 -2.215311,-1.88169 -1.247385,-4.5453 -0.624791,-6.92189 z"
     id="path20"
     inkscape:connector-curvature="0" />
  <path
     style="fill:#6d4428;stroke:none"
     d="m 207.41564,144.64831 c 1.06756,3.70738 0.79234,6.32194 -0.0332,10.04982 -5.71381,-1.57066 -5.92467,-8.73327 0.0332,-10.04982 m 62.08586,31.54909 0.51397,-4.97352 c -3.06542,0.14768 -5.33653,1.56876 -8.266,2.16177 0.64153,-4.28174 1.39418,-8.34489 6.00144,-9.43306 l -0.41117,3.97881 c 2.75291,0.83339 4.43182,1.86443 6.65454,3.70365 l 0.41117,-3.97881 -2.98411,-0.30838 0.41117,-3.97881 c 9.44469,4.3519 8.62369,13.9212 -2.33101,12.82835 z"
     id="path22"
     inkscape:connector-curvature="0" />
  <path
     style="fill:#d29a4a;stroke:none"
     d="m 251.15871,246.68528 c 17.20892,-4.80349 20.16016,-14.56685 28.07381,-29.09836 8.26203,-15.16908 14.80904,-29.0838 20.82962,-45.26867 6.10499,2.64557 6.7154,14.82282 7.79986,20.91255 3.09153,17.35874 -0.86547,31.72006 -8.1147,47.41704 -3.05205,6.60929 -3.82958,13.17213 -10.94724,17.03093 -10.93642,5.92922 -38.26607,6.38535 -37.64135,-10.99349 z"
     id="path24"
     inkscape:connector-curvature="0" />
  <path
     style="fill:#6d4428;stroke:none"
     d="m 186.94117,167.66562 c -1.54574,5.88126 -4.90499,13.46412 -10.6998,15.98481 0.89072,-7.12116 3.79324,-13.16381 10.6998,-15.98481 m -13.30596,21.74744 c -1.61047,6.10882 1.55099,11.07309 1.23664,17.21833 -5.71305,-2.37584 -7.30897,-8.34451 -14.06428,-9.82776 -5.04578,-1.10854 -10.9431,0.54602 -16.13728,0.50387 -19.18083,-0.15346 -39.2471,2.26871 -58.407782,0.95719 -8.322544,-0.56951 -13.257998,-10.15864 -22.194403,-8.79601 -4.656659,0.71009 -4.092836,4.91432 -7.369717,6.93317 -2.951639,1.81923 -7.273709,-0.0761 -10.568156,1.26638 -3.637601,1.48193 -5.433186,5.04323 -8.766174,6.81702 0.96779,-7.13733 8.654017,-20.86898 15.50095,-23.53127 2.29565,9.00367 11.12318,0.84385 17.707289,3.76009 5.769863,2.55564 9.925282,7.42558 16.127799,9.31617 5.076764,1.54805 10.074348,-0.58352 15.159024,-0.76582 12.11985,-0.43447 25.09821,0.85343 37.11391,-0.84947 6.78688,-0.96246 11.83857,-0.40724 13.0871,-8.24743 7.3263,0.78324 7.85224,7.11484 13.21366,8.3696 2.59724,0.6082 5.83878,-2.45985 8.36142,-3.12406 m -67.53699,-7.98459 c -5.4827,6.47572 -27.816672,1.1608 -36.220472,0.27828 -4.232735,-0.44445 -8.416946,-0.33699 -9.535858,-5.00674 15.287205,2.80929 30.346394,3.136 45.75633,4.72846 z"
     id="path26"
     inkscape:connector-curvature="0" />
  <path
     style="fill:#d29a4a;stroke:none"
     d="m 234.58724,202.74912 -0.41117,3.97881 -1.98941,-0.20558 0.41117,-3.97881 1.98941,0.20558 z"
     id="path28"
     inkscape:connector-curvature="0" />
  <path
     style="fill:#6d4428;stroke:none"
     d="m 51.976222,209.01124 c -10.944266,4.33196 -17.45251,14.16505 -20.680049,25.00671 -1.705249,-4.20054 -1.768085,-19.23564 1.911326,-22.31875 4.147184,-3.47511 17.302497,-10.20349 18.768723,-2.68796 z"
     id="path30"
     inkscape:connector-curvature="0" />
  <path
     style="fill:#d29a4a;stroke:none"
     d="m 340.40681,248.8709 c 3.08397,-6.81308 10.47834,-3.11239 9.22056,3.7939 -1.18177,6.4889 -17.10995,10.53101 -22.34989,7.95675 -8.66915,-4.2607 2.23011,-9.8791 6.00261,-10.89972 2.49311,-0.67329 4.55415,-0.94588 7.12672,-0.85093 M 140.36875,229.2043 c -0.51939,4.53966 -3.57407,20.40168 -9.27747,20.70503 -7.3451,0.39104 -12.5966,-15.69297 -8.13423,-20.0584 3.85293,-3.76991 12.64707,-1.13901 17.4117,-0.64663 m 7.64925,3.80645 c -1.87511,6.2765 -3.55799,20.74214 -10.32185,22.05582 0.78785,-6.16467 4.49042,-19.44341 10.32185,-22.05582 m 110.34556,31.50961 c 11.24831,1.13124 20.99811,1.8593 31.46384,-3.03684 3.02234,-1.41381 10.00138,-7.70977 13.21377,-5.32895 5.48208,4.06505 -2.58003,11.19208 -5.86861,13.34947 -9.11696,5.98253 -36.24682,9.27221 -38.809,-4.98368 m -142.10648,-25.74385 -0.20559,1.9894 -1.9894,-0.20558 0.20558,-1.98941 1.98941,0.20559 m 122.24565,13.63818 c 1.2493,12.51371 -0.72217,25.42344 -1.91671,38.00429 -4.11557,-0.45948 -11.25126,-0.86915 -13.53081,-4.98929 -5.4071,-9.77258 4.29937,-32.92648 15.44752,-33.015 M 96.260234,237.71536 c -1.428689,1.8982 -1.933074,2.13862 -4.287189,2.57294 0.85217,-2.6233 1.541009,-2.64461 4.287189,-2.57294 M 68.13965,286.08097 c -2.933051,6.27977 -7.270624,7.26814 -13.753477,6.62132 2.572796,-14.0007 3.328,-31.02726 8.300792,-44.29136 1.035315,-2.7612 5.045065,-18.02991 9.436726,-10.7278 9.857849,16.38612 -12.801038,33.86655 -3.984041,48.39784 m 14.091952,-48.81 -0.205585,1.9894 -2.984109,-0.30838 0.205586,-1.9894 2.984108,0.30838 m 255.641738,55.57244 c -7.1217,-6.4452 -10.9363,-15.95569 -21.33627,-17.28477 7.47886,6.16342 15.13277,13.88609 17.07539,23.88172 0.61502,3.16499 -0.18309,11.01654 -4.64638,11.11527 -4.1561,0.0923 -4.60119,-6.3486 -5.70972,-9.13028 -3.44365,-8.63774 -8.89117,-16.62702 -9.7034,-26.17509 4.07226,-3.56629 -0.0867,-5.89514 -0.96148,-10.15261 13.11213,2.2417 26.60535,13.69537 25.28186,27.74576 m -114.90791,-36.00239 -0.30838,2.98411 -2.9841,-0.30838 0.30837,-2.98411 2.98411,0.30838 m 25.03994,10.63023 c -3.19044,-1.43455 -3.45098,-2.96042 -3.36206,-6.37939 3.19044,1.43455 3.45097,2.96042 3.36206,6.37939 M 87.377479,245.84534 c -1.034115,2.12697 -2.139931,3.79011 -3.600864,5.65984 -1.86302,-3.49099 0.161485,-4.78273 3.600864,-5.65984 m 225.114331,49.40177 c -3.25184,-0.16816 -6.00548,0.27011 -9.15791,1.06427 0.54172,3.8159 -2.27128,11.97898 -6.30982,12.41717 1.09789,-4.02144 0.98287,-7.81436 1.23351,-11.93643 l -3.97881,-0.41117 c 0.24858,1.41002 0.54635,9.39895 -3.14444,6.53539 -4.77352,-3.7043 -2.15974,-18.39243 -0.0612,-22.85837 1.48079,-3.15047 10.65496,-10.96785 14.34544,-8.49137 4.89967,3.28806 7.45964,18.26957 7.07319,23.68051 m -96.69176,-7.98147 c -15.26138,-1.61934 -30.14445,-6.1311 -45.44795,-7.71257 2.57329,-6.47579 12.17532,-6.22444 17.95192,-8.71484 6.2249,-2.68434 18.96397,-10.85213 25.82109,-8.07757 7.99671,3.23614 3.42928,18.55077 1.67494,24.50498 M 82.576287,253.3918 l -0.41117,3.97881 c -1.10168,-1.66507 -1.270594,-2.19021 -1.578236,-4.1844 l 1.989406,0.20559 m 255.916893,62.63815 c 4.90538,32.41394 -18.59369,50.48715 -48.73408,53.27169 -9.19402,0.84942 -18.15938,3.0857 -27.45636,3.02471 -35.14266,-0.22861 -66.24604,-10.69022 -98.09824,-23.54649 -15.75965,-6.36067 -42.60825,-19.55842 -47.00496,-37.52253 -4.06812,-16.62021 12.40394,-25.35427 26.54548,-27.16019 30.80032,-3.93179 61.57985,11.75522 92.22927,12.23127 10.61726,0.16525 5.15287,-10.06464 5.74101,-16.43694 0.42746,-4.6326 3.39293,-8.58973 8.26811,-5.14937 9.18541,6.48152 13.45162,21.66147 18.89811,30.98471 2.29353,3.92656 5.77201,6.24138 6.91562,10.87649 1.84832,7.48565 -6.068,20.17513 3.8557,24.07487 10.83845,4.26068 29.56762,-1.21209 40.7985,-2.93678 3.83017,-0.5884 10.23033,0.0891 13.30139,-2.697 6.03373,-5.47377 -6.48324,-14.73649 4.74045,-19.01444 m -56.49247,-7.84858 c -8.4928,-2.04483 -8.00175,-11.25213 -15.67644,-13.68391 0.55001,-5.97411 -2.54397,-10.49208 -2.33413,-16.32641 4.98356,0.51399 16.57072,-1.49759 20.28608,2.12451 4.72664,4.60827 -1.65528,22.0396 -2.27551,27.88581 z"
     id="path32"
     inkscape:connector-curvature="0" />
  <path
     style="fill:#6d4428;stroke:none"
     d="m 107.10229,268.99554 -0.30837,2.98411 -2.98411,-0.30838 0.30838,-2.98411 2.9841,0.30838 z"
     id="path34"
     inkscape:connector-curvature="0" />
  <path
     style="fill:#d29a4a;stroke:none"
     d="m 89.094854,268.13998 c 0.389914,2.51138 0.278487,3.58964 -0.616755,5.96821 2.122268,1.67302 2.330769,2.56417 2.470146,5.28189 11.249265,-0.78481 10.391235,6.68154 9.502635,15.05656 -4.639294,-0.47942 -23.399071,0.22494 -25.541328,-4.25097 -1.743708,-3.64354 3.825518,-14.38095 3.827104,-19.10481 3.532747,-0.19489 5.62135,-0.92004 8.368792,-3.15647 l 1.989406,0.20559 m 220.996376,30.88035 c -0.85216,2.6233 -1.5414,2.64457 -4.28718,2.57294 1.42859,-1.8982 1.93267,-2.13866 4.28718,-2.57294 m 36.70122,4.79803 c 1.34793,7.62998 6.48798,32.26583 -4.59244,34.71181 1.7699,-12.04588 -0.59334,-23.11946 0.61363,-35.12298 l 3.97881,0.41117 M 122.67594,283.67415 c -5.76463,7.90029 -12.329,13.15938 -13.51155,23.73685 -32.846476,-3.30287 -66.500957,-0.51855 -99.297912,-2.21884 0.857021,-8.24458 4.100781,-15.59508 5.45113,-23.56449 4.87404,2.06998 7.894321,6.72711 13.168567,8.76707 6.782398,2.62207 12.443893,0.54503 19.142663,-0.4014 0.57316,3.30643 1.800295,6.45224 5.230309,7.80599 9.840971,3.88314 25.285091,3.44235 35.809776,3.64729 4.241992,0.0825 7.803229,1.68404 11.816717,-0.41955 7.78279,-4.08161 5.93105,-13.63556 11.72419,-17.24921 2.75319,-1.71809 7.44221,-0.4162 10.46611,-0.10371 m 196.19838,37.36566 c -4.18607,7.74473 -25.24553,9.33339 -24.97036,-1.57511 7.83806,0.80999 17.81945,-1.3042 24.97036,1.57511 m 9.91381,11.07775 -12.03923,-0.23881 c 2.50384,-5.60331 12.24794,-8.05568 12.03923,0.23881 m -32.13887,-0.30526 -0.41117,3.97882 c -5.39738,-0.13051 -10.62555,-0.0927 -16.01804,-0.64998 1.60987,-15.55894 6.58086,-6.18229 16.42921,-3.32884 M 109.17407,314.47743 c 2.88025,2.19871 4.4499,7.68211 0.17196,9.14411 -8.08401,2.76467 -19.600455,0.39532 -28.006215,0.10573 -16.638992,-0.57541 -33.710507,1.37108 -50.239749,-0.25663 -6.20804,-0.61138 -18.803554,1.57548 -23.4803839,-3.17141 -9.8157944,-9.96377 12.5824589,-10.06694 16.8259649,-10.26177 20.482181,-0.94057 43.771305,0.27783 64.105249,2.27962 5.869636,0.57841 15.638944,-1.64515 20.623174,2.16035 m -12.662529,27.81774 c 4.985859,0.51122 8.674519,-1.12428 13.366939,-1.27574 3.79868,-0.12217 6.1663,3.51548 3.45708,6.55911 -5.37967,6.04302 -16.739233,2.69058 -16.824019,-5.28337 m 25.965059,1.6779 c 2.7207,6.87509 -0.0777,17.04731 -2.46702,23.87287 l -1.98941,-0.20558 c -1.3899,-7.42722 -2.31392,-18.79844 4.45643,-23.66729 m -87.875441,3.98819 -16.018038,-0.64998 -1.269858,-7.1685 c 7.724394,-1.01638 22.767717,-3.7465 17.287896,7.81848 m 100.776481,36.5527 c -0.17671,-4.09788 -0.99271,-8.02154 -0.7559,-12.14202 l 5.96822,0.61675 c 0.0788,-3.82717 0.069,-6.91353 -3.05368,-9.36349 0.27603,2.37797 0.10329,3.67006 -0.61675,5.96821 -3.75631,-1.98061 -3.51846,-4.39897 -3.15647,-8.36879 -2.8488,-1.26755 -3.28565,-2.28384 -3.46485,-5.38468 9.44559,0.97711 17.98655,4.31675 27.6502,4.82781 6.29513,0.33285 11.78743,-2.36387 18.19566,-0.96574 6.74749,1.47138 12.57566,5.535 19.36365,7.18851 5.5603,1.35373 20.7186,4.77803 20.68994,11.94304 -0.0363,8.89238 -12.29967,10.55057 -18.94132,10.04921 -20.88482,-1.57415 -40.97799,-2.03401 -61.8787,-4.36881 m -112.129382,-33.70461 -0.41117,3.97881 c -2.998672,-0.80953 -3.90415,-1.44497 -4.562345,-4.49277 l 4.973515,0.51396 m 7.85483,1.81705 -0.205585,1.9894 -3.978812,-0.41117 0.205585,-1.9894 3.978812,0.41117 z"
     id="path36"
     inkscape:connector-curvature="0" />
  <path
     style="fill:#6d4428;stroke:none"
     d="m 12.995976,381.92029 c 2.914114,3.93339 6.650512,5.46457 11.422472,6.20703 -4.572199,2.1303 -14.417814,0.67553 -11.422472,-6.20703 m 97.378084,11.06838 c -2.98605,4.61349 -6.22745,4.29461 -10.15262,0.96148 3.20919,-0.98434 6.77872,-0.68885 10.15262,-0.96148 m -74.602711,-7.70944 c -1.267549,2.84879 -2.283837,3.28564 -5.384684,3.46484 1.70435,-2.26982 2.602452,-2.92498 5.384684,-3.46484 z"
     id="path38"
     inkscape:connector-curvature="0" />
</svg>
