<?xml version="1.0" encoding="UTF-8" standalone="no"?>
<svg
   xmlns:dc="http://purl.org/dc/elements/1.1/"
   xmlns:cc="http://creativecommons.org/ns#"
   xmlns:rdf="http://www.w3.org/1999/02/22-rdf-syntax-ns#"
   xmlns:svg="http://www.w3.org/2000/svg"
   xmlns="http://www.w3.org/2000/svg"
   xmlns:sodipodi="http://sodipodi.sourceforge.net/DTD/sodipodi-0.dtd"
   xmlns:inkscape="http://www.inkscape.org/namespaces/inkscape"
   width="385.81693"
   height="783.22223"
   id="svg2"
   version="1.1"
   inkscape:version="0.48.4 r9939"
   sodipodi:docname="pythia.svg">
  <metadata
     id="metadata126">
    <rdf:RDF>
      <cc:Work
         rdf:about="">
        <dc:format>image/svg+xml</dc:format>
        <dc:type
           rdf:resource="http://purl.org/dc/dcmitype/StillImage" />
      </cc:Work>
    </rdf:RDF>
  </metadata>
  <defs
     id="defs124" />
  <sodipodi:namedview
     pagecolor="#ffffff"
     bordercolor="#666666"
     borderopacity="1"
     objecttolerance="10"
     gridtolerance="10"
     guidetolerance="10"
     inkscape:pageopacity="0"
     inkscape:pageshadow="2"
     inkscape:window-width="1871"
     inkscape:window-height="1056"
     id="namedview122"
     showgrid="false"
     inkscape:zoom="1.8383642"
     inkscape:cx="402.93116"
     inkscape:cy="323.33495"
     inkscape:window-x="-1871"
     inkscape:window-y="24"
     inkscape:window-maximized="1"
     inkscape:current-layer="svg2" />
  <path
     style="fill:#363636;stroke:none"
     d="m 211.47409,0.01139883 c -2.51142,0.03896796 -5.03347,0.19984375 -7.53125,0.4375 -5.415,0.516 -11.864,-1.02274998 -17,1.03124997 -13.363,5.346 -17.71925,16.3450002 -23.03125,28.1250002 -2.439,5.409 -6.2225,9.656 -4.4375,16 2.042,7.255 8.2055,10.85125 11.4375,17.03125 1.593,3.047 1.6575,7.59675 2.4375,10.96875 1.678,7.256 -0.687,24.962251 3.625,30.406251 2.927,3.696 9.83975,0.208 13.59375,2.625 5.171,3.328 4.2065,11.668 8.6875,15.375 5.531,4.575 18.7405,0.93975 25.6875,2.59375 -2.147,2.802 -5.979,5.0635 -7.375,8.3125 -3.046,7.093 -1.625,19.0355 -1.625,26.6875 0,10.967 -2.1685,19.502 -3.6875,30 -0.965,6.669 0.0555,12.545 -2.4375,19 -2.356,6.1 -1.849,19.151 -9,22.25 -7.11,3.081 -16.176,-3.505 -22.875,-5.25 l 0,-2 c 11.672,-3.838 17.72375,-9.838 23.84375,-20 4.506,-7.482 6.88425,-14.46625 -3.84375,-18.40625 -13.004,-4.776 -28.898,-1.2275 -42,0.3125 -16.652,1.956 -34.252,1.89475 -51,2.09375 -5.192,0.062 -27.042996,-1.7935 -29.374996,3.3125 -1.95,4.269 2.08825,10.5675 4.65625,13.6875 7.87,9.561 20.983746,17.73725 31.718746,23.78125 10.845,6.106 25.10875,7.1815 36.59375,13.0625 15.981,8.183 27.86425,23.19425 46.40625,27.15625 l 0,4 c -9.948,0.428 -19.193,5.65025 -29,7.53125 -13.064,2.506 -33.778,-1.888 -45,-9.375 -3.706,-2.473 -7.60025,-6.15325 -9.65625,-10.15625 -2.309,-4.495 -1.347,-10.16875 -2.75,-14.96875 -3.437,-11.751 -15.543746,-29.09325 -28.593746,-25.03125 -1.685,-9.069 -2.50625,-19.6965 -12.03125,-24.4375 -4.105,-2.044 -10.002,1.0935 -13.125,-1.9375 -5.915,-5.739 -17.52075,-24.46 -25.84375,-9.625 -5.867,-2.612 -31.9512503,-12.799 -28.65625043,3 1.06500013,5.107 6.67850003,6.68625 8.81250003,11.03125 1.4140004,2.878 -0.4012501,5.9785 1.4687504,8.8125 3.235,4.903 9.17875,8.0845 13.09375,12.4375 5.708,6.344 7.9975,12.5725 15.3125,18.3125 4.032,3.164 9.78825,3.91075 13.53125,7.21875 4.545,4.016 3.4125,10.46 9.4375,14.375 7.598,4.938 17.119,8.048 26,9.5 3.888,0.636 9.848996,-0.18325 12.374996,3.71875 2.239,3.459 -3.135496,7.18575 -4.937496,9.59375 -3.863,5.161 -6.234,14.01 -3,20 9.646996,17.871 26.599496,-10.166 35.562496,6 -11.304,1.22 -18.847,10.289 -27.999996,15.875 -5.22,3.186 -11.61125,3.9015 -16.53125,7.6875 -7.392,5.688 -16.985,16.62225 -21.875,24.53125 -2.484,4.02 -2.89875,8.9785 -5.46875,12.8125 -4.167,6.218 -11.89975,8.71575 -14.71875,16.09375 -3.861,10.104 -2.40625,24.289 -2.40625,35 5.076,1.54 5.0385,5.486 6.6875,10 3.691,10.105 6.2565,21.179 6.3125,32 0.055,10.538 2.824,20.527 3,31 0.276,16.44 -2.596,32.522 -3,49 -0.163,6.656 -5.26475,22.88025 -0.96875,28.40625 5.636,7.252 21.69175,3.66375 28.96875,2.59375 1.031,19.961 -27.871,21.31325 -37.375,33.28125 -10.369,13.056 10.361,18.69375 19.375,18.71875 6.665,0.019 11.712,-4.798 18,-4 -3.831,7.365 -13.53,10.289 -16.375,18 -1.806,4.899 -0.21175,10.95575 5.40625,11.84375 6.755,1.068 24.0825,-2.0495 29.9375,-5.6875 4.573996,-2.843 7.022746,-7.50975 12.093746,-9.84375 6.508,-2.995 18.508,-5.232 23.625,-9.875 6.043,-5.484 1.196,-16.7425 2.375,-23.3125 0.509,-2.839 4.185,-4.18875 6.625,-2.84375 5.681,3.132 5.00825,20.97275 5.90625,26.71875 2.97,19.007 2.0015,36.973 2.4375,56 0.268,11.706 2.6105,23.486 -1.0625,35 -3.293,10.322 -21.445,8.875 -20.75,19 0.928,13.532 23.66725,11 32.78125,11 3.825,0 10.71975,1.18675 12.71875,-3.15625 1.615,-3.509 -1.9115,-6.90075 -3.3125,-9.84375 -2.288,-4.807 -2.29075,-9.839 -2.96875,-15 -1.266,-9.639 0.6775,-19.321 0.5625,-29 -0.123,-10.367 -2,-20.569 -2,-31 4.453,1.237 7.593,4.6335 12,6.0625 11.895,3.857 25.665,4.7145 38,7.8125 4.57,1.148 14.80025,0.84175 17.15625,5.46875 2.992,5.875 1.71,18.04325 1.875,24.65625 0.382,15.377 5.87475,31.596 2.59375,47 -1.379,6.478 -15.465,20.66625 -10,26.40625 14.511,15.241 45.138,-2.35825 62.375,-2.40625 l 0,-4 c -8.601,-0.44 -16.289,-1.594 -25,0 -1.01,-6.868 -3.565,-13.283 -5,-20 l 7,0 0,-3 c -3.699,-0.044 -7.75,-0.0395 -9.375,-4.0625 -1.702,-4.215 -0.625,-10.4605 -0.625,-14.9375 l 0,-34 c 0,-4.912 -1.39875,-12.5015 1.03125,-16.9375 4,-7.305 27.20775,-7.16525 34.96875,-8.28125 6.281,-0.904 21.67075,-7.884 25.96875,-0.625 3.346,5.65 0.0768,17.63175 -0.65625,23.84375 -1.687,14.302 -1.17575,30.739 0.53125,45 0.508,4.248 -0.1935,12.1205 2.1875,15.6875 2.143,3.211 7.64875,2.2655 10.96875,3.0625 12.511,3.003 17.32275,6.439 25.84375,-5.75 9.469,-13.547 -14.0795,-18.334 -19.8125,-27.375 -3.064,-4.83 -2.5495,-16.079 -2.0625,-21.625 1.791,-20.406 -1.51,-40.659 0.125,-61 1.132,-14.083 5.403,-27.896 6.75,-42 1.108,-11.592 -0.546,-23.386 0.25,-35 0.823,-12.022 3.35,-24.125 3.875,-36 0.412,-9.343 0.96975,-19.715 -0.15625,-29 -1.42,-11.701 -5.35475,-21.755 -3.59375,-34 1.516,-10.542 7.54375,-13.174 13.21875,-21 3.038,-4.189 4.01825,-9.42175 7.15625,-13.71875 6.253,-8.56 12.03175,-11.568 15.46875,-22.25 1.632,-5.073 5.80675,-10.337 4.59375,-16 -1.28,-5.972 -8.89925,-5.87575 -13.65625,-6.84375 -14.065,-2.863 -28.542,-8.1475 -43,-8.1875 0.544,-5.425 3.6995,-9.741 4.6875,-15 1.363,-7.252 1.41625,-15.596 2.15625,-23 0.634,-6.338 -1.6395,-13.983 0.1875,-20 4.211,-13.866 15.50275,-25.705 18.59375,-40 3.079,-14.246 1.375,-31.424 1.375,-46 0,-38.763 -1.439,-76.87075 -20.25,-111.96875 -10.308,-19.232 -42.584,-20.0325 -53.875,-38.062501 -9.481,-15.14 10.2,-24.25075 5.625,-39.96875 -1.668,-5.732 -7.509,-10.549 -11.25,-15 C 260.2084,8.589305 235.75116,-0.36529143 211.47409,0.01139883 z M 178.94284,457.60515 c 8.732,0.967 15.975,7.672 25,9 l 0,3 c -10.582,0 -18.801,5.527 -29,6 0.795,-6.153 3.171,-11.876 4,-18 z m 132.4375,12.9375 c 4.52086,-0.16876 7.535,1.29313 7.5625,9.0625 -6.033,-0.857 -10.625,-4.708 -17,-5 l 0,-3 c 3.4605,-0.28275 6.72498,-0.96124 9.4375,-1.0625 z m -88.84375,8.84375 c 0.39496,-0.0187 0.77293,-0.0222 1.15625,0 1.41534,0.0821 2.75231,0.46663 3.9375,1.25 3.986,2.633 2.198,10.91075 2.375,14.96875 0.542,12.357 2.9325,24.602 2.9375,37 0.001,3.566 1.11425,9.58525 -1.59375,12.40625 -5.132,5.345 -17.72125,3.7825 -24.40625,4.8125 -4.256,0.656 -11.4605,6.92525 -15.5625,4.65625 -3.565,-1.971 -2.9875,-10.356 -3.5625,-13.875 -1.802,-11.025 -4.604,-22.119 -7.125,-33 -0.889,-3.837 -3.07675,-11.1185 -0.71875,-14.6875 3.242,-4.91 19.34875,-5.62525 24.96875,-7.28125 4.54823,-1.3391 11.6693,-5.96899 17.59375,-6.25 z m 42.40625,2.21875 c 14.985,0.043 46.96475,8.5565 54.96875,22.4375 3.167,5.493 0.78675,15.5905 0.21875,21.5625 -1.269,13.328 3.6225,28.11 -0.1875,41 -13.711,-5.272 -26.814,-9.81575 -41,-14.34375 -3.643,-1.163 -12.61875,-2.225 -14.96875,-5.25 -3.376,-4.345 0.82675,-12.58425 0.96875,-17.40625 0.472,-16.11 0.133,-31.956 0,-48 z m -39.59375,80.0625 c 1.44845,-0.0705 2.83812,0.16781 4.0625,0.96875 6.347,4.151 2.29975,14.02775 2.71875,19.96875 1.459,20.641 4.8125,41.402 4.8125,62 -15.91,0.133 -30.809,3.7345 -47,2.1875 -4.417,-0.422 -13.10775,0.815 -15.96875,-3.5 -2.474,-3.731 -1.03325,-11.3915 -1.03125,-15.6875 0.005,-14.172 4.189,-28.049 1,-42 13.914,-8.704 25.381,-17.857 42,-21.5 2.73212,-0.59881 6.21967,-2.28251 9.40625,-2.4375 z m 35.59375,4.9375 c 14.036,0 29.763,3.759 43,8.625 4.579,1.683 11.81625,5.35225 14.15625,9.90625 3.949,7.686 0.3515,21.92075 0.9375,30.46875 0.469,6.857 5.8485,23.78575 -0.8125,28.96875 -2.804,2.183 -8.94325,1.03125 -12.28125,1.03125 -11.084,0 -21.996,-0.41975 -33,-1.71875 -3.872,-0.456 -10.434,0.9875 -12.375,-3.4375 -3.735,-8.518 -1.63225,-21.90675 -0.78125,-30.84375 1.362,-14.3 1.15625,-28.631 1.15625,-43 z"
     id="path6"
     inkscape:connector-curvature="0" />
  <path
     style="fill:#fafafa;stroke:none"
     d="m 221.95487,6.6081597 -1,6.0000003 c 11.843,2.528 -2.516,20.959 12,25 1.333,5.215 -0.886,12.196 5,14 -0.334,7.555 2.418,15.376 0.697,23 -0.75,3.321 -5.534,7.309 -4.366,10.771 1.296,3.843 6.748,2.572 9.669,2.229 l 0,-5 2,0 c 0.304,13.008 2.079,25.867 2.079,39 0,4.917 1.902,9.993 0.349,14.871 -2.14,6.722 -14.722,6.546 -15.658,12.11 -0.602,3.577 5.471,2.221 7.23,2.019 -1.276,3.957 -5.091,5.342 -7,9 5.314,-1.387 8.814,-5.548 14,-7 0,21.395 6.233,40.321 4.17,62 -0.431,4.53 1.742,13.684 -1.198,17.397 -1.891,2.388 -6.314,1.476 -8.972,1.978 -4.975,0.94 -8.617,3.448 -13,5.625 0.001,-10.361 2.219,-16.707 5.985,-26.001 3.227,-7.965 3.032,-18.399 2.867,-26.984 -0.07,-3.616 -3.168,-6.647 -5.914,-2.823 -3.817,5.313 -2.272,16.461 -3.028,22.808 -1.645,13.819 -8.185,25.251 -6.621,40 0.798,7.518 6.441,21.68 -3.289,22 0.87,-6.892 1.724,-23.292 -5,-27 -3.355,-22.816 8.664,-46.154 12.83,-69 2.226,-12.205 -2.637,-22.163 1.473,-34.853 1.508,-4.656 10.251,-3.792 11.067,-8.335 0.734,-4.084 -8.047,-10.221 -8.791,-15.098 -0.936,-6.144 6.236,-13.565 7.421,-19.714 -13.14,2.033 -12.735,22.198 -27.942,20.762 -10.287,-0.971 0.545,-11.238 -1.81,-14.365 -2.449,-3.254 -6.919,0.731 -10.02,-0.269 -3.402,-1.097 -2.776,-5.683 -5.654,-7.207 -2.5,-1.325 -6.172,2.319 -8.574,3.079 -1.292,-6.961 -1,-13.945 -1,-21 1.758,0.828 18.645,9.025 17.37,1.999 -0.598,-3.292 -5.488,-3.954 -6.37,-7.999 2.693,0.218 7.131,1.843 9.623,0.522 4.227,-2.241 -2.716,-5.784 -4.624,-6.178 -6.313,-1.304 -12.981,-0.222 -18.999,1.656 -2.715,-9.684 2.014,-10.215 6,-18 -3.848,1.348 -6.343,2.891 -9,6 -17.448,-6.031 -8.166,-28.273 0.542,-38.675 8.778,-10.4860003 32.915,-12.0330003 45.458,-8.3250003 m 56,44.0000003 c -0.004,5.004 0.465,9.341 -5,11 0,-5.4 0.258,-10.718 -1,-16 -3.917,12.069 -2,23.512 -2,36 l 3,0 0,-5 c 4.003,3.905 3.631,9.761 8.055,13.74 9.566,8.605 22.602,12.715 32.242,20.283 8.55,6.713 -5.199,8.027 -9.297,7.387 l -8,-1.41 c 6.86,8.437 19.718,5.371 29,8 l 0,7 -10,0 c 1.561,6.535 5.352,7.999 10,3 5.373,1.952 6.276,6.601 9.326,11 6.363,9.179 12.781,16.079 -2.326,18 3.694,3.749 6.417,2.576 11,1 0.872,3.65 2.784,9.165 2.424,12.851 -0.526,5.381 -4.836,0.841 -5.424,-1.851 l -3,0 0,3 -4,0 c -4.201,-8.013 -11.027,-6.929 -16.106,-12.036 -4.945,-4.972 -0.946,-12.633 -9.894,-14.964 l 0,13 c -3.786,-0.003 -7.306,-0.121 -11,-1 l 0,4 c 4.111,0 10.742,-1.254 13.968,1.893 3.587,3.501 2.063,8.352 7.032,11.107 l 0,-6 3,0 c -0.002,3.486 -0.01,6.65 -1,10 -13.32,-4.165 -27.178,-3.022 -41,-3 -3.539,0.006 -12.526,2.517 -14.968,-0.6 -2.487,-3.177 1.693,-7.588 2.968,-10.4 l -4,0 c 0.049,-5.961 0.539,-12.518 3.059,-18 2.393,-5.208 6.616,-7.877 5.941,-14 3.123,-1.58 5.582,-4.228 9.005,-5.312 9.122,-2.888 14.487,8.747 21.995,12.312 -2.432,-5.05 -11.628,-18.575 -18.039,-18.263 -6.071,0.295 -14.155,8.566 -20.961,10.263 0.635,-11.764 8.995,-22.862 7,-35 -7.149,5.813 -8.282,24.904 -9,34 l -3,0 0,6 c -3.345,-4.415 -1.666,-10.709 -2.17,-16 -1.429,-15.014 1.92,-30.081 0.335,-45 -2.611,-24.579 -22.12,-45.031 -23.165,-69 4.395,0.543 8.85,-0.883 13,-0.282 7.88,1.142 21.583,11.259 26.545,17.301 3.362,4.094 16.769,19.091 5.455,20.981 z"
     id="path8"
     inkscape:connector-curvature="0" />
  <path
     style="fill:#363636;stroke:none"
     d="m 190.95487,20.60816 c -1.44,4.422 -4.544,5.676 -9,6 1.987,-3.987 4.613,-5.513 9,-6 m 6,6 c -3.646,3.374 -7.084,6.822 -12,8 2.923,-5.334 5.837,-7.679 12,-8 m 16,22 4,0 3,8 c 4.696,-0.484 8.47,-2.964 13,-4 1.817,17.714 -21.446,5.205 -30,4.184 -5.05,-0.602 -9.98,0.6 -15,0.816 l 0,-7 c 7.168,-0.005 13.97,-1.69 21,-3 l 0,-2 c -6.794,-1.618 -14.037,-3.221 -21,-3 2.652,-7.992 11.448,-3.353 17.035,-3.241 2.611,0.053 5.38,-2.485 7.835,-1.886 5.969,1.458 2.174,8.475 0.13,11.127 m 51,-9 -1,32 -4,0 c 0.685,-5.18 1.999,-9.644 2,-15 l -1,2 c -1.552,-3.697 -1,-8.017 -1,-12 0.874,2.052 0.953,3.747 1,6 l 2,0 0,-13 2,0 z"
     id="path10"
     inkscape:connector-curvature="0" />
  <path
     style="fill:#fafafa;stroke:none"
     d="m 180.95487,68.60816 c 1.056,2.242 1.181,2.577 1,5 -1.475,-1.935 -1.791,-2.693 -1,-5 m 61,2 0,2 -2,0 0,-2 2,0 z"
     id="path12"
     inkscape:connector-curvature="0" />
  <path
     style="fill:#363636;stroke:none"
     d="m 284.95487,114.60816 -6,-1 0,-6 c 3.57,1.354 5.075,3.318 6,7 m 24,22 c -4.569,-1.374 -8.504,-6.986 -11,-11 6.544,0.217 9.765,4.804 11,11 m 18,17 3,6 c -7.442,-1.158 -17.893,-12.828 -19,-20 4.422,0.764 28.174,11.962 16,14 z"
     id="path14"
     inkscape:connector-curvature="0" />
  <path
     style="fill:#fafafa;stroke:none"
     d="m 262.95487,142.60816 c -0.684,1.58 -0.805,1.777 -2,3 l 0,-3 2,0 z"
     id="path16"
     inkscape:connector-curvature="0" />
  <path
     style="fill:#363636;stroke:none"
     d="m 294.95487,155.60816 c -6.682,-0.634 -8.456,2.992 -13,7 0.079,-6.598 9.194,-16.468 13,-7 z"
     id="path18"
     inkscape:connector-curvature="0" />
  <path
     style="fill:#fafafa;stroke:none"
     d="m 256.95487,153.60816 c 1.435,4.853 1,9.964 1,15 l -2,0 c 0,-4.817 -0.876,-10.529 1,-15 z"
     id="path20"
     inkscape:connector-curvature="0" />
  <path
     style="fill:#363636;stroke:none"
     d="m 282.95487,164.60816 c -0.637,3.828 -6.447,8.756 -9.972,4.393 -1.659,-2.053 -1.026,-5.941 -1.028,-8.393 l -5,2 c 2.8,-13.425 7.318,1.264 10.227,2.713 1.629,0.812 4.138,-0.351 5.773,-0.713 z"
     id="path22"
     inkscape:connector-curvature="0" />
  <path
     style="fill:#fafafa;stroke:none"
     d="m 310.95487,161.60816 0,4 -2,0 0,-4 2,0 z"
     id="path24"
     inkscape:connector-curvature="0" />
  <path
     style="fill:#363636;stroke:none"
     d="m 338.95487,170.60816 c -2.092,-0.406 -2.02,-0.217 -3,-2 1.58,0.684 1.777,0.805 3,2 z"
     id="path26"
     inkscape:connector-curvature="0" />
  <path
     style="fill:#fafafa;stroke:none"
     d="m 345.95487,185.60816 c 3.164,25.033 5.576,47.753 3.17,73 -0.658,6.899 1.017,15.576 -1.523,22 -3.799,9.61 -9.352,17.766 -13.767,27 -1.974,4.128 -1.346,9.399 -5.028,12.566 -8.382,7.21 -24.559,-1.98 -25.852,-11.566 10.892,-10e-4 20.101,-5.825 23,-17 -4.78,2.508 -7.854,6.935 -13,9 l 1,3 c -4.945,2.234 -8.688,0.507 -12.961,-2.63 -1.627,-1.194 -4.406,-4.959 -6.771,-4.024 -4.518,1.784 1.913,12.689 2.229,15.654 1.556,14.617 10.728,25.763 18.718,38 2.203,3.374 10.217,10.429 9.033,14.687 -0.647,2.329 -4.38,3.143 -6.04,4.625 -9.167,8.188 -22.33,12.457 -27.208,-3.312 l 8,3 c -1.259,-2.774 -3.104,-5.09 -4,-8 l 6,2 c -1.668,-3.401 -3.396,-6.209 -4,-10 -6.293,3.58 -7.88,12.451 -14.286,16.696 -14.805,9.812 -35.351,8.553 -47.61,-4.7 -5.489,-5.934 -7.416,-13.052 -11.104,-19.996 -2.505,11.416 2.559,16.461 7,26 -8.959,-1.518 -15.707,-6.827 -23.995,-9.806 -2.002,-0.72 -5.634,-0.328 -4.659,2.733 2.129,6.689 13.386,5.413 15.654,13.073 -10.331,-0.008 -20.344,-6.275 -30,-10 l 2,-6 c -6.806,3.712 -13.976,-1.972 -19,4 3.688,1.326 6.79,2.705 9,6 -6.427,-0.584 -10.983,-4.832 -17,-6.751 -4.965,-1.583 -10.796,-0.595 -16,-1.249 0.865,7.771 8.472,10.752 10,18 -6.421,-0.133 -13.316,-1.648 -19,-4.753 -3.633,-1.985 -7.569,-6.422 -11.999,-6.339 -4.625,0.087 -7.398,5.05 -4.972,8.908 2.619,4.166 7.639,5.613 11.971,7.184 l 0,2 c -1.479,0.986 -1.203,1 -3,1 2.213,4.192 5.993,6.062 7,11 -3.951,-0.347 -7.318,-1.582 -11,-3 1.888,3.535 4.711,5.744 8,8 -3.666,9.613 -14.891,4.935 -21.571,9.564 -3.59,2.488 -6.883,10.554 0.572,9.731 9.23,-1.02 16.898,-9.653 25.999,-11.295 -4.284,15.27 -28.977,31.931 -42,39.529 -1.806,1.053 -13.377,8.729 -8.573,11.233 4.699,2.45 13.949,-6.657 18.573,-7.762 3.547,6.348 10.868,0.8 15.075,-2.613 10.486,-8.507 14.993,-22.388 21.925,-33.387 l 2,0 c 5.381,11.23 -2.361,21.65 -8.325,31 -13.708,21.491 -49.95,43.899 -75.675,46 -0.965,-7.638 -1.805,-15.417 0,-23 6.667,0.951 13.795,-0.583 17,-7 -7.404,-1.16 -12.961,2.997 -20,4 -1.83,-9.854 -0.49,-20.182 -2.515,-30 -4.759,-23.08 -20.47,-46.511 2.519,-64.996 3.165,-2.545 6.137,-4.724 9.996,-6.004 -0.583,7.744 -21.3,31.555 -6,28 -1.419,6.91 -9.491,23.119 0,26 -0.359,4.553 -0.831,8.455 0,13 9.007,-4.844 4.984,-14.374 5.904,-22 1.359,-11.258 4.828,-22.471 5.926,-34 0.748,-7.851 -1.092,-16.285 0.699,-23.999 2.119,-9.124 9.456,-13.112 16.413,-17.844 12.339,-8.392 29.251,-26.165 46.058,-25.849 6.783,0.127 9.806,9.483 15.808,9.485 4.649,0.002 -5.418,-12.274 -5.808,-14.793 l 102,-0.143 c 5.492,-0.013 10.49,-2.698 16,-2.857 1.684,-4.839 7.531,-5.511 12,-7 8.766,-2.921 17.317,-4.749 23.657,-12.093 13.677,-15.845 13.31,-45.393 13.343,-64.907 0.016,-9.51 0.421,-22.951 11,-26 -1.597,-6.433 -2.531,-10.272 -2,-17 7.996,1.017 14.08,6.485 22,7 z"
     id="path28"
     inkscape:connector-curvature="0" />
  <path
     style="fill:#363636;stroke:none"
     d="m 341.95487,188.60816 c 0.529,2.951 0.737,5.097 0,8 -1.942,-2.56 -1.965,-4.808 -2,-8 l 2,0 z"
     id="path30"
     inkscape:connector-curvature="0" />
  <path
     style="fill:#fafafa;stroke:none"
     d="m 307.95487,190.60816 c -3.001,1.172 -5.841,0.398 -9,0 3.105,-1.301 5.808,-0.942 9,0 m -267,-1 c 5.512,6.855 15.956,18.688 14,28 -6.611,-6.364 -14.788,-18.687 -16,-28 l 2,0 m -8,11 c -6.036,-0.858 -13.122,-5.66 -16,-11 6.107,1.688 13.012,5.23 16,11 m 273,-7 -3,2 c 2.986,0.882 5.203,1.419 7,4 l -5,-2 c 1.689,1.73 3.611,3.043 5,5 l -6,-1 c 2.166,1.195 3.553,1.691 6,2 l 0,6 -4,0 c 1.88,2.217 1.371,2.448 -1,4 2.749,1.982 3.786,4.565 1,7 l 0,2 c 1.969,1.057 1.455,1.321 0,3 7.443,4.825 0.545,19.511 -1.381,26 -2.982,10.05 -4.189,27.953 -13.673,34.397 -5.958,4.048 -17.951,3.603 -24.946,3.603 2.166,1.195 3.553,1.691 6,2 l 0,2 c -7.585,1.736 -14.086,6.472 -22,7.671 -6.963,1.055 -14.93,-0.983 -22,-1.118 l -47,-0.098 c -11.547,-0.245 -23.25,2.685 -35,2.541 -13.809,-0.169 -24.804,-8.871 -39,-5.996 1.475,-6.882 11.43,-3.117 15.917,-5.722 3.933,-2.284 2.461,-6.677 2.083,-10.278 12.568,0.992 23.074,6.796 36,5.911 20.254,-1.388 38.302,-9.646 57,-15.594 11.286,-3.59 25.353,-5.074 37,-7.317 -0.436,-2.607 -0.563,-4.429 0,-7 l 2,0 1,1 c -0.547,1.875 -1.11,3.255 -2,5 3.9,-0.603 10.069,-3.849 9.118,-8.853 -0.821,-4.32 -7.824,-3.247 -8.425,-8.241 -1.866,-15.503 2.176,-34.063 2.307,-49.906 2.221,1.675 2.562,3.257 3,6 0.81,-2.729 0.979,-5.15 1,-8 11.806,-5.011 30.425,-3.098 43,0 m -121,-2 0,2 -11,0 0,-2 11,0 m -80,1 c -3.04,2.303 -6.268,1.997 -10,2 l 0,-2 10,0 m 32,2 0,3 -4,0 0,-3 4,0 m -10,1 c -0.282,3.382 -0.197,6.617 0,10 -3.715,-2.053 -4.979,-4.962 -6,-9 2.106,-0.644 3.795,-0.906 6,-1 m 36,1 1,1 c -0.765,3.925 -0.913,7.564 -5,9 0.276,-3.472 0.883,-6.702 2,-10 l 2,0 m -49,0 c -0.632,5.101 2.339,8.158 3,13 -4.755,-2.415 -7.778,-6.845 -9,-12 l 6,-1 m 62,3 c -1.248,0.685 -1.548,0.749 -3,1 1.248,-0.685 1.548,-0.749 3,-1 m -76,3 c -2.297,-0.674 -2.774,-0.965 -4,-3 2.739,0.211 3.422,0.303 4,3 m -13,-3 0,4 c -2.035,-1.226 -2.326,-1.703 -3,-4 l 3,0 z"
     id="path32"
     inkscape:connector-curvature="0" />
  <path
     style="fill:#363636;stroke:none"
     d="m 342.95487,200.60816 c 1.012,2.373 1.622,4.449 2,7 -2.661,-1.878 -3.177,-3.963 -2,-7 z"
     id="path34"
     inkscape:connector-curvature="0" />
  <path
     style="fill:#fafafa;stroke:none"
     d="m 149.95487,200.60816 0,6 -3,0 0,-6 3,0 m 44,4 c -1.778,6.331 -6.64,9.423 -13,10 2.732,-4.26 8.436,-7.91 13,-10 m -129,1 c 7.122,8.49 13.358,19.888 15,31 -10.208,-6.083 -15.602,-19.938 -17,-31 l 2,0 m 102,2 c -1.001,1.924 -1.078,2.099 -3,3 0.482,-2.364 0.636,-2.518 3,-3 m -123,10 c -6.202,-0.618 -17.703,-4.592 -21,-10 6.452,0.41 18.697,3.276 21,10 m 51,-9 4,6 c -3.811,-0.916 -5.828,-2.199 -7,-6 l 3,0 m 76,11 -7,0 0,-3 c 3.048,0.277 5.12,0.526 7,3 m 44,24 c -0.035,8.291 -2.402,19.029 1,26 -25.637,-0.3 -43.6,-26.553 -66,-34.732 -9.265,-3.383 -24.912,-2.055 -31,-11.268 11.315,0.234 25.07,-2.463 36,-0.536 10.121,1.784 16.789,7.053 26,10.674 11.075,4.354 22.728,6.345 34,9.862 m -146,-4 c -9.059,-0.076 -24.79,-3.137 -28,-13 4.462,0.107 7.857,1.529 12,3 2.135,-12.287 14.917,4.281 16,10 m 34,16 c -5.97,-3.278 -11.095,-15.314 -12,-22 7.844,2.398 11.912,14.472 12,22 m 127,-11 c 4.03,5.342 11.486,5.713 15.353,10.505 6.209,7.697 -12.662,9.419 -16.353,9.495 l -1,-20 2,0 m -146,17 c -5.449,-0.297 -14.821,-3.398 -18,-8 5.227,0.285 15.246,3.498 18,8 z"
     id="path36"
     inkscape:connector-curvature="0" />
  <path
     style="fill:#363636;stroke:none"
     d="m 202.95487,255.60816 c -0.684,1.58 -0.805,1.777 -2,3 l 0,-3 2,0 m 116,2 0,6 c 2,-2.105 3.237,-3.18 6,-4 -1.474,16.883 -13.389,25.469 -21,39 -2.675,-0.9 -3.881,-2.04 -2.512,-5.019 3.164,-6.884 9.752,-11.903 12.743,-18.981 2.627,-6.212 -0.912,-11.987 4.769,-17 m -114,0 0,4 c -0.71,-1.76 -0.71,-2.24 0,-4 z"
     id="path38"
     inkscape:connector-curvature="0" />
  <path
     style="fill:#fafafa;stroke:none"
     d="m 98.95487,261.60816 c -4.073,2.779 -8.358,1.366 -13,1 3.226,-4.237 8.621,-2.64 13,-1 z"
     id="path40"
     inkscape:connector-curvature="0" />
  <path
     style="fill:#363636;stroke:none"
     d="m 210.95487,261.60816 1,4 c -1.656,-1.404 -1.751,-1.954 -1,-4 z"
     id="path42"
     inkscape:connector-curvature="0" />
  <path
     style="fill:#fafafa;stroke:none"
     d="m 109.95487,283.60816 c -1.074,3.931 -3.096,5.885 -7,7 0.334,-2.512 1.146,-4.62 2,-7 l 5,0 z"
     id="path44"
     inkscape:connector-curvature="0" />
  <path
     style="fill:#363636;stroke:none"
     d="m 252.95487,293.60816 c -2.905,2.524 -5.292,2.925 -9,2 2.889,-1.731 5.661,-1.929 9,-2 m 44,40 c -5.224,-4.493 -6.817,-11.603 -12.17,-16.38 -5.089,-4.542 -12.315,-3.22 -13.83,-10.62 13.605,2.011 22.975,14.227 26,27 m -28,-22 c -3.041,0.9 -5.831,0.992 -9,1 2.303,-3.539 5.605,-3.031 9,-1 m -26,-1 c -4.394,6.238 -10.357,13.946 -16,19 0.264,-8.001 8.076,-17.553 16,-19 m 48,23 c -4.744,-4.455 -10.96,-12.304 -14,-18 7.868,2.066 13.739,9.935 14,18 m -46,-18 c -2.558,5.249 -7.71,8.725 -10.432,14 -2.124,4.117 -1.478,8.216 -5.568,11 0.028,-9.932 5.689,-22.106 16,-25 m 33,14 c -3.737,-1.475 -7.246,-3.064 -10,-6 4.882,-1.078 8.47,1.258 10,6 m -14,-4 c -0.715,5.821 -0.833,9.353 6,9 -0.597,2.421 -1.433,4.057 -3,6 -5.017,-5.103 -4.629,-8.643 -7,-15 l 4,0 z"
     id="path46"
     inkscape:connector-curvature="0" />
  <path
     style="fill:#fafafa;stroke:none"
     d="m 311.95487,327.60816 1,1 0,2 c -2.364,-0.482 -2.518,-0.636 -3,-3 l 2,0 m 18,6 c -2.547,-1.373 -3.188,-2.218 -4,-5 2.964,0.968 3.503,1.934 4,5 z"
     id="path48"
     inkscape:connector-curvature="0" />
  <path
     style="fill:#363636;stroke:none"
     d="m 214.95487,328.60816 0,3 -3,0 0,-3 3,0 m 62,7 c -3.107,-1.078 -4.483,-2.082 -6,-5 3.326,0.814 4.906,1.71 6,5 m -51,-3 0,6 -3,0 c 0.094,-2.205 0.356,-3.894 1,-6 l 2,0 z"
     id="path50"
     inkscape:connector-curvature="0" />
  <path
     style="fill:#fafafa;stroke:none"
     d="m 323.95487,340.60816 c -4.222,-0.695 -6.723,-2.92 -8,-7 3.989,1.087 6.226,3.308 8,7 z"
     id="path52"
     inkscape:connector-curvature="0" />
  <path
     style="fill:#363636;stroke:none"
     d="m 247.95487,338.60816 c -0.497,3.066 -1.036,4.032 -4,5 l 0,-5 4,0 m -5,1 0,8 c -1.768,-2.585 -1.928,-4.884 -2,-8 l 2,0 m 22,1 c -0.968,2.964 -1.934,3.503 -5,4 l 0,-4 5,0 m 8,2 0,2 -5,0 c 0.753,4.801 7.881,10.681 0,12 -1.278,-5.163 -2.409,-8.577 -2,-14 l 7,0 z"
     id="path54"
     inkscape:connector-curvature="0" />
  <path
     style="fill:#fafafa;stroke:none"
     d="m 327.95487,355.60816 c -10.935,-6.609 -1.088,-16.416 -0.059,-5.024 l 0.059,5.024 z"
     id="path56"
     inkscape:connector-curvature="0" />
  <path
     style="fill:#363636;stroke:none"
     d="m 253.95487,347.60816 c -0.899,2.124 -0.876,2.101 -3,3 0.899,-2.124 0.876,-2.101 3,-3 m -33,1 0,5 c -3.29,-1.094 -4.186,-2.674 -5,-6 l 5,1 m 14,7 c 4.239,7.152 9.023,10.643 16,15 -6.949,4.247 -16.755,-8.844 -18,-15 l 2,0 m 83,10 c -3.795,-0.827 -4.696,-2.171 -5,-6 3.237,1.353 4.412,2.517 5,6 m -31,-6 c -0.925,3.24 -1.988,4.495 -5,6 0.965,-3.012 2.377,-4.238 5,-6 z"
     id="path58"
     inkscape:connector-curvature="0" />
  <path
     style="fill:#fafafa;stroke:none"
     d="m 264.95487,468.60816 c 1.222,-1.733 2.009,-2.151 4,-3 -1.277,-1.985 -1.981,-2.85 -4,-4 -0.8,-8.87 -4.157,-13.093 0,-22 6.672,2.914 11.516,6.233 19,6 l 0,-3 c -15.355,-0.054 -16.16,-22.689 -25.827,-31.4 -2.661,-2.397 -5.229,-6.279 -9.212,-6.08 -27.39,1.369 -19.209,27.851 -17.907,46.48 0.293,4.192 4.14,11.431 0.918,15.243 -2.934,3.471 -9.627,-1.216 -12.968,-1.908 -10.895,-2.257 -35.408,-7.11 -39.004,-19.335 5.942,1.125 21.189,4.81 23,11 l 5,0 c -1.556,-2.85 -2.793,-3.503 -6,-4 l 0,-7 -6,0 0,-3 -4,0 c 0.65,-1.3 0.147,-1 2,-1 l -4,-1 2,-3 c -4.824,-0.142 -9.133,-1.946 -14,-2 1.769,-0.779 3.036,-0.912 5,-1 -2.265,-3.065 -5.684,-3.892 -8.031,-6.58 -5.67,-6.497 -10.356,-20.236 -20.969,-18.42 5.979,8.459 12.532,17.706 17,27 -11.486,-1.773 -19.728,-22.718 -24.956,-32 -2.077,-3.688 -5.661,-10.706 -0.881,-13.697 14.78,-9.248 42.113,-4.247 58.837,-5.393 27.566,-1.887 55.347,-0.585 83,-0.914 29.973,-0.356 58.694,-1.364 87.852,7.322 5.209,1.552 2.18,10.139 0.599,13.512 -4.353,9.283 -10.859,14.285 -16.69,22.34 -2.524,3.487 -3.29,7.873 -6.01,11.21 -18.585,22.8 -59.599,31.839 -87.751,29.62 z"
     id="path60"
     inkscape:connector-curvature="0" />
  <path
     style="fill:#363636;stroke:none"
     d="m 354.95487,393.60816 c -2.613,1.098 -5.165,0.993 -8,1 2.748,-2.075 4.728,-1.935 8,-1 m -157,-1 c -1.104,2.357 -1.956,3.376 -4,5 l 1,-5 3,0 m 154,4 c -2.332,0.985 -4.457,0.981 -7,1 2.332,-0.985 4.457,-0.981 7,-1 m -198.667,0.333 c 0.445,0.445 -0.611,0.389 -0.666,0.334 -0.445,-0.445 0.611,-0.389 0.666,-0.334 m 213.667,1.667 c -1.506,0.683 -2.315,0.826 -4,1 1.506,-0.683 2.315,-0.826 4,-1 m -210,0 0,2 -5,0 0,-2 5,0 m 1,4 0,2 -6,0 0,-2 6,0 m 189,1 c -2.052,0.874 -3.747,0.953 -6,1 2.052,-0.874 3.747,-0.953 6,-1 m -188,2 0,2 -6,0 0,-2 6,0 m 172,9 c 0.986,1.478 1,1.203 1,3 -3.363,0.625 -6.578,0.972 -10,1 2.839,-1.379 5.571,-1.884 8,-4 l -4,0 1,-5 c 2.671,0.55 10.346,3.666 4,5 m 26,-3 c -2.052,0.874 -3.747,0.953 -6,1 2.052,-0.874 3.747,-0.953 6,-1 z"
     id="path62"
     inkscape:connector-curvature="0" />
  <path
     style="fill:#fafafa;stroke:none"
     d="m 244.95487,412.60816 c 3.358,11.359 1,26.167 1,38 0,26.806 -0.083,53.308 -1.91,80 -2.148,31.353 2.731,63.602 2.731,95 0,17.679 -2.457,35.469 -2.821,53 l -2,0 c 0,-67.411 -4,-134.557 -4,-202 0,-15.408 -1.814,-30.655 -1.996,-46 -0.103,-8.633 -0.352,-14.897 8.996,-18 z"
     id="path64"
     inkscape:connector-curvature="0" />
  <path
     style="fill:#363636;stroke:none"
     d="m 341.95487,414.60816 c -1.506,0.683 -2.315,0.826 -4,1 1.506,-0.683 2.315,-0.826 4,-1 m 10,3 c -2.052,0.874 -3.747,0.953 -6,1 2.052,-0.874 3.747,-0.953 6,-1 m -22,3 c 0.959,9.293 -4.882,10.651 -13,11 1.821,-2.409 4.683,-3.083 7,-5 -4.7,0.873 -9.231,1 -14,1 l 0,-2 c 6.317,0 11.93,-0.076 18,-2 -4.344,-1.194 -8.539,-0.092 -13,0 3.819,-2.893 10.25,-2.625 15,-3 m 22,1 c -1.769,0.779 -3.036,0.912 -5,1 1.769,-0.779 3.036,-0.912 5,-1 z"
     id="path66"
     inkscape:connector-curvature="0" />
  <path
     style="fill:#fafafa;stroke:none"
     d="m 253.95487,423.60816 0,7 c -1.059,-2.534 -1.059,-4.466 0,-7 z"
     id="path68"
     inkscape:connector-curvature="0" />
  <path
     style="fill:#363636;stroke:none"
     d="m 342.95487,425.60816 c -1.969,1.063 -3.798,1.532 -6,2 1.734,-2.003 3.355,-1.923 6,-2 m -252,3 c -1.038,5.366 -4.336,9.571 -7.414,14 l -6.405,8.996 c -1.329,1.665 -16.674,14.412 -15.26,5.154 0.464,-3.033 5.745,-5.895 7.754,-7.996 5.703,-5.959 12.202,-21.32 21.325,-20.154 m 254,0 c -2.804,2.125 -5.533,1.988 -9,2 2.804,-2.125 5.534,-1.988 9,-2 m -142,0 0,2 -2,0 0,-2 2,0 m 132,3 c -1.623,4.91 -8.214,6.484 -13,7 2.37,-3.126 5.986,-4.753 8,-8 l 5,1 m -22,-1 c -1.769,0.779 -3.036,0.912 -5,1 1.769,-0.779 3.036,-0.912 5,-1 z"
     id="path70"
     inkscape:connector-curvature="0" />
  <path
     style="fill:#fafafa;stroke:none"
     d="m 253.95487,432.60816 c 2.216,5.334 1.016,10.361 1,16 -1.682,-4.009 -2.582,-11.946 -1,-16 z"
     id="path72"
     inkscape:connector-curvature="0" />
  <path
     style="fill:#363636;stroke:none"
     d="m 336.95487,436.60816 c -1.769,0.779 -3.036,0.912 -5,1 1.769,-0.779 3.036,-0.912 5,-1 m -19,2 c -1.693,1.062 -3.04,1.52 -5,2 1.789,-1.422 2.706,-1.697 5,-2 m 16,2 c -2.308,1.759 -4.092,1.917 -7,2 l 0,-2 7,0 z"
     id="path74"
     inkscape:connector-curvature="0" />
  <path
     style="fill:#fafafa;stroke:none"
     d="m 169.95487,556.60816 0,-4 -2,0 c -0.035,3.914 -1.799,8.228 -1.362,12 0.46,3.968 6.764,13.202 -2.584,11.752 -5.401,-0.837 -4.597,-7.299 -11.054,-6.752 3.332,14.674 -12.543,2.697 -17.535,8.372 -4.116,4.681 6.793,9.477 2.877,13.864 -9.873,11.061 -41.743,6.865 -47.998,-6.241 -2.711,-5.68 -2.548,-22.735 -8.66,-25.859 -7.065,-3.611 -15.327,17.641 -24.656,4.354 -3.844,-5.474 0.284,-16.719 1.517,-22.49 2.597,-12.161 -5.378,-38.183 12.455,-39 0.889,4.594 2.788,7.847 7,10 0,1.797 -0.014,1.521 -1,3 l 5,0 c -2.042,1.416 -3.511,1.745 -6,2 l 0,2 4,0 -1,4 c 9.893,-2.063 10.068,-22.778 10,-31 6.406,-0.889 11.954,-5.728 18,-8 2.98,10.081 0.383,21.701 0.129,32 -0.246,9.948 1.87,20.011 1.871,30 4.792,-6.421 3.571,-14.429 4.089,-22 1.072,-15.654 2.587,-31.309 2.911,-47 5.6,-0.871 7.377,-5.473 12,-8 0.782,6.185 0.092,12.856 1.264,18.91 1.452,7.502 5.086,14.136 5.736,22.09 4.165,-4.079 2.387,-8.692 2.025,-14 -0.76,-11.128 -3.408,-22.725 -1.892,-33.91 1.031,-7.611 8.876,-14.911 11.867,-22.09 13.036,0.479 11.497,11.177 14.972,22 7.147,22.262 11.724,45.044 16.194,68 1.194,6.131 6.83,18.782 5.022,24.682 -1.309,4.27 -10.171,1.878 -13.188,1.318 z"
     id="path76"
     inkscape:connector-curvature="0" />
  <path
     style="fill:#363636;stroke:none"
     d="m 315.95487,442.60816 c -2.057,1.582 -3.387,1.826 -6,2 2.042,-1.416 3.511,-1.745 6,-2 z"
     id="path78"
     inkscape:connector-curvature="0" />
  <path
     style="fill:#fafafa;stroke:none"
     d="m 120.95487,444.60816 c -1.614,2.902 -2.808,4.067 -6,5 1.505,-3.012 2.76,-4.075 6,-5 z"
     id="path80"
     inkscape:connector-curvature="0" />
  <path
     style="fill:#363636;stroke:none"
     d="m 323.95487,447.60816 c -1.988,2.061 -3.157,2.579 -6,3 l 0,-3 6,0 m -13,0 0,4 4,0 c -2.845,7.768 -11.094,8.398 -18,7 l 1,4 -4,0 c 0.728,-3.351 1.597,-4.413 5,-5 l 0,-3 c 4.265,-0.139 6.697,-0.708 8,-5 -4.716,0.596 -9.237,0.999 -14,1 l 0,-2 18,-1 z"
     id="path82"
     inkscape:connector-curvature="0" />
  <path
     style="fill:#fafafa;stroke:none"
     d="m 168.95487,451.60816 0,8 c -1.561,-2.603 -1.862,-4.978 -2,-8 l 2,0 m 86,1 c 6.061,11.017 1.235,24.007 2.054,36 1.455,21.302 2.489,45.567 -0.537,66.961 -0.371,2.626 -2.497,4.47 -2.779,7.129 -1.356,12.757 3.597,25.105 -0.738,37.91 -5.772,-8.448 -3,-26.987 -3,-37 0,-28.316 -0.536,-56.995 2.816,-85 1.002,-8.377 -1.177,-18.065 2.184,-26 z"
     id="path84"
     inkscape:connector-curvature="0" />
  <path
     style="fill:#363636;stroke:none"
     d="m 154.95487,454.60816 1,9 c -3.285,-2.154 -4.324,-5.212 -5,-9 l 4,0 m 138,2 c -1.769,0.779 -3.036,0.912 -5,1 1.986,-1.301 2.628,-1.33 5,-1 m -77,-1 c -1.788,1.422 -2.706,1.697 -5,2 l 0,-2 5,0 m 67,1 c -1.769,0.779 -3.036,0.912 -5,1 1.769,-0.779 3.036,-0.912 5,-1 z"
     id="path86"
     inkscape:connector-curvature="0" />
  <path
     style="fill:#363636;stroke:none"
     d="m 281.95487,459.60816 c -1.986,1.301 -2.628,1.33 -5,1 1.769,-0.779 3.036,-0.912 5,-1 z"
     id="path90"
     inkscape:connector-curvature="0" />
  <path
     style="fill:#fafafa;stroke:none"
     d="m 328.95487,467.60816 1,10 -4,0 c 0.167,-3.825 0.544,-6.999 3,-10"
     id="path3055"
     inkscape:connector-curvature="0" />
  <path
     style="fill:#363636;stroke:none"
     d="m 156.95487,472.60816 c 3.29,10.403 3.004,22.211 4.285,33 1.22,10.27 4.07,20.866 4.715,31 -5.649,-1.875 -4.595,-10.839 -5.075,-16 -1.494,-16.073 -5.925,-31.908 -5.925,-48 l 2,0 z"
     id="path94"
     inkscape:connector-curvature="0" />
  <path
     style="fill:#fafafa;stroke:none"
     d="m 305.95487,483.60816 c -8.25,3.363 -24.28,-4.562 -32,-8 8.574,-3.345 24.094,4.495 32,8"
     id="path3069"
     inkscape:connector-curvature="0" />
  <path
     style="fill:#fafafa;stroke:none"
     d="m 207.95487,475.60816 c -3.486,6.029 -21.172,8.854 -28,9 4.378,-8.044 19.749,-8.977 28,-9"
     id="path3067"
     inkscape:connector-curvature="0" />
  <path
     style="fill:#fafafa;stroke:none"
     d="m 329.95487,478.60816 c 0.901,43.622 4.492,89.541 -1,133 l -3,0 0,-74 c 0,-11.33 2.059,-24.91 -0.279,-35.995 -1.43,-6.785 -9.757,-7.031 -11.721,-14.005 13.464,5.204 10.922,4.055 14,-9 l 2,0"
     id="path3065"
     inkscape:connector-curvature="0" />
  <path
     style="fill:#fafafa;stroke:none"
     d="m 341.95487,499.60816 0,30 c -3.738,-8.826 -1.805,-20.547 -3,-30 l 3,0 z"
     id="path96"
     inkscape:connector-curvature="0" />
  <path
     style="fill:#363636;stroke:none"
     d="m 130.95487,500.60816 0,14 c -4.4,-2.853 -3,-9.255 -3,-14 l 3,0 m 6,22 0,7 -3,0 c 0.107,-3.301 0.277,-5.039 3,-7 m -55,4 0,3 -2,0 0,-3 2,0 m 0,7 c -1.006,3.396 -1.522,5.782 -5,7 0.275,-3.902 1.117,-5.903 5,-7 m 57,2 0,16 -3,0 0,-16 3,0 m 17,18 1,6 -4,0 0,-6 3,0 z"
     id="path98"
     inkscape:connector-curvature="0" />
  <path
     style="fill:#fafafa;stroke:none"
     d="m 286.95487,561.60816 c -7.416,3.025 -19.167,-3.005 -27,-4 l 0,-3 c 8.882,0.263 18.312,4.854 27,7 z"
     id="path100"
     inkscape:connector-curvature="0" />
  <path
     style="fill:#363636;stroke:none"
     d="m 80.95487,555.60816 0,2 -3,0 0,-2 3,0 z"
     id="path102"
     inkscape:connector-curvature="0" />
  <path
     style="fill:#fafafa;stroke:none"
     d="m 209.95487,556.60816 c -1.248,0.685 -1.549,0.749 -3,1 1.248,-0.685 1.548,-0.749 3,-1 m -8,3 c -1.666,2.38 -3.123,2.682 -6,3 1.666,-2.38 3.123,-2.682 6,-3 z"
     id="path104"
     inkscape:connector-curvature="0" />
  <path
     style="fill:#363636;stroke:none"
     d="m 138.95487,560.60816 c 0,4.113 0.171,8.04 -1,12 -1.552,-3.697 -1,-8.017 -1,-12 l 2,0 z"
     id="path106"
     inkscape:connector-curvature="0" />
  <path
     style="fill:#363636;stroke:none"
     d="m 156.95487,561.60816 -1,4 c -0.911,-1.377 -1.404,-2.44 -2,-4 l 3,0 z"
     id="path110"
     inkscape:connector-curvature="0" />
  <path
     style="fill:#fafafa;stroke:none"
     d="m 194.95487,562.60816 c -1.543,1.267 -2.048,1.489 -4,2 1.543,-1.267 2.048,-1.489 4,-2"
     id="path3056"
     inkscape:connector-curvature="0" />
  <path
     style="fill:#fafafa;stroke:none"
     d="m 337.95487,572.60816 0,20 c -2.461,-5.851 -2,-13.696 -2,-20 l 2,0"
     id="path3052"
     inkscape:connector-curvature="0" />
  <path
     style="fill:#fafafa;stroke:none"
     d="m 153.95487,584.60816 0,3 -8,0 c 2.002,-3.089 4.464,-2.959 8,-3"
     id="path3050"
     inkscape:connector-curvature="0" />
  <path
     style="fill:#fafafa;stroke:none"
     d="m 94.95487,603.60816 c -11.007,-2.831 -13.449,-4.237 -22,5 5.495,-0.298 9.519,-3.701 15,-4 -0.588,7.401 -19.976,16.522 -26.852,14.551 -4.35,-1.247 -3.163,-7.038 -8.148,-8.551 1.571,-4.786 8.818,-7.997 13.004,-10.681 3.367,-2.158 13.065,-11.29 16.903,-10.437 2.659,0.591 4.353,4.966 6.277,6.704 2.941,2.657 5.132,3.278 5.816,7.414"
     id="path3048"
     inkscape:connector-curvature="0" />
  <path
     style="fill:#fafafa;stroke:none"
     d="m 104.95487,602.60816 c -1.769,0.779 -3.036,0.912 -5,1 1.769,-0.779 3.036,-0.912 5,-1"
     id="path3046"
     inkscape:connector-curvature="0" />
  <path
     style="fill:#fafafa;stroke:none"
     d="m 159.95487,604.60816 c 0.003,3.987 -0.598,7.668 3,10 -1.026,5.507 0.236,12.063 -2,17 2.297,-0.674 2.774,-0.965 4,-3 1.661,3.959 1,8.737 1,13 -5.527,0 -3.274,7.529 -3,11 -4.213,-0.903 -5.88,-8.003 -6,-12 -0.363,-12.055 -2,-23.846 -2,-36 l 5,0"
     id="path3044"
     inkscape:connector-curvature="0" />
  <path
     style="fill:#fafafa;stroke:none"
     d="m 119.95487,604.60816 c -3.432,1.44 -7.3,1 -11,1 3.432,-1.44 7.3,-1 11,-1"
     id="path3042"
     inkscape:connector-curvature="0" />
  <path
     style="fill:#fafafa;stroke:none"
     d="m 126.95487,605.60816 c -4.858,3.461 -11.299,2.942 -17,4 6.73,1.985 13.151,-0.943 20,-1 l 0,5 -5,1 c 1.801,0.562 3.122,0.824 5,1 -3.634,4.795 -13.357,4.884 -19,5 6.3,1.845 12.802,-0.396 19,-2 -5.531,6.873 -20.869,6.651 -29,7 4.134,1.188 7.782,0.333 12,0 l 0,2 c -8.671,1.199 -12.742,8.032 -20,12.066 -5.162,2.869 -17.085,4.864 -23,4.934 1.822,-6.352 8.196,-8.204 12.141,-13.093 8.798,-10.904 10.868,-25.905 25.859,-25.907 -2.527,1.092 -5.302,1.349 -8,2 8.427,2.317 18.421,-1.322 27,-2 z"
     id="path112"
     inkscape:connector-curvature="0" />
  <path
     style="fill:#363636;stroke:none"
     d="m 67.95487,606.60816 c -0.784,4.677 -3.816,7.077 -8,9 l 3,-9 5,0 m 37,4 c -1.769,0.779 -3.036,0.912 -5,1 1.769,-0.779 3.036,-0.912 5,-1 z"
     id="path114"
     inkscape:connector-curvature="0" />
  <path
     style="fill:#fafafa;stroke:none"
     d="m 48.95487,612.60816 c 1.13,1.4 2.218,2.416 3,4 l -5,0 c 0.511,-1.952 0.733,-2.457 2,-4 z"
     id="path116"
     inkscape:connector-curvature="0" />
  <path
     style="fill:#363636;stroke:none"
     d="m 109.95487,613.60816 c -4.193,1.759 -9.463,1.158 -14,2 3.887,-2.944 9.284,-2 14,-2 z"
     id="path118"
     inkscape:connector-curvature="0" />
  <path
     style="fill:#fafafa;stroke:none"
     d="m 334.95487,620.60816 c -0.485,6.455 -4.279,12.371 -4.896,19 -1.169,12.578 1.309,24.612 1.857,37 0.447,10.119 -2.079,20.01 -1.832,30 0.26,10.522 3.544,21.499 4.871,32 4.783,0.381 5.745,2.393 6,7 3.069,0.723 6.032,1.911 9,3 -4.366,4.72 -18.336,3.664 -21.973,-2.228 -1.972,-3.196 -1.922,-9.104 -2.012,-12.772 -0.51,-20.788 2.077,-41.342 1.984,-62 -0.028,-6.216 -3.669,-12.07 -3.414,-18 0.473,-10.996 2.415,-21.759 2.415,-33 3.027,0.956 4.938,0.619 8,0 m -13,33 0,2 -3,0 0,-2 3,0 m -13,0 c -2.251,1.088 -4.535,1.519 -7,2 2.418,0.722 4.472,0.948 7,1 -3.122,2.377 -7.14,2.512 -11,3 l 2,-6 9,0 m -113,5 c -5.77,-1.194 -11.053,-2.95 -17,-3 l 0,-2 c 5.246,0.225 15.122,-0.657 17,5 m 57,12 c 0,12.082 -0.051,23.979 -1,36 -6.327,-6.753 -3.47,-27.643 -1,-36 l 2,0 m -92,7 c 1.331,5.592 1,11.283 1,17 -1.823,-4.342 -2.823,-12.615 -1,-17 m 0,31 c 3.248,10.408 1.001,20.336 1,31 l -21,-1 c 1.909,-6.527 9.707,-1.395 12.94,-6.218 4.615,-6.885 1.873,-16.612 7.06,-23.782 m 95,65 -2,0 c -0.81,-2.729 -0.979,-5.15 -1,-8 -4.488,2.499 -1.359,7.846 -4.599,9.824 -3.369,2.058 -4.265,-4.008 -4.641,-5.825 -1.284,-6.213 -1.546,-14.696 1.804,-20.565 2.109,-3.693 5.572,-1.364 6.613,1.625 2.455,7.049 5.99,15.606 3.823,22.941 m -16,-5 0,5 -3,0 0,-5 3,0 z"
     id="path120"
     inkscape:connector-curvature="0" />
</svg>
