<?xml version="1.0" encoding="UTF-8" standalone="no"?>
<svg
   xmlns:dc="http://purl.org/dc/elements/1.1/"
   xmlns:cc="http://creativecommons.org/ns#"
   xmlns:rdf="http://www.w3.org/1999/02/22-rdf-syntax-ns#"
   xmlns:svg="http://www.w3.org/2000/svg"
   xmlns="http://www.w3.org/2000/svg"
   xmlns:sodipodi="http://sodipodi.sourceforge.net/DTD/sodipodi-0.dtd"
   xmlns:inkscape="http://www.inkscape.org/namespaces/inkscape"
   width="1406.3473"
   height="1207.9469"
   id="svg2"
   version="1.1"
   inkscape:version="0.48.4 r9939"
   sodipodi:docname="rabin.svg">
  <metadata
     id="metadata72">
    <rdf:RDF>
      <cc:Work
         rdf:about="">
        <dc:format>image/svg+xml</dc:format>
        <dc:type
           rdf:resource="http://purl.org/dc/dcmitype/StillImage" />
      </cc:Work>
    </rdf:RDF>
  </metadata>
  <defs
     id="defs70" />
  <sodipodi:namedview
     pagecolor="#ffffff"
     bordercolor="#666666"
     borderopacity="1"
     objecttolerance="10"
     gridtolerance="10"
     guidetolerance="10"
     inkscape:pageopacity="0"
     inkscape:pageshadow="2"
     inkscape:window-width="1871"
     inkscape:window-height="1056"
     id="namedview68"
     showgrid="false"
     inkscape:zoom="0.57031248"
     inkscape:cx="755.50977"
     inkscape:cy="991.8768"
     inkscape:window-x="49"
     inkscape:window-y="24"
     inkscape:window-maximized="1"
     inkscape:current-layer="svg2" />
  <path
     style="fill:#a06056;stroke:none"
     d="m 812.79378,3.2175165e-5 c -3.33797,-0.0024484352 -6.6725,0.134675004835 -10,0.468750004835 -6.52,0.65490002 -12.54,3.53105002 -19,4.53125002 -69.85,10.8124998 -136.41425,39.2137498 -186.28125,90.4687498 -22.662,23.292998 -43.05225,55.987498 -55.90625,85.812498 -4.302,9.981 -1.7655,23.77075 -7.3125,32.84375 -5.931,9.7 -20.37875,6.89975 -25.46875,16.21875 -3.449,6.315 -1.5295,16.0235 -2.1875,22.9375 -1.55,16.285 -2.0975,32.669 -2.8125,49 -0.394,9.011 0.88775,19.228 -1.53125,28 -4.874,17.671 -29.80675,21.605 -43.21875,29.25 -6.75,3.847 -15.51425,5.495 -15.15625,14.75 0.445,11.503 4.2835,20.3725 7.4375,31.1875 2.614,8.965 2.96125,19.2355 6.65625,27.8125 5.426,12.597 20.02525,26.965 30.03125,36.25 10.378,9.629 26.01625,9.101 34.15625,21.75 11.694,18.173 15.5685,45.428 20.0625,66 4.208,19.263 13.42875,37.369 16.96875,57 l 9.71875,53 c 0.919,5.462 4.51925,13.62 1.53125,18.875 -5.062,8.905 -21.496,10.81975 -30.25,13.84375 -25.959,8.968 -52.7045,17.021 -78.4375,26.5 -48.102,17.719 -96.053,37.03175 -145,52.84375 -21.339,6.893 -43.415,12.36725 -64,21.90625 -29.914,13.863 -59.483,28.61875 -89,43.46875 -11.947,6.01 -26.68,16.7925 -40,18.5625 -4.279,7.356 -20.622,11.8535 -28,16.6875 -24.205,15.859 -45.788,36.2675 -69,53.5625 -7.396,5.52 -23.7552499,14.51 -26.40624989,23.75 -1.193,4.17 0.69524999,9.8 1.28124999,14 1.731,12.42 5.08275,24.59005 6.84375,36.99992 6.6119999,46.62 14.7549999,94.12 24.8749999,140 2.76,12.51 5.903,25.25 7.375,38 0.571,4.9501 0.925,13.9513 5.5,17.0313 6.802,4.58 16.78125,3.9688 24.53125,3.9687 l 47,0 185,0 c 135.453,0 271.703,1.5763 407,-1.8437 3.47,-0.09 6.5,1.8113 10,1.7813 72.57,-0.55 145.42,1.8324 218,0.062 8.22,-0.21 17.92,0.1313 26,-1.2187 4.91,-0.83 8.83,-4.2538 14,-4.3437 4.65,-0.08 8.43125,3.2012 13.03125,3.5312 8,0.57 14.33877,-2.4588 21.96867,-2.9688 l 0,3 286,1 74,0 c 6.9801,0 21.6763,2.7863 27.4063,-1.5937 8.17,-6.26 4.5938,-24.2562 4.5937,-33.4063 l 0,-97 c 0,-125.00987 2.6801,-250.02592 1,-374.99992 -0.1,-6.857 -2.9399,-13.071 -3,-20 -14.41,-6.116 -32.46,-4.06625 -48,-6.28125 -10.17,-1.45 -19.8699,-6.28275 -30,-6.71875 l 0,-3 c -19.2699,-0.827 -32.71,-21.419 -51,-22 l 0,-3 c -22.7799,-3.067 -43.93,-11.85625 -66,-17.53125 -23.47,-6.034 -49.2399,-9.16775 -72,-16.71875 -10.2799,-3.413 -21.47,-11.029 -30,-17.625 -2.7899,-2.155 -7,-5.13925 -7.25,-9.03125 -0.2999,-4.744 6.0276,-9.042 8.6876,-12.25 6.2799,-7.562 14.5037,-17.79475 18.3437,-26.84375 4.83,-11.349 3.4825,-25.953 4.3125,-38 0.6,-8.786 3.2025,-17.282 3.8125,-26 0.52,-7.404 -1.3238,-17.1535 2.4063,-23.9375 6.2999,-11.477 26.4274,2.2245 29.6874,-11.0625 -6.0599,-3.726 -21.71,-11.705 -21.5,-20 0.27,-10.87 17.825,-19.99575 19.375,-31.09375 6.4201,-46.225 -0.5625,-95.06425 -6.0624,-140.90625 -2.8801,-23.969 -20.2275,-36.5605 -33.9376,-54.5625 -22.0599,-28.991 -46.2075,-56.3295 -69.4374,-84.4375 -11.2101,-13.576599 -21.3976,-32.847848 -35.4376,-43.530848 -18.4199,-14.012 -41.90867,-22.4795 -61.71867,-34.3125 -13.22,-7.89 -27.4225,-20.8335498 -42.3125,-24.9062498 -21.71,-5.93810003 -49.50875,-3.9829 -71.96875,-4.25 -9.945,-0.1182 -19.98609,-1.2739047 -30,-1.281250024835 z M 517.79378,374.37503 c 2.32746,0.009 4.6325,0.59375 5.96875,2.5 1.863,2.656 1.03125,7.34725 1.03125,10.40625 0,8.466 2.44025,21.4755 -2.21875,28.9375 -3.19,5.108 -10.52375,7.0715 -10.46875,14.0625 0.052,6.512 9.598,29.4895 0.625,32.3125 -4.372,1.376 -9.9585,-3.45775 -13.9375,-4.84375 -19.965,-6.955 -17.053,-21.84075 -21.125,-39.46875 -1.983,-8.585 -6.3735,-17.7975 -3.1875,-26.8125 1.902,-5.379 6.5135,-5.71025 11.3125,-7.03125 9.497,-2.614 18.331,-7.651 28,-9.625 1.19475,-0.24412 2.60352,-0.44304 4,-0.4375 z"
     id="path4"
     inkscape:connector-curvature="0" />
  <path
     style="fill:#393034;stroke:none"
     d="m 1015.799,122.28648 c -14.7,0.052 -6.06,15.222 -13.67,23.678 -6.12999,6.809 -21.58999,-3.506 -24.88999,9.337 -1.1,4.277 1.55,7.192 2.84,10.985 1.16,3.441 0.22,7.165 1.48,10.576 2.29,6.143 6.71,10.727 8.03,17.385 1.09,5.493 -2.87,12.827 0.24,17.76 2.62,4.163 7.98,1.916 11.48999,4.401 3.23,2.279 13.36,17.006 6.37,19.142 -3.4,1.039 -10.75999,-2.261 -14.88999,-2.264 -3.32,6.998 -5,11.033 -5,19 15.47999,2.009 11.95,16.621 9,29 l -2,-4 c -2.8,4.043 -4.73,8.05 -5,13 l -4,1 c 0.82,3.798 0.31,6.374 -1,10 -0.81,-2.729 -0.98,-5.15 -1,-8 -6.44,0.076 -14.69,3.741 -10,11 -5.14,1.09 -6.98,4.041 -5,9 -3.75,0.769 -7.13,1.888 -11,2 -5.14,-18.765 -23.44,4.928 -10,6 l 0,2 c -11.13,0.879 -21.74,3.993 -33,4 1.93,-4.933 7.85,-7.591 6,-13 l 7,0 c -12.23,-11.235 -33.05,-17.374 -36,-36 -8.36,0.069 -17.16,2.006 -24.99,-2.303 -2.52,-1.392 -7.17,-8.329 -10.41,-6.521 -2.63,1.467 -1.23,6.592 -0.79,8.824 1.34,6.774 14.27,25.218 0.18,26.641 l -7.99,-0.641 c -0.62,11.414 -8.6,13.804 -17,19 0.46,6.095 3.81,10.938 4,17 -7.3,1.498 -12.85,3.002 -15,-6 -8.63,-1.803 -14.81,-6.924 -24,-7 -0.56,3.025 -0.94,5.922 -1,9 17.43,4.623 24.69,13.623 31,30 6.76,-1.462 5.4,-9.25 12,-11.436 11.48,-3.798 25.97,-2.449 38,-3.738 10.48,-1.122 20.31,-4.797 31,-4.826 -11.23,7.742 -32.5,8.321 -35,24 17.01,-0.047 32.82,-6.003 48.13,-12.769 7.79,-3.44 16.86,-10.762 25.83,-10.054 7.13,0.562 8.55,10.177 8.04,15.823 6.17,2.935 11.64,5.778 17,10 -2.43,2.824 -3.26,4.85 -1,8 -1.8,0 -1.52,0.014 -3,1 3.92,7.839 -2.77,23.893 -11.51,26.438 -2.78,0.807 -6.58,-1.231 -9.49,-1.438 -0.96,4.7 -1.93,7.518 0.17,12.089 1.86,4.027 7,8.898 4.47,13.647 -1.67,3.133 -5.76,3.861 -8.38,5.938 -2.84,2.255 -4.59,5.811 -8.26,6.976 -3.63,1.153 -7.29,-1.475 -11,-1.256 -10.98,0.646 -21.34,0.834 -32,4.32 -7.69,2.516 -12.03,11.799 -19.09,13.386 -5.02,1.129 -12.01,-2.949 -16.91,-4.1 1.19,-1.186 1.53,-1.584 2,-3 l -4,-1 c 0,9.356 -1.58,16.741 -8.45,23.611 -3.15,3.147 -12.11,4.904 -12.55,8.389 l -4,1 c 3.71,1.032 8.05,-0.908 12,-1 -4.43,1.674 -7.58,3.246 -9,8 -5.71,-0.872 -7.3,11.058 -8,16 -13.18,0 -6.14,9.523 -11,16 10.84,4.963 9.11,-5.804 16.06,-9.427 5.68,-2.96 13.76,-0.574 19.94,-0.573 0.31,2.447 0.8,3.834 2,6 l -15,6 1,10 -4,-1 c -1.24,6.647 -2.28,12.258 -2,19 -3.99,0.541 -7.57,0.913 -9,5 -9.44,0.753 -3.03,12.397 -14,13 l 4,-1 0,-2 c -5.63,-1.585 -6.57,-7.452 -11.27,-9.377 -3.16,-1.292 -5.9,1.412 -8.82,2.079 -11.22,2.563 -16.81,3.907 -18.91,16.298 2.95,0 2.96,6.218 4.33,9 4.26,8.652 5.67,19.271 5.67,29 0,2.984 0.9,7.586 -1.83,9.667 -3,2.28 -11.27,-6.693 -14.5,-8.167 -4.22,-1.924 -7.1,1.054 -10.67,2.5 l 2,-4 c -2.24,-1.094 -3.4,-1.592 -4,-4 -2.36,0.482 -2.52,0.636 -3,3 -11.11,-0.229 -38.72,-13.899 -42,2 l -5,-1 c 2.84,-13.244 -15.816,-8.042 -24,-10.185 -5.352,-1.402 -9.513,-5.892 -15,-6.671 -9.845,-1.397 -12.613,5.656 -21,7.553 -12.468,2.82 -30.815,-8.776 -35.562,10.303 -2.851,11.456 19.864,13.905 27.562,13.996 9.707,0.116 22.375,0.051 31.714,-2.466 9.59,-2.584 21.357,-8.042 31.285,-8.342 4.61,-0.139 12.581,7.537 10.691,12.513 -0.98,2.606 -5.521,3.815 -7.69,5.203 -5.875,3.758 -11.189,7.285 -16.269,12.054 -6.151,5.772 -14.619,11.707 -22.731,14.158 -10.872,3.284 -21.658,6.884 -33,6.884 l 0,6 c 10.992,5.36 17.384,19.918 26.313,27.4 4.977,4.171 20.139,9.183 26.687,9.6 1.525,5.212 8.405,3.763 12.588,6.176 9.522,5.489 15.822,8.551 23.032,16.37 2.67,2.889 6.55,3.61 8.49,7.454 1.86,3.681 5.22,17.719 3.14,20.935 -3.34,5.141 -8.2,3.046 -13.1,4.283 -4,1.01 -9.07,4.267 -13.15,5.926 -5.71,2.319 -6.721,8.303 -12,10.967 -3.367,1.699 -7.311,0.367 -10.866,1.088 -4.26,0.864 -7.414,4.695 -12.074,4.468 -3.508,-0.171 -6.257,-2.093 -10,-1.584 -3.939,0.536 -6.003,4.346 -10.06,4.834 -9.914,1.192 -14.373,-9.037 -20.005,-15.051 -11.678,-12.474 -22.161,-28.549 -29.472,-43.926 -3.327,-6.998 -3.672,-14.336 -8.041,-21.074 -4.024,-6.205 -8.009,-24.931 -17.482,-23.528 -14.551,2.155 -26.992,14.355 -40,20.528 -24.217,11.492 -48.081,19.381 -74,26.24 -6.874,1.82 -13.827,0.993 -20.741,3.274 -22.562,7.441 -43.648,18.693 -66.259,26.361 -34.602,11.734 -70.919,18.605 -105,32.805 -15.518,6.466 -29.61,15.261 -45,22.107 -10.848,4.825 -23.101,6.958 -34,12.546 -12.29,6.301 -23.69,14.511 -36.06,20.607 -28.691,14.138 -54.236998,31.607 -80.073998,50.703 -11.401,8.426 -26.47,16.431 -34.435,28.551 -23.008,35 -6.607,78.83992 -1.584,115.93992 1.587,11.72 -0.271,24.18 0.172,36 0.988,26.42 3.385,50.53 10.087,76 2.309,8.78 2.03,30.18 10.311,35.78 5.906,4 20.63,1.22 27.583,1.22 l 70.999998,0 c 62.039,0 123.931,1.43 186,1 8.203,-0.06 15.689,-3.06 24,-3 18.425,0.14 37.319,3 56,3 l 172,-1 c 39.153,0 79.804,2.22 118,-2 -0.02,-6.93 -3.87,-14.42 -0.58,-21 5.6,-11.23 20.93,-19.48 21.51,-33.04 0.29,-6.81 -3.41,-13.28 -3.88,-19.97 -1.06,-15.24 0.27,-30.62 -1.22,-45.99 -1.63,-16.86 -6.58,-33.1 -7.74,-50 -0.49,-7.22 1.85,-13.85 1.91,-21 -3.38,0.55 -6.7,5 -9.91,4.26 -13.383,-3.09 -1.89,-31.38992 -15.09,-34.25992 -0.545,-23.27 -11.092,-46.19 -15.231,-69 -1.035,-5.703 0.623,-11.259 -0.055,-17 -1.42,-12.042 -5.959,-23.172 -8.428,-35 -1.924,-9.211 -1.286,-19.137 -4.286,-28 -3.539,5.87 -3,13.37 -3,20 -3.184,-10.671 -6.029,-26.067 -4,-37 8.259,3.5 15.261,3.357 19,13 0.683,-1.506 0.826,-2.315 1,-4 l 3,0 0,5 c 8.497,-6.983 19.84,2.507 26.04,9.17 17.34,18.657 23.75,45.578 44.54,61.585 6.89,5.31 16.49,4.835 24.42,8.106 2.58,1.064 7.39,2.303 8.26,5.364 1.16,4.053 -4.35,9.648 -6.47,12.685 l -24.88,34.07 c -2.35,3.45 -6.47,6.45 -10.7,3.99 -7.96,-4.62 -7.8,-18.52 -11.92,-25.98 -13.13,-23.733 -28.58,-46.873 -39.29,-71.99 -2.673,7.471 2.877,19.369 5.994,26.17 6.486,14.14 11.436,28.715 18.306,42.83 3.19,6.56 4.94,16.45 12.7,19 0.21,7.1 4,11.8 6.89,18 5.06,10.83 12.04,23.63 19.82,32.90992 3.38,4.02 7.95,6.39 11.22,10.67 4.45,5.81 6.39,13.41 11.07,19.42 1.33,-1.61 2.38,-2.7 4,-4 -1.05,1.86 -1.51,2.94 -2,5 18.98,-13.78 -18.18,-37.17992 -20.33,-51.99992 -1,-6.88 5.58,-13.38 12.32,-10.96 7.23,2.59 14.13,11.83 18.78,17.64 6.07,7.59 10.06,18.07992 19.23,22.31992 l -1,2 c 1.66,0.41 2.24,0.31 4,0 5.67,15.39 -16,22.19 -25.66,26.6 -3.68,1.68 -3.84,5.2 -8.34,5.4 l -1,4 -2,-1 c -1.46,2.43 -2.29,3.18 -5,4 1.34,1.28 2.4,2.03 4,3 l -3,1 1,4 c -3.42,0.62 0.83,5.24 2.13,7 6.09,8.25 8.91,17.21 13.35,26.26 14.02,28.61 23.01,57.63 40.17,84.74 4.4,6.96 5.71,15.52 11.9,21.5 6.08,5.89 24.43,2.5 32.45,2.5 l 91,-1 c 0.89,-2.85 7.11,-22.29 -0.63,-19.34 -6.24,2.38 -6.18,11.11 -14.37,13.34 -3.58,-18.99 -7.2,-37.94 -10.32,-57 -1.24,-7.56 -5.32,-17.97 -2.35,-25.58 1.8,-4.61 6.25,-15.23 10.2,-18.19 3.47,-2.59 9.7,0.29 11.96,-3.55 5.14,-8.76 -4.78,-31.31 9.51,-34.32 4.47,-0.94 10.35,0.64 15,0.64 -0.21,-10.4 -4.82,-18.46 -7.44,-28.04 -1.69,-6.16 -1.28,-12.77 -2.69,-18.96 -2.1,-9.14 -5.82,-16.70992 -6.87,-25.99992 -0.68,1.25 -0.75,1.55 -1,3 -0.47,-2.75 -0.2,-5.21 0,-8 l 8,2 c -2.1,21.52992 14.55,33.07992 25.97999,48.29992 5.24,6.97 8.89,15.28 13.69,22.53 2.72,4.11 7.18,7.53 8.78,12.34 1.47,4.41 0.21,9.31 1.55,13.83 4.21,-0.49 11,-5.08 14.81,-3.6 7.46,2.9 3.6,18.78 2.9,24.6 -1.27,10.63 -3.88,22.33 -8.7,32 -6.21,12.46 -14.98,24.66 -15.01,39 -0.01,5.62 -4.81,27.62 2.15,29.68 10.12,3.01 24.29,0.08 34.85,0.33 27.96,0.69 55.97,0.99 84,0.99 l 260,0 c 0,-109.17 -3.22,-218.95992 -0.95,-327.99992 0.32,-14.949 2.95,-29.839 2.95,-45 l 0,-99 c 0,-9.498 3.84,-29.635 -1.03,-37.852 -2.71,-4.575 -12.29,-3.788 -16.97,-4.223 -15.46,-1.438 -26.73,-1.822 -41,-8.524 -62.22,-29.211 -128.31,-51.047 -195.09,-67.558 -23.37,-5.778 -42.31,-1.666 -61.33,-19.757 -2.77,-2.626 -8.24,-4.674 -9.62,-8.412 -2.9,-7.9 9.33,-10.891 12.98,-14.887 3.6,-3.938 5.44,-12.675 7.06,-17.787 -5.09,1.655 -9.61,2.955 -15,3 0.88,-4.55 2.37,-9.328 1.81,-14 -0.61,-5.076 -4.33,-9.699 -1.65,-14.83 1.39,-2.64 5.29,-7.574 8.65,-7.268 3.39,0.309 4.76,4.2 8.68,2.235 4.96,-2.491 14.42,-19.295 16.69,-24.576 7.35,-17.073 -0.24,-36.846 9.39,-53.513 4.23,-7.317 16.45,0.455 18.77,-5.327 1.72,-4.312 -6.01,-8.162 -7.45,-11.76 -2.16,-5.447 0.11,-13.163 0.11,-18.961 5.69,-1.897 4.5,-7.057 5.7,-12 2.87,-11.744 9.24,-21.876 9.3,-34 0.23,-46.729 -16.45,-88.476 -22,-134 -11.84,-3.962 -6.15,-12.291 -8.6,-20.985 -1.19,-4.22 -5.16,-9.265 -7.51,-13.015 -10.04,-16.04 -21.09,-32.838 -34.98,-45.867 -3.07,-2.88 -7.31,-3.795 -10.32,-6.632 -6.77,-6.4 -11,-15.312 -18.59,-21.006 -5.69,-4.266 -20.32,-17.337 -27.85,-14.659 -5.55,1.971 -6.11,14.374 -6.15,19.164 z"
     id="path6"
     inkscape:connector-curvature="0" />
  <path
     style="fill:#faf8f7;stroke:none"
     d="m 628.79901,137.28648 c -1.842,-7.844 -11.83,-7.127 -18,-7 -2.919,5.065 -7.238,8.013 -9,14 l 2,-1 c -1.828,4.047 -3.597,7.522 -4,12 l 10,1 c -2.532,4.593 -6.555,7.645 -9,12 8.856,-0.001 16.264,-0.479 25,1 l 0,10 c -8.046,0 -19.988,-2.315 -26,4 7.41,1.759 14.458,0.005 22,2 -3.549,6.825 -11.219,5.095 -17,9 0.663,3.488 0.326,6.496 0,10 l 9,0 0,2 c -3.935,0.047 -6.657,-0.046 -8,4 6.904,-0.005 14.277,-0.399 21,-2 0.261,-8.501 14.421,-7.535 14.593,0.157 0.112,5.043 -9.613,4.698 -10.593,10.843 -4.734,1.113 -9.077,2.611 -14,3 2.179,1.727 4.302,2.273 7,3 -1.273,2.004 -2.172,3.777 -3,6 -10.211,-2.214 -10.034,6.14 -18.001,8.637 -5.309,1.665 -11.154,-1.718 -16.999,-0.637 l -1,-9 -5,-1 c -1.486,5.026 -0.947,9.899 0,15 -1.434,-1.393 -2.045,-2.233 -3,-4 -3.724,8.981 5.021,8.123 11,8 0.052,2.528 0.278,4.582 1,7 -3.367,0.71 -6.896,-1.134 -9.92,-0.272 -7.338,2.091 -15.268,10.011 -20.08,15.272 4.697,2.497 9.841,1.813 15,2.039 9.034,0.396 22.255,5.586 30.714,1.701 7.483,-3.436 9.128,-10.842 15.496,-14.561 2.939,-1.716 6.39,-0.562 9.451,-1.693 6.014,-2.223 14.266,-13.331 14.339,-19.486 5.101,-1.437 8.668,-5.469 13.17,-8.12 9.555,-5.627 21.508,-11.767 31.83,-15.88 -0.598,-1.196 -0.466,-0.977 -2,-2 4.653,-1.108 11.423,0.5 15.566,-1.603 5.134,-2.607 1.634,-8.697 -2.566,-9.397 0.892,-1.938 1.402,-2.519 3,-4 -2.244,-2.116 -3.931,-2.667 -7,-3 4.153,-3.103 8.18,-4.351 13,-6 -1.29,-3.205 -2.6,-3.732 -6,-4 0.902,-7.128 4.37,-12.243 6,-19 l -6,-2 c 1.41,-3.209 1.36,-5.539 1,-9 9.72,-1.967 11.37,-10.963 7.34,-19.003 -3.72,-7.406 -19.426,-20.13 -27.499,-21.7 -5.13,-0.997 -22.251,1.145 -26.332,4.556 -10.992,9.19 -11.763,19.147 -28.509,19.147 z"
     id="path8"
     inkscape:connector-curvature="0" />
  <path
     style="fill:#393034;stroke:none"
     d="m 842.79901,189.28648 0,5 3,0 c 1.01,6.163 11.69,12.777 17.18,7.396 4.57,-4.481 3.32,-12.747 -3.18,-14.117 -2.23,-0.47 -4.74,-0.353 -7,-0.189 -3.39,0.247 -6.68,1.225 -10,1.91 z"
     id="path10"
     inkscape:connector-curvature="0" />
  <path
     style="fill:#faf8f7;stroke:none"
     d="m 581.79901,207.28648 c -6.851,3.674 -9.926,5.802 -10,14 2.88,0.784 5.937,3.441 9.01,2.929 10.016,-1.668 4.781,-12.337 0.99,-16.929 z"
     id="path12"
     inkscape:connector-curvature="0" />
  <path
     style="fill:#393034;stroke:none"
     d="m 876.79901,221.28648 5.01,-0.109 c 15.71,-1.893 -12.66,-20.232 -7.86,-5.977 l 2.85,6.086 z"
     id="path14"
     inkscape:connector-curvature="0" />
  <path
     style="fill:#faf8f7;stroke:none"
     d="m 707.79901,222.28648 c -1.1,13.958 -15.02,23.872 -25.997,31.749 -2.88,2.067 -5.408,6.123 -9.092,6.648 -7.336,1.044 -15.95,-3.714 -22.818,-2.064 -3.919,0.942 -5.445,5.421 -9.133,6.925 -3.409,1.391 -7.528,0.471 -9.78,4.086 -1.971,3.164 -0.504,7.238 -0.269,10.656 0.808,11.809 7.166,28.772 21.695,15.487 3.096,-2.831 3.462,-7.485 4.933,-11.201 1.824,-4.605 0.839,-8.501 0.461,-13.286 l 12,1 c 4.597,-7.798 9.172,6.379 15.834,2.982 8.62,-4.394 13.374,-13.215 20.376,-19.274 4.81,-4.159 11.58,-5.289 16.69,-8.967 3.15,-2.272 4.15,-5.744 6.74,-8.424 3.42,-3.549 13.89,-0.263 13.53,-7.228 -0.19,-3.63 -4.36,-4.068 -7.17,-4.034 -10.67,0.129 -17.1,-5.055 -28,-5.055 z"
     id="path16"
     inkscape:connector-curvature="0" />
  <path
     style="fill:#393034;stroke:none"
     d="m 852.79901,232.28648 c 3.18,15.215 13,29.8 29,32 l -1,3 c 2.71,0.991 5.13,1.713 8,2 -3.89,-14.024 -13.45,-15.388 -22.35,-24.51 -4.99,-5.112 -5.73,-10.612 -13.65,-12.49 m -69,26 c 0.65,1.3 0.15,1 2,1 -4.64,1.005 -9.3,-0.618 -14,0.228 -3.79,0.683 -22.19,10.995 -11,13.28 3.96,0.808 5.79,-3.302 9.05,-4.615 7.28,-2.932 15.58,-2.192 22.95,-5.893 -2.75,-2.126 -5.61,-3.273 -9,-4 m 134,17 c -2.16,3.062 -8.38,6.373 -9.5,9.541 -1.14,3.206 6.3,9.981 9.37,9.538 4.08,-0.588 6.12,-6.709 10.14,-8.181 5,-1.825 13.27,0.825 18.99,0.102 l 1,-6 c -6.32,-1.384 -8.04,-8.594 -13.2,-9.623 -6.41,-1.282 -9.54,7.233 -16.8,4.623 m -245,75 c 2.957,-0.996 6.613,-4.033 9.857,-3.069 4.017,1.193 3.136,6.798 5.846,9.327 3.39,3.163 16.817,2.601 21.107,1.42 8.19,-2.253 12.51,-19.418 17.69,-25.469 4.67,-5.468 11,-6.914 17.2,-9.629 4.09,-1.791 6.99,-5.271 11.3,-6.916 9.05,-3.453 18.82,-1.057 28,0.34 3.21,0.488 22.35,9.94 22.36,3.021 0.01,-4.189 -7.31,-7.67 -10.37,-9.342 -12.8,-6.989 -25.49,-10.432 -39.99,-10.292 -8.72,0.084 -18.96,-8.093 -27,-7.362 -3.72,0.338 -6.65,4.155 -10.29,5.157 -24.576,6.766 -45.692,26.264 -45.71,52.814 m -117,-4 c 3.565,0.269 5.256,0.832 7,4 11.491,-0.104 14.784,-14.01 27,-15.79 13.342,-1.945 16.625,7.826 28,10.356 5.465,1.216 10.71,-2.744 16,-3.566 -0.002,-17.452 -16.168,-26.41 -30.996,-30.876 -5.344,-1.609 -9.935,-4.226 -15.718,-2.654 -14.696,3.993 -28.019,24.416 -31.286,38.53 z"
     id="path18"
     inkscape:connector-curvature="0" />
  <path
     style="fill:#faf8f7;stroke:none"
     d="m 655.79901,331.28648 c -3.061,1.512 -7.594,-0.124 -10.258,2.028 -4.227,3.416 -4.631,21.602 -4.742,26.972 l 14,-1 c 1.03,-8.147 4.251,-20.252 1,-28 z"
     id="path20"
     inkscape:connector-curvature="0" />
  <path
     style="fill:#a06056;stroke:none"
     d="m 965.79901,342.28648 c 3.09,1.548 7.44,3.145 6,7 4.33,2.297 16.61,6.838 18.39,11.147 1.67,4.033 -4.8,11.208 -1.73,13.81 2.86,2.434 6.98,-1.341 9.14,-2.956 5.46999,-4.085 13.36999,-2.652 14.40999,-11.002 1.27,-10.157 -10.23,-24.844 -20.20999,-26.334 -3.99,-0.596 -7.2,2.465 -11,3.11 -5.99,1.019 -10.64,0.231 -15,5.225 m 131.99999,-9 c 1.95,6.089 11.97,13.325 18,15 -0.33,-11.173 -7.8,-14.972 -18,-15 m -60,48 c 2.81,0.426 3.95,1.035 6,3 7.75,-6.073 3.01,-13.881 8.09,-20.686 2.05,-2.741 5.88,-2.501 8.28,-4.828 2.54,-2.474 3.28,-6.397 6.1,-8.628 4.92,-3.892 13.82,-7.542 19.53,-10.858 l 0,-2 c -10.55,-3.029 -20.33,4.75 -28.25,10.487 -4.31,3.126 -10.09,-0.378 -14.24,2.541 -6.87,4.827 -5.51,23.626 -5.51,30.972 z"
     id="path22"
     inkscape:connector-curvature="0" />
  <path
     style="fill:#393034;stroke:none"
     d="m 725.79901,361.28648 c 3.81,-0.1 8.34,-1.746 12,-0.436 10.69,3.821 15.55,12.819 28.9,9.118 3.49,-0.97 5.01,-4.933 8.1,-6.682 0,-6.107 0.23,-11.946 1,-18 l -4,2 c -0.9,-2.91 -2.74,-5.226 -4,-8 -4.08,0.047 -8.27,2.251 -12.17,1.837 -3.45,-0.367 -6.34,-3.735 -9.83,-3.264 -8.35,1.128 -19.98,16.047 -20,23.427 m 60,-16 c 1.5,9.664 18.22,18.529 26.77,12.146 6.25,-4.667 -0.19,-11.281 -5.77,-12.013 l -8,-0.133 -13,0 m -279,24 c -13.241,-3.877 -24.888,7.621 -38,8 5.823,-18.562 33.261,-8.873 43,-24 -11.74,-3.47 -29.361,2.925 -38.561,10.519 -4.804,3.965 -7.39,9.797 -11.895,13.908 -2.682,2.448 -7.515,1.855 -9.515,4.891 -3.505,5.318 2.432,14.189 8.762,12.025 3.686,-1.26 5.465,-6.3 8.469,-8.629 4.257,-3.3 9.804,-3.883 14.736,-5.688 7.04,-2.576 19.251,-3.84 23.004,-11.026 m 65,-14 c 2.286,9.011 -0.856,16.14 6.616,23.852 7.829,8.082 19.969,-1.934 20.384,-10.852 l 5,0 c 0.72,4.648 4.143,6.904 6,11 3.691,-0.089 23.85,-6.744 16.381,-12.972 -3.411,-2.845 -12.941,-3.476 -17.377,-4.777 -5.302,-1.555 -9.65,-5.228 -15.004,-6.638 -7.067,-1.862 -14.885,-0.175 -22,0.387 z"
     id="path24"
     inkscape:connector-curvature="0" />
  <path
     style="fill:#a06056;stroke:none"
     d="m 1101.799,462.28648 c 12.44,-0.369 11.36,-9.811 13.36,-19.116 3.7,-17.171 6,-35.312 5.64,-52.884 -5.51,5.885 -4.39,19.227 -5,27 -9.06,-0.295 -10.55,-7.308 -12.21,-15 -2.48,-11.498 1.4,-36.336 -9.66,-42.883 -15.86,-9.383 -8.31,14.214 -16.19,17.275 -9.11,3.538 -11.14,-16.359 -19.37,-4.091 -4.13,6.147 3.45,11.664 6.82,15.869 4.02,5.022 2.42,12.456 7.32,16.642 6.84,5.849 20.02,3.907 24.2,13.207 2.25,4.997 -0.74,9.062 -0.29,13.981 0.83,9.009 2.66,21.297 5.38,30 z"
     id="path26"
     inkscape:connector-curvature="0" />
  <path
     style="fill:#393034;stroke:none"
     d="m 668.79901,361.28648 c -2.294,2.63 -7.017,4.017 -8.392,7.221 -2.428,5.655 3.35,15.353 4.779,20.779 1.714,6.508 1.56,13.566 3.787,20 5.004,14.463 13.228,27.432 18.027,42 2.335,7.091 10.022,30.208 21.479,27.172 7.98,-2.114 -3.1,-21.801 -4.84,-25.172 -5.125,-9.911 -14.395,-19.686 -18.152,-30 -1.019,-2.798 -3.076,-8.818 -1.567,-11.606 2.193,-4.052 10.824,-5.821 14.879,-7.394 -2.218,-8.205 -8.67,-18.517 -15.259,-23.945 -3.788,-3.121 -9.254,-3.883 -12.138,-8.11 -2.243,-3.288 -1.127,-7.428 -2.603,-10.945 z"
     id="path28"
     inkscape:connector-curvature="0" />
  <path
     style="fill:#faf8f7;stroke:none"
     d="m 632.80001,383.10548 c -7.12,2.588 -6.533,7.886 -7.885,14.181 -2.879,13.399 -9.619,27.535 -10.982,40.996 -0.475,4.69 3.344,13.508 9.523,11.306 6.259,-2.23 2.4,-17.978 3.602,-23.213 3.202,-13.947 15.157,-22.885 19.138,-36.258 2.431,-8.169 -8.155,-8.918 -13.396,-7.012 z"
     id="path30"
     inkscape:connector-curvature="0" />
  <path
     style="fill:#a06056;stroke:none"
     d="m 1012.799,410.28648 c -1.32,7.453 3.13,11.082 3.89,18 0.86,7.798 -2.16,15.107 -1.89,23 -1.62,-1.64 -3.04,-2.794 -5,-4 1.27,6.94 -1.42,13.188 -0.83,19.999 0.5,5.74 8.39,19.506 12.31,23.812 1.55,1.699 3.39,2.991 5.52,3.845 15.54,6.217 14.2,-11.693 18.63,-21.656 2.08,-4.685 8.16,-8.917 8.26,-14.015 0.09,-4.756 -0.68,-19.024 -3.49,-22.725 -9.04,-11.902 -21,-9.467 -22.4,-27.26 -2.71,-0.823 -3.54,-1.567 -5,-4 -3.85,1.184 -5.9,4.336 -10,5 z"
     id="path32"
     inkscape:connector-curvature="0" />
  <path
     style="fill:#faf8f7;stroke:none"
     d="m 531.79901,454.28648 c 4.434,-1.24 6.465,-5.266 10,-8 -0.696,-3.39 -1.779,-6.522 -2,-10 -9.737,1.968 -10.995,9.783 -8,18 m 229,-15 -1.81,5.289 c -3.2,9.525 9.06,3.72 13.37,5.86 3.69,1.836 5.32,8.036 10.27,6.228 1.75,-0.638 2.99,-2.095 4.34,-3.307 11.12,-10.048 -2.84,-14.907 -13.17,-15.065 -4.41,-0.068 -8.64,0.651 -13,0.995 m 49.33,4.066 c -5.42,3.381 3.32,7.965 7.05,4.911 4.14,-3.392 -4.11,-6.741 -7.05,-4.911 m -255.33,40.934 c 7.141,-0.065 10.289,-3.178 15.982,-7.064 l 10.036,-8.102 c 4.282,-3.006 17.437,-15.496 3.967,-15.687 -10.836,-0.153 -21.507,3.535 -30.985,8.304 -3.904,1.964 -9.969,3.078 -10.534,8.456 -0.467,4.443 10.065,8.001 11.534,14.093 m 50,-2 c 9.817,-10e-4 22.533,-3.832 26.437,-14.001 1.189,-3.098 2.712,-8.556 -0.04,-11.257 -2.233,-2.19 -6.531,-1.885 -9.397,-1.688 -14.634,1.004 -18.534,14.81 -17,26.946 z"
     id="path34"
     inkscape:connector-curvature="0" />
  <path
     style="fill:#393034;stroke:none"
     d="m 632.79901,507.28648 c -0.924,7.091 -11.891,2.733 -11.508,10.015 0.404,7.661 11.811,8.658 17.508,9.546 10.519,1.639 17.354,-3.032 27.039,-4.418 9.058,-1.295 18.776,1.857 27.961,1.857 2.652,-4.401 12.1,-6.221 12.25,-11.956 0.15,-5.776 -8.797,-0.911 -11.647,-3.651 -3.153,-3.03 -1.939,-8.526 -5.888,-11.423 -8.429,-6.183 -27.196,-7.894 -36.715,-3.398 -7.02,3.315 -12.016,9.824 -19,13.428 z"
     id="path36"
     inkscape:connector-curvature="0" />
  <path
     style="fill:#faf8f7;stroke:none"
     d="m 588.79901,493.28648 c -10.87,4.079 -35.687,15.084 -26.297,31.682 3.009,5.319 9.68,2.139 11.297,10.318 4.868,0.811 9.222,2.667 11,8 1.376,4.127 -2.339,7.415 -4,7 -3.449,10.767 -2,19.881 -2,31 0,4.344 -1.165,10.737 0.603,14.786 1.76,4.031 7.77,6.204 10.397,10.214 16.069,-9.513 27.989,-16.816 47,-16 -1.035,-4.151 -2.954,-6.542 -7,-8 2.585,-12.317 5.046,-23.068 4.594,-36 -0.143,-4.087 1.619,-10.192 -3.703,-11.682 -8.334,-2.333 -11.808,6.007 -18.891,7.682 -0.854,-6.724 -2.059,-17.453 -6.434,-22.826 -3.802,-4.671 -10.514,-7.001 -13.542,-12.344 -2.339,-4.127 -1.206,-9.537 -3.024,-13.83 z"
     id="path38"
     inkscape:connector-curvature="0" />
  <path
     style="fill:#a06056;stroke:none"
     d="m 861.79901,505.28648 0,10 7,0 c 1.6,-5.182 7.52,-7.857 11,-12 -1.43,-2.009 -2.55,-3.579 -3,-6 -7.15,-0.927 -8.32,6.922 -15,8 m 186.99999,46 c -0.8,-4.98 -4.5,-7.417 -7.83,-10.964 l -6.63,-7.462 c -4.59,-4.058 -11.8,-3.78 -12.42,3.441 -1.1,13 13.68,37.42 29.59,32.456 10.25,-3.198 5.3,-15.56 -2.71,-17.471 z"
     id="path40"
     inkscape:connector-curvature="0" />
  <path
     style="fill:#faf8f7;stroke:none"
     d="m 653.79901,559.28648 c 0.695,-1.64 1.472,-3.224 1.722,-5.01 2.441,-17.451 -18.476,1.516 -1.722,5.01 m -4,5 c -5.255,5.756 -6.999,7.978 -7,16 2.249,1.154 2.846,1.751 4,4 10.784,-0.597 6.404,-12.548 5,-20 l -2,0 z"
     id="path42"
     inkscape:connector-curvature="0" />
  <path
     style="fill:#a06056;stroke:none"
     d="m 866.79901,577.28648 12,-2 c 0.72,3.456 1.6,4.929 5,6 l 0,4 c -3.94,0.48 -15.22,2.357 -16,6 -1.48,-0.986 -1.2,-1 -3,-1 l 0,4 c -3.88,-0.125 -6.07,-0.502 -8,-4 -5.15,-0.469 -8.22,-3.684 -13,-5 l 1,2 c -2.26,-0.035 -2.9,0.115 -5,1 -1.16,-2.114 -14.52,-4.977 -18,-6 -2.74,6.201 -11.56,13.26 -18.66,8.218 -3.49,-2.479 -3.82,-7.347 -6.75,-10.298 -2.7,-2.726 -10.05,-4.853 -12.5,-0.617 -3.38,5.835 8.85,14.098 8.11,20.697 -1.79,16.036 -9.42,36.805 -5.74,53 1.6,7.033 6.73,10.888 9.76,17.015 2.5,5.054 6.35,13.659 10.58,17.367 2.72,2.377 6.97,0.433 10.2,1.758 5.28,2.16 7.97,7.501 13.02,9.771 2.64,1.189 7.25,0.662 8.85,3.523 2.31,4.126 -3.49,14.062 -2.74,19.477 0.94,6.746 8.11,10.284 10.87,16.089 15.24,0 21.33,-6.048 33,-14 0.39,-4.021 3.16,-6.266 4.35,-10.015 1.2,-3.813 0.05,-7.892 1.87,-11.561 5.55,-11.113 17.85,-20.035 26.17,-29.003 5.4,-5.817 13.37,-8.218 15.61,-16.421 -7.09,0.492 -10.6,5.997 -15.72,10.291 -3.14,2.638 -7.11,3.652 -10.15,6.39 -6.05,5.444 -12.58,14.488 -20.46,17.422 -4.36,1.626 -11.83,-2.003 -16.67,-2.103 1.21,-1.866 1.75,-2.838 2,-5 6.06,-2.221 17.01,-9.528 16.93,-17 -0.05,-4.484 -3.59,-7.095 -2.12,-11.996 1.58,-5.299 6.96,-8.172 8.68,-13.29 2.39,-7.124 1.13,-21.295 -5.96,-25.574 -3.09,-1.863 -8.01,-1.486 -11.53,-2.14 7.39,-9.414 12.91,-21.091 23,-28 -1.56,-5.027 -6.26,-10.104 -3,-15 -6.81,-10.213 -28.94,-9.872 -26,6 m 180.99999,71 c -8.43,20.049 -12.31,41.041 -21.19,61 -4.23,9.495 -10.96,17.195 -15.99,26.089 -11.87999,21.04 -23.44999,42.884 -38.97999,61.626 -5.65,6.818 -13.07,12.175 -18.67,18.78 -9.59,11.328 -19.13,22.977 -29.91,32.946 -3.61,3.331 -7.16,9.836 -12.26,10.559 0.34,11.59 15.45,23.585 22.84,32 20.38,23.176 44.1,46.29 61.21,72 5.45999,8.2 11.19999,15.79 17.73999,23.17 2.43,2.73 5.59,7.6 9.99,5.99 3.68,-1.35 3.02,-6.07 3.4,-9.16 0.99,-7.99 2.47,-15.91 2.82,-24 1.64,0.55 1.45,0.36 2,2 5.12,-12.21 2.58,-28.97 5,-42 5.86,15.64 -1,39.29 -1,56 5.08,-12.1 4,-32.86 4,-46 1.64,0.55 1.45,0.36 2,2 7.13,-13.42 -6.62,-45.381 12,-52 l 1,9 c 0.68,-1.248 0.75,-1.548 1,-3 10.72,-0.934 21.21,-5.057 32,-5.907 7.32,-0.577 14.6,1.359 22,0.817 7.4,-0.543 14.47,-3.175 22,-2.87 8.85,0.359 16.94,3.167 26,2.945 l 64,-1 c 7.71,-0.189 15.24,-2.371 23,-1.942 16,0.885 30.86,0.576 47,-1.328 5.24,-0.618 12.75,0.887 15,-4.715 -19.22,-6.507 -43.86,-1.711 -64,-3.09 -14.42,-0.987 -27.94,-6.919 -42,-7.856 -8.38,-0.558 -14.98,5.107 -23,4.736 -10.08,-0.465 -20.84,-5.469 -30.83,-3.527 -26.81,5.213 -48.98,5.389 -74.34,-5.903 -6.23,-2.772 -15.47,-2.089 -19.55,-8.493 -7.26,-11.39 -1.57,-34.765 -2.32,-47.867 -0.55,-9.462 -7.97,-17.78 -8.97,-27 -1.15,-10.717 2.24,-21.497 2.96,-32 0.98,-14.376 -1.72,-28.681 -0.74,-43 1.02,-15.107 11.07,-34.041 4.79,-49 z"
     id="path44"
     inkscape:connector-curvature="0" />
  <path
     style="fill:#faf8f7;stroke:none"
     d="m 857.79901,700.14048 c -5.81,2.293 -11.17,8.268 -13.08,14.147 -1.09,3.348 -1.75,11.006 4.06,9.202 5.66,-1.758 19.85,-14.001 22.1,-19.647 2.49,-6.219 -10.17,-4.85 -13.08,-3.702 z"
     id="path46"
     inkscape:connector-curvature="0" />
  <path
     style="fill:#a06056;stroke:none"
     d="m 745.79901,721.28648 c 1.06,7.791 5.59,12.341 9.19,19 1.78,3.307 0.85,7.667 2.84,10.686 2.76,4.199 11.52,4.277 15.97,4.314 1,-5.396 -1.74,-10.591 -0.81,-15.486 0.59,-3.116 4.09,-5.609 1.78,-9.005 -2.77,-4.058 -23.96,-9.36 -28.97,-9.509 z"
     id="path48"
     inkscape:connector-curvature="0" />
  <path
     style="fill:#393034;stroke:none"
     d="m 1002.799,770.28648 c -4.35999,1.397 -5.35999,5.285 -8.33999,8.486 -6.64,7.16 -16.64,14.082 -17.66,24.514 -8.12,4.367 -19.47,16.13 -19,26 -4.17,2.558 -16.08,12.525 -16,17 8.75,-7.261 19.7,-10.67 26.79,-20.09 6.72,-8.921 10.62,-19.668 17.01,-28.74 3.96,-5.631 9.94,-8.016 14.06,-13.214 4.29999,-5.406 7.02999,-13.334 13.13999,-16.956 l -1,4 c 5.55,-1.9 7.32,-5.946 11,-10 -0.93,-2.205 -2.81,-4.785 -2,-7 -7.62,-2.856 -16.96,9.401 -18,16 z"
     id="path50"
     inkscape:connector-curvature="0" />
  <path
     style="fill:#a06056;stroke:none"
     d="m 745.90901,759.85948 c -6.39,2.028 -4.28,14.106 -1.22,18.279 3.16,4.302 9.7,3.257 14.11,1.623 17.78,-6.59 -1.46,-23.529 -12.89,-19.902 z"
     id="path52"
     inkscape:connector-curvature="0" />
  <path
     style="fill:#faf8f7;stroke:none"
     d="m 692.79901,834.28648 c 3.047,24.091 16.87,44.595 27,66 8.01,-2.265 6.44,-14.038 3.71,-20 -6.2,-13.57 -12.68,-43.59 -30.71,-46 z"
     id="path54"
     inkscape:connector-curvature="0" />
  <path
     style="fill:#a06056;stroke:none"
     d="m 1074.799,900.28648 c 2.88,13.061 5.53,12.992 16.96,18.299 4.37,2.031 8.6,5.751 13.65,2.522 5.11,-3.268 8.35,-16.087 3.24,-20.258 -4.45,-3.634 -14.28,-4.715 -19.85,-4.459 -4.91,0.226 -9.52,2.026 -14,3.896 z"
     id="path56"
     inkscape:connector-curvature="0" />
  <path
     style="fill:#faf8f7;stroke:none"
     d="m 745.79901,942.28648 c 3.53,20.78 14.22,0.71 18,-9 -6.91,1.43 -10.43,8.05 -18,9 z"
     id="path58"
     inkscape:connector-curvature="0" />
  <path
     style="fill:#a06056;stroke:none"
     d="m 678.79901,954.28648 c 0,10.47 3.29,16.45 7,26 l 2,0 c 1.967,-6.84 -1.873,-23.2 -9,-26 m 154,44 c 10.49,-1.96 18.77,-13.67 11.97,-24.77 -1.82,-2.98 -6.77,-4.15 -8.94,-0.91 -2.47,3.67 -0.8,10.48 -1.08,14.68 l -1.95,11 m -12,132.99992 c 11.24,-39.43 20,-81.8 20,-123 -9.45,1.6 -8.3,27.73 -11.46,36 -2.89,7.55 -5.98,14.82 -11.71,20.71 -4.91,5.06 -13.7,10.5 -16.89,16.73 -4.59,8.95 0.85,27.64 5.55,35.56 3.66,6.17 6.65,13.11 14.51,14 z"
     id="path60"
     inkscape:connector-curvature="0" />
  <path
     style="fill:#faf8f7;stroke:none"
     d="m 725.79901,1021.2864 c 0,19.64 4.53,40.56 7.68,60 2.38,14.75 2.2,29.34 6.32,44 l 2,0 c 14.79,-28.21 7.33,-55.71 -5.88,-83 -2.97,-6.13 -4.35,-17.17 -10.12,-21 z"
     id="path62"
     inkscape:connector-curvature="0" />
  <path
     style="fill:#a06056;stroke:none"
     d="m 907.79901,1046.2864 c 1.48,7.79 6.8,14.43 11,21 1.8,0 1.52,-0.01 3,-1 2.97,6.32 8.53,7.29 15,8 0.99,-1.48 1,-1.2 1,-3 l 2,1 c 2.08,-18.03 -17.51,-27.14 -32,-26 m 17,41 c 0,9.62 3.36,16.27 9,24 2.61,-8.82 -0.28,-16.5 -5,-24 -2.01,0.6 -2.32,1.24 -4,0 z"
     id="path64"
     inkscape:connector-curvature="0" />
  <path
     style="fill:#393034;stroke:none"
     d="m 737.79901,1200.2864 70,0 c -5.37,-10.08 -11.75,-17.17 -18.59,-26 -2.54,-3.3 -4.12,-8.64 -8.5,-10.03 -5.36,-1.71 -9.61,5.13 -15.33,3.5 -5.48,-1.55 -11.32,-13.22 -17.28,-9.44 -5.34,3.39 -0.96,9.17 -1.57,13.65 -0.39,2.92 -3.44,5.51 -4.48,8.33 -2.16,5.83 -3.44,13.78 -4.25,19.99 m -7,0 c 0,-12.56 3.74,-24.6 4,-37 -1.42,0.47 -1.81,0.81 -3,2 -3.1,-2.61 -6.19,2.61 -7.97,5 -5.18,6.98 -9,14.21 -9.03,23 -0.01,2.6 -0.63,6.91 2.32,8.22 3.58,1.59 9.75,-1.14 13.68,-1.22 z"
     id="path66"
     inkscape:connector-curvature="0" />
</svg>
