<?xml version="1.0" encoding="UTF-8" standalone="no"?>
<svg
   xmlns:dc="http://purl.org/dc/elements/1.1/"
   xmlns:cc="http://creativecommons.org/ns#"
   xmlns:rdf="http://www.w3.org/1999/02/22-rdf-syntax-ns#"
   xmlns:svg="http://www.w3.org/2000/svg"
   xmlns="http://www.w3.org/2000/svg"
   xmlns:sodipodi="http://sodipodi.sourceforge.net/DTD/sodipodi-0.dtd"
   xmlns:inkscape="http://www.inkscape.org/namespaces/inkscape"
   width="565"
   height="738.52478"
   id="svg2"
   version="1.1"
   inkscape:version="0.48.4 r9939"
   sodipodi:docname="turing_smooth_mod2.svg">
  <metadata
     id="metadata14">
    <rdf:RDF>
      <cc:Work
         rdf:about="">
        <dc:format>image/svg+xml</dc:format>
        <dc:type
           rdf:resource="http://purl.org/dc/dcmitype/StillImage" />
      </cc:Work>
    </rdf:RDF>
  </metadata>
  <defs
     id="defs12" />
  <sodipodi:namedview
     pagecolor="#ffffff"
     bordercolor="#666666"
     borderopacity="1"
     objecttolerance="10"
     gridtolerance="10"
     guidetolerance="10"
     inkscape:pageopacity="0"
     inkscape:pageshadow="2"
     inkscape:window-width="457"
     inkscape:window-height="383"
     id="namedview10"
     showgrid="false"
     inkscape:zoom="0.295"
     inkscape:cx="265"
     inkscape:cy="359.58566"
     inkscape:window-x="49"
     inkscape:window-y="24"
     inkscape:window-maximized="0"
     inkscape:current-layer="svg2" />
  <path
     style="fill:#434343;stroke:none"
     d="m 0,720.93913 c 12.2107,1.535 13.5059,-2.458 20.5594,-10.726 3.2073,-3.76 8.2322,-4.831 10.8727,-9.364 4.9126,-8.434 4.107,-19.69 8.588,-27.806 6.3888,-11.57 15.9782,-11.93 15.9799,-27.104 l 3,0 c 0.304,-9.367 7.13,-9.694 12.4,-15.634 2.26,-2.547 1.793,-6.363 3.113,-9.351 2.264,-5.127 5.958,-8.316 7.487,-14.015 -2.124,-0.899 -2.101,-0.876 -3,-3 7.442,-1.528 14.335,-3.994 22,-4 -1.909,5.196 -6.835,6.37 -12,7 0.921,6.437 8.197,13.674 7.311,20 -1.188,8.481 -5.865,14.565 -8.698,22.054 -3.09,8.169 -3.84,16.924 -7.711,24.946 -3.516,7.285 -11.32,19.079 -11.711,27.09 -0.647,13.233 11,16.191 20.808,14.284 3.935,-0.765 7.327,-0.576 9.182,-4.818 5.315,-12.149 -7.331,-21.786 -4.907,-34.556 2.45,-12.906 5.99,-26.511 14.91,-35.957 3.628,-3.841 13.414,-4.02 15.172,-8.386 3.189,-7.919 -11.29,-9.55 -9.799,-17.657 2.316,-12.586 11.897,-9.395 19.338,-14.603 5.69,-3.984 9.823,-13.584 14.508,-18.991 6.992,-8.071 14.792,-18.551 20.748,-27.445 3.364,-5.023 4.158,-10.904 10.849,-11.961 1.015,8.032 3.269,20.279 -0.009,27.957 -1.882,4.407 -7.032,6.29 -8.388,11.047 -0.933,3.278 0.791,6.611 -0.166,9.906 -3.302,11.365 -12.002,20.785 -17.249,31.129 -6.791,13.392 -11.108,28.428 -18.031,41.961 -6.42,12.548 -17.217,25.377 -20.549,39.285 -1.454,6.07 7.576,11.322 11.012,15.166 2.891,3.236 5.461,9.306 9.759,10.942 6.434,2.448 15.91,-12.4 17.621,-17.393 3.864,-0.3 5.348,-1.089 6,-5 -2.123,0.307 -2.686,0.382 -4,2 -2.041,-8.357 5.404,-13.416 6,-21 l 2,0 c 0.084,7.041 3.531,9.361 10,6 -0.129,11.539 -9.744,21.585 -14.083,32 -1.866,4.477 -4.496,11.289 2.137,13.356 6.86,2.138 10.104,-11.25 12.653,-15.356 10.604,-17.081 20.605,-36.318 33.464,-51.996 12.246,-14.931 28.977,-28.276 39.655,-44.178 6.744,-10.044 6.048,-24.058 13.707,-33.807 14.831,-18.879 34.398,-34.988 50.117,-53.308 13.701,-15.969 27.873,-38.45 45.675,-50.051 5.189,-3.381 12.681,2.739 19.621,-2.348 5.909,-4.331 4.644,-11.084 9.113,-16.012 6.028,-6.648 14.772,-8.709 21.486,-14.265 14.751,-12.207 25.913,-32.844 47.027,-18.641 5,3.363 16.632,11.219 17.091,17.61 0.48,6.68 -8.779,14.59 -11.057,20.996 -10.63,29.884 -27.138,56.931 -41.562,85 -4.805,9.35 -2.936,28.158 -11.008,34.941 -4.07,3.421 -9.084,3.151 -14.036,4.179 -6.916,1.435 -13.934,4.496 -21,4.84 -7.193,0.35 -16.873,-1.883 -23.695,0.554 -6.155,2.199 -10.721,16.797 -3.116,19.783 10.297,4.042 20.935,-5.298 30.811,-6.858 13.48,-2.129 32.301,-1.14 42.657,-11.779 4.463,-4.585 2.548,-9.956 3.606,-15.57 1.26,-6.685 4.218,-13.635 6.409,-20.091 9.684,-28.531 23.391,-55.617 39.278,-80.999 4.094,-6.542 8.591,-21.272 15.159,-25.199 5.924,-3.543 16.037,9.438 20.906,12.234 5.197,2.984 11.385,3.977 16.546,7.095 14.098,8.519 27.385,19.513 44.439,20.87 -0.032,-2.875 0.208,-5.075 -2,-7 2.151,-3.531 0.305,-5.15 -3,-7 0.613,1.661 1.043,2.483 2,4 -3.448,-1.806 -7.559,-2.032 -10.83,-4.09 -6.849,-4.307 -11.631,-10.553 -19.174,-14.256 -9.545,-4.685 -21.154,-7.497 -29.978,-13.38 -5.782,-3.856 -9.576,-10.477 -15.457,-14.395 -15.025,-10.011 -30.808,-21.034 -42.381,-35.063 -7.006,-8.493 -8.281,-20.348 -13.982,-29.815 -4.351,-7.227 -16.703,-5.811 -18.764,-13.02 -2.493,-8.719 -3.3,-26.865 1.289,-34.926 2.842,-4.993 9.223,-6.905 13.093,-11.095 6.027,-6.525 12.57,-17.534 16.882,-25.219 4.388,-7.823 5.214,-17.131 7.722,-25.571 2.95,-9.926 7.597,-19.94 9.32,-30.17 2.01,-11.93 -1.764,-28.581 -12.74,-35.142 -6.4,-3.826 -17.223,-0.384 -20.411,-8.948 -2.675,-7.187 -1.256,-18.237 -1.629,-25.91 -0.378,-7.766 -2.961,-16.277 -4.285,-24 C 413.387,108.42713 395.23,66.464631 360,40.412931 c -8.382,-6.1984 -21.632,-15.0893 -32.039,-17.1343 -6.887,-1.3532 -15.106,1.5313 -21.672,-1.1574 -5.84,-2.3918 -10.809,-8.1543 -16.289,-11.4105 C 279.567,4.5111315 265.118,0.68003147 253,0.03323147 c -9.453,-0.5045 -19.742,4.87510003 -29,6.64430003 -38.811,7.4168995 -68.108,25.7445995 -94.374,54.9760995 -3.812,4.2417 -10.52,7.4546 -13.598,11.9198 -2.231,3.2369 -1.255,8.6137 -3.071,12.3657 -7.353,15.189999 -15.939,30.069999 -18.733,46.999999 -1.321,7.999 1.073,16.017 0.737,24 -0.639,15.137 -3.293,32.042 0.209,47 3.219,13.75 11.894,26.833 13.531,41 0.621,5.378 -3.513,9.826 -4.415,15.001 -1.995,11.449 -1.517,26.952 2.603,37.999 3.336,8.944 10.511,15.267 15.196,23.184 5.065,8.561 9.5,19.495 13.156,28.816 11.534,29.411 14.236,60.731 29.949,88.96 5.179,9.304 18.912,19.277 27.81,24.956 3.892,2.484 12.271,5.113 11.289,11.084 -1.093,6.645 -8.432,14.092 -11.659,20 -5.233,9.583 -9.567,21.782 -17.97,29.197 -9.11,8.04 -19.79,10.525 -30.66,14.893 -17.021,6.839 -33.752,14.603 -51,20.856 -8.346,3.026 -20.603,5.845 -27.7,10.946 -13.519,9.718 -29.92,24.23 -36.3764,40.108 -2.3587,5.801 -1.3317,13.728 -2.6921,19.985 -0.9877,4.544 -4.5444,7.565 -5.6698,12.016 -2.8201,11.154 -2.0666,23.573 -4.902,34.998 -3.5802,14.426 -14.0771,28.325 -15.6597,43.001 z"
     id="path4"
     inkscape:connector-curvature="0" />
  <path
     style="fill:#f5f5f5;stroke:none"
     d="m 131,187.93913 c -11.706,3.081 -3.623,15.619 3.093,20.411 3.396,2.423 7.936,1.863 11.241,4.479 4.657,3.685 6.955,9.519 12.705,11.966 4.583,1.95 10.108,1.084 14.961,2.159 11.996,2.659 20.638,9.543 26.721,20.024 10.717,18.462 -0.636,38.978 1.387,57.961 0.66,6.198 5.519,10.524 7.892,16 4.279,0.545 8.676,3.286 12.66,0.258 4.692,-3.566 6.676,-12.833 14.325,-12.16 4.008,0.353 11.991,7.131 15.73,9.406 5.647,3.436 11.629,-3.952 15.542,0.815 3.183,3.877 0.058,10.596 -4.428,11.973 -3.864,1.187 -7.736,-2.026 -11.829,-0.7 -15.574,5.043 -44.603,20.022 -58.956,7.104 -13.141,-11.827 -1.275,-36.158 1.101,-50.696 1.314,-8.036 4.508,-15.953 -3.864,-21.137 -8.076,-5.001 -11.364,4.975 -18.281,7.282 -7.769,2.591 -11.439,-6.501 -17.851,-5.263 -4.973,0.96 -0.938,8.546 -4.587,11.09 -12.129,8.46 -15.562,-9.67 -15.562,-16.972 -2.769,-0.218 -7.907,-1.954 -9.972,0.607 -3.012,3.734 0.067,12.361 1.111,16.393 1.805,6.973 0.82,14.089 2.241,20.996 1.005,4.889 3.97,9.035 5.02,14.004 2.23,10.556 10.356,17.855 13.546,28.015 3.573,11.377 2.982,23.665 7.242,34.985 3.889,10.338 12.111,18.354 16.469,28.184 7.551,17.035 13.165,31.913 30.092,42.571 6.636,4.178 14.934,4.504 22.251,6.685 15.212,4.534 31.727,10.333 48,5.927 10.609,-2.874 21.368,-10.812 31,-16.223 7.085,-3.981 21.884,-9.37 25.972,-16.434 2.951,-5.099 -1.316,-10.478 -0.704,-15.695 0.54,-4.606 4.523,-7.151 4.713,-12.03 0.137,-3.508 -1.806,-10.619 0.801,-13.367 6.202,-6.536 12.844,11.23 19.944,5.045 4.421,-3.852 8.11,-10.835 6.742,-16.663 -1.332,-5.668 -8.579,-13.037 -1.468,-17 l -1,-18 3,0 c -0.301,-9.252 -11.821,-7.898 -12.052,-15.957 -0.112,-3.879 5.003,-5.246 6.773,-8.176 3.485,-5.766 6.43,-14.195 7.279,-20.867 4.101,-0.003 7.964,-0.251 12,-1 -0.08,-2.701 -2.078,-7.349 -0.844,-9.737 1.197,-2.316 4.929,-2.474 5.267,-5.321 0.35,-2.949 -1.388,-6.779 -1.423,-9.942 l 3,0 c -0.613,-7.686 -6.006,-5.184 -7,1 -4.856,-0.158 -11.299,-2.809 -10.203,-8.981 0.983,-5.533 12.637,-9.659 15.81,-16.034 2.931,-5.891 -0.65,-10.525 -2.646,-15.985 -4.149,-11.355 -5.469,-23.69 -19.961,-24 -1.65,-5.297 -5.949,-5.944 -11,-6 1.182,7.436 12.059,8.583 10.637,16.985 -2.214,13.081 -19.206,5.496 -26.598,3.329 -2.436,-0.714 -9.015,-4.306 -10.176,0.004 -2.618,9.713 13.615,14.635 14.137,24.682 -6.098,0.807 -11.963,3.932 -17.985,4.672 -3.163,0.389 -5.911,-1.839 -9.054,-1.185 -5.573,1.158 -8.754,5.582 -14.957,5.479 -5.541,-0.092 -7.936,-5.677 -12.946,-6.084 -4.523,-0.367 -4.316,7.176 -7.402,9.332 -10.525,7.355 -8.751,-11.155 -8.656,-15.214 -11.216,0.815 -18.811,12.449 -17.906,22.996 0.47,5.479 7.199,16.466 -3.099,16.926 -14.019,0.627 -7.923,-31.989 -10.429,-40.907 -1.35,-4.806 -6.348,-5.37 -8.519,-9.278 -1.605,-2.889 0.303,-6.369 2.436,-8.419 5.448,-5.238 17.173,-6.693 24.003,-10.145 6.907,-3.492 12.555,-10.155 19.529,-13.242 10.703,-4.738 24.604,-4.478 35.984,-6.141 3.58,-0.523 6.553,-3.085 10.091,-3.433 8.684,-0.853 14.911,8.32 24.682,5.325 3.391,-1.039 3.036,-4.836 3.679,-7.682 2.369,-10.481 -8.708,-24.943 7.549,-25 -0.111,-13.217 -9.025,-9.688 -15.795,-18.425 -5.968,-7.703 -7.881,-17.11 -12.777,-25.151 -3.922,-6.441 -10.171,-11.692 -14.842,-17.608 -3.122,-3.956999 -6.432,-12.899999 -11.644,-14.199999 -10.861,-2.711 -29.115,12.711 -39.942,15.626999 -13.8,3.716 -29.852,7.625 -44,9.468 -5.582,0.727 -11.505,-0.568 -17,0.683 -5.554,1.265 -9.385,6.18 -15.015,7.267 -6.946,1.34 -13.907,-1.41 -20.895,-0.531 -9.903,1.244 -23.365,9.553 -29.115,17.449 -12.548,17.23 4.013,33.058 4.025,51.421 m 225,-74 c 0.86,-2.823 2.639,-5.882 2.147,-8.91 -0.783,-4.825 -9.289,-13.188999 -14.404,-9.060999 -7.819,6.308999 6.422,17.829999 12.257,17.970999 m 32,1 c -0.952,5.206 0.37,8.899 0.797,13.996 0.448,5.349 -5.26,7.766 -5.166,12.043 0.089,4.042 8.279,9.218 11.34,5.357 2.091,-2.636 0.323,-7.41 0.119,-10.396 -0.53,-7.738 3.543,-20.651 -7.09,-21 m 12,52 c 0.364,6.57 5.28,12.488 12,13 -0.026,-9.358 -2.408,-12.587 -12,-13 m -52,1 c 0,4.001 0.119,8.011 -0.281,11.996 -0.371,3.698 6.41,18.622 11.253,13.342 5.193,-5.662 -4.751,-24.325 -10.972,-25.338 m 66,38 c 1.831,-5.127 2,-9.573 2,-15 -8.366,0.661 -11.753,14.222 -2,15 m -107,23 c 2.246,3.156 5.244,3.758 9,4 -1.483,-4.218 -4.963,-3.963 -9,-4 m 116.999,4.954 c -13.532,4.261 -4.227,13.105 0.987,19.56 1.644,2.036 3.01,8.858 6.674,7.734 8.008,-2.455 3.306,-30.747 -7.661,-27.294 m -25.999,3.046 c -1.081,3.657 -1,7.199 -1,11 5.73,-1.74 5.272,-6.271 3,-11 l -2,0 m 48,16 c 10.695,-5.757 -1.431,-17.17 -0.894,-5.024 l 0.894,5.024 m -49,36 c 11.57,0.105 13.604,5.903 12.209,16 -0.5,3.622 -0.62,13.098 4.881,13.248 7.223,0.198 11.061,-17.778 17.91,-21.248 l 0,-6 c -3.816,0.093 -6.634,0.116 -8,4 -18.156,-0.594 4.418,-15.495 -0.047,-21.272 -5.282,-6.834 -13.451,6.656 -18.809,4.941 -5.006,-1.603 -3.497,-10.484 -6.488,-14.035 -4.368,-5.185 -9.878,-3.58 -9.586,3.367 0.354,8.403 7.899,12.226 7.93,20.999 z"
     id="path6"
     inkscape:connector-curvature="0" />
  <path
     style="fill:#434343;stroke:none"
     d="m 272,393.93913 c -3.602,0.765 -5.608,3.686 -9.054,4.556 -3.549,0.895 -7.321,-0.612 -10.946,-0.255 -9.111,0.896 -17.672,4.141 -27,2.359 -3.453,-0.66 -16.656,-5.025 -13.248,-10.343 3.31,-5.167 18.861,-1.949 24.248,-2.488 10.158,-1.015 20.069,-4.464 30,-5.696 5.437,-0.675 10.942,2.451 16.015,1.378 7.676,-1.625 13.868,-5.865 21.985,-6.511 l 0,-5 c -29.987,0.619 -59.054,3.918 -89,8.3 -4.846,0.709 -28.083,7.024 -23.928,14.314 1.546,2.713 5.526,3.875 7.888,5.762 3.54,2.828 5.962,7.255 10.08,9.31 11.147,5.563 27.589,-0.287 38.96,-1.267 12.662,-1.092 25.454,4.181 24,-14.419 m 175.015,67.762 c -3.848,1.001 -5.447,5.328 -9.119,6.371 -4.332,1.23 -8.19,-2.762 -11.98,1.301 -5.555,5.954 -6.084,15.836 -10.681,22.476 -3.096,4.474 -9.835,8.062 -11.591,13.18 -1.527,4.448 2.396,8.556 2.499,12.91 0.11,4.69 -4.066,8.349 -3.782,12.941 0.159,2.572 2.113,4.142 4.668,3.682 7.084,-1.272 7.828,-11.397 10.479,-16.608 4.078,-8.014 8.108,-19.073 13.975,-25.845 6.434,-7.426 16.313,-12.526 21.199,-21.34 2.364,-4.265 -0.076,-10.523 -5.667,-9.068 z"
     id="path8"
     inkscape:connector-curvature="0" />
</svg>
